<svg width="270" height="270" viewBox="0 0 270 270" fill="none" xmlns="http://www.w3.org/2000/svg">
<g clip-path="url(#clip0_371_415)">
<path d="M30.8421 149.649C46.4113 118.039 80.6635 108.587 95.8435 107.812C97.7903 107.674 111.801 112.848 114.915 110.524C118.029 108.2 137.101 104.326 141.772 105.101C145.509 105.721 144.107 110.008 142.94 112.074C140.475 114.785 137.023 120.828 142.94 123.307C148.856 125.787 160.455 115.818 165.515 110.524C177.659 105.876 176.803 112.461 174.857 116.335C170.964 123.178 162.557 138.338 160.066 144.226C157.575 150.114 164.218 150.295 167.851 149.649C175.765 152.619 184.198 169.793 154.617 214.728C125.035 259.664 69.8946 244.815 46.0221 231.773C34.4749 217.569 15.2729 181.259 30.8421 149.649Z" fill="#BEB8FF"/>
<path d="M20.4507 248.098C-31.4098 189.887 28.529 127.945 55.4426 109.398C80.9332 90.5909 133.157 52.8214 138.125 52.1988C143.094 51.5763 140.196 56.6087 138.125 59.2028C130.491 64.3909 114.447 77.024 111.341 86.0514C108.236 95.0787 125.574 80.9929 134.632 72.8216L182.377 40.1367C183.801 39.6179 184.957 39.9032 187.131 42.0822C189.305 44.2612 194.928 42.7308 196.352 42.0822C209.938 34.1703 235.325 11.1885 240.604 11.4998C245.883 11.8111 242.804 17.077 240.604 19.6711C228.441 29.2691 193.342 60.6514 198 67.4998C202.658 74.3481 226.759 55.3117 233.617 49.086C249.661 33.9107 261.91 28.4632 267.5 28.4632C273.09 28.4632 268.276 36.2454 265.171 40.1364C248.221 59.4622 245.883 66.2846 240.604 72.8216C234.005 80.9929 231.388 85.2731 231 89.1641C230.689 92.277 242.395 82.483 245.5 79.4998C252.099 71.977 265.637 62.2079 267.5 67.4998C269.363 72.7916 261.048 82.8087 254.578 89.1641L188.2 168.932C183.542 175.157 175.157 187.998 178.884 189.554C182.61 191.111 182.766 194.613 182.377 196.169C156.369 234.302 72.3111 306.308 20.4507 248.098Z" fill="#7E6BEA"/>
<path d="M137.274 115.384C128.801 109.206 146.035 92.9885 155.711 85.6521C156.103 84.6224 159.399 82.0997 169.441 80.2463C179.483 78.3929 174.933 87.454 171.402 92.2163C163.557 102.513 145.747 121.562 137.274 115.384Z" fill="#BEB8FF"/>
<path d="M187.093 104.186C178.306 106.657 182.648 97.2359 185.917 92.2163C196.273 81.4047 200.954 83.3354 202 85.6521C200.692 90.8005 195.88 101.715 187.093 104.186Z" fill="#BEB8FF"/>
<path d="M169.441 155.574C164.106 154.648 168.526 148.753 171.403 145.921C174.574 142.06 181.21 141.288 183.563 145.921C185.917 150.555 176.11 156.733 169.441 155.574Z" fill="#BEB8FF"/>
<path d="M206.624 6.67372C201.428 10.2943 192.595 17.8458 198.83 19.0872C206.624 20.6389 226.5 3.18244 206.624 6.67372Z" fill="#7E6BEA"/>
<path d="M266.247 -2.63636C253.776 2.63936 261.051 -11.0413 266.247 -18.5411C276.223 -25.9892 279.496 -24.2306 279.886 -22.4203C280.536 -18.0239 278.717 -7.91208 266.247 -2.63636Z" fill="#7E6BEA"/>
<path d="M198.83 183.953C190.102 183.022 198.31 172.186 203.505 166.885C216.91 158.195 220.003 161.971 219.874 164.945C216.496 171.669 207.559 184.884 198.83 183.953Z" fill="#7E6BEA"/>
<path d="M32.3097 152.191C26.844 159.486 24.8703 172.251 24.5667 177.722C24.3782 179.911 21.4516 183.193 20.0119 184.561C18.4937 190.64 16.3681 203.071 20.0119 204.165C24.5667 205.533 24.5667 215.563 30.0323 226.961C34.4049 236.079 43.6966 239.878 47.7958 240.638C49.6177 240.334 56.2676 241.094 68.2921 246.565C80.3166 252.036 92.4322 248.844 96.987 246.565C101.997 243.829 114.386 237.629 123.86 234.711C133.334 231.793 135.095 224.377 134.791 221.034C139.194 212.979 148 195.685 148 190.944C148 185.017 144.356 177.722 144.356 168.148C144.356 158.574 128.415 148.088 123.86 147.176C119.305 146.264 112.929 137.602 109.285 128.028C105.641 118.454 89.6994 123.013 85.1447 123.013C81.5009 123.013 67.8367 126.356 61.46 128.028C54.0206 133.043 37.7754 144.897 32.3097 152.191Z" fill="#F26C3B"/>
<path d="M99.409 192.465C94.7173 187.944 100.462 177.394 103.92 172.684C107.077 171.271 110.237 174.097 114.748 174.097C119.26 174.097 121.064 175.039 121.064 183.987V192.465C119.56 193.407 115.29 195.856 110.237 198.117C103.921 200.942 105.274 198.117 99.409 192.465Z" fill="#B53405"/>
<path d="M65.3542 199.319C64.2682 201.976 56.7567 207.386 53.1367 209.759C53.1367 220.199 65.3542 215.928 68.9741 215.928C72.5941 215.928 73.0466 208.335 73.0466 204.064C73.0466 199.793 66.7117 195.997 65.3542 199.319Z" fill="#B53405"/>
<path d="M104.48 218.204C102.589 215.882 100.285 216.821 98.8666 218.204L97.8456 219.448C97.3749 219.862 97.8623 222.35 97.8623 224.423C97.8623 226.497 100.226 225.253 104.48 226.082C108.734 226.911 106.843 221.106 104.48 218.204Z" fill="#B53405"/>
<path d="M73.4941 148.122C70.5833 140.116 78.0422 143.27 82.1356 145.848C82.4388 145.848 84.5006 146.302 90.3222 148.122C97.5993 150.397 88.0482 154.036 83.0452 157.675C78.0422 161.314 77.1326 158.13 73.4941 148.122Z" fill="#B53405"/>
<path d="M105.331 153.581C101.329 153.217 105.18 148.88 107.605 146.757C108.515 145.917 111.244 145.848 114.427 149.032C117.611 152.216 110.334 154.036 105.331 153.581Z" fill="#B53405"/>
<path d="M39.8378 177.691C36.1992 179.51 36.5025 175.416 37.1089 173.142C38.0196 171.322 41.2012 172.687 42.5656 172.687C43.93 172.687 44.3859 175.416 39.8378 177.691Z" fill="#B53405"/>
</g>
<defs>
<clipPath id="clip0_371_415">
<rect width="270" height="270" fill="white"/>
</clipPath>
</defs>
</svg>
