<svg width="2404" height="411" viewBox="0 0 2404 411" fill="none" xmlns="http://www.w3.org/2000/svg">
<rect x="4" y="118.999" width="2400" height="214" fill="#14152F"/>
<rect x="481" y="317.999" width="1923" height="93" fill="#41427A"/>
<path d="M1400 317.999L853.203 410.999H0.5V317.999H1400Z" fill="#101246"/>
<rect x="1518.25" y="205.624" width="25" height="21.875" fill="#0A3333"/>
<rect x="1555.75" y="205.624" width="25" height="21.875" fill="#0A3333"/>
<rect x="1593.25" y="205.624" width="25" height="21.875" fill="#0A3333"/>
<rect x="1630.75" y="205.624" width="25" height="21.875" fill="#0A3333"/>
<rect x="1668.25" y="205.624" width="25" height="21.875" fill="#0A3333"/>
<rect x="1705.75" y="205.624" width="25" height="21.875" fill="#0A3333"/>
<rect x="1518.25" y="243.124" width="25" height="21.875" fill="#0A3333"/>
<rect x="1555.75" y="243.124" width="25" height="21.875" fill="#0A3333"/>
<rect x="1593.25" y="243.124" width="25" height="21.875" fill="#0A3333"/>
<rect x="1630.75" y="243.124" width="25" height="21.875" fill="#0A3333"/>
<rect x="1668.25" y="243.124" width="25" height="21.875" fill="#0A3333"/>
<rect x="1705.75" y="243.124" width="25" height="21.875" fill="#0A3333"/>
<rect x="1237" y="205.624" width="6.25" height="25" fill="#0A3333"/>
<rect x="1249.5" y="205.624" width="6.25" height="25" fill="#0A3333"/>
<rect x="1262" y="205.624" width="6.25" height="25" fill="#0A3333"/>
<rect x="1274.5" y="205.624" width="6.25" height="25" fill="#0A3333"/>
<rect x="1287" y="205.624" width="6.25" height="25" fill="#0A3333"/>
<rect x="1299.5" y="205.624" width="6.25" height="25" fill="#0A3333"/>
<rect x="1312" y="205.624" width="6.25" height="25" fill="#0A3333"/>
<rect x="1324.5" y="205.624" width="6.25" height="25" fill="#0A3333"/>
<rect x="1337" y="205.624" width="6.25" height="25" fill="#0A3333"/>
<rect x="1349.5" y="205.624" width="6.25" height="25" fill="#0A3333"/>
<rect x="1362" y="205.624" width="6.25" height="25" fill="#0A3333"/>
<rect x="1374.5" y="205.624" width="6.25" height="25" fill="#0A3333"/>
<rect x="1387" y="205.624" width="6.25" height="25" fill="#0A3333"/>
<rect x="1399.5" y="205.624" width="6.25" height="25" fill="#0A3333"/>
<rect x="1412" y="205.624" width="6.25" height="25" fill="#0A3333"/>
<rect x="1424.5" y="205.624" width="6.25" height="25" fill="#0A3333"/>
<rect x="1437" y="205.624" width="6.25" height="25" fill="#0A3333"/>
<rect x="1237" y="236.874" width="6.25" height="25" fill="#0A3333"/>
<rect x="1249.5" y="236.874" width="6.25" height="25" fill="#0A3333"/>
<rect x="1262" y="236.874" width="6.25" height="25" fill="#0A3333"/>
<rect x="1274.5" y="236.874" width="6.25" height="25" fill="#0A3333"/>
<rect x="1287" y="236.874" width="6.25" height="25" fill="#0A3333"/>
<rect x="1299.5" y="236.874" width="6.25" height="25" fill="#0A3333"/>
<rect x="1312" y="236.874" width="6.25" height="25" fill="#0A3333"/>
<rect x="1324.5" y="236.874" width="6.25" height="25" fill="#0A3333"/>
<rect x="1337" y="236.874" width="6.25" height="25" fill="#0A3333"/>
<rect x="1349.5" y="236.874" width="6.25" height="25" fill="#0A3333"/>
<rect x="1362" y="236.874" width="6.25" height="25" fill="#0A3333"/>
<rect x="1374.5" y="236.874" width="6.25" height="25" fill="#0A3333"/>
<rect x="1387" y="236.874" width="6.25" height="25" fill="#0A3333"/>
<rect x="1399.5" y="236.874" width="6.25" height="25" fill="#0A3333"/>
<rect x="1412" y="236.874" width="6.25" height="25" fill="#0A3333"/>
<rect x="1424.5" y="236.874" width="6.25" height="25" fill="#0A3333"/>
<rect x="1437" y="236.874" width="6.25" height="25" fill="#0A3333"/>
<rect x="1237" y="139.999" width="59.375" height="15.625" fill="#0A3333"/>
<rect x="1312" y="139.999" width="59.375" height="15.625" fill="#020811"/>
<rect x="1387" y="139.999" width="59.375" height="15.625" fill="#494B0D"/>
<rect x="1462" y="139.999" width="59.375" height="15.625" fill="#494B0D"/>
<rect x="1537" y="139.999" width="59.375" height="15.625" fill="#020811"/>
<rect x="1612" y="139.999" width="59.375" height="15.625" fill="#020811"/>
<rect x="1687" y="139.999" width="59.375" height="15.625" fill="#020811"/>
<path d="M1694.97 0H1858.86L1873 111.474H1680L1694.97 0Z" fill="#20194A"/>
<path d="M1707.49 9.98267H1844.53L1856.36 103.155H1694.97L1707.49 9.98267Z" fill="#594999"/>
<path d="M1719.93 133.103H1831.41L1873 111.474H1680L1719.93 133.103Z" fill="#0E0830"/>
<path d="M1719.93 133.103H1831.41L1851 317.784H1698L1719.93 133.103Z" fill="#594999"/>
<mask id="mask0_250_374" style="mask-type:alpha" maskUnits="userSpaceOnUse" x="1690" y="9" width="162" height="94">
<path d="M1702.52 9H1839.56L1851.39 102.172H1690L1702.52 9Z" fill="#594999"/>
</mask>
<g mask="url(#mask0_250_374)">
<path fill-rule="evenodd" clip-rule="evenodd" d="M1811.6 -7.00049L1774.79 136.798L1732.89 150.829L1769.87 1.54434L1811.6 -7.00049ZM1749.17 1.57026L1724.36 102.261L1706.03 104.441L1719.88 -6.71692L1749.17 1.57026Z" fill="#D9D9D9" fill-opacity="0.2"/>
</g>
<rect x="1750" y="203" width="24" height="11" fill="#0E0830"/>
<rect x="1779" y="203" width="24" height="11" fill="#0E0830"/>
<path d="M1727.5 146H1823L1827 191.5H1722L1727.5 146Z" fill="#0E0830"/>
<path d="M1731.54 155.228H1756.36V159.046L1731 159L1731.54 155.228Z" fill="#352866"/>
<path d="M1762.09 155.228H1786.91V159.046H1762.09V155.228Z" fill="#352866"/>
<path d="M1792.64 155.228H1817.45L1818 159.5L1792.64 159.046V155.228Z" fill="#352866"/>
<path d="M1731.54 166.682H1743V174.318H1730.5L1731.54 166.682Z" fill="#352866"/>
<path d="M1746.82 166.682H1758.27V174.318H1746.82V166.682Z" fill="#352866"/>
<path d="M1762.09 166.682H1773.54V174.318H1762.09V166.682Z" fill="#352866"/>
<path d="M1777.36 166.682H1788.82V174.318H1777.36V166.682Z" fill="#352866"/>
<path d="M1792.64 166.682H1804.09V174.318H1792.64V166.682Z" fill="#352866"/>
<path d="M1807.91 166.682H1819.36L1820.5 174.318H1807.91V166.682Z" fill="#352866"/>
<path d="M1731.54 178.136H1743V185.773H1730.5L1731.54 178.136Z" fill="#352866"/>
<path d="M1746.82 178.136H1758.27V185.773H1746.82V178.136Z" fill="#352866"/>
<path d="M1762.09 178.136H1773.54V185.773H1762.09V178.136Z" fill="#352866"/>
<path d="M1777.36 178.136H1788.82V185.773H1777.36V178.136Z" fill="#352866"/>
<path d="M1792.64 178.136H1804.09V185.773H1792.64V178.136Z" fill="#352866"/>
<path d="M1807.91 178.136H1819.36L1820.5 185.773H1807.91V178.136Z" fill="#352866"/>
<path d="M1818.41 128C1807.91 154.904 1804.85 206 1823.4 226.259C1850.74 256.115 1912.89 259.346 1899.83 318" stroke="url(#paint0_linear_250_374)" stroke-width="4"/>
<path d="M1804.8 128C1785.37 154.975 1779.3 183.102 1813.29 201.193C1850.49 220.986 1887.44 259.191 1863.27 318" stroke="url(#paint1_linear_250_374)" stroke-width="4"/>
<rect x="4" y="209" width="2400" height="205" fill="url(#paint2_linear_250_374)"/>
<defs>
<linearGradient id="paint0_linear_250_374" x1="1855.8" y1="128" x2="1855.8" y2="318" gradientUnits="userSpaceOnUse">
<stop stop-color="#0E0830"/>
<stop offset="1" stop-color="#442EBC" stop-opacity="0.75"/>
</linearGradient>
<linearGradient id="paint1_linear_250_374" x1="1830" y1="128" x2="1830" y2="318" gradientUnits="userSpaceOnUse">
<stop stop-color="#0E0830"/>
<stop offset="1" stop-color="#442EBC" stop-opacity="0.75"/>
</linearGradient>
<linearGradient id="paint2_linear_250_374" x1="1204" y1="209" x2="1204" y2="414" gradientUnits="userSpaceOnUse">
<stop stop-color="#071326" stop-opacity="0"/>
<stop offset="1" stop-color="#140C35" stop-opacity="0.66"/>
</linearGradient>
</defs>
</svg>
