<svg width="1200" height="482" viewBox="0 0 1200 482" fill="none" xmlns="http://www.w3.org/2000/svg">
<path d="M763.666 182.419C763.666 191.626 734.477 198.826 727.784 200.367C705.663 205.458 670.64 224.11 688.167 252.048C694.681 262.431 708.561 274.588 721.959 271.44C732.668 268.924 736.466 251.479 744.525 244.813C762.132 230.248 779.55 247.213 798.63 241.121C816.395 235.447 810.575 212.529 806.522 198.624C803.56 188.465 801.736 179.019 790.001 176.143C785.207 174.968 779.287 171.201 774.514 174.752C772.09 176.555 769.784 179.073 768.241 181.693C766.453 184.729 760.849 185.512 758.07 187.58" stroke="white" stroke-width="3" stroke-linecap="round" stroke-linejoin="round"/>
<path d="M743.449 298.84C743.449 304.511 729.155 304.415 725.496 306.444C712.521 313.636 704.937 331.611 709.747 345.685C717.163 367.381 739.987 377.505 761.598 377.441C779.682 377.388 790.208 352.699 790.387 337.356C790.622 317.173 781.958 304.616 762.975 300.842C755.586 299.373 745.409 299.856 738.167 301.365" stroke="white" stroke-width="3" stroke-linecap="round" stroke-linejoin="round"/>
<path d="M831.643 269.937C823.964 269.937 816.087 268.159 815.268 279.018C814.584 288.069 829.721 292.047 836.112 295.132C847.063 300.418 857.261 306.989 868.535 311.642C903.538 326.089 908.103 263.241 884.34 247.34C877.504 242.766 869.673 233.996 861.372 241.327C856.654 245.492 849.862 256.287 848.091 262.514C845.911 270.179 833.479 270.584 827.304 268.334" stroke="white" stroke-width="3" stroke-linecap="round" stroke-linejoin="round"/>
<path d="M990.739 176.139C990.197 177.793 986.991 173.662 986.841 173.472C983.092 168.758 976.243 167.722 970.666 167.379C957.159 166.547 938.792 165.773 938.735 182.523C938.664 203.022 956.553 217.705 961.967 236.954C964.405 245.625 965.849 255.432 964.595 264.436C963.565 271.841 958.659 277.648 956.81 284.704C951.941 303.283 975.056 304.441 987.483 304.441C1007.38 304.441 1014.05 297.336 1022.38 279.018C1029.17 264.065 1025.38 255.515 1020.87 240.551C1017.58 229.636 1021.93 220.846 1031.45 213.901C1038.22 208.957 1047.35 208.167 1049.04 198.54C1050.61 189.56 1051.3 182.81 1047.45 174.578C1042.76 164.552 1026.45 163.46 1016.76 167.945C1011.76 170.262 1004.61 180.268 999.515 180.268C993.753 180.268 990.097 175.239 983.633 175.239" stroke="white" stroke-width="3" stroke-linecap="round" stroke-linejoin="round"/>
<path d="M919.084 366.021C919.084 371.873 878.853 367.571 873.947 368.781C861.798 371.777 855.638 381.942 851.054 392.754C843.223 411.222 845.802 427.407 866.139 435.111C876.663 439.098 898.874 443.118 905.583 430.399C910.186 421.672 921.254 418.109 930.782 416.875C946.713 414.812 963.833 442.479 973.331 416.834C978.925 401.731 974.304 379.802 961.191 369.454C954.663 364.302 948.017 358.456 938.983 362.681C934.034 364.995 926.27 370.699 921.073 370.699C915.064 370.699 917.071 367.383 914.619 367.383" stroke="white" stroke-width="3" stroke-linecap="round" stroke-linejoin="round"/>
<path d="M308.647 221.865C304.746 223.744 314.936 215.818 318.615 213.534C327.433 208.059 336.967 206.046 346.255 201.755C350.365 199.856 354.392 197.813 358.63 196.197C363.985 194.156 369.879 194.632 375.518 194.776C388.614 195.11 401.453 198.544 413.733 202.931C427.075 207.699 440.414 213.607 452.471 221.119C458.563 224.913 464.939 228.968 470.49 233.514C476.098 238.107 480.86 243.63 486.501 248.197C492.413 252.984 498.177 257.867 503.558 263.249C504.501 264.192 506.307 267.576 506.383 265.496C506.525 261.606 506.149 263.513 501.844 264.932C499.72 265.632 499.164 267.789 496.941 268.268C494.75 268.739 492.636 270.005 490.756 271.174C486.45 273.852 481.904 276.187 477.639 278.91C467.913 285.122 457.463 289.457 447.165 294.581C429.34 303.449 408.66 308.33 388.86 306.938C371.813 305.74 353.346 300 338.269 292.263C329.703 287.867 321.057 283.517 314.092 276.552" stroke="white" stroke-width="3" stroke-linecap="round" stroke-linejoin="round"/>
<path d="M312.048 219.331C311.815 219.098 309.342 233.307 308.867 234.947C307.671 239.077 307.976 243.448 307.175 247.679C306.573 250.861 305.879 255.288 306.654 258.498C307.218 260.837 308.945 278.606 312.519 278.127" stroke="white" stroke-width="3" stroke-linecap="round" stroke-linejoin="round"/>
<path d="M312.115 218.751C311.683 218.404 307.629 232.785 307.537 234.158C307.264 238.207 306.114 242.147 306.334 246.237C306.537 250.026 306.718 244.987 306.806 243.847C307.496 234.942 310.374 226.19 313.055 217.711C315.043 211.42 308.018 230.085 307.275 236.641C306.059 247.389 303.362 262.498 308.797 272.618C309.787 274.462 311.05 276.754 311.814 278.604C313.79 283.392 309.926 268.406 308.564 263.408C306.03 254.104 309.037 241.907 310.642 232.467C310.973 230.521 312.633 224.008 311.791 222.098C311.718 221.932 311.788 219.554 311.561 219.676C306.384 222.467 307.209 239.288 307.204 243.949C307.199 248.571 308.474 253.123 308.27 257.727C308.116 261.218 307.927 264.385 308.715 267.806C308.981 268.957 308.592 276.947 310.019 277.257C312.191 277.729 310.067 269.624 313.298 276.048C314.303 278.045 314.501 279.996 316.549 279.367" stroke="white" stroke-width="3" stroke-linecap="round" stroke-linejoin="round"/>
<path d="M308.866 221.726C311.36 219.231 306.886 220.675 304.755 220.913C303.437 221.06 292.272 222.817 297.795 222.006C299.199 221.799 311.026 219.728 305.513 220.595C303.431 220.922 297.041 222.911 295.295 221.934C295.032 221.787 288.78 241.159 288.51 243.784C287.928 249.46 288.145 255.79 288.943 261.451C289.571 265.909 292.181 279.738 298.183 278.369C302.362 277.416 306.895 277.869 311.071 277.763C311.838 277.744 314.758 276.766 312.258 277.302C309.821 277.825 300.306 280.621 299.04 277.149" stroke="white" stroke-width="3" stroke-linecap="round" stroke-linejoin="round"/>
<path d="M423.169 240.828C420.637 238.058 419.358 236.38 415.612 234.302C409.4 230.856 404.592 229.102 397.36 230.397C391.229 231.496 385.035 234.463 380.497 238.704C374.864 243.969 376.128 248.075 374.968 255.165C372.224 271.942 391.706 284.402 406.272 280.219C418.828 276.613 426.102 267.923 426.385 255.018C426.548 247.518 423.55 243.305 421.696 236.497" stroke="white" stroke-width="3" stroke-linecap="round" stroke-linejoin="round"/>
<path d="M417.696 229.776C418.931 224.616 401.132 221.461 398.012 221.827C387.494 223.059 377.524 228.227 371.461 237.187C366.188 244.98 363.282 255.822 367.451 264.613C372.178 274.582 380.313 284.371 390.723 288.391C400.616 292.211 410.311 290.447 418.971 284.124C427.241 278.086 430.889 268.728 433.133 259.213C434.721 252.481 432.296 243.096 427.465 238.116C420.915 231.365 419.239 226.919 408.508 224.958" stroke="white" stroke-width="3" stroke-linecap="round" stroke-linejoin="round"/>
<path d="M475.806 237.549C474.631 236.374 469.799 246.763 469.359 248.108C467.7 253.17 466.153 258.794 465.936 264.13C465.795 267.61 466.613 271.671 467.732 274.967C468.481 277.172 468.761 283.848 469.631 281.689" stroke="white" stroke-width="3" stroke-linecap="round" stroke-linejoin="round"/>
<path d="M312.034 216.792C312.296 212.655 311.132 208.811 309.639 204.607C307.761 199.322 303.901 195.247 300.583 190.832C296.96 186.009 293.996 181.386 289.695 177.085C285.597 172.988 281.386 168.799 278.735 163.625C277.079 160.394 298.143 157.078 299.931 156.879C311.294 155.614 322.24 154.79 333.583 156.385C339.857 157.267 345.147 162.859 349.135 167.415C353.459 172.355 359.878 178.642 360.792 185.556C361.167 188.387 361.924 191.179 363.571 193.502" stroke="white" stroke-width="3" stroke-linecap="round" stroke-linejoin="round"/>
<path d="M316.33 278.767C319.868 275.229 310.673 287.039 307.487 290.897C302.331 297.14 295.848 302.042 290.145 307.745C285.72 312.17 272.937 318.856 273.849 326.414C274.082 328.343 280.553 331.795 282.082 332.568C287.159 335.139 292.951 338.061 298.622 338.792C307.319 339.914 316.353 340.923 325.1 340.573C328.458 340.438 331.601 340.892 334.888 339.929C339.308 338.634 343.286 332.494 345.889 328.871C349.854 323.352 354.143 317.893 357.328 311.872C357.619 311.324 359.857 305.862 359.795 305.8" stroke="white" stroke-width="3" stroke-linecap="round" stroke-linejoin="round"/>
<path d="M263.437 217.917C266.744 217.888 257.078 216.084 253.864 215.303C239.838 211.892 226.397 207.141 212.001 205.21C198.711 203.426 184.814 200.027 171.44 202.743C162.384 204.582 173.025 209.26 176.856 210.571C187.436 214.191 198.696 215.4 209.367 218.846C216.251 221.068 224.64 223.391 230.165 228.317C234.347 232.046 226.334 231.626 224.155 231.538C211.84 231.045 199.627 228.179 187.314 227.282C171.475 226.128 155.752 225.696 139.878 225.915C132.752 226.013 120.262 224.38 114.499 229.915C110.546 233.712 131.708 237.58 133.024 237.833C149.138 240.93 165.586 242.962 181.844 245.183C193.423 246.765 204.828 248.992 216.283 251.281C222.306 252.484 228.877 252.927 234.478 255.65C235.551 256.172 237.16 256.886 234.772 257.262C229.489 258.093 224.155 258.252 218.929 259.561C214.553 260.658 209.869 262.02 206.576 265.276C203.462 268.354 212.046 268.554 213.177 268.514C220.097 268.27 226.661 267.547 233.588 268.131C235.43 268.286 238.779 268.172 240.196 269.589C241.507 270.901 236.901 272.061 236.475 272.167C230.169 273.739 223.813 274.832 217.498 276.303C209.176 278.242 201.006 280.939 192.884 283.575C185.328 286.027 176.289 288.461 169.605 292.913C164.243 296.484 172.269 298.027 175.271 297.405C183.302 295.74 191.418 293.839 199.255 291.405C210.591 287.883 222.954 286.083 234.75 285.459C242.095 285.071 249.586 284.231 256.843 283.032C261.658 282.235 266.553 281.777 271.081 279.84C274.162 278.522 279.631 277.536 276.08 273.985C274.007 271.912 268.27 273.543 265.748 273.901C261.543 274.499 257.503 275.712 253.452 276.93C249.149 278.224 244.542 278.493 240.09 278.951C236.406 279.329 234.431 278.535 238.993 276.81C245.17 274.474 255.397 274.858 258.551 268.165C261.13 262.694 252.874 263.699 249.689 263.412C246.062 263.085 242.765 263.077 239.149 263.645C237.99 263.827 236.163 263.775 237.568 262.35C240.935 258.937 247.386 259.724 250.839 256.27C253.863 253.246 244.827 251.208 243.728 251.165C239.789 251.013 236.819 250.344 233.044 249.302C228.075 247.929 222.866 247.611 217.827 246.559C213.914 245.743 208.314 245.807 204.972 243.391C203.126 242.057 205.427 240.394 206.854 240.257C212.207 239.741 217.543 240.402 222.851 241.002C228.576 241.649 234.425 241.469 240.179 241.674C241.485 241.72 259.085 240.994 258.437 239.791C254.405 232.303 243.017 232.54 236.543 228.089C234.193 226.474 233.121 225.077 235.316 222.882C238.021 220.177 241.02 221.069 244.368 221.939C249.616 223.301 254.958 225.168 260.394 225.54C262.61 225.692 266.085 226.451 268.237 225.757C275.69 223.352 261.997 214.861 258.382 217.057" stroke="white" stroke-width="3" stroke-linecap="round" stroke-linejoin="round"/>
<path d="M8.47735 399.698C7.4845 400.161 -1.4809 409.813 3.14201 411.048C7.9043 412.322 9.13842 412.613 14.2317 411.992C20.7569 411.196 25.8333 408.925 31.6863 406.208C39.4945 402.583 46.8631 398.415 54.332 394.158C60.6466 390.56 67.9158 387.259 73.031 381.973C79.9848 374.787 74.2512 369.206 66.1218 375.119" stroke="white" stroke-width="3" stroke-linecap="round" stroke-linejoin="round"/>
<path d="M9.91702 399.909C7.7535 399.909 7.23785 406.514 11.7751 406.514C20.3915 406.514 30.497 403.103 37.7518 398.321C45.279 393.358 57.072 390.841 62.9473 383.694C64.2105 382.157 70.6158 373.188 63.98 376.627" stroke="white" stroke-width="3" stroke-linecap="round" stroke-linejoin="round"/>
<path d="M17.4975 407.269C17.3719 406.282 15.4097 404.218 14.9109 403.341C12.4323 398.987 10.96 396.01 10.96 390.886C10.96 380.819 17.8229 374.454 26.4544 370.472C32.2464 367.8 39.4464 365.955 45.4576 368.583C47.9007 369.651 50.8513 369.827 52.9121 371.535C54.0036 372.439 55.2985 372.442 56.4767 373.12C58.2858 374.162 59.4276 377.731 60.9488 379.315" stroke="white" stroke-width="3" stroke-linecap="round" stroke-linejoin="round"/>
<path d="M19.089 414.919C18.556 409.52 22.7312 416.537 27.351 417.999C32.0245 419.477 41.8471 423.056 46.5869 421.319C53.1716 418.905 58.7334 413.117 62.7319 407.445C65.4198 403.632 64.3215 394.44 64.3215 389.916" stroke="white" stroke-width="3" stroke-linecap="round" stroke-linejoin="round"/>
<path d="M1185.26 8.52251C1185.86 8.49446 1188.94 6.32294 1188 5.52869C1185.92 3.76375 1180.25 2.80802 1177.73 2.46765C1162.25 0.382904 1142.74 4.97517 1137.94 22.1874C1133.85 36.8109 1137.51 52.7096 1152.32 59.6464C1163.38 64.8214 1179.01 64.2414 1187.48 54.3054C1193.65 47.0719 1196.99 40.5161 1197.57 30.9886C1197.9 25.6088 1198.19 18.0089 1194.91 13.6781C1191.72 9.46629 1187.19 8.22819 1182.75 5.90557C1178.47 3.66404 1177.17 15.3753 1178.3 17.5576C1181.13 23.0486 1188.64 26.0912 1193.61 21.8352C1196.71 19.1741 1189.23 16.8445 1187.3 14.8428C1185.57 13.0409 1184.98 10.9095 1184.53 8.53612C1183.97 5.6534 1182.47 15.0203 1184.27 17.3381C1190.09 24.8274 1190.1 14.7668 1184.75 10.1892C1180.82 6.81959 1180.08 11.883 1180.09 15.0206C1180.11 18.5835 1187.21 24.4463 1190.49 20.9249C1196.29 14.6935 1181.89 3.83698 1184.61 13.6483C1185.33 16.2287 1188.18 19.0277 1190.99 19.0277C1192.56 19.0277 1192.36 16.7912 1190.83 16.5622" stroke="white" stroke-width="3" stroke-linecap="round" stroke-linejoin="round"/>
<path d="M1149.18 20.3001C1155.52 13.1717 1169.34 37.5127 1152.12 37.5127C1145.17 37.5127 1146.82 21.4622 1151.64 20.8284C1153.03 20.647 1162.24 22.6341 1158.14 24.6747C1153.53 26.9632 1148.28 19.33 1147.38 27.7638C1146.62 34.9713 1154.25 39.0573 1157.12 31.2017C1159.16 25.6206 1152.56 16.6611 1150.01 23.7389C1147.64 30.2985 1157.24 40.3387 1159.44 32.9254C1160.56 29.1924 1158.16 14.8013 1151.38 19.8798C1144.75 24.8458 1147.17 38.2533 1156.69 33.7889C1162.66 30.9908 1160.78 21.4531 1154.09 21.4946C1145.56 21.5474 1143.87 36.755 1153.35 36.9563C1160.41 37.1059 1164.31 25.1397 1156.43 23.5942C1151 22.529 1150.44 32.6973 1155.31 32.9747C1159.69 33.2245 1157.12 23.0106 1154.23 23.0106C1153.51 23.0106 1153.3 32.1814 1154.11 33.9293" stroke="white" stroke-width="3" stroke-linecap="round" stroke-linejoin="round"/>
<path d="M1147.82 54.3271C1146.59 55.556 1147.83 50.3455 1151.82 50.3455C1156.59 50.3455 1167.6 46.6285 1169.33 53.3632C1170 55.9567 1170.96 58.5084 1172.36 60.8039C1173.47 62.6281 1168.53 58.1674 1167.4 57.3269C1163.08 54.1121 1158.72 50.4935 1153.25 53.82C1148.24 56.8671 1152.81 60.4591 1157.05 60.5249C1159.18 60.5579 1170.33 57.4626 1166.21 53.6006C1162.93 50.5207 1154.53 48.7257 1150.45 51.1342C1145.74 53.9181 1162.16 55.9142 1163.98 55.5479C1170.95 54.1441 1168.69 54.4571 1163.62 53.1122C1161.86 52.6451 1151.13 50.2034 1157.64 55.1796C1160.04 57.011 1163.35 56.8692 1166.21 56.8692C1166.49 56.8692 1169.26 56.6336 1169.26 57.0751C1169.26 60.2382 1159.82 54.8589 1159.13 54.4556C1157.9 53.7367 1157.68 56.8326 1157.64 57.4154C1157.4 60.7081 1162.41 59.7997 1164.46 59.5031" stroke="white" stroke-width="3" stroke-linecap="round" stroke-linejoin="round"/>
<path d="M1183.51 36.5613C1177.42 30.6908 1170.22 43.7288 1173.31 45.3803C1181.45 49.7254 1190.31 32.558 1181.08 32.9864C1177.66 33.1455 1170.37 40.9176 1173.81 44.35C1177.2 47.7242 1183.01 43.8644 1184.41 40.3821C1190.17 26.0333 1170.46 41.4811 1178.25 44.0463C1188.5 47.4228 1181.84 29.6495 1178.73 37.6673C1174.63 48.2358 1183.2 37.7558 1180.2 37.7558C1179.54 37.7558 1177.73 41.2656 1178.1 41.9245C1178.51 42.6407 1184.22 37.2637 1181.66 35.651C1179.63 34.3697 1170.24 41.4157 1178.49 41.4157" stroke="white" stroke-width="3" stroke-linecap="round" stroke-linejoin="round"/>
<path d="M1179.85 37.358C1179.04 37.358 1178.79 36.7574 1178.09 36.52C1175.56 35.6573 1173.2 42.1205 1174.89 43.1985C1178.58 45.5417 1181.43 39.5253 1181.36 36.7148C1181.26 32.7204 1174.1 35.7342 1173.8 39.1804" stroke="white" stroke-width="3" stroke-linecap="round" stroke-linejoin="round"/>
<path d="M1186.95 370.578C1186.95 363.683 1185.62 356.554 1183.63 349.979C1183.13 348.319 1176.57 334.015 1182.34 341.16C1187.41 347.426 1195.2 355.66 1198.39 363.046C1198.93 364.289 1194.78 360.418 1192.02 359.733C1187.16 358.526 1182.02 361.499 1177.53 360.23C1176.73 360.006 1189.01 353.189 1190.22 352.411C1196.77 348.23 1198.76 343.16 1194.08 353.428C1192.01 357.962 1191.65 367.664 1188.26 371.218" stroke="white" stroke-width="3" stroke-linecap="round" stroke-linejoin="round"/>
<path d="M548.848 108.167C547.327 111.355 542.133 94.9913 541.857 94.0915C539.654 86.9315 538.229 78.3468 534.221 71.873C529.393 64.0744 545.686 86.2126 551.908 92.9523C553.296 94.4566 559.011 101.639 553.079 97.3678C546.608 92.7089 538.946 92.4739 531.344 92.4739C527.03 92.4739 542.304 85.7123 543.962 84.9003C548.651 82.604 556.247 77.5602 553.46 86.6945C551.619 92.7254 548.523 99.9674 548.523 106.33" stroke="white" stroke-width="3" stroke-linecap="round" stroke-linejoin="round"/>
<path d="M14.1812 112.772C14.1812 106.498 28.977 95.3672 33.0372 91.1373C34.8239 89.2759 43.5368 76.0411 43.5368 80.7198C43.5368 89.7809 40.0826 98.7455 39.5524 107.818C39.3762 110.833 34.2926 98.0413 33.4839 96.147C32.6058 94.0901 25.1861 81.4614 29.4946 84.5238C35.1289 88.5285 41.0404 91.2463 46.8543 94.8094C49.7948 96.6114 37.0182 97.2503 34.6023 98.2188C28.8238 100.535 23.5875 104.077 18.0802 106.946C17.6371 107.177 12.9631 109.129 13.117 109.344" stroke="white" stroke-width="3" stroke-linecap="round" stroke-linejoin="round"/>
<path d="M430.864 471.117C427.52 471.117 424.314 460.08 422.96 457.777C419.267 451.496 415.534 445.232 411.912 438.911C410.643 436.698 405.507 431.438 407.861 432.42C412.981 434.554 417.287 441.124 421.411 444.684C426.478 449.058 432.226 452.562 437.345 456.862C441.687 460.511 445.096 464.61 437.141 461.547C427.87 457.978 418.626 458.308 408.913 459.616C406.73 459.91 420.095 449.48 423.424 446.754C429.319 441.927 432.521 437.944 431.584 447.931C430.937 454.818 426.941 467.371 431.308 473.471" stroke="white" stroke-width="3" stroke-linecap="round" stroke-linejoin="round"/>
<path d="M753.927 188.574C759.216 188.574 744.149 193.033 738.898 193.662C729.905 194.737 720.186 194.663 711.639 197.941C695.173 204.255 677.482 214.055 675.367 233.578C674.102 245.258 677.961 253.67 686.861 261.45C691.331 265.357 699.064 275.907 705.252 276.211C714.664 276.675 725.022 260.973 730.308 254.564C735.293 248.52 739.849 242.527 746.292 237.93C759.235 228.696 774.174 242.082 787.497 244.004C798.734 245.625 809.119 240.49 817.176 232.807C826.682 223.743 827.911 212.583 826.817 199.941C825.911 189.477 819.792 182.719 813.109 175.274C808.312 169.929 799.285 171.89 792.773 171.521C786.781 171.181 781.563 175.926 776.87 179.3C769.784 184.395 761.937 187.954 754.988 193.165" stroke="#9747FF" stroke-width="3" stroke-linecap="round" stroke-linejoin="round"/>
<path d="M749.907 301.582C746.66 295.227 739.851 294.041 733.343 294.041C717.646 294.041 709.202 305.277 701.651 318.033C692.832 332.931 694.052 345.33 705.674 358.279C714.914 368.573 727.201 373.465 741.015 372.251C749.759 371.483 762.903 365.635 770.471 360.834C778.561 355.702 784.153 345.069 785.032 335.653C785.984 325.448 780.538 314.718 773.871 307.223C765.133 297.4 749.832 301.465 738.658 303.633" stroke="#9747FF" stroke-width="3" stroke-linecap="round" stroke-linejoin="round"/>
<path d="M847.346 257.518C847.133 257.518 844.153 252.958 842.993 252.425C837.728 250.005 828.482 250.962 823.167 252.849C809.65 257.65 798.662 275.973 813.079 285.328C826.669 294.147 838.247 308.372 854.147 312.749C859.271 314.16 866.908 316.334 871.93 313.631C877.449 310.661 880.91 305.121 886.137 301.7C907.352 287.82 893.511 244.312 875.624 233.145C868.736 228.845 850.602 230.259 850.553 240.858C850.535 244.844 851.668 248.646 851.615 252.657C851.582 255.124 846.204 258.164 845.223 260.879" stroke="#9747FF" stroke-width="3" stroke-linecap="round" stroke-linejoin="round"/>
<path d="M993.709 163.631C993.666 164.551 973.312 160.345 971.692 160.214C957.317 159.052 943.56 155.617 936.953 171.548C932.023 183.437 933.792 199.899 940.571 210.775C944.326 216.8 949.76 221.515 953.28 227.726C956.735 233.822 958.772 240.231 961.598 246.597C963.538 250.968 966.443 255.099 966.469 260.041C966.498 265.442 962.996 269.665 961.719 274.808C959.721 282.847 966.584 295.128 974.022 298.206C985.03 302.762 1007.15 306.866 1018.18 301.835C1031.05 295.958 1039.23 277.101 1039.1 263.613C1038.94 245.586 1022.6 225.353 1031.89 208.337C1036.6 199.708 1038.35 191.803 1041.07 182.398C1042.54 177.314 1045.03 169.755 1040.35 165.556C1033.42 159.333 1024.21 152.88 1014.9 158.688C1010.71 161.3 1006.9 165.351 1002.3 167.148C1000.09 168.008 988.813 167.856 987.475 166.581" stroke="#9747FF" stroke-width="3" stroke-linecap="round" stroke-linejoin="round"/>
<path d="M892 359.357C892 353.312 885.468 354.003 880.599 354.215C867.423 354.789 851.701 369.2 844.548 379.228C837.607 388.958 836.607 401.563 840.281 412.789C844.25 424.914 857.417 428.361 867.842 433.223C878.306 438.103 883.245 437.561 892.412 429.763C900.571 422.822 909.819 410.456 920.821 408.356C927.854 407.013 936.58 406.033 942.715 410.345C949.62 415.199 955.949 423.515 964.682 424.832C973.096 426.1 982.142 425.1 986.963 417.345C994.302 405.537 990.837 393.184 986.001 381.309C981.998 371.475 978.39 366.806 968.1 365.003C962.35 363.995 957.216 361.81 951.268 361.018C941.26 359.686 936.343 362.314 927.125 366.014C920.814 368.548 913.251 367.483 907.274 364.452C902.286 361.924 901.588 355.424 896.432 353.374C889.859 350.76 883.607 350.767 878.222 355.838" stroke="#9747FF" stroke-width="3" stroke-linecap="round" stroke-linejoin="round"/>
<path d="M704.826 138.289C705.866 143.042 710.539 148.884 714.267 151.747" stroke="#FFCD29" stroke-width="3" stroke-linecap="round" stroke-linejoin="round"/>
<path d="M646.777 190.322C646.777 193.469 655.518 195.266 657.619 195.907" stroke="#FFCD29" stroke-width="3" stroke-linecap="round" stroke-linejoin="round"/>
<path d="M634.626 319.659C639.192 319.659 643.611 317.468 648.268 317.371" stroke="#FFCD29" stroke-width="3" stroke-linecap="round" stroke-linejoin="round"/>
<path d="M677.902 404.932C677.407 406.24 681.244 397.033 683.075 394.52" stroke="#FFCD29" stroke-width="3" stroke-linecap="round" stroke-linejoin="round"/>
<path d="M780.424 129.423C777.831 129.423 777.601 116.354 777.556 114.498" stroke="#FFCD29" stroke-width="3" stroke-linecap="round" stroke-linejoin="round"/>
<path d="M866.14 123.192C864.206 123.019 865.581 110.197 865.802 108.914" stroke="#FFCD29" stroke-width="3" stroke-linecap="round" stroke-linejoin="round"/>
<path d="M946.098 121.299C941.141 121.299 950.496 108.084 951.361 106.863" stroke="#FFCD29" stroke-width="3" stroke-linecap="round" stroke-linejoin="round"/>
<path d="M1041.73 127.136C1042.58 127.102 1048.1 121.849 1049.27 121.141" stroke="#FFCD29" stroke-width="3" stroke-linecap="round" stroke-linejoin="round"/>
<path d="M1079.16 184.422C1078.33 187.378 1086.69 183.839 1088.85 183.018" stroke="#FFCD29" stroke-width="3" stroke-linecap="round" stroke-linejoin="round"/>
<path d="M1080.81 268.699C1080.81 272.619 1092.67 273.39 1095.51 274.442" stroke="#FFCD29" stroke-width="3" stroke-linecap="round" stroke-linejoin="round"/>
<path d="M1063.23 342.236C1069.8 342.699 1077.24 348.795 1082.86 351.75" stroke="#FFCD29" stroke-width="3" stroke-linecap="round" stroke-linejoin="round"/>
<path d="M1033.94 414.951C1035.08 422.688 1037.23 426.297 1043.38 431.69" stroke="#FFCD29" stroke-width="3" stroke-linecap="round" stroke-linejoin="round"/>
<path d="M937.718 462.297C937.718 468.388 937.063 473.625 938.464 479.777" stroke="#FFCD29" stroke-width="3" stroke-linecap="round" stroke-linejoin="round"/>
<path d="M807.122 459.756C807.122 465.352 805.327 471.056 804.569 476.59" stroke="#FFCD29" stroke-width="3" stroke-linecap="round" stroke-linejoin="round"/>
<path d="M756.052 425.537C751.468 432.11 744.824 437.574 740.196 444.501" stroke="#FFCD29" stroke-width="3" stroke-linecap="round" stroke-linejoin="round"/>
</svg>
