<svg width="1030" height="350" viewBox="0 0 1030 350" fill="none" xmlns="http://www.w3.org/2000/svg">
<path d="M44.3485 183.822C44.3485 176.604 38.6512 180.22 32.6563 183.285C29.4844 184.907 23.8099 188.999 24.7294 193.303C25.6891 197.796 39.3927 192.343 41.3363 191.169C51.7493 184.877 45.7914 176.776 36.4306 183.112C35.7194 183.593 31.552 189.365 33.7352 189.505C37.3373 189.735 38.9747 186.253 42.2305 185.962" stroke="white" stroke-width="3" stroke-linecap="round" stroke-linejoin="round"/>
<path d="M92.4419 169.369C98.9027 168.844 84.6666 157.98 84.1711 168.189C83.7539 176.787 115.382 170.27 108.824 164.911C100.717 158.285 75.157 171.54 99.8982 171.138C123.901 170.748 84.0866 160.064 92.4419 171.736" stroke="white" stroke-width="3" stroke-linecap="round" stroke-linejoin="round"/>
<path d="M154.384 185.597C149.478 185.597 145.494 179.702 139.416 180.029C137.737 180.119 138.123 183.047 138.965 183.871C141.312 186.168 145.446 185.961 148.454 185.961C168.25 185.961 137.837 177.101 144.903 184.778" stroke="white" stroke-width="3" stroke-linecap="round" stroke-linejoin="round"/>
<path d="M43.5339 219.212C34.0112 210.66 11.8892 223.728 33.0999 222.274C38.8396 221.881 50.7107 214.592 38.2698 214.592C35.2044 214.592 29.5636 214.811 27.872 218.146C26.7598 220.338 39.3476 219.804 40.4711 219.804" stroke="white" stroke-width="3" stroke-linecap="round" stroke-linejoin="round"/>
<path d="M135.55 207.263C135.55 198.347 116.674 216.364 130.29 212.935C142.392 209.887 136.461 203.023 131.282 209.63" stroke="white" stroke-width="3" stroke-linecap="round" stroke-linejoin="round"/>
<path d="M8.06675 203.599C7.53338 203.599 6.85565 205.355 7.16718 204.923C8.5405 203.014 10.7998 201.128 12.615 199.683C19.1006 194.523 27.221 190.842 34.7029 187.296C48.665 180.678 62.9445 177.649 77.7246 173.675C92.2353 169.773 106.215 169.779 120.957 172.52C128.329 173.891 134.784 176.789 142.013 178.736C148.159 180.393 150.874 183.329 155.599 187.064C161.068 191.387 166.021 196.154 166.021 203.515C166.021 213.827 158.749 218.77 149.725 222.163C125.444 231.293 99.4777 229.525 74.2523 232.722C55.6765 235.077 33.361 236.758 16.1952 228.074C10.7827 225.336 4.26767 222.354 2.19528 216.015C0.612702 211.175 9.03622 198.623 13.4911 202.717" stroke="white" stroke-width="3" stroke-linecap="round" stroke-linejoin="round"/>
<path d="M35.0267 215.305C31.6645 214.734 31.0237 213.259 27.1412 216.243C20.8422 221.085 29.2054 221.471 33.1628 220.422C34.4776 220.074 45.4266 215.61 38.7276 215.368C36.5214 215.288 24.6952 220.368 28.8413 222.249" stroke="white" stroke-width="3" stroke-linecap="round" stroke-linejoin="round"/>
<path d="M40.3224 189.596C40.9135 187.79 40.1233 187.103 39.0018 185.784C36.6788 183.051 30.8469 189.892 29.4556 191.417C27.282 193.8 36.3966 191.361 37.415 190.77C40.1238 189.199 42.3969 184.755 37.9457 183.9C35.3709 183.405 24.1482 186.483 26.6742 190.829C29.1044 195.011 39.7055 191.44 42.0981 188.771C46.8194 183.504 35.7535 183.552 33.1726 184.5C27.2256 186.686 14.6363 193.302 27.903 195.127" stroke="white" stroke-width="3" stroke-linecap="round" stroke-linejoin="round"/>
<path d="M96.2336 172.653C96.2336 166.736 90.45 167.668 85.482 168.703C83.9954 169.012 81.9264 170.744 84.3089 171.741C87.8786 173.234 92.5802 172.137 96.077 171.067C104.007 168.639 105.475 165.214 95.8 165.29C93.7051 165.307 86.9789 166.111 86.3293 168.945C85.7276 171.569 93.9277 170.186 95.0659 169.941C99.5823 168.969 117.042 162.597 102.637 162.477C97.6322 162.436 92.7505 162.874 88.348 165.503C85.7079 167.079 86.0939 169.121 89.1 169.754C93.0018 170.575 97.4296 170.073 101.217 168.938C104.068 168.084 103.418 167.244 100.677 167.236C96.6812 167.224 79.8288 167.691 85.7572 174.938" stroke="white" stroke-width="3" stroke-linecap="round" stroke-linejoin="round"/>
<path d="M151.967 185.536C151.613 183.54 144.626 183.634 143.042 183.09C141.787 182.659 135.376 180.617 135.879 180.944C140.398 183.882 148.07 183.727 153.281 184.09C155.994 184.279 160.241 185.101 156.13 182.12C152.719 179.647 147.61 175.863 143.119 176.578C138.279 177.348 143.528 183.772 144.918 184.945C147.764 187.349 151.828 190.291 155.846 189.696C159.923 189.092 151.513 181.551 150.829 181.119C147.683 179.134 139.016 176.133 135.829 179.574C132.73 182.92 146.621 184.051 147.884 184.062C150.005 184.082 157.265 184.899 157.197 181.253C157.123 177.315 146.967 177.427 144.621 177.542C141.318 177.702 138.231 180.285 142.205 182.448C143.637 183.228 152.128 185.812 153.387 183.937C155.245 181.169 143.568 176.996 142.077 176.474C135.305 174.102 134.931 178.044 135.775 184.179" stroke="white" stroke-width="3" stroke-linecap="round" stroke-linejoin="round"/>
<path d="M82.94 198.124C83.3613 197.523 85.9692 195.57 85.0656 194.62C83.2268 192.687 79.336 191.892 76.8427 191.892C75.5471 191.892 66.995 196.099 69.8657 197.353C74.2098 199.251 81.9775 197.281 86.1118 195.546C94.8757 191.869 75.8251 188.332 75.2307 195.7C74.6901 202.399 98.5881 196.282 90.75 191.072C86.1094 187.988 78.2015 190.967 74.0505 193.578C68.6539 196.973 77.7266 197.625 80.0065 197.645C82.2652 197.666 92.3942 198.543 93.2094 195.126C93.9555 192 81.4551 192.593 79.9534 192.593C79.0663 192.593 68.7457 193.537 73.7698 194.347C78.6953 195.142 85.3062 195.418 90.1176 193.863C93.9851 192.613 69.327 191.672 80.754 198.011" stroke="white" stroke-width="3" stroke-linecap="round" stroke-linejoin="round"/>
<path d="M138.074 205.657C138.074 203.352 134.333 203.786 130.954 204.253C121.715 205.529 131.383 207.421 135.192 207.421C138.276 207.421 152.213 204.015 142.146 203.31C137.965 203.018 133.17 203.076 129.539 205.471C126.932 207.191 130.292 207.855 131.855 207.921C136.075 208.099 140.329 207.428 144.27 205.879C146.071 205.171 148.748 203.155 145.555 202.14C141.255 200.775 136.246 202.034 132.255 203.714C131.758 203.924 123.606 207.226 125.876 208.656C128.083 210.047 146.303 209.345 144.675 205.463C143.783 203.337 136.821 204.178 135.17 204.653C132.471 205.429 131.88 206.624 131.419 209.242" stroke="white" stroke-width="3" stroke-linecap="round" stroke-linejoin="round"/>
<path d="M45.439 217.657C39.1813 215.667 34.0079 213.317 27.1058 215.598C22.6737 217.064 37.3869 215.779 39.0917 215.779" stroke="white" stroke-width="3" stroke-linecap="round" stroke-linejoin="round"/>
<path d="M97.9984 230.369C94.0287 228.414 97.1731 224.182 90.6004 224.182C89.058 224.182 77.9964 226.95 81.1909 227.751C84.7571 228.645 95.887 229.226 98.3339 225.455C99.2059 224.111 82.9954 224.836 81.1064 225.567C70.9571 229.495 88.3713 230.064 91.3623 229.597C92.6329 229.398 105.681 226.845 98.745 224.779C95.7075 223.875 79.78 223.451 80.1195 228.804C80.4265 233.643 98.8633 230.308 101.571 229.215C108.884 226.264 92.6941 223.839 90.8738 223.832C87.4601 223.817 83.0949 223.661 80.4731 226.319C77.586 229.246 83.6312 229.679 85.212 229.741C87.2866 229.821 104.791 229.708 104.335 225.599C104.092 223.407 97.5265 223.054 96.0553 222.965C90.9107 222.651 86.0586 223.146 81.6848 226.125C69.5911 234.363 114.385 229.147 102.363 225.661C99.5908 224.858 80.1211 223.285 81.7325 229.766C82.8628 234.312 99.395 229.403 102.467 228.718" stroke="white" stroke-width="3" stroke-linecap="round" stroke-linejoin="round"/>
<path d="M104.653 171.534C101.306 168.062 99.8586 165.183 94.3334 165.125C91.6337 165.096 78.0194 171.3 84.9707 172.798C90.1549 173.916 101.841 174.966 105.956 170.381C109.654 166.26 94.1817 164.757 92.6674 164.771C87.8902 164.813 76.4112 170.326 87.4598 170.911C90.9253 171.094 106.6 172.017 107.965 166.886C109.504 161.106 90.8105 166.164 89.1726 166.92C88.1774 167.38 82.5973 169.342 82.7614 170.99C82.9039 172.422 93.4607 171.179 94.5331 171.116" stroke="white" stroke-width="3" stroke-linecap="round" stroke-linejoin="round"/>
<path d="M43.5604 186.826C43.3204 186.682 43.0908 186.472 43.0908 186.182" stroke="white" stroke-width="3" stroke-linecap="round" stroke-linejoin="round"/>
<path d="M47.5601 183.534C47.9921 182.581 33.5531 186.217 31.9167 187.04C23.6275 191.213 29.9686 194.099 35.6751 190.917C38.9483 189.091 49.9333 178.658 39.2113 182.492C34.5494 184.16 20.8168 191.651 29.7973 195.59" stroke="white" stroke-width="3" stroke-linecap="round" stroke-linejoin="round"/>
<path d="M16.552 202.184C15.5622 201.02 13.9106 198.68 12.1963 200.476" stroke="white" stroke-width="3" stroke-linecap="round" stroke-linejoin="round"/>
<path d="M260.243 89.916C259.961 92.9261 256.787 96.7696 255.493 99.2734C248.912 112.004 242.369 124.768 235.982 137.6C230.004 149.613 225.712 162.131 221.134 174.712C219.542 179.088 217.947 184.107 214.958 187.788C214.398 188.478 214.445 189.213 214.48 190.077C214.759 196.878 219.109 204.615 220.681 211.249C224.339 226.68 229.309 241.056 234.553 255.97C236.128 260.449 237.264 265.057 238.453 269.649C239.379 273.224 239.119 271.662 239.036 268.711" stroke="white" stroke-width="3" stroke-linecap="round" stroke-linejoin="round"/>
<path d="M263.547 88.9982C263.547 82.5856 266.714 100.483 267.05 101.759C271.333 118.039 279.27 133.233 284.198 149.397C285.49 153.634 286.848 157.88 288.514 161.988C288.802 162.698 290.218 164.839 290.09 165.643C289.964 166.435 288.735 166.615 288.377 167.332C286.907 170.28 286.113 173.648 285.006 176.745C282.135 184.772 277.791 192.206 274.605 200.105C270.66 209.885 267.466 219.968 263.547 229.77C259.052 241.012 254.421 252.307 251.261 264.012C250.95 265.165 248.366 277.377 246.2 273.057" stroke="white" stroke-width="3" stroke-linecap="round" stroke-linejoin="round"/>
<path d="M269.548 111.042C270.125 108.88 269.199 111.793 268.874 112.455" stroke="white" stroke-width="3" stroke-linecap="round" stroke-linejoin="round"/>
<path d="M166.428 124.146C163.537 127.493 167.964 140.358 168.7 143.938C170.681 153.567 174.05 162.702 176.002 172.383C176.985 177.26 179.057 182.822 180.892 187.4C184.023 195.211 191.174 201.095 196.055 207.808C201.3 215.021 205.519 223.178 211.524 229.802C217.949 236.889 220.675 244.814 225.999 252.489C230.313 258.707 235.524 263.703 239.324 270.346C240.276 272.011 240.86 275.906 242.037 276.977" stroke="white" stroke-width="3" stroke-linecap="round" stroke-linejoin="round"/>
<path d="M271.689 121.77C271.723 121.424 272.671 120.102 272.023 121.343C269.353 126.452 267.152 131.743 264.732 136.97C261.02 144.989 256.318 152.506 252.334 160.379C248.724 167.513 247.203 174.911 244.677 182.39C241.166 192.785 235.488 202.861 230.928 212.848C229.367 216.268 225.245 219.036 225.245 223.084" stroke="white" stroke-width="3" stroke-linecap="round" stroke-linejoin="round"/>
<path d="M275.735 130.589C275.735 133.795 279.567 130.54 277.19 134.562C267.364 151.195 260.74 170.056 254.523 188.264C252.181 195.124 250.572 202.301 247.889 209.037C245.481 215.085 242.142 220.693 240.083 226.893C237.588 234.409 233.632 241.405 231.393 248.976C231.377 249.029 231.469 241.582 231.493 239.793C231.574 233.643 231.529 227.486 232.121 221.358C232.241 220.116 233.907 214.009 232.949 212.95C232.385 212.326 230.334 223.507 230.247 224.37C229.989 226.953 228.363 235.136 230.269 237.311C232.356 239.693 233.068 229.383 233.078 228.765C233.179 222.135 231.972 214.587 233.933 208.193C235.675 202.51 235.887 205.851 235.394 209.818C234.553 216.584 232.549 223.35 232.214 230.153C232.023 234.03 233.93 235.142 235.53 230.943C238.623 222.829 239.017 213.552 240.265 205.048C241.009 199.973 242.188 195.034 243.98 190.225C244.481 188.881 245.327 184.968 245.793 186.324C247.444 191.123 242.225 202.432 240.925 207.123C239.932 210.706 235.644 219.145 237.103 222.998C237.597 224.304 239.451 220.785 239.521 220.63C241.27 216.769 242.173 212.443 243.173 208.343C246.167 196.064 247.543 183.451 252.716 171.804C256.441 163.416 253.493 172.267 252.173 175.829C248.49 185.769 244.351 196.041 241.444 206.217C239.222 213.995 243.819 208.661 245.609 204.715C250.641 193.621 253.34 181.401 256.004 169.578C257.987 160.774 259.241 151.284 263.082 143.024C265.816 137.143 260.282 155.697 258.467 161.923C256.627 168.232 253.035 175.514 252.828 182.164C252.65 187.886 258.841 172.286 260.531 166.817C263.057 158.639 265.049 150.337 267.407 142.116C267.884 140.454 268.18 136.679 269.684 135.832C270.677 135.273 273.131 133.26 271.993 133.312C270.702 133.37 269.542 136.751 268.889 136.686C267.714 136.569 271.472 127.225 271.678 126.694C276.392 114.526 259.69 149.898 254.466 161.855C248.921 174.546 244.801 187.707 240.277 200.775C239.812 202.118 236.706 210.604 236.877 209.121C237.85 200.662 241.321 191.78 244.074 183.797C249.357 168.476 256.372 153.914 265.513 140.493C268.447 136.187 270.324 133.782 266.575 139.93C258.452 153.254 252.142 167.985 246.188 182.363C240.329 196.515 233.06 210.927 229.107 225.772C227.048 233.508 230.685 228.09 232.54 224.069C239.174 209.691 242.31 193.852 248.12 179.14C252.291 168.575 258.342 159.418 264.534 150.005C265.176 149.029 265.249 148.867 264.36 149.907C260.745 154.138 258.54 159.719 256.403 164.775C248.998 182.291 241.127 200.09 235.56 218.297C232.807 227.305 238.257 223.171 241.346 218.004C249.069 205.089 254.256 189.56 258.778 175.294C262.406 163.848 264.283 148.247 272.067 138.539C273.154 137.181 277.302 132.705 273.435 134.602C270.326 136.126 271.689 133.25 271.689 130.186C271.689 127.625 271.961 125.114 272.175 122.569C272.36 120.376 271.103 126.837 270.633 128.986C269.243 135.34 272.09 134.746 265.941 134.746" stroke="white" stroke-width="3" stroke-linecap="round" stroke-linejoin="round"/>
<path d="M166.681 124.453C157.886 128.716 178.029 108.203 185.671 102.109C196.683 93.3283 209.432 90.2965 222.856 88.1942C231.845 86.7866 240.933 86.77 250.028 86.0243C253.08 85.7741 262.471 83.3885 264.222 86.725" stroke="white" stroke-width="3" stroke-linecap="round" stroke-linejoin="round"/>
<path d="M166.917 122.134C163.961 119.986 167.007 122.574 168.254 124.642C172.102 131.023 176.951 136.802 181.514 142.675C185.124 147.322 187.752 152.582 191.296 157.198C193.758 160.405 196.913 162.968 198.809 166.598C201.782 172.292 204.954 178.024 209.078 182.992C210.599 184.824 217.103 189.626 217.103 192.208" stroke="white" stroke-width="3" stroke-linecap="round" stroke-linejoin="round"/>
<path d="M174.334 164.088C174.334 160.549 170.287 156.422 174.799 161.75C181.582 169.758 187.971 177.298 195.377 184.704C200.116 189.442 204.364 196.076 208.344 201.552C211.365 205.708 215.053 209.251 218.081 213.341C222.653 219.519 220.208 218.151 216.028 213.305C207.214 203.089 197.603 193.041 189.474 182.291C185.67 177.26 180.784 173.556 176.396 169.087C168.482 161.027 190.12 187.032 196.998 195.992C203.987 205.097 211.423 213.763 217.981 223.189C218.276 223.613 220.689 226.754 219.277 224.625C215.869 219.486 211.304 215.137 207.689 210.131C204.371 205.534 201.49 200.683 198.296 196.019C197.049 194.199 201.793 201.556 202.457 202.52C208.756 211.663 215.591 220.371 222.093 229.358C224.829 233.139 227.926 236.837 230.426 240.776C230.692 241.195 233.171 245.315 232.646 243.163C231.583 238.805 226.267 234.471 223.524 231.214C217.534 224.101 200.401 202.206 207.075 208.682C214.194 215.588 218.626 224.811 225.669 231.707C232.195 238.097 215.336 216.525 211.616 208.182C208.235 200.598 220.795 222.024 225.494 228.87C236.892 245.476 200.402 197.289 189.341 180.457C187.329 177.394 184.717 174.935 182.847 171.758C180.464 167.708 178.999 163.243 176.542 159.248C175.639 157.78 175.395 156.062 174.516 154.549C167.477 142.436 189.757 178.069 196.888 190.127C199.037 193.76 201.059 198.108 204.279 200.966C205.039 201.639 201.174 196.317 200.531 195.419C192.394 184.052 185.345 172.043 177.335 160.629C174.859 157.102 166.965 143.768 174.811 154.949C186.656 171.828 199.459 187.965 212.133 204.163C215.499 208.464 217.961 213.152 221.707 217.164C223.31 218.881 226.37 224.891 226.038 222.222" stroke="white" stroke-width="3" stroke-linecap="round" stroke-linejoin="round"/>
<path d="M232.242 227.368C224.713 230.286 234.896 210.38 236.576 208.401C240.134 204.21 236.68 208.77 235.213 210.547C230.555 216.184 226.757 222.433 222.429 228.312C220.865 230.435 221.998 227.888 222.578 226.861C224.573 223.33 227.167 220.151 229.736 217.031C234.806 210.872 239.657 204.336 243.778 197.493C250.612 186.148 228.455 219.521 224.183 232.058C218.954 247.403 238.903 203.17 246.275 188.732C249.769 181.891 255.032 175.563 257.874 168.433C258.734 166.276 258.289 163.939 259.205 161.727C259.845 160.178 263.929 148.919 261.588 154.962C258.818 162.113 254.885 168.802 251.209 175.509C245.219 186.437 239.993 197.763 234.303 208.847C232.417 212.521 229.598 216.105 228.033 219.894C227.193 221.928 226.899 224.296 225.769 226.199C224.956 227.568 223.781 221.038 224.04 220.243C226.688 212.106 231.665 204.497 236.22 197.34C241.805 188.565 246.532 179.415 251.529 170.315C255.659 162.797 257.425 153.815 262.077 146.696C265.032 142.174 268.211 138.125 269.579 132.878C269.894 131.67 271.482 124.2 268.89 129.295C256.014 154.602 238.547 178.432 230.773 206.232C230.536 207.079 228.803 213.232 228.803 210.231C228.803 203.773 232.255 197.851 235.239 192.312C239.833 183.783 244.658 175.407 249.142 166.817C253.658 158.166 256.485 148.528 261.264 140.15C263.473 136.278 266.419 130.767 266.854 126.259C267.271 121.945 271.319 109.714 271.319 114.048C271.319 118.982 270.794 123.711 270.098 128.599C269.948 129.649 268.405 141.298 269.352 140.824C272.865 139.066 269.628 127.097 272.486 125.849C272.667 125.77 270.413 137.407 270.112 138.372C269.715 139.64 267.487 146.84 269.737 142.065C271.187 138.988 272.767 136.015 274.358 133.012C274.95 131.895 271.909 138.913 271.36 140.033C262.768 157.558 254.799 175.14 245.399 192.276C242.411 197.723 239.559 203.682 235.856 208.697C233.022 212.536 239.759 199.988 241.823 195.686C246.963 184.97 251.689 174.314 255.508 163.049C257.565 156.982 259.116 153.211 254.437 160.868C246.542 173.788 224.961 213.715 233.3 201.077C238.048 193.882 241.83 185.201 245.329 177.337C246.616 174.444 250.851 163.22 246.28 172.121C241.552 181.329 236.45 190.522 233.14 200.368C232.375 202.644 229.899 214.696 231.011 206.043" stroke="white" stroke-width="3" stroke-linecap="round" stroke-linejoin="round"/>
<path d="M209.382 105.531C208.593 101.524 198.917 108.978 198.237 110.4C192.434 122.53 209.161 128.074 215.826 118.669C219.631 113.299 215.264 102.387 208.308 102.595C199.041 102.871 192.018 124.484 206.791 121.272C213.539 119.805 223.182 110.418 213.467 105.73C209.892 104.005 206.009 103.842 203.084 106.798C200.459 109.451 198.275 116.407 201.708 119.255C207.764 124.282 218.19 114.538 214.964 107.871C210.48 98.6057 203.453 112.042 205.325 117.78C206.344 120.905 210.87 120.337 212.845 118.67C215.485 116.443 216.455 112.889 216.361 109.573C216.291 107.094 212.841 104.953 210.53 105.934C207.576 107.188 206.141 111.865 205.865 114.748C205.341 120.219 211.876 116.106 212.161 112.178C212.756 103.969 205.133 109.51 204.105 114.651C202.491 122.725 210.501 117.186 211.942 112.833C214.061 106.436 202.893 107.342 200.751 111.934C196.825 120.353 207.871 118.964 211.149 113.713C212.513 111.528 213.993 107.739 212.546 105.258C211.351 103.207 208.911 102.089 207.359 104.307" stroke="white" stroke-width="3" stroke-linecap="round" stroke-linejoin="round"/>
<path d="M207.174 104.672C207.174 105.463 205.031 104.85 204.629 104.539C201.704 102.281 201.101 96.5944 201.057 93.2429C201.002 88.9828 202.219 84.3045 204.492 80.6624C205.169 79.5774 207.558 78.3527 207.916 77.3535" stroke="white" stroke-width="3" stroke-linecap="round" stroke-linejoin="round"/>
<path d="M424.505 190.965C424.207 191.82 423.149 192.987 422.151 192.949C420.986 192.904 428.031 183.579 428.504 183.108C443.95 167.729 466.076 153.617 487.555 149.08C503.888 145.629 517.554 152.029 531.482 160.031C535.385 162.273 550.626 168.258 548.726 175.06" stroke="white" stroke-width="3" stroke-linecap="round" stroke-linejoin="round"/>
<path d="M477.158 195.132C469.597 195.132 499.225 172.953 499.225 185.014" stroke="white" stroke-width="3" stroke-linecap="round" stroke-linejoin="round"/>
<path d="M426.485 188.418C426.028 193.198 418.7 195.46 421.847 201.666C425.822 209.505 436.211 208.272 443.583 209.288C451.703 210.407 460.934 209.822 468.575 206.584C474.761 203.961 474.967 201.154 479.242 197.881" stroke="white" stroke-width="3" stroke-linecap="round" stroke-linejoin="round"/>
<path d="M501.675 189.074C499.683 189.074 502.626 192.671 503.094 192.959C507.125 195.431 516.111 194.47 520.511 193.336C527.542 191.525 532.573 187.872 538.405 183.775C540.282 182.457 550.256 177.336 544.48 177.336" stroke="white" stroke-width="3" stroke-linecap="round" stroke-linejoin="round"/>
<path d="M425.729 191.257C425.241 187.848 431.951 194.258 435.23 195.309C442.405 197.607 449.8 198.964 456.873 201.62C458.358 202.178 476.805 208.954 470.984 205.178" stroke="white" stroke-width="3" stroke-linecap="round" stroke-linejoin="round"/>
<path d="M433.129 179.046C431.927 177.909 428.281 174.65 431.878 177.738C437.764 182.791 443.361 187.945 450.121 191.841C452.783 193.376 468.824 205.071 465.304 203.377" stroke="white" stroke-width="3" stroke-linecap="round" stroke-linejoin="round"/>
<path d="M444.019 177.899C443.808 177.85 440.995 176.438 441.746 175.96C445.711 173.436 452.992 184.377 454.666 186.478C458.588 191.401 462.848 195.914 467.956 199.623C468.99 200.374 472.305 203.586 469.395 201.101" stroke="white" stroke-width="3" stroke-linecap="round" stroke-linejoin="round"/>
<path d="M447.04 168.727C443.736 167.365 446.578 169.016 448.042 169.94C453.944 173.667 458.176 179.646 462.727 184.794C463.816 186.026 476.439 197.35 471.661 194.659" stroke="white" stroke-width="3" stroke-linecap="round" stroke-linejoin="round"/>
<path d="M455.847 164.178C455.739 162.927 454.143 163.86 455.776 166.001C460.534 172.24 465.016 178.59 469.285 185.173C471.042 187.882 479.238 203.563 475.152 193.422" stroke="white" stroke-width="3" stroke-linecap="round" stroke-linejoin="round"/>
<path d="M469.291 165.506C466.74 153.972 471.429 167.49 472.502 171.512C474.121 177.575 476.473 195.487 478.201 189.454" stroke="white" stroke-width="3" stroke-linecap="round" stroke-linejoin="round"/>
<path d="M473.745 156.608C473.745 148.068 478.414 169.672 478.989 172.064C480.308 177.554 484.924 193.371 485.391 187.745" stroke="white" stroke-width="3" stroke-linecap="round" stroke-linejoin="round"/>
<path d="M483.202 160.01C483.79 150.111 485.247 158.631 485.475 163.563C485.916 173.112 487.185 180.605 490.784 189.273" stroke="white" stroke-width="3" stroke-linecap="round" stroke-linejoin="round"/>
<path d="M493.155 153.952C493.155 152.034 490.782 185.838 495.057 186.435" stroke="white" stroke-width="3" stroke-linecap="round" stroke-linejoin="round"/>
<path d="M504.697 153.678C504.697 148.112 502.4 164.572 501.343 170.037C501.035 171.632 497.639 185.524 500.737 185.852" stroke="white" stroke-width="3" stroke-linecap="round" stroke-linejoin="round"/>
<path d="M514.753 154.896C514.753 158.634 501.436 185.387 506.781 185.76" stroke="white" stroke-width="3" stroke-linecap="round" stroke-linejoin="round"/>
<path d="M524.028 157.172C524.028 160.932 505.306 187.885 507.744 188.418" stroke="white" stroke-width="3" stroke-linecap="round" stroke-linejoin="round"/>
<path d="M535.101 157.736C535.8 157.736 523.417 176.54 521.938 178.498C520.69 180.151 508.28 198.812 514.467 191.348" stroke="white" stroke-width="3" stroke-linecap="round" stroke-linejoin="round"/>
<path d="M540.31 165.598C540.31 166.315 513.952 195.01 526.007 185.379" stroke="white" stroke-width="3" stroke-linecap="round" stroke-linejoin="round"/>
<path d="M553.65 165.507C555.523 165.204 542.163 179.414 539.634 182.54" stroke="white" stroke-width="3" stroke-linecap="round" stroke-linejoin="round"/>
<path d="M422.994 200.538C422.994 197.67 420.478 195.638 419.3 193.134C416.164 186.46 414.704 177.165 414.182 169.836C413.022 153.519 417.381 141.62 427.762 129.394C445.924 108.003 478.39 101.671 505.138 103.552C515.877 104.307 530.115 110.113 538.171 117.708C545.132 124.27 549.1 129.066 552.817 137.487C555.401 143.343 565.658 167.489 556.412 171.749" stroke="white" stroke-width="3" stroke-linecap="round" stroke-linejoin="round"/>
<path d="M573.842 92.1328C573.842 100.455 573.791 106.203 583.852 106.254C586.551 106.268 597.316 106.817 597.316 101.796C597.316 97.6445 599.331 110.143 601.97 113.348C605.171 117.232 609.049 123.852 614.79 123.271C623.213 122.42 623.667 104.926 627.989 104.926C631.071 104.926 633.159 109.745 636.696 110.125C641.707 110.664 642.991 99.9497 639.444 97.6286" stroke="white" stroke-width="3" stroke-linecap="round" stroke-linejoin="round"/>
<path d="M573.164 91.0953C585.282 91.0953 593.047 67.4432 595.109 59.0831C597.312 50.1557 600.742 41.7369 603.423 32.9752C605.171 27.2632 605.083 21.2356 607.489 15.7004C609.515 11.039 614.842 4.69164 620.795 7.84594C627.759 11.5365 629.944 24.4899 630.374 31.6427C631.01 42.2353 632.098 52.3446 631.112 62.9795C630.594 68.5598 629.824 76.9111 632.545 82.1055C635.524 87.7934 637.821 91.5815 641.632 96.2999" stroke="white" stroke-width="3" stroke-linecap="round" stroke-linejoin="round"/>
<path d="M573.268 98.1012C572.932 92.1824 572.472 95.4764 571.12 100.139C569.893 104.373 568.459 108.936 574.154 109.637C577.555 110.055 582.004 103.264 580.978 109.038C580.322 112.73 581.951 115.26 585.736 111.932C592.196 106.251 586.753 116.838 589.321 121.142C592.724 126.845 596.535 118.388 597.413 115.304C597.5 115.001 596.695 124.354 599.026 125.97C603.03 128.747 604.74 123.206 606.859 121.033C608.917 118.922 606.606 128.81 609.476 129.478C613.134 130.33 612.455 123.573 615.025 123.669C617.734 123.77 618.021 129.54 621.74 129.342C624.274 129.207 626.985 120.534 628.003 118.465C628.972 116.493 628.602 124.979 633.009 124.979C637.139 124.979 635.762 115.89 636.586 113.442C637.361 111.141 640.973 116.737 643.336 116.179C644.698 115.857 644.523 106.3 639.443 107.855" stroke="white" stroke-width="3" stroke-linecap="round" stroke-linejoin="round"/>
<path d="M603.464 134.169C604.247 134.084 604.849 126.115 604.483 130.857C603.08 149.058 603.623 167.3 602.52 185.534C600.975 211.093 599.741 237.564 593.124 262.466C588.925 278.266 584.098 294.034 578.479 309.386C575.759 316.819 571.389 329.15 566.052 335.147" stroke="white" stroke-width="3" stroke-linecap="round" stroke-linejoin="round"/>
<path d="M610.862 135.589C610.862 90.9956 615.018 226.26 602.708 269.121C600.204 277.838 597.591 286.866 594.142 295.247C590.679 303.665 589.476 313.385 584.688 321.115C583.001 323.837 578.374 332.73 578.374 336.515C578.374 336.885 574.502 335.854 574.206 335.802C571.733 335.375 568.522 334.879 566.155 336.003" stroke="white" stroke-width="3" stroke-linecap="round" stroke-linejoin="round"/>
<path d="M479.608 192.584C480.244 192.723 478.389 198.92 478.285 199.461C477.639 202.82 477.551 206.252 477.439 209.663C477.202 216.903 477.666 222.544 482.597 228.261C490.817 237.794 494.017 244.216 492.526 257.279C491.677 264.715 490.309 272.955 499.31 275.552C506.545 277.639 513.944 272.295 520.284 269.398C523.691 267.841 530.359 266.496 530.359 261.752C530.359 251.432 528.728 241.583 523.637 232.508C519.146 224.502 513.622 217.293 508.585 209.658C506.443 206.412 506.182 189.363 503.472 189.363" stroke="white" stroke-width="3" stroke-linecap="round" stroke-linejoin="round"/>
<path d="M424.973 199.864C418.809 199.363 435.584 176.465 437.111 174.949C444.67 167.445 454.657 159.174 464.441 154.806C476.836 149.272 502.054 141.954 514.648 149.506C519.695 152.533 527.904 156.934 533.444 158.5C541.052 160.651 541.716 168.943 547.684 172.982C548.927 173.823 552.225 177.689 553.812 174.783C554.136 174.19 555.354 168.009 554.9 167.217" stroke="white" stroke-width="3" stroke-linecap="round" stroke-linejoin="round"/>
<path d="M644.367 167.963C644.367 163.631 655.938 184.606 657.793 186.454C668.095 196.712 675.785 190.019 687.934 190.019C699.85 190.019 712.253 199.324 724.194 195.227C731.898 192.584 739.262 188.939 747.068 186.287C749.035 185.619 764.697 180.468 763.117 179.791" stroke="white" stroke-width="3" stroke-linecap="round" stroke-linejoin="round"/>
<path d="M645.592 172.421C645.592 163.499 630.107 155.19 637.897 147.09C646.113 138.548 663.151 137.39 674.256 139.484C687.191 141.922 694.875 158.111 708.855 159.804C720.382 161.199 732.171 159.828 743.731 159.828C750.639 159.828 755.307 158.967 760.551 163.79C765.039 167.917 768.767 175.086 763.586 179.609" stroke="white" stroke-width="3" stroke-linecap="round" stroke-linejoin="round"/>
<path d="M635.483 156.225C635.483 151.406 634.203 158.824 634.903 161.529C636.866 169.12 643.042 176.943 646.36 184.164C652 196.437 658.632 208.361 663.412 220.882" stroke="white" stroke-width="3" stroke-linecap="round" stroke-linejoin="round"/>
<path d="M763.482 180.647C765.272 180.473 763.438 179.99 761.502 181.562C757.965 184.432 754.811 187.793 751.35 190.759C744.485 196.642 736.379 201.274 729.118 206.688C721.341 212.487 715.755 220.581 707.728 226.263C704.703 228.404 702.223 232.322 698.382 231.437C692.124 229.996 685.805 230.336 679.449 229.354C673.252 228.396 669.591 223.581 664.923 219.936" stroke="white" stroke-width="3" stroke-linecap="round" stroke-linejoin="round"/>
<path d="M666.252 223.722C664.475 211.31 659.033 247.976 658.344 260.494C657.887 268.796 657.025 272.379 660.754 278.912C665.944 288 670.326 290.852 680.365 292.729C683.446 293.305 698.062 296.818 698.062 295.949" stroke="white" stroke-width="3" stroke-linecap="round" stroke-linejoin="round"/>
<path d="M704.966 231.109C701.341 231.109 697.06 272.625 696.265 278.105C695.347 284.431 695.04 294.819 695.04 299.26" stroke="white" stroke-width="3" stroke-linecap="round" stroke-linejoin="round"/>
<path d="M653.46 179.609C650.513 178.396 651.924 175.07 651.358 172.718C649.503 165 656.265 187.838 659.351 195.152C661.909 201.217 664.702 207.949 665.514 214.545C665.63 215.491 666.431 225.912 667.112 221.355" stroke="white" stroke-width="3" stroke-linecap="round" stroke-linejoin="round"/>
<path d="M666.721 190.692C666.721 180.565 672.398 230.251 673.833 220.227" stroke="white" stroke-width="3" stroke-linecap="round" stroke-linejoin="round"/>
<path d="M674.589 191.165C674.589 180.035 678.134 235.393 678.835 224.285" stroke="white" stroke-width="3" stroke-linecap="round" stroke-linejoin="round"/>
<path d="M687.563 189.163C687.563 182.816 686.897 201.877 685.736 208.118C685.223 210.878 682.873 229.283 683.577 225.705" stroke="white" stroke-width="3" stroke-linecap="round" stroke-linejoin="round"/>
<path d="M692.278 192.477C692.278 187.372 694.338 192.89 693.138 197.07C690.502 206.255 688.396 234.897 688.396 225.342" stroke="white" stroke-width="3" stroke-linecap="round" stroke-linejoin="round"/>
<path d="M700.798 194.477C702.726 194.477 696.381 214.401 695.796 216.397C695.273 218.178 690.915 232.541 694.076 225.431" stroke="white" stroke-width="3" stroke-linecap="round" stroke-linejoin="round"/>
<path d="M712.079 191.438C711.372 197.114 707.425 203.578 705.352 208.872C702.91 215.105 700.661 221.381 698.44 227.692C698.172 228.453 696.277 234.092 697.411 230.436" stroke="white" stroke-width="3" stroke-linecap="round" stroke-linejoin="round"/>
<path d="M717.941 197.497C717.967 197.219 718.827 195.096 719.252 195.372C719.86 195.767 713.532 205.584 713.121 206.265C708.757 213.492 697.88 226.666 697.88 235.549" stroke="white" stroke-width="3" stroke-linecap="round" stroke-linejoin="round"/>
<path d="M745.87 188.508C740.575 188.508 734.506 197.861 730.997 201.212C724.242 207.663 717.145 213.878 711.138 221.057C709.506 223.007 708.077 226.535 706.009 227.979" stroke="white" stroke-width="3" stroke-linecap="round" stroke-linejoin="round"/>
<path d="M443.524 167.963C443.515 168.18 442.106 158.542 442.117 155.924C442.128 153.394 442.994 141.878 446.325 140.476C451.408 138.338 455.087 157.372 457.749 157.372" stroke="white" stroke-width="3" stroke-linecap="round" stroke-linejoin="round"/>
<path d="M507.641 149.693C502.759 149.693 498.932 136.367 496.872 133.133C495.504 130.986 487.253 123.088 492.491 123.088C506.219 123.088 508.306 146.877 517.593 152.732" stroke="white" stroke-width="3" stroke-linecap="round" stroke-linejoin="round"/>
<path d="M624.019 32.7886C621.929 15.9935 620.208 67.6213 625.999 83.5243" stroke="white" stroke-width="3" stroke-linecap="round" stroke-linejoin="round"/>
<path d="M688.319 178.482C681.842 178.82 701.329 179.351 707.624 180.915C712.016 182.006 725.565 183.217 728.935 179.793" stroke="white" stroke-width="3" stroke-linecap="round" stroke-linejoin="round"/>
<path d="M660.937 162.104C657.78 162.104 656.199 153.188 661.305 151.782C663.732 151.114 674.016 153.151 674.016 155.953" stroke="white" stroke-width="3" stroke-linecap="round" stroke-linejoin="round"/>
<path d="M94.4377 227.056C94.4377 223.011 89.4141 224.946 86.8794 226.551C86.0021 227.107 82.8864 229.991 85.2308 230.834C89.658 232.425 94.7041 229.104 98.6062 227.498C108.442 223.448 96.5873 224.169 92.0524 224.714C90.5312 224.897 85.6897 226.022 85.7359 228.293C85.7762 230.269 95.926 229.378 97.1993 229.33" stroke="white" stroke-width="3" stroke-linecap="round" stroke-linejoin="round"/>
<path d="M150.686 186.074C150.686 179.988 145.145 180.439 139.966 180.487C136.541 180.52 139.542 182.634 141.066 183.255C145.781 185.178 150.919 185.31 155.937 185.31C164.549 185.31 149.309 177.648 145.252 177.648C141.926 177.648 140.141 179.076 143.899 181.578C147.394 183.906 154.913 181.978 157.225 185.128" stroke="white" stroke-width="3" stroke-linecap="round" stroke-linejoin="round"/>
<path d="M913.56 110.767C913.56 106.355 911.302 92.5489 913.183 104.814C917.372 132.121 920.554 158.903 925.982 186.078C931.531 213.862 937.069 241.679 942.219 269.538C944.888 283.976 946.833 298.661 950.185 312.959C950.783 315.508 954.149 328.77 954.386 327.13" stroke="white" stroke-width="3" stroke-linecap="round" stroke-linejoin="round"/>
<path d="M989.706 101.851C989.706 85.6883 992.81 86.3108 993.558 104.046C995.052 139.45 999.959 176.527 1008.83 210.894C1014.25 231.884 1016.57 253.527 1020.82 274.743C1022.69 284.093 1024.57 293.495 1026.72 302.785C1027.11 304.479 1030.44 318.727 1026.63 313.612" stroke="white" stroke-width="3" stroke-linecap="round" stroke-linejoin="round"/>
<path d="M953.047 319.564C950.986 319.77 965.167 341.851 969.423 343.867C981.58 349.627 990.455 347.016 1003.29 347.016C1022.98 347.016 1030.81 322.766 1024.73 306.566" stroke="white" stroke-width="3" stroke-linecap="round" stroke-linejoin="round"/>
<path d="M908.684 97.378C894.656 97.378 936.624 94.2586 950.652 94.2586C964.345 94.2586 978.591 83.9902 991.752 83.9902" stroke="white" stroke-width="3" stroke-linecap="round" stroke-linejoin="round"/>
<path d="M906.638 96.1577C906.638 98.6193 903.9 91.9954 902.052 90.3693C898.301 87.0687 894.354 81.2503 893.397 76.2767C892.317 70.667 892.979 64.7914 892.979 59.1123C892.979 54.2357 951.813 48.0895 961.806 45.8559C967.851 44.5046 977.491 43.9944 983.073 41.2605C991.873 36.9507 990.345 41.2487 991.685 49.3061C992.711 55.4799 993.614 61.7917 993.614 68.0491C993.614 75.302 989.39 77.5051 988.217 83.3158" stroke="white" stroke-width="3" stroke-linecap="round" stroke-linejoin="round"/>
<path d="M992.683 83.0547C989.86 83.0547 991.222 92.8213 991.343 94.6748" stroke="white" stroke-width="3" stroke-linecap="round" stroke-linejoin="round"/>
<path d="M976.456 16.9215C976.456 -0.805542 982.15 87.5239 982.15 69.7968" stroke="white" stroke-width="3" stroke-linecap="round" stroke-linejoin="round"/>
<path d="M916.389 85.7586C902.465 85.7586 944.174 83.6564 958.097 83.445C964.423 83.3489 967.892 82.2581 973.306 79.0228C976.091 77.3586 984.157 74.6047 981.183 73.3066" stroke="white" stroke-width="3" stroke-linecap="round" stroke-linejoin="round"/>
<path d="M896.365 35.1717C895.512 35.1717 894.681 27.39 894.461 26.1888C892.832 17.279 897.391 44.4082 901.683 52.3838C904.819 58.2103 906.037 65.5224 907.524 71.8763C908.357 75.4304 911.813 87.8723 913.299 79.6765" stroke="white" stroke-width="3" stroke-linecap="round" stroke-linejoin="round"/>
<path d="M893.686 25.5778C889.712 25.5778 901.614 25.0061 905.566 24.5871C909.059 24.2168 911.413 21.6596 913.679 24.8962C914.795 26.4888 923.682 45.2523 923.682 41.1233C923.682 39.0104 921.074 20.9426 922.227 19.9136C923.817 18.4949 937.475 17.7971 940.207 17.2101C943.908 16.4147 948.278 16.3753 951.732 16.3753C954.278 16.3753 952.594 25.0319 958.096 25.0319C963.388 25.0319 957.015 14.7929 961.685 14.8936C964.534 14.955 972.392 16.0429 974.819 14.3477" stroke="white" stroke-width="3" stroke-linecap="round" stroke-linejoin="round"/>
<path d="M894.877 21.9129C884.386 21.9129 912.343 7.45927 922.833 7.45927C926.972 7.45927 930.835 9.48694 934.228 9.48694C939.149 9.48694 935.777 4.09919 938.516 2.88691C944.009 0.455617 960.549 3.79387 967.582 3.79387C974.013 3.79387 984.226 12.098 974.41 14.8941" stroke="white" stroke-width="3" stroke-linecap="round" stroke-linejoin="round"/>
<path d="M925.172 123.218C925.172 111.816 930.332 145.452 932.086 156.718C934.677 173.363 938.34 189.909 940.263 206.633C943.011 230.527 944.905 259.583 953.866 282.093C959.201 295.494 959.742 308.475 966.586 321.312C968.822 325.505 972.65 331.382 976.988 333.693C979.399 334.977 989.737 338.769 989.446 336.462" stroke="white" stroke-width="3" stroke-linecap="round" stroke-linejoin="round"/>
<path d="M983.415 117.816C983.415 116.627 983.415 115.439 983.415 114.251C983.415 109.462 984.027 123.837 984.96 128.534C987.496 141.295 990.178 154.021 992.772 166.769C996.761 186.368 999.94 206.152 1003.39 225.858C1005.95 240.512 1010.36 254.927 1013.07 269.587C1014.72 278.508 1016.68 287.177 1017.84 296.194C1018.62 302.29 1017.3 308.731 1017.12 314.845C1016.96 320.325 1014.47 324.807 1011.2 328.791C1008.31 332.304 1003.42 334.177 999.516 336.23C996.832 337.641 988.913 339.302 986.26 337.343" stroke="white" stroke-width="3" stroke-linecap="round" stroke-linejoin="round"/>
<path d="M924.825 121.314C919.396 121.314 936.529 117.523 941.09 120.468C948.643 125.344 956.29 131.707 965.622 131.757C970.891 131.785 975.433 128.127 978.244 123.952C978.518 123.544 983.32 114.956 981.992 114.777" stroke="white" stroke-width="3" stroke-linecap="round" stroke-linejoin="round"/>
<path d="M925.523 121.167C922.238 122.709 923.811 115.328 924.826 114.017C929.398 108.106 937.987 108.542 944.594 108.652C949.631 108.735 954.249 112.603 958.774 114.561C963.166 116.462 965.251 117.3 970.157 116.961C973.239 116.748 974.988 117.019 977.326 114.69C978.076 113.942 979.854 111.182 981.031 111.182" stroke="white" stroke-width="3" stroke-linecap="round" stroke-linejoin="round"/>
<path d="M980.682 111.533C981.634 112.593 982.371 114.592 982.202 116.044" stroke="white" stroke-width="3" stroke-linecap="round" stroke-linejoin="round"/>
<path d="M933.291 112.088C933.291 107.7 921.648 118.744 929.549 114.162C934.475 111.304 932.534 111.754 929.054 114.348C927.81 115.275 926.849 116.63 926.621 118.188C926.383 119.805 930.776 116.769 931.114 116.573C932.178 115.955 942.698 110.959 939.737 111.528C937.235 112.009 928.103 120.542 930.841 120.052C933.59 119.56 936.448 116.7 938.811 115.283C939.19 115.055 942.831 113.003 941.55 113.003C939.229 113.003 933.681 118.618 938.332 118.037C940.268 117.795 946.869 112.426 945.725 112.503C942.676 112.706 936.003 121.61 942.259 119.421C943.722 118.909 949.8 112.857 949.468 112.857C947.224 112.857 943.367 119.647 945.17 119.782C946.754 119.901 954.752 115.117 953.606 112.831C952.98 111.582 944.582 120.691 947.509 121.494C950.654 122.356 956.36 117.051 956.593 113.871C956.641 113.222 947.046 125.024 950.002 125.586C952.502 126.062 959.859 119.154 959.692 116.501C959.574 114.632 957.131 119.254 956.084 120.806C955.799 121.23 952.359 126.515 953.578 126.803C956.431 127.48 962.454 119.826 963.431 117.271C964.007 115.765 961.065 119.497 960.143 120.819C959.846 121.245 956.471 126.362 957.567 126.709C959.946 127.461 962.845 123.287 964.128 121.8C965.253 120.495 968.733 116.725 967.358 117.764C965.774 118.96 957.964 128.931 959.48 128.967C964.388 129.083 970.019 120.787 973.267 117.527C975.087 115.7 969.395 120.941 967.59 122.784C965.918 124.493 960.455 128.993 961.076 131.89C961.274 132.816 976.554 119.99 978.134 117.691C980.643 114.041 970.664 123.082 968.703 127.054C967.528 129.436 972.909 125.266 973.34 124.877C976.25 122.241 978.782 119.628 980.702 116.18C984.508 109.344 975.453 121.605 974.275 122.956C969.422 128.517 970.819 127.612 964.885 125.355C962.083 124.289 959.63 123.116 957.428 121.033C956.001 119.683 954.621 117.781 952.677 117.161C949.561 116.167 946.249 113.652 943.006 113.521C938.49 113.338 933.697 114.368 929.637 111.834" stroke="white" stroke-width="3" stroke-linecap="round" stroke-linejoin="round"/>
<path d="M941.829 142.252C939.614 122.136 948.387 182.211 952.721 201.979" stroke="white" stroke-width="3" stroke-linecap="round" stroke-linejoin="round"/>
<path d="M958.717 240.105C958.717 243.796 960.863 248.358 961.637 251.992C964.341 264.685 967.927 277.151 972.506 289.294" stroke="white" stroke-width="3" stroke-linecap="round" stroke-linejoin="round"/>
</svg>
