<svg width="910" height="326" viewBox="0 0 910 326" fill="none" xmlns="http://www.w3.org/2000/svg">
<path d="M17.1454 170.067C11.7532 154.392 21.1961 203.085 24.595 219.334C25.9406 225.768 24.4722 220.767 21.7896 218.624C17.1441 214.913 11.2174 217.143 7.70778 221.254C3.9923 225.606 -1.16532 237.38 4.55037 241.994C9.60533 246.074 17.6208 243.304 21.7597 239.264C27.0053 234.144 23.0593 228.203 26 222.563" stroke="white" stroke-width="3" stroke-linecap="round" stroke-linejoin="round"/>
<path d="M18.6882 173.486C14.7923 173.486 28.6087 164.562 30.847 162.756C39.2351 155.989 50.1386 150.043 57.5498 142.277C58.7996 140.968 58.105 144.672 58.105 145.522C58.105 152.725 60.2543 160.071 61.7113 167.087C64.4797 180.418 67.1652 193.748 69.8307 207.082C70.7269 211.565 68.01 202.974 62.9731 201.513C51.6541 198.229 43.5985 206.827 43.5985 217.636C43.5985 230.912 63.3448 220.381 66.2896 213.403C67.8526 209.699 68.209 205.228 68.004 201.235C67.8679 198.584 64.3637 200.593 64.0542 202.453" stroke="white" stroke-width="3" stroke-linecap="round" stroke-linejoin="round"/>
<path d="M19.1096 222.83C14.0618 222.83 10.0224 221.551 9.19305 228.096C8.21483 235.815 14.9887 248.239 21.4294 237.155C24.9148 231.157 26.148 221.399 16.9106 221.399C10.3434 221.399 3.59941 238.642 11.3985 240.642C30.0783 245.434 19.3006 204.832 5.38001 231.907C-0.13981 242.643 12.1949 245.864 19.5376 240.35C24.6326 236.524 28.6433 220.857 19.7271 219.146C11.7405 217.614 3.71063 228.437 6.74578 236.236C9.81647 244.125 20.5686 238.833 21.7529 232.392C22.7228 227.118 18.5085 215.225 13.9928 224.582C12.6652 227.334 11.0324 244.588 18.4626 239.473C20.739 237.906 24.2931 226.018 19.9297 225.254C16.7845 224.703 13.4833 237.549 15.4681 238.644C18.0752 240.081 23.0455 231.074 21.9849 229.366C20.7293 227.343 19.4282 233.401 18.4545 235.581C17.4233 237.889 19.223 237.078 21.4327 236.956" stroke="white" stroke-width="3" stroke-linecap="round" stroke-linejoin="round"/>
<path d="M55.227 208.076C56.3027 198.95 40.5729 216.032 50.9279 216.252C56.0317 216.36 62.2105 210.403 62.6604 205.299C63.2572 198.53 50.6834 208.994 49.524 210.908C36.4535 232.489 79.0079 209.212 66.7583 201.938C59.472 197.612 49.9825 209.329 48.526 215.076C45.9115 225.393 58.1669 222.587 62.5186 216.943C76.8291 198.381 43.3371 199.957 47.6088 215.511C49.0453 220.742 60.7337 215.341 61.4463 211.385C62.6351 204.786 55.051 202.865 51.0962 207.581C36.9654 224.432 67.174 222.599 65.8971 205.823C65.2541 197.375 54.605 209.698 53.8693 212.984C51.6887 222.725 60.766 214.029 63.1257 210.494" stroke="white" stroke-width="3" stroke-linecap="round" stroke-linejoin="round"/>
<path d="M24.9776 186.267C23.3091 190.442 26.3597 185.928 28.4933 184.631C37.5616 179.12 46.7859 173.564 55.9171 168.142C59.7585 165.861 62.6304 157.42 56.2113 161.309C45.9263 167.541 36.9017 177.499 27.8123 185.356C19.1393 192.853 45.5424 170.818 54.516 163.684C65.7152 154.781 54.3726 159.252 48.6077 163.617C41.824 168.753 35.4768 174.496 28.4592 179.335C27.224 180.186 22.2563 183.705 26.837 181.252C36.6302 176.006 50.7303 166.157 56.6063 156.453C58.3033 153.651 51.8825 156.767 51.2733 157.182C44.3078 161.938 37.9982 167.725 31.2516 172.792C29.8997 173.808 22.1908 177.725 21.8064 179.515C20.7825 184.285 30.5545 175.081 34.4342 172.126C37.2571 169.975 58.1369 152.635 54.5079 152.66C43.7939 152.734 29.4143 168.805 21.2326 174.816C16.9974 177.927 24.9475 174.193 26.0373 173.461C33.0156 168.772 39.1693 162.547 45.0919 156.617C52.9259 148.773 46.795 149.924 41.2641 155.293C35.8217 160.576 30.4091 165.997 24.3697 170.609C22.0071 172.414 21.8902 172.801 24.9776 171.712" stroke="white" stroke-width="3" stroke-linecap="round" stroke-linejoin="round"/>
<path d="M130 82.9204C130 76.8834 129.409 86.8484 128.89 88.6305C123.824 106.03 118.569 123.178 114.266 140.814C112.518 147.98 110.938 169.973 110.385 162.61C110.108 158.918 107.894 155.4 104.124 154.664C90.8585 152.073 83.9277 174.714 101.615 174.998C115.564 175.222 113.013 154.902 106.78 158.735" stroke="white" stroke-width="3" stroke-linecap="round" stroke-linejoin="round"/>
<path d="M130.296 84.6076C124.849 81.766 137.897 78.1055 140.428 78.0104C153.021 77.5374 150.493 93.3684 148.594 101.03C146.181 110.766 143.176 126.007 150.978 134.365C152.248 135.725 158.519 134.527 156.657 134.193C150.274 133.045 144.425 135.924 138.476 132.432C132.297 128.805 129.826 124.377 130.099 117.451C130.284 112.767 132.101 108.334 132.024 103.571C131.983 101.016 126.847 98.407 128.239 99.0533" stroke="white" stroke-width="3" stroke-linecap="round" stroke-linejoin="round"/>
<path d="M136.767 85.5821C130.84 80.0761 128.34 98.2016 129.148 98.161C135.699 97.8309 144.549 67.7703 134.758 96.3354C128.274 115.253 142.897 89.3999 144.423 83.4264C146.226 76.3731 140.357 97.4107 138.13 104.343C137.766 105.477 132.923 123.977 133.314 123.908C136.708 123.315 142.139 100.699 143.345 97.5054C147.691 85.9941 137.971 109.429 137.207 111.908C136.548 114.048 130.858 131.797 136.272 132.04C141.267 132.265 143.274 112.892 143.675 109.497C144.617 101.53 135.401 134.044 140.628 132.772C143.076 132.177 141.238 128.087 143.688 132.856C144.851 135.12 146.747 135.574 149 136" stroke="white" stroke-width="3" stroke-linecap="round" stroke-linejoin="round"/>
<path d="M134.84 272.113C138.539 271.977 127.437 272.215 123.736 272.215C118.626 272.215 117.145 261.147 118.418 257.238C124.704 237.931 146.923 249.721 150.904 263.799C161.69 301.945 88.9671 298.193 104.075 261.814C108.306 251.623 115.959 245.422 124.222 238.754C130.787 233.456 141.141 228.925 145.854 221.836C147.249 219.738 152.041 210.068 149.321 208.037C141.689 202.337 138.404 221.842 137.411 225.259C129.434 252.722 130.859 282.096 123.049 309.635C121.134 316.385 114.471 306.894 114.471 303.397C114.471 297.535 117.951 299.523 122.127 298.194" stroke="white" stroke-width="3" stroke-linecap="round" stroke-linejoin="round"/>
<path d="M317.474 78.162C317.474 47.4879 313.922 139.742 317.847 170.184C320.365 189.71 322.547 208.787 327.825 227.854C329.408 233.574 330.839 239.31 331.722 245.172C332.396 249.641 332.974 234.62 333 233.401" stroke="white" stroke-width="3" stroke-linecap="round" stroke-linejoin="round"/>
<path d="M315.783 73C315.651 77.5606 310.102 82.717 307.37 85.9086C300.985 93.3673 295.013 101.018 288.161 108.085C285.185 111.153 279.05 116.291 277.827 120.805C275.295 130.155 279.299 143.711 280.21 153.032C281.672 167.988 283.439 182.954 284.716 197.923C285.442 206.426 286.385 222.204 294.078 227.827C298.536 231.085 305.395 231.706 310.372 234.107C316.516 237.071 320.275 240.395 327 242" stroke="white" stroke-width="3" stroke-linecap="round" stroke-linejoin="round"/>
<path d="M347.891 274.552C342.727 279.178 361.412 271.444 367.94 269.137C392.036 260.622 415.905 251.537 440.168 243.492C460.22 236.843 479.273 227.536 499.11 220.313C502.02 219.253 521.587 209.81 516.003 214.12" stroke="white" stroke-width="3" stroke-linecap="round" stroke-linejoin="round"/>
<path d="M348.462 276.946C346.435 276.946 351.636 279.461 353.209 280.736C357.685 284.359 362.312 287.797 366.921 291.249C372.444 295.386 377.434 299.792 382.638 304.266C390.075 310.66 403.59 304.219 410.79 301.312C432.939 292.368 455.949 286.693 478.464 278.708C495.565 272.644 512.962 268.094 529.988 262.069C541.161 258.115 555.971 247.99 567.934 247.783C571.729 247.717 564.225 238.317 563.536 237.417C559.529 232.177 553.852 229.654 549.163 225.254C538.066 214.841 530.625 210.738 515.487 214.209" stroke="white" stroke-width="3" stroke-linecap="round" stroke-linejoin="round"/>
<path d="M345.853 276C341.616 276.59 345.69 287.757 347.75 289.778C353.474 295.394 358.955 302.088 364.944 307.327C369.618 311.415 377.328 320.775 383.49 321.877C390.297 323.094 390.125 315.004 386.603 310.759" stroke="white" stroke-width="3" stroke-linecap="round" stroke-linejoin="round"/>
<path d="M388.91 320C384.612 320 396.721 316.404 400.683 314.735C407.317 311.942 414.276 308.964 421.308 307.367C433.523 304.591 445.696 301.642 457.889 298.79C477.231 294.267 495.204 285.483 514.36 280.751C528.682 277.213 541.005 270.664 554.033 264.911C564.237 260.406 566 257.184 566 245" stroke="white" stroke-width="3" stroke-linecap="round" stroke-linejoin="round"/>
<path d="M524.693 236.576C523.432 234.359 518 239.134 518 240.849C518 244.083 527.266 239.561 528.357 238.744C535.534 233.375 516.313 239.617 525.492 239.617" stroke="white" stroke-width="3" stroke-linecap="round" stroke-linejoin="round"/>
<path d="M527 245.013C520.463 244.714 516.729 249.594 523.882 246.925C532.433 243.734 512.763 248 523.778 248" stroke="white" stroke-width="3" stroke-linecap="round" stroke-linejoin="round"/>
<path d="M539 239.762C532.867 239.762 528.381 244.828 536.066 240.595C544.546 235.924 529.622 243 534.678 243" stroke="white" stroke-width="3" stroke-linecap="round" stroke-linejoin="round"/>
<path d="M535.695 250.09C535.695 246.458 531.764 246.168 529.42 248.486C524.2 253.648 534.899 249.577 537 247.601" stroke="white" stroke-width="3" stroke-linecap="round" stroke-linejoin="round"/>
<path d="M384.352 277.385C377.338 275.133 370.522 283.668 384.735 279.831C385.283 279.683 379.006 278.946 377.128 279.947C369.973 283.764 382.987 281.226 385 280.5" stroke="white" stroke-width="3" stroke-linecap="round" stroke-linejoin="round"/>
<path d="M402.984 272.117C399.603 274.637 395.459 274.904 391.717 276.552C387.971 278.202 399.952 274.935 403.339 272.618C408.349 269.191 382.651 281.437 401.05 275.029" stroke="white" stroke-width="3" stroke-linecap="round" stroke-linejoin="round"/>
<path d="M423 263C418.511 263.319 413.016 267.313 410.182 270.649C405.35 276.335 416.783 270.112 418.464 268.603C429.074 259.074 408.471 268.194 416.27 268.499" stroke="white" stroke-width="3" stroke-linecap="round" stroke-linejoin="round"/>
<path d="M441 259.289C436.291 259.289 432.702 260.296 428.713 263.046C425.36 265.356 434.835 262.902 436.395 261.655C447.071 253.119 427.615 262.518 438.094 260.26" stroke="white" stroke-width="3" stroke-linecap="round" stroke-linejoin="round"/>
<path d="M459.835 250.428C462.203 243.697 438.097 263.429 452.762 254.755C463.253 248.55 448.658 250.696 452.238 253.282" stroke="white" stroke-width="3" stroke-linecap="round" stroke-linejoin="round"/>
<path d="M474.972 243.657C474.972 239.748 458.819 254.926 472.499 246.308C483.179 239.578 465.327 246.154 472.594 246.154" stroke="white" stroke-width="3" stroke-linecap="round" stroke-linejoin="round"/>
<path d="M493.242 237C493.12 237.308 489.878 237.353 489.398 237.537C487.354 238.32 485.474 239.658 483.825 241.131C480.545 244.062 488.019 242.811 489.242 242.244C500.675 236.946 487.76 239.024 488.921 239.734" stroke="white" stroke-width="3" stroke-linecap="round" stroke-linejoin="round"/>
<path d="M511 233.462C507.413 233.462 497.051 237.021 502.605 235.71C512.681 233.332 502.481 230.067 502.481 233.462" stroke="white" stroke-width="3" stroke-linecap="round" stroke-linejoin="round"/>
<path d="M394 287C395.088 287 397.415 284.139 396.604 284.006C395.717 283.861 392.257 286.283 395.873 286.283C405.767 286.283 388.268 284.285 396.546 285.149" stroke="white" stroke-width="3" stroke-linecap="round" stroke-linejoin="round"/>
<path d="M420.862 277.355C410.607 278.48 408.356 288.311 419.616 278.661C427.289 272.086 399.66 287.555 419.033 281.611" stroke="white" stroke-width="3" stroke-linecap="round" stroke-linejoin="round"/>
<path d="M445.119 268.41C441.601 270.636 437.459 271.568 434.008 274.04C429.213 277.476 442.985 270.686 444.805 269.339C452.236 263.84 421.859 277.34 439.479 272.956" stroke="white" stroke-width="3" stroke-linecap="round" stroke-linejoin="round"/>
<path d="M461.724 262C454.235 262 449.177 272.006 461.199 263.708C465.77 260.553 448.873 265.531 458.142 265.531" stroke="white" stroke-width="3" stroke-linecap="round" stroke-linejoin="round"/>
<path d="M479 255.457C479 248.296 462.575 270.513 475.552 258.211C482.638 251.493 461.547 261.655 474.053 259.786" stroke="white" stroke-width="3" stroke-linecap="round" stroke-linejoin="round"/>
<path d="M494 248C487.75 248 485.042 257.645 492.547 250.144C497.442 245.251 485.168 250.851 490.456 250.851" stroke="white" stroke-width="3" stroke-linecap="round" stroke-linejoin="round"/>
<path d="M508 242C506.702 242.328 499.115 247.346 503.191 246.981C506.993 246.641 507.772 242.03 502.96 244.548" stroke="white" stroke-width="3" stroke-linecap="round" stroke-linejoin="round"/>
<path d="M412.298 294.827C399.864 294.827 406.581 300.637 414.208 294.369C417.607 291.576 409.043 293.769 407.766 294.707C406.587 295.573 399.662 300.928 404.99 298.264" stroke="white" stroke-width="3" stroke-linecap="round" stroke-linejoin="round"/>
<path d="M511.998 258.367C505.75 258.367 502.474 262.011 510.05 258.413C522.088 252.696 502.634 258.932 504.077 258.932" stroke="white" stroke-width="3" stroke-linecap="round" stroke-linejoin="round"/>
<path d="M431.366 285.853C427.729 287.856 430.899 286.351 432.263 286.15C438.803 285.183 444.418 281.051 450.824 279.378C455.604 278.13 459.733 275.201 464.461 273.71C469.518 272.114 474.913 270.372 479.735 268.128C483.46 266.396 492.241 264.782 494.774 261.294C495.602 260.153 491.687 259.996 491.098 260C487.561 260.028 483.565 263.266 480.345 264.538C466.487 270.014 453.104 277.268 438.76 281.395C435.309 282.387 430.849 284.504 427.853 286.532C426.628 287.362 424.597 288.395 427.447 288.865C432.475 289.694 440.088 286.53 444.4 284.236C455.482 278.34 467.376 274.403 478.837 269.278C483.095 267.373 492.983 265.539 494.962 260.821C496.005 258.332 475.421 264.247 472.547 266.888C472.357 267.063 477.067 266.737 477.764 266.581C481.132 265.827 484.498 265.068 487.843 264.212C489.058 263.901 495.48 262.055 491.333 263.768C480.616 268.197 469.099 272.678 458.039 275.964C457.086 276.248 448.805 279.081 452.874 279.081C460.53 279.081 470.711 273.995 477.775 271.1C478.195 270.928 494.092 264.694 494.092 263.12C494.092 257.809 481.505 262.927 479.22 264.949" stroke="white" stroke-width="3" stroke-linecap="round" stroke-linejoin="round"/>
<path d="M317.271 69.8091C311.333 69.8091 327.815 64.124 333.518 62.4618C349.531 57.7947 364.876 50.8238 380.512 45.0503C406.525 35.4455 431.965 24.3186 457.998 14.7278C469.992 10.3094 484.295 4.37717 496.565 2.0084C501.807 0.99635 507.449 91.7067 507.449 102.643C507.449 116.374 508.293 130.419 509.496 144.097C510.1 150.97 510.722 171.421 512 164.642" stroke="white" stroke-width="3" stroke-linecap="round" stroke-linejoin="round"/>
<path d="M333.099 246C332.02 246 340.087 244.126 342.372 243.27C356.342 238.039 369.65 231.206 383.41 225.455C408.869 214.815 433.226 201.899 458.092 190.038C475.341 181.81 492.699 170.807 511 165" stroke="white" stroke-width="3" stroke-linecap="round" stroke-linejoin="round"/>
<path d="M332 82.1839C332 35.7979 339.603 267.097 343 220.851" stroke="white" stroke-width="3" stroke-linecap="round" stroke-linejoin="round"/>
<path d="M331.127 81.2044C325.812 81.2044 340.739 76.5579 345.818 74.987C358.466 71.0752 370.409 65.5642 382.898 61.1805C402.923 54.1518 422.389 46.1861 442.52 39.4674C453.607 35.767 465.426 31.4702 475.922 26.2874C478.705 24.9128 481.434 23.4235 484.219 22.0265C485.624 21.3213 486.493 34.9305 486.699 36.9251C490.675 75.4758 496 115.299 496 154" stroke="white" stroke-width="3" stroke-linecap="round" stroke-linejoin="round"/>
<path d="M345.57 223.958C342.776 224.292 351.021 222.542 353.679 221.622C365.654 217.475 376.71 210.32 388.555 205.656C408.334 197.869 427.415 189.494 446.46 179.963C457.736 174.32 468.453 167.623 480.004 162.557C483.685 160.943 500.13 152.007 499.999 152" stroke="white" stroke-width="3" stroke-linecap="round" stroke-linejoin="round"/>
<path d="M350 101C368.273 88.9001 395.066 82.6785 415.557 75.5284C425.351 72.1111 435.033 68.51 444.491 64.258C449.865 61.8423 452.889 60.536 446.021 64.6927" stroke="white" stroke-width="3" stroke-linecap="round" stroke-linejoin="round"/>
<path d="M354 107.933C354 108.859 380.319 99.8614 382.256 99.1692C401.728 92.2071 420.653 84.0124 440.446 77.9251C451.905 74.4008 483.34 58.2136 474.431 66.1764" stroke="white" stroke-width="3" stroke-linecap="round" stroke-linejoin="round"/>
<path d="M346 125C353.708 125 364.1 118.792 371.196 116.254C387.693 110.353 403.854 103.273 420.768 98.6575C430.938 95.8822 440.499 91.3957 450.633 88.5844C452.159 88.1609 462.353 86 459.499 86" stroke="white" stroke-width="3" stroke-linecap="round" stroke-linejoin="round"/>
<path d="M351 135.293C351 138.696 374.626 128.751 377.281 127.869C396.208 121.577 414.971 114.813 433.877 108.453C444.788 104.783 455.671 100.268 466.894 97.6541C471.998 96.4654 487.154 93 481.914 93" stroke="white" stroke-width="3" stroke-linecap="round" stroke-linejoin="round"/>
<path d="M355 145C366.566 145 379.993 136.551 391.393 133.724C405.573 130.207 419.676 126.516 433.661 122.291C447.61 118.077 489.545 108 474.964 108" stroke="white" stroke-width="3" stroke-linecap="round" stroke-linejoin="round"/>
<path d="M351.004 161.764C350.667 163.441 372.456 155.669 375.115 154.735C392.56 148.603 410.115 144.169 427.846 139.094C439.754 135.686 450.688 129.902 462.52 126.258C468.565 124.396 480.737 118.18 469.237 125.422" stroke="white" stroke-width="3" stroke-linecap="round" stroke-linejoin="round"/>
<path d="M356 178C361.213 178 368.096 173.964 372.752 172.173C389.288 165.812 405.59 159.163 422.497 153.783C435.864 149.53 449.302 145.653 462.549 141.031C465.89 139.866 476.355 135.756 467.567 139.62" stroke="white" stroke-width="3" stroke-linecap="round" stroke-linejoin="round"/>
<path d="M357 191C357 190.212 375.903 184.338 377.191 183.848C396.499 176.5 415.803 169.331 435.347 162.625C447.548 158.439 459.468 153.629 471.162 148.179C473.148 147.254 482.479 144 480.799 144" stroke="white" stroke-width="3" stroke-linecap="round" stroke-linejoin="round"/>
<path d="M720 100C718.803 100 712.492 269.691 711 290" stroke="white" stroke-width="3" stroke-linecap="round" stroke-linejoin="round"/>
<path d="M718.099 101.43C716.409 103.38 736.857 98.0109 739.855 97.5522C758.842 94.648 779.671 94.1338 798.888 94.1338C817.823 94.1338 838.597 91.9879 857.413 89.5703C863.643 88.7699 873.815 83.3351 874.572 91.2141C876.553 111.825 871.072 133.386 870.008 154.003C869.024 173.081 868.991 192.205 868.025 211.273C866.661 238.232 860.996 268.068 864.721 295" stroke="white" stroke-width="3" stroke-linecap="round" stroke-linejoin="round"/>
<path d="M713 291C738.66 291 763.949 287.74 789.483 288.017C811.604 288.256 834.009 288.782 856 288.782" stroke="white" stroke-width="3" stroke-linecap="round" stroke-linejoin="round"/>
<path d="M689 78.6513C689 69.3865 701.787 87.2333 703.352 89.07C706.005 92.1832 718.298 100.507 723 101" stroke="white" stroke-width="3" stroke-linecap="round" stroke-linejoin="round"/>
<path d="M687 71.8674C688.543 69.3983 699.446 68.2889 702.034 67.5954C711.084 65.1709 721.166 63.7135 730.496 62.5047C746.433 60.4398 758.558 53.4724 775.039 56.9628C782.485 58.5399 786.45 58.4197 791.048 64.7988C794.249 69.2399 793.575 75.9174 788.571 78.7226C781.319 82.7869 770.562 84.7594 769.775 74.329C769.403 69.3946 776.384 66.4821 780.407 69.5815" stroke="white" stroke-width="3" stroke-linecap="round" stroke-linejoin="round"/>
<path d="M815.692 55.0303C810.381 55.0303 805.618 54.5426 800.938 57.478C792.381 62.8444 795.942 71.9301 804.037 74.8064C809.052 76.5884 821 77.3968 821 69.6374C821 61.3015 810.439 67.984 806.752 67.984" stroke="white" stroke-width="3" stroke-linecap="round" stroke-linejoin="round"/>
<path d="M813 55.7857C839.131 55.7857 865.673 53 891.938 53C914.317 53 889.102 83.8411 881.814 92" stroke="white" stroke-width="3" stroke-linecap="round" stroke-linejoin="round"/>
<path d="M685.568 74.2656C684.192 67.9331 683.747 87.0973 682.654 93.4841C680.553 105.761 679.501 118.624 678.218 131.023C676.877 143.967 670.376 165.997 674.178 178.606C678.324 192.355 698 184.992 698 172.294C698 149.534 675.795 179.075 688.055 179.582" stroke="white" stroke-width="3" stroke-linecap="round" stroke-linejoin="round"/>
<path d="M684.474 208.965C680.485 208.965 694.111 210.681 696.334 207.356C698.244 204.497 697.128 195.587 694.781 193.735C683.482 184.817 674.973 188.469 674.222 204.925C672.701 238.198 670.23 272.023 673.954 305.275C675.03 314.879 674.447 324.882 684.475 314.787C690.883 308.336 698.193 303.019 705.663 297.9C708.523 295.939 712.77 295.781 715 293.033" stroke="white" stroke-width="3" stroke-linecap="round" stroke-linejoin="round"/>
<path d="M902.226 60.2007C902.226 57.0816 905.628 53.1817 905.628 58.9975C905.628 72.1375 907.168 85.2007 907.168 98.4172C907.168 116.954 910.119 140.021 904.904 158.098C902.56 166.227 896.787 181.601 884.872 171.883C871.019 160.582 899.1 149.79 895.063 165.964" stroke="white" stroke-width="3" stroke-linecap="round" stroke-linejoin="round"/>
<path d="M680.315 316.204C670.596 316.204 685.134 321.264 687.235 321.991C697.276 325.466 707.105 321.553 717.095 320.308C727.022 319.071 736.316 320.984 746.145 321.654C757.284 322.414 787.183 328.066 796.257 318.488C802.91 311.466 788.766 303 783.141 303C777.722 303 775.447 305.421 775.379 311.213C775.318 316.414 782.968 313.993 786.468 313.382" stroke="white" stroke-width="3" stroke-linecap="round" stroke-linejoin="round"/>
<path d="M856.001 285.777C855.955 285.772 857.968 285.697 859.235 286.957C862.12 289.826 864.467 293.223 867.332 296.126C871.844 300.698 877.194 304.675 881.482 309.292C884.228 312.249 885.315 317 890.333 317C893.288 317 901.24 229.067 902.306 220.252C904.135 205.116 908.159 183.579 889.923 178.383C878.726 175.193 872.253 192.87 883.575 196.25C894.983 199.656 896.579 188.648 887.464 188.133" stroke="white" stroke-width="3" stroke-linecap="round" stroke-linejoin="round"/>
<path d="M888 317.943C874.621 317.943 861.1 316.991 847.704 316.991C836.742 316.991 811.031 326.026 801.876 316.968C788.552 303.786 813.204 290.868 821.295 300.151C831.133 311.437 818.551 316.621 812.764 306.96" stroke="white" stroke-width="3" stroke-linecap="round" stroke-linejoin="round"/>
<path d="M740 135.083C740 130.704 746.463 135.196 747.439 135.828C752.023 138.799 753.604 135.184 757.84 135.184C761.761 135.184 766.001 138.022 769.401 135.073C773.643 131.393 776.77 133.257 781.66 133.695C785.659 134.053 785.696 128.745 790.308 128.817C798.569 128.946 799.339 129.505 806.912 126.012C811.228 124.021 817.952 126.928 822.607 126.823C826.341 126.739 836.046 122.161 833.614 124.84" stroke="white" stroke-width="3" stroke-linecap="round" stroke-linejoin="round"/>
<path d="M734 150.371C745.118 150.371 753.833 153.811 764.916 150.693C768.218 149.764 797.719 147.807 798 150.005" stroke="white" stroke-width="3" stroke-linecap="round" stroke-linejoin="round"/>
<path d="M734 167.367C734 162.874 742.161 172.352 746.628 171.99C751.667 171.581 752.593 166.669 759.364 168.192C770.203 170.631 779.802 164.519 791.335 166.539C796.283 167.405 799.546 165.997 804.096 164.304C812.666 161.116 810.789 167.782 815.953 171.805C818.202 173.557 829.21 161.3 833.537 161.002C834.721 160.92 842 163.686 842 165.059" stroke="white" stroke-width="3" stroke-linecap="round" stroke-linejoin="round"/>
<path d="M739 184.936C741.009 187.05 741.346 191.987 744.562 192.875C748.611 193.993 750.848 187.254 754.577 186.464C758.527 185.627 759.089 189.077 762.2 190.133C765.606 191.289 766.518 188.69 769.428 186.993C775.657 183.36 779.268 188.68 784.563 183.057C788.435 178.945 797.073 188.528 799 183.221" stroke="white" stroke-width="3" stroke-linecap="round" stroke-linejoin="round"/>
<path d="M740 205.816C740 203.244 744.635 212.578 745.224 213.519C748.261 218.369 751.926 209.916 753.631 208.013C757.537 203.653 763.281 209.506 766.761 211.232C772.406 214.032 776.754 211.714 781.418 208.233C792.09 200.268 795.958 211.994 805.735 207.894C811.342 205.544 816.355 202.892 822.713 204.483C826.457 205.42 830.332 205.654 834 204.527" stroke="white" stroke-width="3" stroke-linecap="round" stroke-linejoin="round"/>
<path d="M741.408 224.833C739.551 224.903 744.556 231.199 745.912 231.729C749.89 233.285 756.08 227.553 761.75 229.48C769.965 232.273 770.451 229.299 778.084 226.493C782.573 224.844 785.628 229.504 790.373 227.797C799.438 224.535 809.581 222.605 818.996 224.207C823.345 224.948 827.151 221.921 831.553 223.426C835.471 224.765 838.198 224.391 842 223.485" stroke="white" stroke-width="3" stroke-linecap="round" stroke-linejoin="round"/>
<path d="M735 242.796C735 242.353 738.902 245.49 739.455 245.759C741.528 246.767 744.016 247.07 746.274 246.987C749.998 246.849 751.193 241.993 757.127 244.344C766.372 248.007 774.054 241 784 241" stroke="white" stroke-width="3" stroke-linecap="round" stroke-linejoin="round"/>
<path d="M734.368 257.611C732.115 257.611 740.879 261.94 742.546 262.527C746.916 264.065 748.359 260.899 751.806 259.123C758.021 255.919 765.747 258.805 771.211 261.842C777.662 265.427 783.886 259.757 789.664 257.41C799.411 253.451 812.336 259.081 822.854 259.132C828.993 259.163 834.875 259.132 841 259.132" stroke="white" stroke-width="3" stroke-linecap="round" stroke-linejoin="round"/>
</svg>
