<svg width="1164" height="294" viewBox="0 0 1164 294" fill="none" xmlns="http://www.w3.org/2000/svg">
<path d="M186.985 61.2773C180.058 61.2773 168.713 75.4071 164.691 79.5922C137.92 107.448 112.18 135.968 86.8104 165.095C74.2859 179.474 63.9352 197.694 49.4842 210.27C48.3293 211.275 51.4854 205.713 52.1416 204.574C53.1667 202.795 53.704 202.414 54.5672 204.985C60.004 221.178 59.6746 239.141 64.1322 255.65C66.7721 265.427 69.571 275.732 72.8535 285.308C73.2276 286.399 75.1388 287.299 76.2798 287.347C83.413 287.651 96.6387 265.07 100.445 260.722C120.508 237.807 137.625 212.584 158.368 190.268C175.866 171.441 189.759 151.366 209.887 135.26C213.078 132.707 211.495 131.19 210.346 127.383C206.667 115.191 205.695 102.916 203.948 90.3692C202.842 82.4194 199.802 62.4665 188.001 62.4665" stroke="white" stroke-width="3" stroke-linecap="round" stroke-linejoin="round"/>
<path d="M128.798 153.668C128.534 150.903 125.871 153.807 125.613 154.787C124.525 158.908 121.267 173.972 127.767 175.223C139.383 177.458 131.345 143.106 126.903 156.607C125.893 159.678 122.082 173.96 127.938 173.827C134.035 173.688 134.231 161.261 134.207 157.276C134.161 149.276 129.722 156.083 129.338 160.475C129.213 161.907 130.797 177.613 133.597 170.268C135.645 164.897 134.148 159.258 130.217 155.238C126.318 151.251 126.71 166.846 126.842 168.618C127.311 174.913 134.173 172.569 134.285 167.177C134.365 163.357 134.643 153.937 129.802 152.486C121.84 150.098 121.131 169.535 123.445 173.592C127.225 180.219 136.634 177.54 137.14 170.374C137.471 165.682 134.823 154.141 128.4 154.485C121.918 154.832 120.668 170.585 123.828 174.421" stroke="white" stroke-width="3" stroke-linecap="round" stroke-linejoin="round"/>
<path d="M132.808 177.318C132.808 172.137 131.466 184.506 131.303 186.013C131.177 187.183 129.355 194.999 130.579 195.608C133.193 196.909 134.202 190.91 134.4 189.461C135.05 184.705 135.904 182.014 141.268 180.979C142.976 180.65 141.945 177.752 141.082 177.068C128.016 166.7 134.702 193.181 134.702 183.743C134.702 177.846 134.066 183.483 137.187 181.688C138.094 181.167 142.583 169.531 142.583 177.817" stroke="white" stroke-width="3" stroke-linecap="round" stroke-linejoin="round"/>
<path d="M180.916 88.6091C187.678 81.0214 164.349 92.9737 174.734 95.7973C177.969 96.6767 188.817 95.4386 184.052 102.809C181.004 107.524 169.63 112.861 169.63 103.282" stroke="white" stroke-width="3" stroke-linecap="round" stroke-linejoin="round"/>
<path d="M175.616 86.6142C175.616 80.4106 176.378 96.2553 176.617 98.037C176.953 100.543 177.099 115.379 180.01 116.65" stroke="white" stroke-width="3" stroke-linecap="round" stroke-linejoin="round"/>
<path d="M84.2049 204.246C83.8278 201.612 76.4815 202.778 75.5263 204.544C72.0156 211.031 80.496 211.726 84.9158 211.726C104.227 211.726 73.3311 224.613 73.3311 216.924" stroke="white" stroke-width="3" stroke-linecap="round" stroke-linejoin="round"/>
<path d="M81.514 195.482C79.8597 194.192 83.3202 211.75 83.6436 213.29C83.9886 214.934 84.6826 229.564 86.4017 229.795" stroke="white" stroke-width="3" stroke-linecap="round" stroke-linejoin="round"/>
<path d="M70.6128 281.581C70.6128 280.224 64.3397 279.004 62.8418 277.783" stroke="white" stroke-width="3" stroke-linecap="round" stroke-linejoin="round"/>
<path d="M69.5138 281.178C68.0269 279.694 65.081 278.493 63.0395 278.493C60.0884 278.493 60.1155 280.504 58.0969 281.914C56.953 282.713 57.6072 279.147 57.09 277.851C56.3941 276.107 55.1637 274.851 53.7278 273.676C51.463 271.824 48.6412 269.32 45.5511 270.584C42.5376 271.817 42.0323 260.245 39.8853 264.463C37.8078 268.544 27.9428 254.94 26.476 254.94C24.8583 254.94 24.3066 254.686 21.5212 254.344C18.177 253.933 16.9543 255.438 14.3025 255.438C11.8056 255.438 8.35733 228.8 7.86479 225.858C4.76987 207.375 3.85879 190.531 3.85879 172.024C3.85879 170.477 1.82983 165.127 4.84732 165.912C8.97814 166.987 10.6195 173.452 14.0813 175.711C15.6881 176.759 14.3967 174.358 15.6312 174.625C20.9855 175.784 16.856 182.364 23.4662 181.006C25.1528 180.659 28.5084 188.792 32.3599 188.974C37.6067 189.222 53.949 203.878 53.862 201.753" stroke="white" stroke-width="3" stroke-linecap="round" stroke-linejoin="round"/>
<path d="M2.5681 165.944C-0.177376 166.529 7.84497 155.652 9.25442 153.717C15.6193 144.978 24.4754 137.074 32.2454 129.617C52.2491 110.418 73.0528 92.1621 93.031 72.9163C105.412 60.9894 121.897 49.6917 131.303 35.1145C131.974 34.0744 131.868 35.6952 133.646 36.0799C134.633 36.2935 139.117 34.9084 139.391 35.756C140.812 40.1438 144.158 41.1394 148.889 40.0268C151.855 39.3294 157.012 42.2369 159.528 43.9203C164.707 47.3857 163.052 58.4095 170.6 58.9553C173.339 59.1534 181.492 51.3692 181.492 60.3768" stroke="white" stroke-width="3" stroke-linecap="round" stroke-linejoin="round"/>
<path d="M10.7512 173.615C9.32652 172.371 11.6697 182.51 11.8495 183.747C13.8221 197.306 14.0606 210.934 15.2514 224.553C15.8346 231.222 22.317 261.358 19.5381 237.581" stroke="white" stroke-width="3" stroke-linecap="round" stroke-linejoin="round"/>
<path d="M17.3418 177.414C17.3418 159.22 21.8731 213.542 23.0198 231.7C23.5412 239.957 23.63 248.229 23.63 256.5C23.63 263.274 23.4875 257.404 23.3279 254.038" stroke="white" stroke-width="3" stroke-linecap="round" stroke-linejoin="round"/>
<path d="M23.4102 183.992C23.4102 172.253 26.6019 207.279 27.2621 219C27.9712 231.589 23.0348 255.934 31.8951 266.812" stroke="white" stroke-width="3" stroke-linecap="round" stroke-linejoin="round"/>
<path d="M31.7026 185.89C30.2493 183.183 30.1924 186.837 30.1924 188.043C30.1924 199.38 32.878 210.635 34.116 221.876C35.9074 238.143 32.5995 257.398 38.2929 272.987" stroke="white" stroke-width="3" stroke-linecap="round" stroke-linejoin="round"/>
<path d="M35.9043 193.965C35.9043 193.293 35.3463 186.885 35.3825 189.984C35.5136 201.205 38.5966 212.811 39.9835 223.942C41.37 235.07 41.6801 246.205 42.1421 257.394C42.3325 262.005 42.0619 267.883 44.5814 271.99" stroke="white" stroke-width="3" stroke-linecap="round" stroke-linejoin="round"/>
<path d="M42.4668 197.764C42.4668 184.841 46.2801 223.339 47.4644 236.207C48.9215 252.039 46.2867 270.588 52.764 285.474" stroke="white" stroke-width="3" stroke-linecap="round" stroke-linejoin="round"/>
<path d="M48.5623 209.731C45.887 198.806 55.4132 231.193 57.7901 242.187C61.2644 258.256 59.2608 276.75 65.4222 292.052" stroke="white" stroke-width="3" stroke-linecap="round" stroke-linejoin="round"/>
<path d="M8.25207 168.034C6.44525 168.034 13.5612 159.622 14.798 158.248C23.4997 148.587 32.582 138.448 42.2985 129.823C55.904 117.746 70.5643 107.091 83.7039 94.4767C94.8954 83.7332 106.349 73.2814 117.628 62.657C124.842 55.8624 143.228 32.4751 137.585 40.6213" stroke="white" stroke-width="3" stroke-linecap="round" stroke-linejoin="round"/>
<path d="M11.85 174.019C10.3506 174.019 13.8016 171.662 15.0963 170.905C25.4238 164.874 33.8289 151.42 42.4091 143.096C54.4502 131.416 65.4513 118.262 77.9993 107.173C86.2146 99.9132 94.3538 93.2223 101.904 85.2185C110.97 75.6081 121.881 65.3255 132.753 57.7313C137.008 54.7592 140.181 49.9533 143.874 46.3139C145.165 45.0415 152.154 36.9967 148.377 42.8274" stroke="white" stroke-width="3" stroke-linecap="round" stroke-linejoin="round"/>
<path d="M17.1221 178.909C17.1221 181.51 27.4274 170.392 28.7038 169.137C39.9949 158.036 52.2928 147.977 63.4977 136.795C82.7307 117.601 102.32 98.8049 121.566 79.6501C129.104 72.1488 136.129 64.1474 143.602 56.6213C145.815 54.3927 161.175 38.0382 152.551 48.6957" stroke="white" stroke-width="3" stroke-linecap="round" stroke-linejoin="round"/>
<path d="M22.8053 188.193C18.2696 192.909 31.7656 178.648 36.0285 173.684C48.1877 159.524 62.4622 148.18 76.4668 135.976C92.5421 121.968 107.341 105.395 122.47 90.27C135.526 77.2171 175.064 38.4305 161.831 51.3046" stroke="white" stroke-width="3" stroke-linecap="round" stroke-linejoin="round"/>
<path d="M35.3825 183.801C4.76925 214.841 98.9886 124.156 130.309 93.8294C140.219 84.2342 151.59 75.3719 159.68 64.1397C161.984 60.9403 174.098 49.0001 164.743 57.7879" stroke="white" stroke-width="3" stroke-linecap="round" stroke-linejoin="round"/>
<path d="M39.8857 189.976C39.8857 191.792 61.3345 171.412 64.5914 168.382C83.5811 150.714 102.466 133.236 119.972 114.046C131.61 101.288 145.216 89.7393 155.55 75.8819C160.653 69.0392 167.64 63.8365 172.322 56.6934" stroke="white" stroke-width="3" stroke-linecap="round" stroke-linejoin="round"/>
<path d="M45.1848 198.972C44.7057 202.736 51.944 192.601 54.2952 190.565C65.9854 180.438 75.5791 168.235 86.5887 157.42C100.393 143.861 114.861 130.368 127.532 115.775C138.726 102.883 148.977 87.6321 161.79 76.4295C168.593 70.4822 175.193 63.2766 180.312 55.8887" stroke="white" stroke-width="3" stroke-linecap="round" stroke-linejoin="round"/>
<path d="M134.601 173.773C132.549 174.315 136.214 182.09 136.045 179.974C135.443 172.4 133.351 183.103 136.759 179.412C138.292 177.75 141.126 174.655 138.202 178.514C135.351 182.275 133.75 186.431 132.497 190.975C131.005 196.384 133.426 186.429 133.741 185.197C135.392 178.743 135.527 171.829 135.236 165.202C135.036 160.633 129.596 159.917 129.065 164.599C127.768 176.038 133.772 160.491 130.327 158.822C126.349 156.896 126.878 165.789 127.426 167.603C129.032 172.922 132.736 168.457 132.797 164.962C132.829 163.114 129.602 158.469 128.83 161.774C128.047 165.124 134.557 167.925 136.401 170.318" stroke="white" stroke-width="3" stroke-linecap="round" stroke-linejoin="round"/>
<path d="M139.488 173.98C133.963 173.98 139.699 174.534 141.766 174.626C145.923 174.812 147.523 173.136 143.811 177.615C141.327 180.614 129.346 193.766 137.335 183.617C138.889 181.643 143.049 175.601 142.39 178.025C141.404 181.651 137.346 184.159 135.036 186.848" stroke="white" stroke-width="3" stroke-linecap="round" stroke-linejoin="round"/>
<path d="M134.759 138.031C116.618 138.031 109.677 146.737 111.157 165.153C112.118 177.113 115.386 193.445 128.365 197.21C143.487 201.596 151.301 191.451 151.301 176.938C151.301 167.976 148.14 155.846 142.776 148.531C140.205 145.025 135.188 137.654 130.227 139.04" stroke="white" stroke-width="3" stroke-linecap="round" stroke-linejoin="round"/>
<path d="M436.671 90.1932C436.671 90.6406 434.706 92.0494 437.345 89.5321C445.792 81.4735 453.062 72.5655 462.767 65.8444C479.708 54.1113 500.283 44.7138 519.591 37.6784C525.746 35.4357 535.085 35.7337 540.654 32.4922" stroke="white" stroke-width="3" stroke-linecap="round" stroke-linejoin="round"/>
<path d="M435.635 93.2559C433.219 93.2559 442.378 93.2559 443.818 93.2559C449.645 93.2559 455.092 97.2224 460.669 98.6796C467.613 100.494 473.82 102.035 480.294 105.254C490.854 110.503 499.239 114.994 507.841 123.135C512.609 127.648 519.861 135.907 526.629 137.39" stroke="white" stroke-width="3" stroke-linecap="round" stroke-linejoin="round"/>
<path d="M542.582 30.2188C542.237 30.2188 553.893 40.3253 555.731 41.7881C562.387 47.0848 569.051 52.2085 575.982 57.1336C583.148 62.2266 588.306 68.1055 592.755 75.6996C597.387 83.6049 607.826 89.7134 608.249 99.3826" stroke="white" stroke-width="3" stroke-linecap="round" stroke-linejoin="round"/>
<path d="M520.411 135.893C520.411 133.326 529.061 141.419 529.855 142.374C534.651 148.14 540.24 151.392 546.373 155.82C565.693 169.768 586.899 181.192 606.295 195.181C620.175 205.191 634.344 213.157 648.773 222.244C656.293 226.979 663.33 232.436 670.392 237.82C673.315 240.049 678.315 242.938 679.723 246.582" stroke="white" stroke-width="3" stroke-linecap="round" stroke-linejoin="round"/>
<path d="M605.622 91.0684C605.622 100.258 623.544 114.188 629.91 119.197C638.096 125.638 647.019 130.341 656.352 134.817C665.711 139.306 673.155 146.023 681.63 151.855C695.389 161.323 709.662 169.998 723.362 179.593C728.725 183.349 733.314 187.96 738.112 192.376C740.28 194.372 746.172 197.46 747.174 200.259" stroke="white" stroke-width="3" stroke-linecap="round" stroke-linejoin="round"/>
<path d="M681.916 249.459C663.978 266.831 724.825 223.616 747.74 213.691C750.094 212.672 754.98 211.518 756.716 209.621C758.704 207.448 748.277 204.188 747.246 203.574" stroke="white" stroke-width="3" stroke-linecap="round" stroke-linejoin="round"/>
<path d="M436.502 90.7148C436.502 95.0778 431.674 101.8 430.475 106.32C428.687 113.06 426.33 119.532 424.686 126.3C422.653 134.671 426.651 134.604 433.289 138.937C442.252 144.788 452.923 150.253 462.565 154.965C475.349 161.213 489.731 162.349 502.103 169.999C510.853 175.408 520.763 178.857 529.33 184.426C538.6 190.451 547.318 197.351 556.688 203.194C572.805 213.243 586.205 227.015 602.106 237.356C607.851 241.092 611.972 248.824 618.514 250.88C623.369 252.405 626.844 257.231 630.202 260.889C637.798 269.166 643.067 265.003 652.249 260.754C655.703 259.156 679.723 254.662 679.723 251.126" stroke="white" stroke-width="3" stroke-linecap="round" stroke-linejoin="round"/>
<path d="M536.365 147.102C531.499 146.63 526.312 137.279 528.123 132.926C529.987 128.445 537.717 124.481 541.634 122.157C550.785 116.728 559.898 111.721 569.945 108.06C583.141 103.252 592.962 99.2988 606.851 99.2988" stroke="white" stroke-width="3" stroke-linecap="round" stroke-linejoin="round"/>
<path d="M538.1 151.478C534.144 151.478 542.28 140.031 543.184 139.14C550.153 132.274 559.828 128.253 568.361 123.727C577.846 118.696 589.542 114.599 600.068 112.385C605.639 111.213 609.978 110.099 614.129 114.656C619.213 120.236 630.46 128.657 632.214 136.422C633.287 141.169 611.279 150.784 607.815 152.976C601.158 157.19 592.681 166.711 584.328 166.711C577.317 166.711 569.158 162.921 562.519 160.663C552.311 157.191 545.708 154.654 539.497 145.536" stroke="white" stroke-width="3" stroke-linecap="round" stroke-linejoin="round"/>
<path d="M482.144 78.7298C480.319 78.878 484.598 76.658 485.823 75.6027C493.384 69.0869 502.419 64.1393 511.213 59.5036C518.041 55.9037 525.106 52.9386 532.375 50.373C535.319 49.334 535.7 47.9472 534.171 50.1823" stroke="white" stroke-width="3" stroke-linecap="round" stroke-linejoin="round"/>
<path d="M486.867 89.9227C486.782 90.7978 490.221 86.755 492.654 85.104C500.494 79.7861 508.505 74.7819 517.001 70.5768C522.282 67.9635 530.706 61.291 536.798 61.291" stroke="white" stroke-width="3" stroke-linecap="round" stroke-linejoin="round"/>
<path d="M516.219 83.1059C516.219 86.3428 521.757 79.7539 524.533 78.088C526.684 76.7965 529.571 74.168 532.244 74.168" stroke="white" stroke-width="3" stroke-linecap="round" stroke-linejoin="round"/>
<path d="M513.232 39.996C513.232 41.8108 512.617 36.2206 511.409 34.866C509.546 32.7751 506.654 28.4863 504.302 27.1446C503.158 26.4922 510.866 20.4781 511.996 19.9191C515.301 18.2856 515.315 17.5193 519.154 19.4779C521.397 20.6222 537.076 28.7315 535.886 31.9515" stroke="white" stroke-width="3" stroke-linecap="round" stroke-linejoin="round"/>
<path d="M503.114 26.7246C501.751 26.7246 500.303 32.431 500.303 33.704C500.303 36.8901 502.925 38.8136 504.839 41.0871" stroke="white" stroke-width="3" stroke-linecap="round" stroke-linejoin="round"/>
<path d="M427.195 112.833C427.195 114.624 424.53 109.72 423.628 108.64C420.373 104.743 417.463 100.314 415.554 95.5885C415.134 94.5483 414.255 93.1983 415.044 92.107C416.747 89.7535 417.764 87.0101 419.37 84.6369C420.596 82.8255 420.1 78.829 422.506 78.1171C425.924 77.1053 429.21 78.0997 432.621 78.2926C435.807 78.4728 445.339 79.2318 442.148 79.2318" stroke="white" stroke-width="3" stroke-linecap="round" stroke-linejoin="round"/>
<path d="M412.582 93.5381C411.327 93.4495 407.877 89.8488 406.76 89.0721C403.648 86.9088 400.973 84.266 398.109 81.8065C395.402 79.4821 393.435 78.7317 393.585 75.1371C393.798 70.0451 387.219 67.4791 383.763 64.673C374.299 56.9896 365.23 48.8736 356.461 40.4078C347.417 31.6767 338.559 22.6624 329.217 14.2885C326.777 12.1011 323 8.40775 323 4.81631C323 -0.727663 331.66 3.45664 333.693 4.42262C340.618 7.71301 346.014 13.0045 351.623 18.4604C357.876 24.5436 363.975 30.7324 370.107 36.9421C374.391 41.2811 379.64 45.3243 383.366 50.1061C386.977 54.7417 392.38 59.8132 397.149 63.2406C399.887 65.2082 403.792 62.2787 406.905 63.8445C411.472 66.1413 415.242 70.1706 419.269 73.2872C420.207 74.0136 427.477 79.1039 424.968 76.5669" stroke="white" stroke-width="3" stroke-linecap="round" stroke-linejoin="round"/>
<path d="M400.738 82.2392C400.548 78.8807 400.441 71.2883 405.424 70.9883" stroke="white" stroke-width="3" stroke-linecap="round" stroke-linejoin="round"/>
<path d="M408.045 86.4323C408.045 87.2156 407.207 84.2253 407.203 83.7086C407.182 80.3372 409.316 78.343 411.454 75.9688" stroke="white" stroke-width="3" stroke-linecap="round" stroke-linejoin="round"/>
<path d="M438.454 120.289C436.835 120.289 435.832 125.041 436.142 126.412C436.682 128.797 442.726 131.743 444.599 133.149C448.362 135.973 452.174 138.496 456.197 140.916C459.616 142.972 462.208 146.095 465.698 148.029C468.385 149.518 471.145 150.815 473.793 152.388C477.562 154.627 480.536 156.376 484.544 153.643C491.031 149.218 485.929 144.665 481.875 141.262C473.939 134.599 465.035 129.048 456.872 122.651C452.325 119.089 444.304 112.691 440.328 120.735" stroke="white" stroke-width="3" stroke-linecap="round" stroke-linejoin="round"/>
<path d="M500.005 153.748C499.645 156.885 502.756 158.455 505.288 159.591C509.389 161.433 511.829 162.61 510.445 157.028C509.557 153.448 509.319 152.332 506.374 149.896C503.795 147.762 500.223 149.234 499.217 152.457" stroke="white" stroke-width="3" stroke-linecap="round" stroke-linejoin="round"/>
<path d="M522.807 164.154C520.28 164.222 519.329 166.251 519.83 168.62C520.288 170.779 523.305 171.672 525.078 172.201C527.523 172.931 529.504 175.153 531.944 175.594C536.458 176.411 532.316 167.491 531.224 165.812C528.48 161.593 527.361 163.266 523.893 164.354" stroke="white" stroke-width="3" stroke-linecap="round" stroke-linejoin="round"/>
<path d="M548.327 185.773C547.571 184.081 547.96 185.861 549.646 187.306C554.102 191.126 558.593 194.946 563.526 198.143C571.629 203.394 579.205 209.366 586.412 215.771C590.821 219.69 595.306 223.517 599.709 227.44C602.928 230.308 610.936 239.968 609.483 235.909" stroke="white" stroke-width="3" stroke-linecap="round" stroke-linejoin="round"/>
<path d="M622.671 244.152C624.079 246.884 628.245 248.51 630.53 250.473C631.53 251.333 635.915 255.445 635.6 255.052" stroke="white" stroke-width="3" stroke-linecap="round" stroke-linejoin="round"/>
<path d="M448.477 104.095C452.284 103.257 455.949 105.517 459.328 107.009C463.761 108.967 468.861 110.97 472.899 113.574C480.758 118.639 490.34 122.037 497.855 127.811C507.56 135.267 516.756 142.912 526.141 150.75C534.564 157.785 544.464 162.541 553.415 168.721C565.822 177.287 577.663 187.967 591.068 194.925C600.992 200.077 610.436 206.922 619.252 213.788C631.173 223.071 669.912 246.563 656.474 239.656" stroke="white" stroke-width="3" stroke-linecap="round" stroke-linejoin="round"/>
<path d="M611.71 172.056C607.3 172.056 599.906 183.36 608.304 180.938C610.736 180.237 616.016 175.876 614.926 172.796C614.366 171.215 607.203 170.935 606.821 172.691" stroke="white" stroke-width="3" stroke-linecap="round" stroke-linejoin="round"/>
<path d="M628.932 160.994C623.187 160.994 620.027 173.05 628.888 165.995C630.324 164.851 635.626 161.339 634.471 158.834C632.975 155.589 627.195 161.421 626.419 162.578" stroke="white" stroke-width="3" stroke-linecap="round" stroke-linejoin="round"/>
<path d="M649.276 148.169C647.78 148.613 646.688 147.958 645.367 149.19C643.202 151.208 641.513 155.069 645.855 154.597C653.22 153.798 652.504 144.045 645.569 149.696" stroke="white" stroke-width="3" stroke-linecap="round" stroke-linejoin="round"/>
<path d="M632.001 186.656C627.76 186.656 620.012 196.42 624.492 196.991C628.579 197.513 634.093 192.929 635.121 189.028C636.099 185.316 630.815 186.237 629.081 187.795" stroke="white" stroke-width="3" stroke-linecap="round" stroke-linejoin="round"/>
<path d="M656.828 175.159C653.599 175.901 649.96 176.24 648.913 179.997C647.764 184.118 652.272 183.65 654.425 181.616C655.576 180.53 659.229 175.692 656.143 174.822C654.436 174.34 647.76 176.007 650.798 178.223" stroke="white" stroke-width="3" stroke-linecap="round" stroke-linejoin="round"/>
<path d="M672.174 163.708C671.987 161.75 666.915 166.994 666.722 167.363C664.278 172.041 668.598 172.628 672.028 170.546C674.426 169.091 677.79 165.93 677.445 162.787C677.073 159.389 669.742 164.395 668.969 165.188" stroke="white" stroke-width="3" stroke-linecap="round" stroke-linejoin="round"/>
<path d="M655.442 205.362C655.282 204.243 650.904 207.57 650.681 207.753C647.655 210.247 648.715 214.717 653.055 212.303C654.313 211.603 661.798 205.325 658.048 203.754C654.93 202.448 648.009 207.151 650.947 207.487" stroke="white" stroke-width="3" stroke-linecap="round" stroke-linejoin="round"/>
<path d="M674.049 194.008C673.838 195.126 671.452 195.758 671.39 198.029C671.299 201.363 676.133 198.106 676.961 196.942C682.159 189.626 669.146 195.356 671.238 195.44" stroke="white" stroke-width="3" stroke-linecap="round" stroke-linejoin="round"/>
<path d="M689.653 182.756C690.595 180.19 689.238 181.983 688.982 183.745C688.447 187.428 691.523 188.989 694.911 187.831C704.395 184.59 693.103 175.842 689.748 182.32" stroke="white" stroke-width="3" stroke-linecap="round" stroke-linejoin="round"/>
<path d="M673.614 220.019C673.614 220.461 678.914 216.103 679.898 215.39C685.99 210.976 692.279 207.009 698.611 202.959C703.057 200.116 709.105 195.085 714.534 194.122C717.612 193.576 719.907 196.913 722.232 198.551C724.57 200.199 730.144 199.712 726.687 201.865C719.77 206.173 713.106 210.907 706.218 215.267C700.97 218.59 694.688 223.289 688.662 224.813C685.85 225.524 683.258 228.513 680.311 228.557C677.007 228.606 676.857 222.79 673.56 222.58" stroke="white" stroke-width="3" stroke-linecap="round" stroke-linejoin="round"/>
<path d="M901.744 165.839C896.483 163.041 897.195 147.197 892.748 141.877C888.945 137.326 882.979 133.164 880.403 127.988C877.89 122.94 878.682 118.261 875.487 113.266C869.714 104.239 862.423 95.5115 857.588 85.9906C856.493 83.8358 855.993 81.13 857.049 78.8514C859.166 74.2853 863.009 80.6305 864.555 82.3933C869.306 87.8106 874.541 93.2844 878.269 99.5336C879.602 101.769 881.883 109.116 885.194 109.116C891.658 109.116 884.414 80.52 883.758 78.019C880.544 65.7584 877.255 53.2603 877.002 40.5162C876.967 38.7215 874.445 25.8337 876.416 24.693C882.533 21.1525 893.338 76.2623 895.15 84.4103C895.379 85.4426 899.06 95.9575 900.479 91.5348C905.157 76.9648 898.538 57.7345 898.136 42.7232C898.091 41.0209 895.991 23.6657 898.604 22.8359C902.897 21.4728 905.815 44.8612 906.536 48.7897C908.42 59.0589 908.383 70.1737 912.365 79.8771C913.391 82.3795 914.398 80.9595 914.723 79.029C916.143 70.5737 915.257 61.4788 915.257 52.9447C915.257 42.1977 914.128 32.4906 915.446 22.0306C915.74 19.7023 918.077 22.5057 918.487 23.2934C921.05 28.2191 922.061 34.4449 922.976 39.8686C924.302 47.7314 924.903 55.976 925.467 63.9276C925.759 68.0431 925.431 75.7199 928.263 79.1596C930.524 81.9062 932.752 51.6985 932.752 49.596C932.752 47.2978 931.862 19.9238 935.605 19.9238C940.706 19.9238 940.796 44.1418 940.965 48.328C941.63 64.872 940.192 81.4398 940.773 97.9627C940.896 101.453 941.98 104.795 941.763 108.335C941.507 112.523 937.726 116.83 936.296 120.807C933.754 127.879 926.995 136.077 930.316 144.126C933.736 152.414 934.387 162.154 936.006 170.94C937.235 177.605 938.779 184.205 940.006 190.87C940.404 193.032 942.788 198.531 939.024 196.165" stroke="white" stroke-width="3" stroke-linecap="round" stroke-linejoin="round"/>
<path d="M987.446 229.216C991.799 229.216 986.891 217.073 985.293 215.326C978.857 208.291 980.125 202.482 980.125 193.8C980.125 187.11 977.548 181.162 976.763 174.585C975.975 167.977 969.398 162.069 968.132 155.369C966.569 147.093 964.85 138.689 963.509 130.379C962.196 122.243 967.103 127.376 969.469 131.336C974.384 139.562 975.54 149.493 979.183 158.213C982.723 166.685 983.92 164.95 983.92 155.859C983.92 138.887 980.61 122.092 980.61 105.11C980.61 88.9761 985.612 109.702 986.708 114.79C988.397 122.637 988.655 130.681 990.238 138.543C990.745 141.058 991.164 148.743 993.338 150.551C995.562 152.4 995.665 119.264 995.569 117.056C995.354 112.086 992.406 97.2841 996.308 92.7187C1001.06 87.1584 1002.31 109.549 1002.57 112.984C1003.58 126.534 1003.83 140.159 1004.84 153.711C1005.76 166.135 1008.52 157.61 1008.92 149.635C1009.42 139.564 1010.59 131.569 1012.69 122.105C1013.35 119.112 1013.7 112.142 1016.69 110.281C1020.43 107.95 1019.79 147.899 1019.55 151.585C1019.5 152.427 1019.76 169.372 1023.02 166.315C1026.96 162.624 1025.78 155.136 1031.18 152.108C1033.92 150.572 1041.44 146.12 1041.44 150.878C1041.44 154.625 1039.54 156.922 1036.97 159.598C1033.61 163.089 1032.59 169.793 1031.67 174.313C1030.17 181.675 1026.25 186.809 1024.48 193.705C1022.63 200.972 1024.01 209.852 1019.13 215.832C1016.49 219.063 1014.15 222.572 1011.77 225.991C1011.42 226.489 1009.85 229.144 1009.84 229.122" stroke="white" stroke-width="3" stroke-linecap="round" stroke-linejoin="round"/>
<path d="M990.677 224.61C989.034 217.232 989.88 232.652 989.998 234.359C990.417 240.404 990.3 246.479 990.3 252.534C990.3 253.799 990.3 259.726 990.3 255.124" stroke="white" stroke-width="3" stroke-linecap="round" stroke-linejoin="round"/>
<path d="M1012.69 224.422C1009.22 224.422 1014.22 260.381 1012.29 260.802" stroke="white" stroke-width="3" stroke-linecap="round" stroke-linejoin="round"/>
<path d="M1096.84 172.288C1094.94 173.768 1090.61 158.311 1089.79 155.944C1087.65 149.731 1091.96 143.463 1089.52 136.989C1088.38 133.97 1066.17 98.5676 1077.56 98.3625C1079.21 98.3328 1093.14 124.421 1094.52 118.81C1097.38 107.173 1095.57 92.0794 1095.08 80.1569C1095.02 78.543 1092.34 56.223 1093.96 55.6341C1100.6 53.216 1105.03 102.11 1107.94 107.011C1113.04 115.613 1113.4 89.9695 1113.42 88.6549C1113.69 75.7714 1110.43 58.7475 1114.92 46.3255C1115.09 45.8666 1117.74 33.8713 1120.25 35.8439C1121.93 37.1553 1123.53 45.2493 1124.12 47.5434C1125.66 53.5251 1124.61 60.7624 1124.61 66.898C1124.61 78.9356 1124.4 90.9629 1124.4 103.002C1124.4 114.734 1129.49 99.8753 1130.18 96.2526C1132.26 85.3861 1131.42 68.5875 1137.71 59.177C1140.75 54.6403 1142.58 55.6119 1142.7 61.2619C1142.94 73.3177 1142.41 85.2366 1141.84 97.2554C1141.83 97.4469 1143.1 109.761 1145.04 106.044C1148.37 99.6934 1150.7 75.7637 1161.54 75.7637C1164.09 75.7637 1156.39 101.686 1155.45 104.437C1151.25 116.809 1147.01 130.564 1137.53 140.12C1133.54 144.143 1129.93 148.794 1128.57 154.399C1127.03 160.733 1127.79 196.053 1122.16 196.053" stroke="white" stroke-width="3" stroke-linecap="round" stroke-linejoin="round"/>
</svg>
