<svg width="970" height="362" viewBox="0 0 970 362" fill="none" xmlns="http://www.w3.org/2000/svg">
<path d="M464.874 232.175C464.874 229.973 460.219 224.538 459.085 222.709C454.482 215.278 450.719 207.374 447.922 199.099C438.272 170.544 440.108 142.926 451.968 115.321C460.07 96.4641 473.269 80.8054 482.668 63.0204C484.974 58.6571 496.215 86.6886 498.808 90.3388C512.42 109.506 522.54 142.879 521.021 166.727C519.56 189.671 503.793 209.994 496.002 230.905" stroke="white" stroke-width="3" stroke-linecap="round" stroke-linejoin="round"/>
<path d="M468.057 230.906C465.632 230.906 457.318 242.209 456.348 243.873C452.715 250.108 448.312 256.788 455.874 260.996C463.897 265.461 494.547 271.977 497.786 259.367" stroke="white" stroke-width="3" stroke-linecap="round" stroke-linejoin="round"/>
<path d="M499.815 229.244C498.431 229.244 503.21 233.448 503.575 233.832C506.807 237.224 508.367 241.506 509.041 246.082C510.508 256.048 508.04 262.341 496.912 262.665" stroke="white" stroke-width="3" stroke-linecap="round" stroke-linejoin="round"/>
<path d="M449.87 196.973C435.585 196.973 425.457 216.024 425.457 228.211C425.457 232.287 437.827 233.325 440.539 233.325C444.465 233.325 448.965 233.94 452.837 233.249C456.434 232.607 459.015 229.123 462.706 229.123" stroke="white" stroke-width="3" stroke-linecap="round" stroke-linejoin="round"/>
<path d="M501.738 224.432C497.224 226.785 506.957 227.599 508.203 227.791C515.203 228.87 524.477 230.096 531.017 226.705C545.869 219.005 521.661 189.807 515.449 184.146" stroke="white" stroke-width="3" stroke-linecap="round" stroke-linejoin="round"/>
<path d="M465.259 267.379C463.24 267.379 463.475 287.206 463.475 288.93C463.475 290.046 466.852 307.269 468.465 301.793C469.722 297.528 473.276 272.473 475.726 290.596C478.599 311.838 476.53 340.465 486.866 359.715C489.299 364.247 488.902 342.265 488.902 340.464C488.902 326.796 487.993 313.148 487.993 299.467C487.993 280.229 491.886 298.391 494.483 306.456C497.912 317.105 496.782 290.582 497.378 287.711C497.872 285.332 509.608 317.747 509.608 302.936C509.608 289.44 504.458 273.205 499.43 260.637" stroke="white" stroke-width="3" stroke-linecap="round" stroke-linejoin="round"/>
<path d="M491.805 140.538C484.504 140.113 477.447 133.854 469.586 138.835C457.393 146.56 455.073 166.896 470.268 172.444C477.737 175.171 490.502 180.286 496.881 173.991C501.96 168.979 503.228 159.599 502.589 152.781C501.015 135.978 490.13 139.146 477.25 139.146C461.491 139.146 458.448 169.152 476.202 170.661C487.041 171.582 494.988 173.191 494.988 161.755C494.988 153.184 490.556 141.955 480.1 141.955C464.159 141.955 454.686 160.257 470.054 170.126C486.235 180.517 501.81 168.76 495.594 150.78C489.227 132.36 460.049 142.72 462.684 161.444C465.119 178.742 502.179 183.376 501.087 161.126C500.04 139.78 469.52 135.534 464.516 156.881C456.677 190.326 508.066 178.111 498.96 157.896C495.194 149.537 488.149 143.078 478.546 144.592C471.173 145.755 466.675 161.608 473.292 165.552C493.158 177.395 509.065 143.117 485.863 142.227C474.269 141.782 469.424 153.833 470.556 163.883C471.767 174.637 491.784 171.507 496.818 165.7C510.287 150.166 474.849 128.189 472.835 156.058C471.329 176.898 506.383 173.353 492.412 151.41C486.64 142.345 478.37 148.878 477.224 157.196C476.186 164.738 482.11 175.941 491.661 171.451C501.846 166.663 482.862 127.629 481.723 158.275C481.607 161.374 486.058 181.051 490.869 170.417C492.995 165.715 495.406 150.308 489.334 147.316C476.912 141.198 492.912 184.923 492.82 164.89C492.807 162.24 487.731 146.723 487.002 148.575C484.834 154.079 485.272 166.859 491.805 169.654C496.291 171.572 484.289 131.047 472.188 147.688C451.777 175.756 510.515 176.537 498.342 157.496C494.128 150.905 483.873 137.81 474.411 143.154C463.312 149.422 468.112 165.859 478.207 170.072C511.846 184.109 498.302 137.318 482.789 144.882C471.313 150.477 473.037 168.528 483.39 173.99C492.354 178.72 503.346 177.704 502.722 165.997C502.125 154.797 491.664 146.525 481 147.904C472.797 148.965 464.564 161.133 477.71 161.133" stroke="white" stroke-width="3" stroke-linecap="round" stroke-linejoin="round"/>
<path d="M450.639 111.71C441.855 112.669 467.947 107.991 476.727 106.995C484.866 106.071 498.253 109.907 505.551 105.969" stroke="white" stroke-width="3" stroke-linecap="round" stroke-linejoin="round"/>
<path d="M462.321 100.132C455.083 100.132 473.936 98.994 476.397 98.9834C484.611 98.9482 492.73 97.4688 500.969 97.4688" stroke="white" stroke-width="3" stroke-linecap="round" stroke-linejoin="round"/>
<path d="M469.316 235.108C464.797 231.223 480.986 232.663 486.866 231.696C488.963 231.351 499.877 227.78 500.444 230.027" stroke="white" stroke-width="3" stroke-linecap="round" stroke-linejoin="round"/>
<path d="M467.287 238.92C458.649 239.138 471.024 240.312 473.449 240.312C484.521 240.312 492.871 235.335 503.138 233.447" stroke="white" stroke-width="3" stroke-linecap="round" stroke-linejoin="round"/>
<path d="M858.946 152.24C856.681 154.065 856.882 150.096 856.142 148.931C853.854 145.323 848.182 144.376 844.326 144.349C832.951 144.268 819.85 142.998 815.887 156.273C813.969 162.701 815.33 170.046 815.464 176.633C815.632 184.916 813.54 192.779 812.806 200.972C811.353 217.169 827.434 220.742 840.506 220.742C884.015 220.742 862.069 173.476 858.701 149.186" stroke="white" stroke-width="3" stroke-linecap="round" stroke-linejoin="round"/>
<path d="M909.416 115.767C903.38 115.767 898.551 107.613 893.538 115.33C886.774 125.738 888.762 144.019 892.129 155.417C900.784 184.718 931.067 153.125 934.681 136.991C938.197 121.288 927.021 128.908 920.154 122.241C914.418 116.671 909.783 107.855 899.868 114.618" stroke="white" stroke-width="3" stroke-linecap="round" stroke-linejoin="round"/>
<path d="M923.126 196.093C926.431 192.255 904.241 198.906 900.46 200.999C887.44 208.209 890.254 236.786 890.762 248.737C891.48 265.631 909.604 285.905 922.361 264.367C930.169 251.184 933.905 229.287 951.989 225.824C965.517 223.235 965.441 199.25 954.045 193.824C945.059 189.545 924.383 190.393 916.166 193.161" stroke="white" stroke-width="3" stroke-linecap="round" stroke-linejoin="round"/>
<path d="M853.98 253.65C853.765 251.398 834.008 247.636 832.112 247.557C822.143 247.145 809.468 249.122 806.203 260.42C802.499 273.236 831.927 320.391 848.586 309.436C862.037 300.59 871.196 284.093 866.371 267.38C863.432 257.204 862.536 256.926 852.196 255.8" stroke="white" stroke-width="3" stroke-linecap="round" stroke-linejoin="round"/>
<path d="M854.364 117.281C849.496 117.281 844.982 113.84 840.322 112.591C829.766 109.761 819.26 110.172 808.422 110.172C779.465 110.172 774.921 78.1434 794.834 61.1922C817.121 42.2205 844.963 51.7981 871.292 54.007C879.755 54.717 882.271 51.4143 888.363 46.7702C890.996 44.7626 897.228 42.0398 899.817 45.3845C908.739 56.9113 901.712 82.1168 892.307 91.5495C888.116 95.7532 872.841 97.0912 872.691 103.34C872.266 121.106 862.093 116.011 850.447 116.011" stroke="white" stroke-width="3" stroke-linecap="round" stroke-linejoin="round"/>
<path d="M803.405 53.2499C803.405 49.1798 793.891 57.4428 792.951 58.3586C785.802 65.3263 779.597 71.9462 778.475 82.2188C776.081 104.131 793.402 112.397 813.089 115.01C822.615 116.274 824.844 114.578 833.356 111.348C837.191 109.892 842.069 106.63 846.102 106.144C858.154 104.693 871.51 107.474 882.481 101.035C897.717 92.0933 902.908 82.4515 903.657 64.6507C904.354 48.0699 896.38 38.5735 881.412 51.3715C874.386 57.3792 868.412 59.9186 859.078 59.9683C849.837 60.0175 842.93 56.534 834.067 55.8857C829.236 55.5324 826.014 52.2239 820.928 52.2239C811.412 52.2239 800.708 63.0554 792.842 67.9814" stroke="#9747FF" stroke-width="3" stroke-linecap="round" stroke-linejoin="round"/>
<path d="M832.75 150.457C832.736 150.77 826.285 147.376 822.16 148.038C811.737 149.711 806.124 155.171 806.063 166.396C805.981 181.629 808.585 229 829.075 229C836.787 229 852.729 221.374 858.117 214.885C865.76 205.679 861.65 186.404 859.646 175.876C856.806 160.955 845.234 139.754 826.664 144.618" stroke="#9747FF" stroke-width="3" stroke-linecap="round" stroke-linejoin="round"/>
<path d="M819.809 255.165C813.46 255.165 805.446 251.961 800.852 257.616C789.449 271.657 806.462 287.335 816.793 296.26C837.339 314.008 855.454 312.101 870.256 291.507C877.596 281.293 859.357 255.313 848.963 253.07C833.627 249.76 819.122 256.126 805.434 245.906" stroke="#9747FF" stroke-width="3" stroke-linecap="round" stroke-linejoin="round"/>
<path d="M923.021 188.836C923.021 189.291 919.954 189.491 919.462 189.619C916.381 190.421 913.365 192.426 910.745 194.174C905.498 197.676 900.17 201.56 896.634 206.89C885.784 223.246 883.309 235.615 896.755 250.969C913.172 269.716 929.586 231.143 945.864 226.608C957.288 223.425 978.36 210.658 963.121 199.249C957.493 195.035 953.044 192.034 946.333 189.667C933.487 185.136 923.417 195.066 910.57 195.066" stroke="#9747FF" stroke-width="3" stroke-linecap="round" stroke-linejoin="round"/>
<path d="M908.786 112.468C908.786 102.155 894.588 106.585 889.445 110.557C882.369 116.02 876.941 129.966 881.721 138.271C886.41 146.419 894.016 160.499 904.012 162.646C922.208 166.553 933.875 156.093 928.917 137.644C926.988 130.465 924.898 118.975 918.164 114.55C913.389 111.411 903.606 111.93 897.839 111.197" stroke="#9747FF" stroke-width="3" stroke-linecap="round" stroke-linejoin="round"/>
<path d="M94.3756 111.494C93.7267 100.049 93.0488 115.247 93.1582 119.371C93.9296 148.448 104.062 188.853 132.436 202.845C156.102 214.515 141.324 158.731 139.664 150.036C137.103 136.624 133.121 113.947 123.212 103.668C119.124 99.4268 115.406 90.5664 108.457 90.5664C100.646 90.5664 98.5194 101.293 97.2276 107.608" stroke="white" stroke-width="3" stroke-linecap="round" stroke-linejoin="round"/>
<path d="M142.409 96.9364C142.409 88.4171 147.216 78.2208 150.86 70.6305C155.023 61.9625 161.837 76.0854 163.584 79.2216C165.717 83.0511 169.082 84.4759 163.29 86.467C158.245 88.2014 152.99 88.2546 148.07 90.6464C146.937 91.1968 138.854 94.9836 142.183 94.9836" stroke="white" stroke-width="3" stroke-linecap="round" stroke-linejoin="round"/>
<path d="M163.334 127.096C161.058 127.056 158.007 126.803 162.23 126.682C167.278 126.537 173.561 119.837 178.329 117.789C185.357 114.769 188.89 117.459 188.89 125.296C188.89 131.03 191.509 135.961 183.759 132.883C177.178 130.271 173.406 125.913 165.6 127.685C163.601 128.139 156.815 128.023 160.143 128.023" stroke="white" stroke-width="3" stroke-linecap="round" stroke-linejoin="round"/>
<path d="M173.698 172.659C167.315 178.672 188.241 162.674 196.264 159.134C203.138 156.101 201.25 167.293 201.402 171.169C201.805 181.491 206.227 187.493 195.002 181.54C190.825 179.325 173.19 178.133 173.19 171.929" stroke="white" stroke-width="3" stroke-linecap="round" stroke-linejoin="round"/>
<path d="M100.107 131.612C95.4703 131.612 99.3072 129.603 102.925 130.898C108.983 133.067 114.015 136.473 116.523 142.688C119.315 149.606 118.405 158.551 118.174 165.878C118.074 169.033 113.455 179.895 112.843 171.831" stroke="white" stroke-width="3" stroke-linecap="round" stroke-linejoin="round"/>
<path d="M103.298 130.39C102.189 130.48 95.1629 129.469 95.5953 131.357C97.0666 137.78 97.8211 144.563 100.22 150.805C102.924 157.841 106.89 164.358 110.796 170.814C111.072 171.271 113.36 175.041 113.08 173.701C110.438 161.093 104.065 148.959 101.405 136.062C98.5977 122.455 105.515 151.706 106.244 154.296C106.945 156.785 116.162 180.185 114.722 173.124C112 159.769 105.039 147.217 102.118 133.751C99.7046 122.623 107.811 155.978 112.891 166.168C116.933 174.276 110.916 149.075 110.254 146.9C109.166 143.32 109.444 132.95 107.357 136.056C105.704 138.515 111.207 150.552 112.222 153.299C116.917 166.02 113.69 152.418 112.196 147.336C108.102 133.399 112.16 154.624 115.723 157.985" stroke="white" stroke-width="3" stroke-linecap="round" stroke-linejoin="round"/>
<path d="M108.635 115.617C107.571 115.617 110.668 116.426 111.422 117.178C114.033 119.784 116.582 122.51 119.043 125.258C124.591 131.455 128.149 139.373 129.778 147.469C132.415 160.565 131.391 200.879 130.803 187.533" stroke="white" stroke-width="3" stroke-linecap="round" stroke-linejoin="round"/>
<path d="M106.772 91.2961C106.324 89.7916 98.6634 90.5344 97.4286 90.9805C90.7547 93.3914 88.8466 101.472 87.498 107.969C84.055 124.556 86.7119 144.646 92.0288 160.575C96.1357 172.879 101.022 188.23 112.025 196.151C113.989 197.565 135.322 214.203 135.322 203.331" stroke="white" stroke-width="3" stroke-linecap="round" stroke-linejoin="round"/>
<path d="M84.8306 107.096C84.8306 122.864 70.0881 137.394 59.9367 147.625C48.6844 158.966 37.7477 170.26 25.0839 180.041C23.9094 180.948 10.0674 193.252 9.37695 187.946" stroke="white" stroke-width="3" stroke-linecap="round" stroke-linejoin="round"/>
<path d="M25.3882 212.168C10.1371 218.918 58.1486 204.729 74.8247 204.45C87.5723 204.236 100.263 202.818 113.129 202.818C114.995 202.818 133.175 205.536 133.175 207.651" stroke="white" stroke-width="3" stroke-linecap="round" stroke-linejoin="round"/>
<path d="M12.06 185.164C3.73257 194.803 15.1924 216.27 26.9418 216.27" stroke="white" stroke-width="3" stroke-linecap="round" stroke-linejoin="round"/>
<path d="M25.6993 180.254C16.863 183.306 26.3384 218.744 36.797 211.438" stroke="white" stroke-width="3" stroke-linecap="round" stroke-linejoin="round"/>
<path d="M39.8745 168.242C36.3362 165.39 36.5216 179.963 36.6209 181.405C37.3413 191.868 44.9598 202.715 52.4973 209.703" stroke="white" stroke-width="3" stroke-linecap="round" stroke-linejoin="round"/>
<path d="M6.41206 193.902C2.44953 197.461 2.00684 200.779 2.00684 206.21C2.00684 213.934 10.8048 214.703 14.9401 218.104" stroke="white" stroke-width="3" stroke-linecap="round" stroke-linejoin="round"/>
<path d="M17.4812 215.344C14.6123 215.344 22.5429 212.536 25.3032 211.754" stroke="white" stroke-width="3" stroke-linecap="round" stroke-linejoin="round"/>
<path d="M7.93646 198.105C3.25752 198.105 10.3807 192.258 9.9728 192.247C4.13846 192.085 5.47974 199.822 5.47974 203.871C5.47974 213.45 10.9962 207.924 8.18118 201.695C4.04115 192.534 8.33404 211.003 12.9158 213.237C15.4175 214.457 7.1258 197.586 6.77085 199.333C5.85054 203.863 11.8164 213.487 14.9334 216.626C17.1737 218.882 19.3388 218.706 16.6575 215.737C13.4081 212.139 6.11577 207.788 4.50549 203.07C1.20379 193.396 8.02747 209.869 11.7486 211.537" stroke="white" stroke-width="3" stroke-linecap="round" stroke-linejoin="round"/>
<path d="M22.4235 218.322C21.2426 218.579 27.555 226.39 29.2478 226.774C35.1673 228.116 41.5452 224.779 46.9753 223.215C50.6889 222.146 54.286 223.262 57.8221 221.246C62.0027 218.863 59.8483 202.651 61.308 207.236" stroke="white" stroke-width="3" stroke-linecap="round" stroke-linejoin="round"/>
<path d="M60.7152 222.424C55.276 222.424 55.3781 245.25 55.3781 248.649C55.3781 258.737 59.1248 267.412 62.6997 276.646C63.0489 277.548 66.9844 286.952 63.4825 282.741" stroke="white" stroke-width="3" stroke-linecap="round" stroke-linejoin="round"/>
<path d="M31.2338 226.211C28.5276 225.011 25.6143 253.578 25.6143 255.642C25.6143 266.226 27.8789 276.619 34.2145 285.108C37.4578 289.453 64.0596 296.51 65.939 289.112" stroke="white" stroke-width="3" stroke-linecap="round" stroke-linejoin="round"/>
<path d="M62.2399 222.523C58.0877 222.523 64.9336 226.471 65.7353 226.85C67.9807 227.91 66.7748 239.669 66.504 242.213C66.1115 245.9 68.367 261.401 59.4727 258.442" stroke="white" stroke-width="3" stroke-linecap="round" stroke-linejoin="round"/>
<path d="M570.191 2.12494C551.78 2.12494 541.402 31.8159 554.245 43.8012C560.315 49.4653 575.454 53.1761 583.657 50.118C586.76 48.9611 581.252 46.8222 579.69 44.9269C572.887 36.6744 564.349 24.9558 566.38 13.4421C566.806 11.031 574.416 0.0277769 570.772 2.30949" stroke="white" stroke-width="3" stroke-linecap="round" stroke-linejoin="round"/>
<path d="M378.317 190C377.619 189.938 371.359 174.777 370.837 173.733C369.47 170.998 361.298 157.647 368.77 159.818C377.841 162.452 387.969 168.333 394.998 174.631C398.717 177.963 390.585 175.611 389.554 175.315C380.846 172.814 374.406 180.986 366.916 183.931C363.307 185.351 365.601 183.431 367.277 181.578C371.129 177.322 374.522 172.683 378.404 168.45C384.156 162.176 387.003 159.535 384.553 169.987C382.877 177.135 379.197 184.217 377.921 191.347" stroke="white" stroke-width="3" stroke-linecap="round" stroke-linejoin="round"/>
<path d="M562.397 319.114C563.241 321.951 567.342 307.039 568.125 304.479C568.909 301.914 571.679 282.984 575.47 292.147C579.304 301.414 581.67 311.464 586.16 320.459C589.212 326.573 575.888 311.051 569.6 308.375C566.208 306.931 550.908 306.304 555.936 304.602C567.425 300.713 578.725 287.946 590.853 287.634C597.342 287.468 579.422 302.058 578.726 302.748C573.203 308.229 567.845 313.918 563.43 320.347C563.137 320.774 560.646 325.248 561.261 323.156" stroke="white" stroke-width="3" stroke-linecap="round" stroke-linejoin="round"/>
</svg>
