<svg width="416" height="361" viewBox="0 0 416 361" fill="none" xmlns="http://www.w3.org/2000/svg">
<path d="M180.775 152.527C178.825 158.1 181.009 140.635 182.354 134.887C185.578 121.107 192.832 109.976 197.651 96.8849C199.784 91.0924 201.698 85.2397 204.227 79.5963C207.422 72.4655 213.567 67.2432 219.144 61.9456C232.097 49.6418 247.79 40.5751 263.865 32.9669C281.331 24.7005 299.895 17.537 318.768 13.1543C328.303 10.9402 338.362 8.7022 348.101 7.73308C357.94 6.75403 367.858 7.48802 377.704 6.45339C388.023 5.36902 398.291 4.51952 408.672 4.51952C410.491 4.51952 415.496 6.04104 413.564 3.96319C409.949 0.0761802 411.425 2.27657 408.642 7.79415C407.268 10.5169 408.813 13.1329 407.13 15.7372C405.472 18.304 404.654 21.563 403.968 24.5014C402.398 31.2338 400.265 37.8688 398.779 44.6055C395.389 59.9704 389.493 74.2237 384.502 89.0906C375.863 114.824 360.626 139.467 340.187 157.213C322.59 172.492 299.243 184.762 277.24 191.838C264.739 195.857 252.205 200 238.771 200" stroke="white" stroke-width="3" stroke-linecap="round" stroke-linejoin="round"/>
<path d="M182.013 147C181.566 147 192.849 162.839 193.97 164.847C196.792 169.904 201.287 173.765 204.585 178.543C207.065 182.135 210.656 186.998 214.487 189.31C217.279 190.995 236.025 206.227 239 202.379" stroke="white" stroke-width="3" stroke-linecap="round" stroke-linejoin="round"/>
<path d="M181.001 145.476C180.247 145.557 190.248 163.33 191.488 164.743C195.146 168.909 197.848 173.817 202.022 177.548C205.888 181.005 201.183 175.972 200.165 174.788C192.208 165.539 186.52 154.326 180.904 143.566C176.738 135.584 188.01 160.353 193.64 167.388C202.871 178.924 214.892 196.091 229.956 200.607C232.701 201.43 236.144 202.423 238.676 203.47C245.227 206.18 226.97 195.458 220.812 191.952C209.346 185.425 200.446 170.767 192.859 160.119C191.294 157.923 186.595 150.044 183.929 149.014C183.697 148.925 181.462 146.565 181.361 146.901C179.05 154.584 196.14 170.005 200.648 174.503C205.12 178.965 210.763 182.124 215.025 186.758C218.256 190.273 221.14 193.508 225.217 196.046C226.588 196.9 233.95 204.979 235.633 203.901C238.193 202.262 228.286 196.496 237.637 199.574C240.544 200.531 242.626 202.222 244 199.64" stroke="white" stroke-width="3" stroke-linecap="round" stroke-linejoin="round"/>
<path d="M180.971 151.869C180.971 147.07 178.032 152.763 176.195 155.042C175.059 156.452 165.933 168.882 170.503 162.789C171.666 161.239 181.128 147.869 176.622 154.006C174.92 156.325 170.651 164.386 168.009 165.125C167.611 165.236 180.338 189.888 182.623 192.673C187.564 198.694 193.915 204.574 200.18 209.252C205.114 212.937 221.06 223.73 225.554 216.639C228.684 211.702 233.52 207.776 237.468 203.658C238.194 202.901 240.078 199.151 238.173 202.072C236.316 204.92 229.798 216.764 225.201 214.641" stroke="white" stroke-width="3" stroke-linecap="round" stroke-linejoin="round"/>
<path d="M309.563 60.7449C304.409 60.5169 301.535 60.1334 295.874 61.7354C286.485 64.3925 280.105 67.3252 274.334 75.5163C269.443 82.4592 266.305 91.2585 266.017 99.6904C265.66 110.158 270.88 112.888 276.645 120.812C290.286 139.561 321.336 132.817 331.43 114.809C340.13 99.2857 338.755 83.9522 326.484 71.2861C319.352 63.9252 312.341 62.758 303.922 58" stroke="white" stroke-width="3" stroke-linecap="round" stroke-linejoin="round"/>
<path d="M294.099 54.9195C290.33 48.7852 270.202 62.8329 267.556 66.1761C258.637 77.4482 254.024 91.9704 256.807 106.382C259.228 118.915 266.851 132.103 279.301 136.537C293.417 141.566 310.634 143.153 324.495 137.022C337.666 131.196 345.284 120.205 347.529 105.832C349.674 92.1063 344.189 79.63 337.204 68.3487C332.264 60.3686 320.918 53.6916 311.495 53.5487C298.719 53.355 292.838 50.6981 280.646 59.1108" stroke="white" stroke-width="3" stroke-linecap="round" stroke-linejoin="round"/>
<path d="M357.55 6C355.302 6 360.616 20.8874 361.481 22.6335C364.735 29.2074 368.633 36.2217 373.528 41.6532C376.72 45.1942 381.385 48.3666 385.607 50.4959C388.431 51.92 395.082 58.1761 393.849 55.2129" stroke="white" stroke-width="3" stroke-linecap="round" stroke-linejoin="round"/>
<path d="M179.624 144C175.867 139.793 171.014 137.229 165.493 134.637C158.55 131.377 150.86 131.172 143.366 130.122C135.18 128.974 127.826 127.388 119.49 127.388C111.547 127.388 103.406 127.41 95.8225 124.997C91.0856 123.49 108.287 100.171 109.827 98.2694C119.614 86.191 129.424 74.9324 141.963 65.608C148.899 60.4505 159.445 60.7391 167.726 61.2827C176.704 61.8722 189.018 61.7457 196.606 67.4844C199.712 69.8341 203.152 71.7804 207 72.4274" stroke="white" stroke-width="3" stroke-linecap="round" stroke-linejoin="round"/>
<path d="M243 199.808C243 193.001 245.54 213.207 246.192 219.984C247.248 230.949 245.713 241.902 245.713 252.875C245.713 261.388 239.791 280.117 248.018 286.51C250.117 288.141 259.754 285.237 261.99 284.511C269.417 282.099 277.88 279.339 284.098 274.587C293.633 267.299 303.387 259.579 311.542 250.827C314.672 247.468 318.165 244.881 320.422 240.792C323.456 235.294 321.357 225.562 320.366 219.571C318.857 210.447 317.721 201.071 314.968 192.215C314.717 191.407 311.587 184 311.466 184" stroke="white" stroke-width="3" stroke-linecap="round" stroke-linejoin="round"/>
<path d="M134.019 192.391C137.179 189.183 126.122 196.741 122.27 199.079C105.46 209.282 87.9214 217.635 72.1807 229.616C57.6494 240.676 40.9752 250.765 30.7004 266.231C23.7422 276.704 38.5104 270.972 43.468 268.549C57.1572 261.86 69.179 252.199 82.7879 245.254C91.567 240.774 101.894 234.942 111.969 234.367C119.595 233.932 111.465 241.229 109.281 243.24C96.9321 254.603 82.3948 263.587 69.6604 274.559C53.2776 288.675 37.7032 303.372 22.611 318.84C15.8362 325.784 2.22073 336.22 2.0007 347.08C1.84979 354.528 25.981 337.906 27.4936 336.884C46.0142 324.373 63.8295 310.517 81.6454 297.024C94.3327 287.415 107.474 278.593 120.724 269.783C127.691 265.15 134.452 259.26 142.478 256.494C144.016 255.964 146.255 255.104 144.315 257.761C140.024 263.637 135.033 268.917 131.258 275.198C128.096 280.459 124.894 286.269 124.858 292.565C124.824 298.516 133.292 290.458 134.344 289.333C140.78 282.447 146.411 275.443 153.652 269.345C155.578 267.724 158.695 264.396 161.429 264.396C163.957 264.396 160.635 269.939 160.327 270.45C155.763 278.023 150.688 285.182 146.019 292.666C139.865 302.528 134.588 312.974 129.3 323.314C124.38 332.934 118.012 343.961 115.86 354.665C114.133 363.252 123.359 357.019 125.653 353.536C131.79 344.218 137.782 334.589 142.99 324.717C150.524 310.436 160.707 296.822 171.478 284.884C178.185 277.451 184.597 269.444 190.436 261.315C194.311 255.922 198.588 250.776 201.086 244.562C202.785 240.334 207.107 234.13 200.261 234.13C196.264 234.13 192.305 241.212 190.219 243.98C186.742 248.597 184.016 253.645 181.285 258.71C178.384 264.09 174.202 268.777 170.351 273.495C167.164 277.4 164.495 278.535 167.23 272.493C170.933 264.31 181.162 254.85 177.751 245.384C174.963 237.648 167.972 246.548 164.624 249.334C160.813 252.505 157.627 255.667 154.689 259.689C153.747 260.978 151.934 262.684 151.916 259.963C151.872 253.447 158.849 248.003 158.849 241.364C158.849 235.55 148.172 242.276 147.071 243.292C143.127 246.931 139.619 249.144 134.975 251.77C128.862 255.226 123.533 259.928 117.661 263.761C113.102 266.737 107.765 272.181 102.214 273.071C99.1486 273.563 99.7636 269.753 101.007 268.25C105.67 262.609 111.451 258.114 117.147 253.589C123.29 248.709 128.755 242.914 134.499 237.58C135.803 236.369 152.071 218.755 150.286 218.222C139.181 214.9 128.43 226.073 117.899 228.018C114.076 228.724 111.695 228.412 111.695 224.192C111.695 218.992 115.446 216.967 119.513 214.584C125.885 210.85 132.835 207.509 138.435 202.642C140.717 200.658 144.799 198.048 146.204 195.312C151.071 185.837 129.685 190.838 128.317 196.423" stroke="white" stroke-width="3" stroke-linecap="round" stroke-linejoin="round"/>
</svg>
