<svg width="500" height="500" viewBox="0 0 500 500" fill="none" xmlns="http://www.w3.org/2000/svg">
<g id="q1_asteroids_selected">
<g id="Group 108">
<path id="Vector 3409" d="M261.174 370.276C271.746 348.709 295.005 342.26 305.312 341.732C306.634 341.637 316.148 345.168 318.263 343.582C320.377 341.996 333.328 339.353 336.499 339.881C339.037 340.304 338.085 343.229 337.292 344.639C335.618 346.489 333.275 350.612 337.292 352.304C341.31 353.995 349.186 347.194 352.622 343.582C360.868 340.41 360.287 344.903 358.965 347.546C356.322 352.216 350.613 362.559 348.922 366.576C347.23 370.593 351.741 370.717 354.208 370.276C359.582 372.302 365.308 384.02 345.221 414.679C325.134 445.338 287.692 435.206 271.482 426.308C263.641 416.617 250.602 391.843 261.174 370.276Z" fill="#BEB8FF"/>
<path id="Vector 3411" d="M253.999 437C218.688 397.461 259.499 355.387 277.824 342.789C295.18 330.014 330.738 304.359 334.121 303.936C337.504 303.514 335.53 306.932 334.121 308.694C328.923 312.218 317.998 320.799 315.884 326.931C313.77 333.062 325.575 323.495 331.742 317.944L371.651 286.493C372.621 286.14 374.929 285.805 376.409 287.286C377.889 288.766 380.197 288.255 381.166 287.814C390.417 282.44 409.817 271.745 413.411 271.956C417.006 272.167 414.909 275.744 413.411 277.506C405.13 284.026 389.36 298.228 392.531 302.879C395.703 307.531 405.834 300.236 410.504 296.007C421.428 285.7 444.229 265.084 448.034 265.084C451.84 265.084 448.563 270.37 446.449 273.013C434.908 286.14 410.927 313.504 407.332 317.944C402.839 323.495 404.16 323.23 403.896 325.873C403.685 327.988 407.861 324.464 409.975 322.438C414.468 317.328 423.772 308.007 425.04 311.601C426.309 315.196 417.816 324.728 413.411 329.045L368.216 383.227C365.044 387.456 359.335 396.178 361.872 397.235C364.41 398.292 364.515 400.671 364.251 401.728C346.543 427.629 289.309 476.539 253.999 437Z" fill="#7E6BEA"/>
<path id="Vector 3404" d="M265.304 378.544C262.132 382.773 260.987 390.173 260.81 393.345C260.701 394.614 259.003 396.517 258.167 397.31C257.286 400.834 256.053 408.04 258.167 408.674C260.81 409.467 260.81 415.282 263.982 421.89C266.519 427.176 271.911 429.378 274.29 429.819C275.347 429.642 279.206 430.083 286.183 433.254C293.161 436.426 300.191 434.576 302.834 433.254C305.742 431.669 312.931 428.074 318.428 426.383C323.926 424.691 324.948 420.392 324.771 418.454C327.326 413.784 332.436 403.758 332.436 401.01C332.436 397.574 330.322 393.345 330.322 387.795C330.322 382.244 321.071 376.165 318.428 375.637C315.785 375.108 312.085 370.087 309.97 364.536C307.856 358.986 298.606 361.629 295.963 361.629C293.848 361.629 285.919 363.567 282.219 364.536C277.902 367.444 268.475 374.315 265.304 378.544Z" fill="#F26C3B"/>
<g id="Vector 3410">
<path d="M346.013 334.595C340.304 330.367 351.915 319.266 358.435 314.244C358.699 313.539 360.919 311.813 367.685 310.544C374.451 309.275 371.385 315.478 369.007 318.737C363.721 325.785 351.722 338.824 346.013 334.595Z" fill="#BEB8FF"/>
<path d="M379.579 326.931C373.658 328.622 376.583 322.173 378.786 318.737C385.763 311.337 388.917 312.659 389.622 314.244C388.741 317.768 385.499 325.239 379.579 326.931Z" fill="#BEB8FF"/>
<path d="M364.514 363.669C360.919 363.034 363.897 358.999 365.835 357.061C367.972 354.418 372.443 353.889 374.029 357.061C375.614 360.233 369.007 364.461 364.514 363.669Z" fill="#BEB8FF"/>
</g>
<g id="Vector 3412">
<path d="M392.884 259.899C389.36 262.366 383.369 267.511 387.598 268.357C392.884 269.414 406.364 257.52 392.884 259.899Z" fill="#7E6BEA"/>
<path d="M433.321 253.556C424.863 257.15 429.797 247.829 433.321 242.719C440.087 237.645 442.307 238.843 442.572 240.076C443.012 243.072 441.779 249.961 433.321 253.556Z" fill="#7E6BEA"/>
<path d="M387.598 380.684C381.678 380.05 387.245 372.667 390.769 369.055C399.86 363.135 401.958 365.707 401.87 367.734C399.579 372.315 393.517 381.319 387.598 380.684Z" fill="#7E6BEA"/>
</g>
<path id="Vector 3405" d="M304.419 401.803C301.67 399.265 305.036 393.345 307.062 390.702C308.911 389.909 310.763 391.495 313.406 391.495C316.049 391.495 317.106 392.023 317.106 397.045V401.803C316.225 402.331 313.723 403.706 310.763 404.974C307.062 406.56 307.855 404.974 304.419 401.803Z" fill="#B53405"/>
<path id="Vector 3406" d="M284.331 406.031C283.697 407.511 279.31 410.525 277.195 411.846C277.195 417.661 284.331 415.282 286.446 415.282C288.56 415.282 288.825 411.053 288.825 408.674C288.825 406.296 285.124 404.181 284.331 406.031Z" fill="#B53405"/>
<path id="Vector 3407" d="M307.375 416.71C306.318 415.23 305.029 415.829 304.236 416.71L303.665 417.503C303.402 417.767 303.675 419.353 303.675 420.674C303.675 421.996 304.996 421.203 307.375 421.732C309.754 422.26 308.696 418.56 307.375 416.71Z" fill="#B53405"/>
<g id="Vector 3408">
<path d="M289.621 376.43C287.93 371.778 292.264 373.61 294.643 375.108C294.819 375.108 296.017 375.372 299.4 376.43C303.629 377.751 298.079 379.866 295.171 381.98C292.264 384.094 291.736 382.244 289.621 376.43Z" fill="#B53405"/>
<path d="M308.122 379.601C305.796 379.39 308.034 376.87 309.444 375.637C309.972 375.149 311.558 375.108 313.408 376.958C315.258 378.808 311.03 379.866 308.122 379.601Z" fill="#B53405"/>
<path d="M270.063 393.609C267.948 394.666 268.125 392.288 268.477 390.966C269.006 389.909 270.855 390.702 271.648 390.702C272.441 390.702 272.706 392.288 270.063 393.609Z" fill="#B53405"/>
</g>
</g>
<g id="Group 100">
<path id="Vector 3373" d="M255.5 442.5L185.5 241C193 248.333 216.1 264 248.5 268C280.9 272 310.667 251.667 321.5 241C332 229.833 353.5 200.4 355.5 172C357.5 143.6 349.333 115.333 342 105L488 268L255.5 442.5Z" fill="url(#paint0_linear_281_3949)"/>
<g id="Group 99">
<rect id="Rectangle 461" x="177.125" y="229.42" width="13.4478" height="31.218" transform="rotate(43.0243 177.125 229.42)" fill="#C1B8FA"/>
<path id="Subtract" fill-rule="evenodd" clip-rule="evenodd" d="M251.879 273.125C311.56 273.125 359.941 224.744 359.941 165.062C359.941 105.381 311.56 57 251.879 57C192.198 57 143.816 105.381 143.816 165.062C143.816 224.744 192.198 273.125 251.879 273.125ZM252.119 261.598C305.302 261.598 348.415 218.485 348.415 165.303C348.415 112.12 305.302 69.0069 252.119 69.0069C198.936 69.0069 155.823 112.12 155.823 165.303C155.823 218.485 198.936 261.598 252.119 261.598Z" fill="#C1B8FA"/>
<g id="Mask group">
<mask id="mask0_281_3949" style="mask-type:alpha" maskUnits="userSpaceOnUse" x="42" y="233" width="141" height="141">
<rect id="Rectangle 459" x="42" y="341.398" width="152.248" height="46.1067" transform="rotate(-44.9999 42 341.398)" fill="#D9D9D9"/>
</mask>
<g mask="url(#mask0_281_3949)">
<rect id="Rectangle 460" x="42" y="341.398" width="152.248" height="46.1067" transform="rotate(-44.9999 42 341.398)" fill="#5745CC"/>
<path id="Vector 3370" d="M106.117 398.718L61.6914 354.292L167.593 249.591L191.607 279.128L106.117 398.718Z" fill="#2F2574"/>
<path id="Vector 3368" d="M188.121 288.974L133.254 235.087L144.524 226.058L197.611 278.779L188.121 288.974Z" fill="#C1B8FA"/>
<path id="Vector 3369" d="M81.8552 382.239L31.344 333.373L43.1185 326.9L91.9509 374.66L81.8552 382.239Z" fill="#C1B8FA"/>
</g>
</g>
<circle id="Ellipse 149" cx="251.881" cy="165.062" r="92.2133" stroke="#29198F" stroke-width="3.84222"/>
<path id="Vector 3371" d="M219.938 100.465C199.766 94.3175 184.317 124.159 179.114 139.848C173.834 173.707 201.927 154.736 201.927 145.371C201.927 137.879 208.491 130.242 211.773 127.361C222.899 120.957 240.109 106.613 219.938 100.465Z" fill="#C1B8FA" fill-opacity="0.29"/>
<path id="Vector 3372" d="M290.169 217.002C300.275 220.076 308.015 205.152 310.622 197.306C313.267 180.373 299.192 189.86 299.192 194.544C299.192 198.291 295.904 202.11 294.259 203.551C288.685 206.754 280.062 213.927 290.169 217.002Z" fill="#C1B8FA" fill-opacity="0.29"/>
</g>
</g>
</g>
<defs>
<linearGradient id="paint0_linear_281_3949" x1="284.5" y1="111.5" x2="400" y2="318.5" gradientUnits="userSpaceOnUse">
<stop stop-color="#C1B8FA" stop-opacity="0.35"/>
<stop offset="1" stop-color="#C1B8FA" stop-opacity="0"/>
</linearGradient>
</defs>
</svg>
