<svg width="401" height="442" viewBox="0 0 401 442" fill="none" xmlns="http://www.w3.org/2000/svg">
<path d="M47.3448 441.5L0.332031 236.233L322.138 225.308L388.022 406.075L381.731 417.663C375.904 419.781 286.713 422.629 252.943 422.629C243.011 436.534 216.193 435.872 202.288 425.608L47.3448 441.5Z" fill="#663F1A"/>
<path d="M53.9651 430.244L3.97266 225.308L323.13 214.713L388.352 406.406C382.525 408.525 293.333 411.372 259.563 411.372C249.631 425.278 222.814 424.615 208.909 414.352L53.9651 430.244Z" fill="#CEA47D"/>
<path d="M97.6657 425.278L71.1797 409.717L323.128 214.713L388.35 406.406C382.523 408.525 293.331 411.372 259.562 411.372C249.629 425.278 222.812 424.615 208.907 414.352L97.6657 425.278Z" fill="#B6865A"/>
<path d="M84.4237 384.555L41.0527 210.74L25.4922 233.253L71.1806 410.71L84.4237 384.555Z" fill="#D1E2E8"/>
<path d="M71.5117 410.048L86.4101 378.927L196.658 333.901L366.831 364.691L359.216 392.832C340.676 405.082 303.265 391.177 289.691 391.177C249.947 391.177 249.741 396.916 250.955 405.413H220.496C211.336 395.04 182.753 391.177 155.936 399.454C122.201 409.866 86.6308 413.359 71.5117 410.048Z" fill="#C3C9DD"/>
<path d="M231.092 383.626C232.681 371.708 197.102 268.743 181.431 218.751C171.83 210.805 145.344 194.25 111.243 205.175C93.8699 210.741 57.6085 214.051 41.0547 210.74L82.7702 383.626C88.0674 386.937 108.197 390.248 146.337 377.005C184.477 363.762 220.277 375.901 231.092 383.626Z" fill="#FBF2DF"/>
<path d="M231.721 384.373C224.051 375.113 195.656 271.416 182.417 220.725C186.34 208.896 201.163 201.397 218.841 196.898C231.721 193.62 296.624 208.486 308.899 196.897L366.831 364.423C364.097 370.04 333.724 375.68 297.194 369.058C257.467 361.858 236.791 372.087 231.721 384.373Z" fill="#FBF2DF"/>
<path d="M231.753 384.224L228.112 381.575L177.457 215.706C177.987 215.706 180.768 217.913 182.092 219.017C182.357 217.693 184.189 215.375 185.072 214.382C201.626 269.671 234.601 380.317 234.071 380.582C233.541 380.847 232.305 383.12 231.753 384.224Z" fill="#DECCC1"/>
<path d="M0 236.233L3.97291 225.308L54.9586 426.933L47.3438 441.5L0 236.233Z" fill="#B1825F"/>
<path d="M286 233.409L286.331 220.497L293.945 221.821C291.849 225.573 287.007 233.409 286.662 233.74C286.49 233.905 286.014 234.071 286 233.409Z" fill="black"/>
<path d="M293.958 221.823L286.344 220.499C287.999 197.32 322.086 48.3355 339.633 14.8993C340.421 13.3976 342.502 13.133 343.275 13.2433C343.275 13.2433 350.492 15.9566 354.2 16.2215C351.883 54.955 304.222 202.948 293.958 221.823Z" fill="#8178DF"/>
<mask id="mask0_250_376" style="mask-type:alpha" maskUnits="userSpaceOnUse" x="286" y="13" width="69" height="209">
<path d="M293.958 221.822L286.344 220.498C287.999 197.319 322.086 48.3346 339.633 14.8983C340.421 13.3966 342.502 13.132 343.275 13.2424C343.275 13.2424 350.492 15.9557 354.2 16.2205C351.883 54.954 304.222 202.947 293.958 221.822Z" fill="#833636"/>
</mask>
<g mask="url(#mask0_250_376)">
<rect x="317.789" y="74.1792" width="28.7931" height="9.46829" transform="rotate(17.0113 317.789 74.1792)" fill="black"/>
</g>
<path d="M353.555 23.8373L337.332 19.5333C337.773 18.0986 338.921 14.8982 339.981 13.5739C341.04 12.2496 342.85 12.1393 343.622 12.2496L351.899 14.5672C355.607 14.832 354.548 20.8576 353.555 23.8373Z" fill="black"/>
<path d="M347.646 1.27277C347.848 0.569839 348.582 0.163786 349.284 0.365827L354.376 1.82913C355.079 2.03117 355.485 2.7648 355.283 3.46773L351.907 15.2124L344.27 13.0174L347.646 1.27277Z" fill="black"/>
<path d="M335.044 75.1398C338.667 69.8468 345.465 42.3132 351.642 21.7872C352.059 20.4014 351.24 18.9472 349.838 18.5906C348.508 18.2524 347.154 19.0273 346.785 20.3489C344.059 30.1252 333.848 67.2098 333.716 74.7255C333.7 75.6512 334.521 75.9037 335.044 75.1398Z" fill="#2B2B2B"/>
</svg>
