<svg width="234" height="727" viewBox="0 0 234 727" fill="none" xmlns="http://www.w3.org/2000/svg">
<g filter="url(#filter0_d_239_1785)">
<path fill-rule="evenodd" clip-rule="evenodd" d="M41.6012 481.877C37.4269 481.342 33.6096 484.293 33.0751 488.467L6.19815 698.353C5.66361 702.528 8.6142 706.345 12.7885 706.879L136.046 722.663C140.22 723.198 144.037 720.247 144.572 716.073L171.449 506.186C171.983 502.012 169.033 498.195 164.859 497.66L41.6012 481.877ZM67.5869 495.841C64.697 495.471 62.0543 497.514 61.6842 500.404C61.3142 503.293 63.3569 505.936 66.2468 506.306L136.015 515.24C138.905 515.61 141.548 513.568 141.918 510.678C142.288 507.788 140.245 505.145 137.355 504.775L67.5869 495.841Z" fill="#4A3A87"/>
<rect x="38.668" y="514.002" width="123.092" height="161.777" rx="5.8615" transform="rotate(7.29729 38.668 514.002)" fill="#F3CCA7"/>
<path d="M37.9235 519.816C38.3346 516.605 41.271 514.336 44.482 514.747L154.948 528.893C158.159 529.304 160.429 532.24 160.018 535.451L153.987 582.545L96.8112 558.854C95.8516 558.457 94.8037 558.321 93.7746 558.462L31.8929 566.91L37.9235 519.816Z" fill="#D19964"/>
<circle cx="94.0711" cy="561.281" r="28.7214" transform="rotate(7.29729 94.0711 561.281)" fill="white"/>
<mask id="mask0_239_1785" style="mask-type:alpha" maskUnits="userSpaceOnUse" x="65" y="532" width="58" height="59">
<circle cx="94.0711" cy="561.282" r="28.7214" transform="rotate(7.29729 94.0711 561.282)" fill="#D9D9D9"/>
</mask>
<g mask="url(#mask0_239_1785)">
<path d="M93.1625 571.497C98.9168 572.234 104.174 568.17 104.911 562.416C105.648 556.661 101.584 551.404 95.8299 550.667C90.0756 549.93 84.8181 553.994 84.0813 559.748C83.3444 565.502 87.4083 570.76 93.1625 571.497ZM92.4957 576.704C85.5437 575.814 71.219 577.526 70.3321 584.452L69.6653 589.659L111.325 594.994L111.992 589.787C112.879 582.861 99.4477 577.595 92.4957 576.704Z" fill="#171547"/>
</g>
<rect x="27.0391" y="683.293" width="3.5169" height="16.9984" transform="rotate(7.29729 27.0391 683.293)" fill="white"/>
<rect x="43.8984" y="685.452" width="3.5169" height="16.9984" transform="rotate(7.29729 43.8984 685.452)" fill="white"/>
<rect x="54.3633" y="686.792" width="3.5169" height="16.9984" transform="rotate(7.29729 54.3633 686.792)" fill="white"/>
<rect x="68.8984" y="688.653" width="7.0338" height="16.9984" transform="rotate(7.29729 68.8984 688.653)" fill="white"/>
<rect x="77.6211" y="689.77" width="4.10305" height="16.9984" transform="rotate(7.29729 77.6211 689.77)" fill="white"/>
<rect x="90.9922" y="691.482" width="4.10305" height="16.9984" transform="rotate(7.29729 90.9922 691.482)" fill="white"/>
<rect x="97.3906" y="692.302" width="7.61995" height="16.9984" transform="rotate(7.29729 97.3906 692.302)" fill="white"/>
<rect x="118.32" y="694.982" width="5.27535" height="16.9984" transform="rotate(7.29729 118.32 694.982)" fill="white"/>
<rect x="31.6914" y="683.889" width="1.75845" height="16.9984" transform="rotate(7.29729 31.6914 683.889)" fill="white"/>
<rect x="36.3438" y="684.484" width="1.75845" height="16.9984" transform="rotate(7.29729 36.3438 684.484)" fill="white"/>
<rect x="106.109" y="693.418" width="1.75845" height="16.9984" transform="rotate(7.29729 106.109 693.418)" fill="white"/>
<rect x="34.0156" y="684.187" width="1.75845" height="16.9984" transform="rotate(7.29729 34.0156 684.187)" fill="white"/>
<rect x="38.668" y="684.782" width="1.75845" height="16.9984" transform="rotate(7.29729 38.668 684.782)" fill="white"/>
<rect x="108.434" y="693.716" width="1.75845" height="16.9984" transform="rotate(7.29729 108.434 693.716)" fill="white"/>
<rect x="113.668" y="694.386" width="1.75845" height="16.9984" transform="rotate(7.29729 113.668 694.386)" fill="white"/>
<rect x="59.0156" y="687.388" width="1.75845" height="16.9984" transform="rotate(7.29729 59.0156 687.388)" fill="white"/>
<rect x="52.0391" y="686.495" width="1.75845" height="16.9984" transform="rotate(7.29729 52.0391 686.495)" fill="white"/>
<rect x="41.5742" y="685.154" width="1.1723" height="16.9984" transform="rotate(7.29729 41.5742 685.154)" fill="white"/>
<rect x="111.344" y="694.088" width="1.1723" height="16.9984" transform="rotate(7.29729 111.344 694.088)" fill="white"/>
<rect x="111.344" y="694.088" width="1.1723" height="16.9984" transform="rotate(7.29729 111.344 694.088)" fill="white"/>
<rect x="115.992" y="694.684" width="1.1723" height="16.9984" transform="rotate(7.29729 115.992 694.684)" fill="white"/>
<rect x="124.133" y="695.726" width="1.1723" height="16.9984" transform="rotate(7.29729 124.133 695.726)" fill="white"/>
<rect x="127.621" y="696.173" width="1.1723" height="16.9984" transform="rotate(7.29729 127.621 696.173)" fill="white"/>
<rect x="125.875" y="695.95" width="1.1723" height="16.9984" transform="rotate(7.29729 125.875 695.95)" fill="white"/>
<rect x="61.9219" y="687.76" width="1.1723" height="16.9984" transform="rotate(7.29729 61.9219 687.76)" fill="white"/>
<rect x="63.668" y="687.983" width="1.1723" height="16.9984" transform="rotate(7.29729 63.668 687.983)" fill="white"/>
<rect x="65.4102" y="688.207" width="1.1723" height="16.9984" transform="rotate(7.29729 65.4102 688.207)" fill="white"/>
<rect x="67.1562" y="688.43" width="1.1723" height="16.9984" transform="rotate(7.29729 67.1562 688.43)" fill="white"/>
<rect x="82.8555" y="690.44" width="1.1723" height="16.9984" transform="rotate(7.29729 82.8555 690.44)" fill="white"/>
<rect x="84.5977" y="690.664" width="1.1723" height="16.9984" transform="rotate(7.29729 84.5977 690.664)" fill="white"/>
<rect x="95.6445" y="692.078" width="1.1723" height="16.9984" transform="rotate(7.29729 95.6445 692.078)" fill="white"/>
<rect x="86.3438" y="690.887" width="1.75845" height="16.9984" transform="rotate(7.29729 86.3438 690.887)" fill="white"/>
<rect x="88.668" y="691.185" width="1.75845" height="16.9984" transform="rotate(7.29729 88.668 691.185)" fill="white"/>
<rect x="48.5508" y="686.048" width="1.1723" height="16.9984" transform="rotate(7.29729 48.5508 686.048)" fill="white"/>
<rect x="50.2969" y="686.271" width="1.1723" height="16.9984" transform="rotate(7.29729 50.2969 686.271)" fill="white"/>
<path d="M45.6925 605.569C45.7141 604.806 45.4582 604.165 44.925 603.644C44.3917 603.124 43.678 602.806 42.7839 602.692C42.1541 602.611 41.5853 602.648 41.0775 602.802C40.5742 602.957 40.1615 603.209 39.8393 603.557C39.5221 603.901 39.3325 604.316 39.2705 604.8C39.2248 605.157 39.2618 605.48 39.3816 605.768C39.5013 606.057 39.6787 606.314 39.9138 606.541C40.1538 606.765 40.4236 606.965 40.7233 607.142C41.0273 607.32 41.3364 607.476 41.6505 607.61L43.0251 608.202C43.4415 608.377 43.8537 608.584 44.2617 608.824C44.6696 609.064 45.034 609.348 45.3546 609.676C45.6803 610 45.9251 610.378 46.089 610.811C46.2579 611.24 46.3062 611.736 46.234 612.3C46.1415 613.022 45.8712 613.648 45.4229 614.177C44.9746 614.706 44.3786 615.095 43.6348 615.345C42.8916 615.59 42.0311 615.65 41.0533 615.525C40.1328 615.407 39.3528 615.152 38.7134 614.762C38.0746 614.366 37.5961 613.873 37.2779 613.282C36.9596 612.69 36.822 612.035 36.8649 611.315L38.1334 611.477C38.1092 612.016 38.2276 612.49 38.4885 612.9C38.7495 613.309 39.1142 613.642 39.5827 613.899C40.0517 614.152 40.5902 614.317 41.198 614.395C41.8719 614.481 42.4853 614.445 43.0382 614.288C43.5961 614.127 44.0507 613.863 44.4021 613.496C44.7585 613.125 44.9714 612.669 45.0407 612.127C45.0994 611.669 45.0296 611.27 44.8312 610.932C44.6334 610.588 44.3344 610.284 43.9342 610.018C43.5385 609.752 43.0713 609.502 42.5328 609.267L40.9751 608.584C39.9542 608.131 39.1866 607.588 38.6725 606.953C38.1583 606.319 37.9568 605.568 38.0679 604.7C38.1609 603.973 38.4365 603.36 38.8946 602.859C39.3577 602.354 39.9415 601.99 40.6461 601.767C41.3556 601.54 42.1266 601.48 42.9591 601.586C43.8004 601.694 44.525 601.943 45.133 602.335C45.741 602.726 46.1997 603.217 46.5091 603.807C46.8235 604.393 46.9499 605.032 46.8883 605.722L45.6925 605.569ZM52.7917 617.008C51.9152 616.895 51.1685 616.574 50.5516 616.042C49.9391 615.512 49.4936 614.83 49.2152 613.998C48.9374 613.161 48.8644 612.227 48.9964 611.196C49.1295 610.157 49.436 609.267 49.9157 608.527C50.396 607.783 50.9991 607.234 51.725 606.879C52.4559 606.52 53.2596 606.397 54.1361 606.509C55.0126 606.622 55.7571 606.943 56.3696 607.474C56.9822 608.004 57.4274 608.688 57.7052 609.525C57.9874 610.362 58.062 611.301 57.9289 612.34C57.7969 613.371 57.491 614.256 57.0113 614.996C56.5321 615.732 55.9271 616.279 55.1962 616.637C54.4697 616.996 53.6682 617.12 52.7917 617.008ZM52.9296 615.931C53.6344 616.021 54.2554 615.908 54.7929 615.592C55.3303 615.276 55.7648 614.819 56.0966 614.221C56.4327 613.624 56.6492 612.946 56.7463 612.189C56.8433 611.431 56.8046 610.719 56.6304 610.052C56.4606 609.386 56.1557 608.829 55.7159 608.384C55.2761 607.938 54.7038 607.67 53.999 607.58C53.2987 607.49 52.6774 607.605 52.135 607.925C51.597 608.246 51.1597 608.707 50.823 609.308C50.4907 609.91 50.2761 610.59 50.179 611.348C50.082 612.105 50.1187 612.815 50.2891 613.477C50.4639 614.14 50.7715 614.692 51.2119 615.133C51.6524 615.575 52.2249 615.84 52.9296 615.931ZM64.1758 618.465C63.2685 618.349 62.5069 618.021 61.8911 617.481C61.2797 616.942 60.8395 616.254 60.5705 615.418C60.3014 614.583 60.2315 613.66 60.3607 612.652C60.4909 611.634 60.7941 610.753 61.27 610.008C61.7503 609.264 62.354 608.71 63.081 608.346C63.8086 607.978 64.615 607.851 65.5003 607.965C66.1786 608.051 66.7762 608.262 67.2929 608.597C67.8102 608.927 68.2167 609.353 68.5126 609.875C68.8134 610.392 68.9698 610.972 68.9816 611.613L67.7924 611.461C67.7424 610.873 67.5077 610.346 67.0883 609.88C66.6738 609.411 66.1054 609.13 65.3831 609.037C64.7356 608.954 64.1405 609.057 63.5976 609.346C63.0554 609.63 62.6032 610.067 62.2412 610.656C61.8842 611.242 61.6533 611.944 61.5484 612.763C61.4429 613.587 61.4861 614.334 61.6779 615.003C61.8704 615.668 62.1904 616.21 62.638 616.63C63.0901 617.05 63.6486 617.303 64.3137 617.388C64.763 617.446 65.1833 617.415 65.5747 617.295C65.9711 617.171 66.3149 616.969 66.606 616.688C66.9015 616.408 67.1209 616.058 67.2643 615.638L68.4535 615.79C68.287 616.391 67.9991 616.909 67.5896 617.345C67.1851 617.776 66.6901 618.093 66.1046 618.296C65.5235 618.499 64.8805 618.556 64.1758 618.465ZM70.9803 619.122L72.2798 608.974L73.4624 609.125L72.1629 619.273L70.9803 619.122ZM73.1044 607.306C72.8621 607.275 72.6656 607.167 72.5147 606.983C72.3643 606.793 72.3041 606.582 72.334 606.348C72.3639 606.115 72.4751 605.928 72.6678 605.787C72.861 605.641 73.0787 605.584 73.321 605.615C73.5632 605.646 73.7595 605.756 73.9099 605.946C74.0608 606.131 74.1213 606.34 74.0914 606.573C74.0615 606.807 73.95 606.996 73.7567 607.142C73.5641 607.283 73.3466 607.338 73.1044 607.306ZM78.4499 620.313C77.8377 620.235 77.2935 620.044 76.8175 619.742C76.342 619.435 75.9835 619.035 75.7421 618.543C75.5012 618.047 75.4226 617.472 75.506 616.821C75.5703 616.318 75.7192 615.908 75.9526 615.588C76.186 615.269 76.4907 615.022 76.8669 614.846C77.2431 614.67 77.6772 614.549 78.1692 614.482C78.6613 614.415 79.1981 614.383 79.7797 614.386C80.3569 614.389 80.8449 614.388 81.2437 614.386C81.6469 614.384 81.9593 614.339 82.181 614.251C82.4027 614.163 82.5299 613.991 82.5626 613.735L82.593 613.498C82.6816 612.806 82.5442 612.236 82.181 611.786C81.8227 611.333 81.2581 611.057 80.4873 610.958C79.7562 610.865 79.1387 610.949 78.6351 611.211C78.1358 611.474 77.7658 611.812 77.525 612.224L76.46 611.678C76.7601 611.152 77.1339 610.75 77.5815 610.472C78.0296 610.189 78.514 610.007 79.0347 609.926C79.556 609.841 80.0743 609.831 80.5896 609.897C80.9772 609.946 81.3738 610.049 81.7792 610.204C82.1891 610.359 82.5585 610.585 82.8876 610.883C83.2172 611.176 83.4658 611.559 83.6335 612.033C83.8017 612.502 83.8424 613.076 83.7555 613.754L82.8731 620.645L81.6971 620.494L81.9027 618.889L81.83 618.879C81.6507 619.161 81.4042 619.425 81.0907 619.671C80.7771 619.917 80.3995 620.104 79.9579 620.231C79.5164 620.358 79.0137 620.386 78.4499 620.313ZM78.7464 619.257C79.3718 619.337 79.9314 619.267 80.425 619.049C80.9186 618.83 81.3181 618.507 81.6234 618.081C81.9336 617.65 82.1243 617.158 82.1954 616.603L82.3832 615.136C82.2844 615.208 82.1273 615.264 81.9118 615.304C81.7007 615.344 81.4575 615.373 81.182 615.392C80.9115 615.406 80.6419 615.414 80.3731 615.416C80.1043 615.417 79.8625 615.418 79.6477 615.417C79.0661 615.414 78.5631 615.462 78.1387 615.559C77.7143 615.657 77.3773 615.825 77.1276 616.061C76.8785 616.293 76.7277 616.614 76.6753 617.024C76.5963 617.641 76.7554 618.147 77.1524 618.542C77.55 618.933 78.0813 619.172 78.7464 619.257ZM89.2822 607.713L87.5495 621.244L86.3735 621.093L88.1062 607.562L89.2822 607.713ZM34.1248 637.59L35.8574 624.059L40.2246 624.619C41.1848 624.741 41.9641 625.018 42.5626 625.448C43.1661 625.875 43.5916 626.415 43.8391 627.069C44.0917 627.719 44.1674 628.438 44.0665 629.227C43.9655 630.015 43.7112 630.69 43.3036 631.251C42.9004 631.813 42.3555 632.222 41.669 632.479C40.9825 632.736 40.1636 632.803 39.2122 632.681L35.4926 632.205L35.6372 631.075L39.3239 631.547C40.0286 631.638 40.6293 631.596 41.1261 631.422C41.6273 631.249 42.02 630.961 42.3044 630.559C42.5931 630.157 42.7752 629.661 42.8508 629.071C42.9264 628.481 42.8757 627.951 42.6986 627.48C42.5221 627.006 42.2138 626.617 41.7735 626.314C41.3376 626.012 40.7629 625.816 40.0494 625.724L36.9508 625.327L35.3602 637.748L34.1248 637.59ZM40.8725 632.249L43.4206 638.78L41.9935 638.598L39.4784 632.071L40.8725 632.249ZM49.9562 639.832C49.0092 639.711 48.2182 639.386 47.5831 638.857C46.9485 638.323 46.4921 637.64 46.2137 636.808C45.9402 635.972 45.8692 635.04 46.0006 634.014C46.1315 632.992 46.4349 632.109 46.9108 631.364C47.3917 630.615 47.9934 630.059 48.7161 629.695C49.4436 629.327 50.2457 629.199 51.1222 629.311C51.6728 629.382 52.1905 629.551 52.6755 629.819C53.1611 630.083 53.58 630.447 53.9322 630.913C54.2893 631.375 54.5468 631.934 54.7045 632.59C54.8629 633.242 54.8876 633.993 54.7787 634.843L54.7043 635.424L46.7761 634.409L46.9089 633.372L53.6347 634.233C53.7181 633.581 53.661 632.978 53.4633 632.425C53.2705 631.867 52.9602 631.407 52.5322 631.043C52.1087 630.68 51.593 630.459 50.9851 630.381C50.3421 630.299 49.7541 630.398 49.2212 630.679C48.6883 630.96 48.247 631.365 47.8973 631.893C47.552 632.422 47.3343 633.021 47.2442 633.69L47.1647 634.311C47.0614 635.117 47.1099 635.839 47.3102 636.478C47.5153 637.113 47.8545 637.629 48.3275 638.026C48.8005 638.422 49.3894 638.665 50.0941 638.755C50.5742 638.817 51.0045 638.796 51.3848 638.692C51.7696 638.589 52.1013 638.428 52.3801 638.209C52.6639 637.985 52.8891 637.73 53.0558 637.442L54.1258 637.949C53.9169 638.356 53.6132 638.718 53.2146 639.034C52.8204 639.351 52.3471 639.586 51.7947 639.739C51.2474 639.888 50.6345 639.919 49.9562 639.832ZM59.9717 627.147L58.239 640.678L57.063 640.527L58.7957 626.997L59.9717 627.147ZM64.5277 641.718C63.9154 641.64 63.3713 641.449 62.8952 641.147C62.4197 640.84 62.0612 640.44 61.8198 639.948C61.579 639.452 61.5003 638.877 61.5838 638.226C61.6481 637.723 61.7969 637.313 62.0303 636.993C62.2637 636.674 62.5685 636.427 62.9446 636.251C63.3208 636.075 63.7549 635.954 64.2469 635.887C64.739 635.82 65.2758 635.788 65.8574 635.791C66.4347 635.794 66.9227 635.793 67.3214 635.791C67.7246 635.789 68.037 635.744 68.2587 635.656C68.4804 635.568 68.6076 635.396 68.6403 635.14L68.6708 634.903C68.7593 634.211 68.622 633.641 68.2587 633.191C67.9004 632.738 67.3358 632.462 66.565 632.363C65.8339 632.27 65.2165 632.354 64.7128 632.616C64.2136 632.879 63.8435 633.217 63.6027 633.629L62.5378 633.083C62.8379 632.557 63.2117 632.155 63.6592 631.877C64.1073 631.594 64.5917 631.412 65.1124 631.331C65.6337 631.246 66.152 631.236 66.6674 631.302C67.055 631.351 67.4515 631.454 67.857 631.609C68.2668 631.764 68.6363 631.99 68.9653 632.288C69.2949 632.581 69.5435 632.964 69.7112 633.438C69.8794 633.907 69.9201 634.481 69.8332 635.159L68.9508 642.05L67.7748 641.899L67.9804 640.294L67.9077 640.284C67.7284 640.566 67.482 640.83 67.1684 641.076C66.8548 641.322 66.4772 641.509 66.0357 641.636C65.5941 641.763 65.0914 641.791 64.5277 641.718ZM64.8241 640.662C65.4496 640.742 66.0091 640.672 66.5027 640.454C66.9963 640.235 67.3958 639.912 67.7011 639.486C68.0114 639.055 68.2021 638.563 68.2731 638.008L68.4609 636.541C68.3621 636.613 68.205 636.669 67.9895 636.709C67.7784 636.749 67.5352 636.778 67.2597 636.797C66.9893 636.811 66.7196 636.819 66.4508 636.821C66.1821 636.822 65.9403 636.823 65.7255 636.822C65.1438 636.819 64.6408 636.867 64.2164 636.964C63.792 637.062 63.455 637.23 63.2053 637.466C62.9562 637.698 62.8055 638.019 62.753 638.429C62.6741 639.046 62.8331 639.552 63.2301 639.947C63.6277 640.338 64.159 640.577 64.8241 640.662ZM77.7479 632.862L77.6168 633.886L72.774 633.266L72.9051 632.242L77.7479 632.862ZM74.7294 630.004L75.912 630.155L74.6404 640.086C74.5863 640.508 74.6164 640.85 74.7307 641.111C74.8456 641.368 75.0133 641.561 75.2338 641.693C75.4548 641.819 75.6974 641.9 75.9617 641.934C76.1159 641.953 76.2491 641.961 76.3615 641.958C76.4744 641.95 76.5742 641.94 76.6607 641.929L76.7755 643.025C76.6554 643.054 76.5093 643.076 76.3375 643.09C76.165 643.108 75.9555 643.101 75.7088 643.07C75.2772 643.014 74.873 642.866 74.4965 642.626C74.1243 642.385 73.8345 642.062 73.627 641.655C73.4194 641.248 73.3512 640.767 73.4223 640.212L74.7294 630.004ZM79.5045 643.401L80.8041 633.253L81.9867 633.405L80.6872 643.553L79.5045 643.401ZM81.6286 631.586C81.3864 631.555 81.1898 631.447 81.0389 631.262C80.8885 631.073 80.8283 630.861 80.8582 630.628C80.8881 630.394 80.9994 630.207 81.192 630.066C81.3852 629.921 81.603 629.863 81.8452 629.895C82.0875 629.926 82.2838 630.036 82.4341 630.225C82.585 630.41 82.6455 630.619 82.6156 630.853C82.5857 631.086 82.4742 631.276 82.281 631.421C82.0883 631.562 81.8709 631.617 81.6286 631.586ZM88.0866 644.715C87.2101 644.603 86.4634 644.281 85.8465 643.75C85.234 643.219 84.7885 642.538 84.5101 641.705C84.2323 640.868 84.1593 639.935 84.2913 638.904C84.4244 637.864 84.7309 636.975 85.2106 636.235C85.6909 635.491 86.294 634.941 87.0199 634.586C87.7508 634.228 88.5545 634.105 89.431 634.217C90.3075 634.329 91.052 634.65 91.6646 635.181C92.2771 635.712 92.7223 636.395 93.0001 637.232C93.2823 638.07 93.3569 639.008 93.2238 640.048C93.0918 641.078 92.7859 641.964 92.3062 642.704C91.827 643.439 91.222 643.986 90.4911 644.345C89.7646 644.704 88.9632 644.827 88.0866 644.715ZM88.2245 643.638C88.9293 643.728 89.5504 643.615 90.0878 643.299C90.6252 642.983 91.0597 642.526 91.3915 641.928C91.7276 641.331 91.9441 640.654 92.0412 639.896C92.1382 639.139 92.0996 638.426 91.9253 637.759C91.7555 637.093 91.4506 636.537 91.0108 636.091C90.571 635.645 89.9987 635.377 89.2939 635.287C88.5936 635.197 87.9723 635.313 87.4299 635.633C86.8919 635.953 86.4546 636.414 86.1179 637.016C85.7856 637.618 85.571 638.298 85.474 639.055C85.3769 639.813 85.4136 640.523 85.584 641.185C85.7588 641.847 86.0665 642.399 86.5069 642.841C86.9473 643.282 87.5198 643.548 88.2245 643.638ZM97.5219 639.262L96.7097 645.604L95.5337 645.454L96.8332 635.306L97.9762 635.452L97.7723 637.044L97.878 637.058C98.1824 636.569 98.6057 636.2 99.1478 635.951C99.695 635.699 100.341 635.621 101.085 635.716C101.768 635.803 102.348 636.023 102.827 636.375C103.311 636.724 103.661 637.192 103.876 637.779C104.097 638.367 104.155 639.061 104.053 639.863L103.211 646.437L102.035 646.286L102.867 639.785C102.974 638.953 102.825 638.264 102.42 637.72C102.02 637.176 101.429 636.855 100.65 636.755C100.117 636.686 99.6288 636.74 99.1854 636.916C98.7421 637.092 98.3716 637.381 98.0741 637.781C97.7815 638.178 97.5975 638.672 97.5219 639.262ZM114.513 639.833L113.397 639.999C113.33 639.681 113.215 639.387 113.053 639.115C112.891 638.844 112.663 638.615 112.369 638.43C112.079 638.245 111.705 638.123 111.247 638.065C110.56 637.977 109.975 638.068 109.493 638.337C109.011 638.607 108.737 638.999 108.671 639.514C108.615 639.95 108.719 640.324 108.984 640.636C109.253 640.943 109.693 641.217 110.302 641.456L111.787 642.029C112.611 642.345 113.205 642.754 113.57 643.258C113.94 643.762 114.081 644.353 113.995 645.031C113.921 645.604 113.698 646.092 113.323 646.496C112.949 646.901 112.462 647.194 111.861 647.377C111.265 647.556 110.595 647.597 109.851 647.502C108.859 647.375 108.071 647.048 107.485 646.521C106.899 645.989 106.57 645.289 106.498 644.42L107.663 644.287C107.731 644.909 107.957 645.402 108.341 645.764C108.728 646.127 109.27 646.353 109.966 646.442C110.746 646.542 111.391 646.448 111.903 646.16C112.415 645.867 112.704 645.457 112.772 644.928C112.825 644.519 112.732 644.158 112.495 643.845C112.258 643.528 111.87 643.268 111.332 643.065L109.724 642.456C108.871 642.132 108.262 641.714 107.897 641.202C107.533 640.689 107.395 640.094 107.481 639.416C107.553 638.856 107.768 638.385 108.126 638.001C108.485 637.612 108.946 637.331 109.51 637.157C110.074 636.983 110.697 636.94 111.38 637.027C112.309 637.146 113.024 637.453 113.525 637.947C114.031 638.437 114.36 639.065 114.513 639.833ZM31.2033 660.404L32.936 646.873L40.785 647.878L40.6428 648.988L34.0294 648.141L33.3771 653.235L39.5743 654.029L39.4322 655.139L33.235 654.345L32.581 659.452L39.3266 660.316L39.1844 661.426L31.2033 660.404ZM44.4039 651.78L46.4661 656.442L49.6365 652.45L51.0041 652.625L47.0906 657.281L49.7046 662.773L48.337 662.598L46.2571 658.074L43.1044 661.928L41.7434 661.754L45.6173 657.092L43.0429 651.605L44.4039 651.78ZM52.0554 666.942L53.8422 652.988L54.9852 653.135L54.7373 655.07L54.8761 655.088C55.056 654.802 55.2895 654.517 55.5768 654.231C55.8646 653.941 56.2252 653.712 56.6587 653.544C57.0965 653.376 57.6259 653.332 58.247 653.411C59.0838 653.519 59.7868 653.832 60.3558 654.353C60.9298 654.87 61.3404 655.544 61.5874 656.377C61.8393 657.207 61.8985 658.143 61.7648 659.187C61.6306 660.235 61.3368 661.131 60.8834 661.874C60.4345 662.618 59.8669 663.17 59.1807 663.53C58.4988 663.89 57.7439 664.017 56.9158 663.911C56.3036 663.833 55.8046 663.657 55.4187 663.384C55.0373 663.111 54.7394 662.798 54.5252 662.443C54.3158 662.085 54.1626 661.743 54.0656 661.418L53.9599 661.404L53.2314 667.093L52.0554 666.942ZM54.3544 658.218C54.2495 659.037 54.2776 659.779 54.4386 660.445C54.6046 661.106 54.8935 661.647 55.3054 662.067C55.7222 662.483 56.2587 662.733 56.915 662.817C57.5889 662.903 58.1808 662.791 58.6906 662.48C59.2054 662.165 59.6246 661.706 59.9481 661.103C60.2759 660.501 60.4904 659.805 60.5913 659.017C60.6911 658.237 60.66 657.519 60.4978 656.862C60.3401 656.207 60.0512 655.666 59.6311 655.241C59.2116 654.811 58.6627 654.552 57.9844 654.466C57.3237 654.381 56.7393 654.487 56.2311 654.785C55.7235 655.078 55.3085 655.522 54.9862 656.116C54.6688 656.707 54.4582 657.407 54.3544 658.218ZM68.1463 665.349C67.1993 665.228 66.4082 664.903 65.7731 664.374C65.1386 663.841 64.6821 663.158 64.4037 662.325C64.1303 661.489 64.0593 660.557 64.1907 659.531C64.3215 658.509 64.6249 657.626 65.1008 656.881C65.5817 656.132 66.1835 655.576 66.9061 655.212C67.6337 654.844 68.4357 654.716 69.3122 654.828C69.8628 654.899 70.3806 655.068 70.8656 655.336C71.3511 655.6 71.77 655.965 72.1222 656.43C72.4794 656.893 72.7368 657.452 72.8946 658.107C73.0529 658.759 73.0776 659.51 72.9688 660.36L72.8943 660.941L64.9661 659.926L65.0989 658.889L71.8247 659.75C71.9082 659.098 71.8511 658.495 71.6533 657.942C71.4606 657.384 71.1502 656.924 70.7223 656.56C70.2987 656.197 69.783 655.976 69.1752 655.899C68.5321 655.816 67.9441 655.916 67.4112 656.197C66.8783 656.477 66.437 656.882 66.0874 657.41C65.7421 657.939 65.5244 658.538 65.4342 659.207L65.3547 659.828C65.2515 660.634 65.3 661.357 65.5002 661.995C65.7054 662.631 66.0445 663.146 66.5175 663.543C66.9906 663.939 67.5794 664.182 68.2842 664.273C68.7643 664.334 69.1945 664.313 69.5748 664.209C69.9596 664.107 70.2914 663.945 70.5702 663.726C70.854 663.503 71.0792 663.247 71.2458 662.96L72.3158 663.466C72.107 663.873 71.8032 664.235 71.4046 664.551C71.0104 664.868 70.5371 665.103 69.9848 665.256C69.4374 665.405 68.8246 665.436 68.1463 665.349ZM75.253 666.045L76.5526 655.896L77.6955 656.043L77.4959 657.602L77.5818 657.613C77.8498 657.128 78.2549 656.761 78.7971 656.513C79.3442 656.261 79.9371 656.175 80.5758 656.257C80.6727 656.27 80.7803 656.286 80.8987 656.305C81.017 656.325 81.1156 656.342 81.1943 656.357L81.0411 657.552C80.9894 657.537 80.8986 657.512 80.7687 657.477C80.6388 657.443 80.4968 657.416 80.3427 657.396C79.8141 657.328 79.3284 657.38 78.8857 657.552C78.4478 657.719 78.0849 657.984 77.7968 658.346C77.5088 658.707 77.3326 659.139 77.2683 659.641L76.4291 666.195L75.253 666.045ZM88.1893 657.387L88.0582 658.411L83.2154 657.791L83.3465 656.766L88.1893 657.387ZM85.1708 654.529L86.3534 654.68L85.0818 664.61C85.0277 665.033 85.0578 665.375 85.1721 665.636C85.287 665.892 85.4547 666.086 85.6752 666.217C85.8962 666.344 86.1388 666.425 86.4031 666.458C86.5573 666.478 86.6905 666.486 86.8029 666.483C86.9159 666.475 87.0156 666.465 87.1021 666.454L87.2169 667.55C87.0968 667.579 86.9507 667.601 86.7789 667.615C86.6064 667.633 86.3969 667.626 86.1502 667.594C85.7186 667.539 85.3144 667.391 84.9379 667.15C84.5657 666.91 84.2759 666.587 84.0684 666.18C83.8608 665.772 83.7926 665.291 83.8637 664.736L85.1708 654.529Z" fill="#0D0B4D"/>
</g>
<path d="M190.386 22.8459C172.238 5.72951 149.2 7.55599 139.949 10.6088C113.356 43.7994 69.9868 98.4945 109.256 51.7496C148.525 5.0046 189.679 37.3941 205.347 59.4319C207.922 54.3684 208.534 39.9622 190.386 22.8459Z" fill="#71391A"/>
<path d="M104.633 169.033C93.9844 78.9146 132.416 24.2806 152.889 8.797C130.296 4.7509 49.5181 57.9657 81.2011 207.636C106.548 327.372 98.2412 435.557 90.9196 474.682L117.071 478.031C136.485 263.253 117.944 281.681 104.633 169.033Z" fill="#BC7D59"/>
<path d="M116.926 479.169L90.7742 475.821C93.2935 426.065 113.297 309.654 156.625 232.319C194.082 165.465 201.505 62.4063 175.489 12.8483C235.404 41.3226 226.116 149.921 170.013 272.171C125.131 369.97 115.92 450.92 116.926 479.169Z" fill="#D3C4AD"/>
<rect x="74.1594" y="470.227" width="59.6076" height="32.0964" rx="12.6093" transform="rotate(7.29729 74.1594 470.227)" stroke="white" stroke-width="2.2926"/>
<rect x="127.652" y="492.896" width="7.0338" height="10.5507" transform="rotate(7.29729 127.652 492.896)" fill="#4A3A87"/>
<defs>
<filter id="filter0_d_239_1785" x="6.13672" y="481.814" width="167.375" height="244.912" filterUnits="userSpaceOnUse" color-interpolation-filters="sRGB">
<feFlood flood-opacity="0" result="BackgroundImageFix"/>
<feColorMatrix in="SourceAlpha" type="matrix" values="0 0 0 0 0 0 0 0 0 0 0 0 0 0 0 0 0 0 127 0" result="hardAlpha"/>
<feOffset dx="2" dy="4"/>
<feComposite in2="hardAlpha" operator="out"/>
<feColorMatrix type="matrix" values="0 0 0 0 1 0 0 0 0 1 0 0 0 0 1 0 0 0 0.3 0"/>
<feBlend mode="normal" in2="BackgroundImageFix" result="effect1_dropShadow_239_1785"/>
<feBlend mode="normal" in="SourceGraphic" in2="effect1_dropShadow_239_1785" result="shape"/>
</filter>
</defs>
</svg>
