<svg width="442" height="465" viewBox="0 0 442 465" fill="none" xmlns="http://www.w3.org/2000/svg">
<g filter="url(#filter0_f_227_337)">
<ellipse cx="230.5" cy="380.5" rx="99.5" ry="24.5" fill="#F26C3B"/>
</g>
<g filter="url(#filter1_f_227_337)">
<ellipse cx="76.8594" cy="231.275" rx="49" ry="16" transform="rotate(88.9889 76.8594 231.275)" fill="#F26C3B"/>
</g>
<g filter="url(#filter2_f_227_337)">
<ellipse cx="111.503" cy="371.5" rx="14.3213" ry="10.2514" transform="rotate(88.9889 111.503 371.5)" fill="#F26C3B"/>
</g>
<g filter="url(#filter3_f_227_337)">
<ellipse cx="387.329" cy="241.635" rx="4.45512" ry="10.2514" transform="rotate(88.9889 387.329 241.635)" fill="#F26C3B"/>
</g>
<g filter="url(#filter4_f_227_337)">
<ellipse cx="290.859" cy="109.275" rx="49" ry="16" transform="rotate(88.9889 290.859 109.275)" fill="#F26C3B"/>
</g>
<g filter="url(#filter5_f_227_337)">
<ellipse cx="358.635" cy="198.323" rx="37.8484" ry="16.8371" transform="rotate(117.999 358.635 198.323)" fill="#F26C3B"/>
</g>
<path d="M170.352 273.851L137.195 189.732L150.089 138.463L193.991 105L256.005 152.892V205.697L236.971 217.056L228.375 329.111L215.634 322.357L202.894 315.603L197.982 325.12L176.185 276L170.352 273.851Z" fill="url(#paint0_radial_227_337)"/>
<path d="M137.195 189.732L170.352 273.851L176.185 276L197.982 325.12L202.894 315.603L215.634 322.357M137.195 189.732L150.089 138.463L193.991 105M137.195 189.732L170.352 164.251M193.991 105L256.005 152.892M193.991 105L215.634 152.892M193.991 105L170.352 164.251M256.005 152.892V205.697L236.971 217.056L228.375 329.111L215.634 322.357M256.005 152.892L205.657 192.189M256.005 152.892H215.634M170.352 164.251L205.657 192.189M205.657 192.189L215.634 322.357M205.657 192.189L215.634 152.892" stroke="url(#paint1_linear_227_337)" stroke-width="3.68402"/>
<path d="M279.645 399.414L267.672 394.195L283.78 363.495L293.767 344.461L315.564 363.495L279.645 399.414Z" fill="url(#paint2_radial_227_337)"/>
<path d="M315.564 363.495L279.645 399.414L267.672 394.195L283.78 363.495M315.564 363.495L293.767 344.461L283.78 363.495M315.564 363.495H283.78" stroke="url(#paint3_linear_227_337)" stroke-width="3.68402"/>
<path d="M157.152 343.233L130.75 306.393L147.021 267.711L175.879 276L196.755 324.506L183.247 346.917L158.994 340.163L157.152 343.233Z" fill="url(#paint4_radial_227_337)"/>
<path d="M130.75 306.393L157.152 343.233L158.994 340.163L183.247 346.917M130.75 306.393L147.021 267.711M130.75 306.393L160.836 312.84M147.021 267.711L175.879 276M147.021 267.711L164.213 293.499M175.879 276L196.755 324.506L183.247 346.917M175.879 276L164.213 293.499M183.247 346.917L160.836 312.84M160.836 312.84L164.213 293.499" stroke="url(#paint5_linear_227_337)" stroke-width="3.68402"/>
<path d="M237.585 217.67L288.24 186.97L316.676 231.178L327.537 248.063L290.696 332.796L273.504 307.928L243.418 321.437L237.892 334.024L228.375 328.805L237.585 217.67Z" fill="url(#paint6_radial_227_337)"/>
<path d="M237.585 217.67L288.24 186.97M237.585 217.67L228.375 328.805L237.892 334.024L243.418 321.437L273.504 307.928M237.585 217.67L276.574 253.282M288.24 186.97L292.75 228.159M288.24 186.97L316.676 231.178M273.504 307.928L290.696 332.796L327.537 248.063L316.676 231.178M273.504 307.928L276.574 253.282M276.574 253.282L292.845 229.029L292.75 228.159M292.75 228.159L316.676 231.178" stroke="url(#paint7_linear_227_337)" stroke-width="3.68402"/>
<path d="M192.767 380.687L180.487 395.116L144.875 366.872L158.69 340.163L182.943 346.61L192.767 380.687Z" fill="url(#paint8_radial_227_337)"/>
<path d="M180.487 395.116L192.767 380.687L182.943 346.61M180.487 395.116L144.875 366.872M180.487 395.116L166.979 366.872M144.875 366.872L158.69 340.163L182.943 346.61M144.875 366.872H166.979M182.943 346.61L166.979 366.872" stroke="url(#paint9_linear_227_337)" stroke-width="3.68402"/>
<path d="M237.895 335.251L243.728 322.05L273.201 308.542L295.612 341.084L266.754 393.888L247.105 405.862L230.527 389.59L237.895 335.251Z" fill="url(#paint10_radial_227_337)"/>
<path d="M243.728 322.05L237.895 335.251L230.527 389.59L247.105 405.862M243.728 322.05L273.201 308.542M243.728 322.05L260.921 352.136M273.201 308.542L295.612 341.084M273.201 308.542L275.964 341.084M295.612 341.084L266.754 393.888L247.105 405.862M295.612 341.084H275.964M247.105 405.862L260.921 352.136M260.921 352.136L275.964 341.084" stroke="url(#paint11_linear_227_337)" stroke-width="3.68402"/>
<path d="M212.108 405.248L197.065 393.582L183.25 345.69L203.205 315.604L237.589 334.638L230.528 389.591L212.108 405.248Z" fill="url(#paint12_radial_227_337)"/>
<path d="M212.108 405.248L197.065 393.582L183.25 345.69M212.108 405.248L230.528 389.591L237.589 334.638M212.108 405.248L217.02 349.067M183.25 345.69L203.205 315.604M183.25 345.69L203.205 340.164M203.205 315.604L237.589 334.638M203.205 315.604V340.164M237.589 334.638L217.02 349.067M217.02 349.067L203.205 340.164" stroke="url(#paint13_linear_227_337)" stroke-width="3.68402"/>
<path d="M294.385 344.461L296.534 341.084L295.92 340.163L291.008 332.795L302.367 307.007L324.471 309.156L332.453 337.707L307.279 355.513L294.385 344.461Z" fill="url(#paint14_radial_227_337)"/>
<path d="M324.471 309.156L332.453 337.707L307.279 355.513L294.385 344.461L296.534 341.084L295.92 340.163M324.471 309.156L302.367 307.007L291.008 332.795L295.92 340.163M324.471 309.156L295.92 340.163" stroke="url(#paint15_linear_227_337)" stroke-width="3.68402"/>
<path d="M62.2891 210.404V187.379L75.4901 157.6L95.7523 183.388L101.585 210.404L98.5153 252.463L93.9102 259.831L75.4901 250.314L62.2891 210.404Z" fill="#FF9E68"/>
<path d="M75.4901 157.6L69.9641 199.045M75.4901 157.6L62.2891 187.379V210.404M75.4901 157.6L91.7612 187.379M75.4901 157.6L95.7523 183.388L101.585 210.404M69.9641 199.045L62.2891 210.404M69.9641 199.045L89.9192 214.395M62.2891 210.404L75.4901 250.314M75.4901 250.314L88.0772 254.305M75.4901 250.314L93.9102 259.831M88.0772 254.305L91.7612 249.086M88.0772 254.305L93.9102 259.831M91.7612 249.086L89.9192 214.395M91.7612 249.086L98.5153 252.463M89.9192 214.395L91.7612 187.379M91.7612 187.379L101.585 210.404M101.585 210.404L98.5153 252.463M98.5153 252.463L93.9102 259.831" stroke="url(#paint16_linear_227_337)" stroke-width="3.68402"/>
<path d="M342.273 186.764L358.545 168.344L376.965 155.45L385.254 166.195L390.473 180.624L389.552 192.597L368.062 210.711L344.729 213.167L342.273 186.764Z" fill="#FF9E68"/>
<path d="M358.545 168.344L342.273 186.764L344.729 213.167M358.545 168.344L368.062 184.308M358.545 168.344L376.965 155.45L385.254 166.195M344.729 213.167L354.554 205.798M344.729 213.167L368.062 210.711M354.554 205.798L359.773 199.044M354.554 205.798H359.773M359.773 199.044L368.062 184.308M359.773 199.044V205.798M368.062 184.308L386.482 179.396M385.254 166.195L386.482 179.396M385.254 166.195L390.473 180.624L389.552 192.597M386.482 179.396L389.552 192.597M389.552 192.597L368.062 210.711M368.062 210.711L359.773 205.798" stroke="url(#paint17_linear_227_337)" stroke-width="3.68402"/>
<path d="M265.219 90.9803L292.849 48L317.716 90.9803V97.1203L292.849 135.803L265.219 90.9803Z" fill="#FF9E68"/>
<path d="M292.849 48L265.219 90.9803M292.849 48L307.585 88.5242M292.849 48L275.446 90.9803M292.849 48L317.716 90.9803V97.1203M272.587 98.0413L265.219 90.9803M272.587 98.0413L275.446 90.9803M272.587 98.0413L292.849 135.803M265.219 90.9803L292.849 135.803M307.585 88.5242L292.849 98.0413M307.585 88.5242L317.716 97.1203M292.849 98.0413L275.446 90.9803M292.849 98.0413V135.803M317.716 97.1203L292.849 135.803" stroke="url(#paint18_linear_227_337)" stroke-width="3.68402"/>
<path d="M54 300.355L56.763 277.023L71.1921 292.066L70.5781 297.899L65.0521 306.495L54 300.355Z" fill="#FF9E68"/>
<path d="M56.763 277.023L54 300.355M56.763 277.023L70.5781 297.899M56.763 277.023L71.1921 292.066L70.5781 297.899M54 300.355L70.5781 297.899M54 300.355L65.0521 306.495L70.5781 297.899" stroke="url(#paint19_linear_227_337)" stroke-width="3.68402"/>
<path d="M96.3652 355.615L106.496 350.089L111.715 357.457L110.794 369.43L104.961 377.413L96.3652 374.035L91.4531 366.053L96.3652 355.615Z" fill="#FF9E68"/>
<path d="M106.496 350.089L96.3652 355.615M106.496 350.089L111.715 357.457L110.794 369.43M106.496 350.089L104.961 359.299M96.3652 355.615L91.4531 366.053L96.3652 374.035L104.961 377.413L110.794 369.43M96.3652 355.615L104.961 359.299M110.794 369.43L104.961 359.299" stroke="url(#paint20_linear_227_337)" stroke-width="3.68402"/>
<path d="M378.5 236.192L381.877 225.14L391.394 228.517L395.999 237.42L393.543 246.63L383.412 245.095L378.5 236.192Z" fill="#FF9E68"/>
<path d="M381.877 225.14L378.5 236.192M381.877 225.14L391.394 228.517M381.877 225.14L384.333 229.745M378.5 236.192L383.412 245.095M378.5 236.192L384.333 229.745M383.412 245.095L393.543 246.63M383.412 245.095L391.394 242.332M393.543 246.63L395.999 237.42M393.543 246.63L391.394 242.332M395.999 237.42L391.394 228.517M395.999 237.42L391.394 242.332M391.394 228.517L384.333 229.745M384.333 229.745L391.394 242.332" stroke="url(#paint21_linear_227_337)" stroke-width="3.68402"/>
<path d="M339.513 378.641L366.529 363.598L357.933 389.386L350.565 394.605L338.285 399.824L339.513 378.641Z" fill="#FF9E68"/>
<path d="M366.529 363.598L339.513 378.641M366.529 363.598L350.565 388.465M366.529 363.598L357.933 389.386L350.565 394.605M339.513 378.641L342.583 389.386M339.513 378.641L338.285 399.824M342.583 389.386L350.565 388.465M342.583 389.386L338.285 399.824M350.565 388.465V394.605M350.565 394.605L338.285 399.824" stroke="url(#paint22_linear_227_337)" stroke-width="3.68402"/>
<defs>
<filter id="filter0_f_227_337" x="71" y="296" width="319" height="169" filterUnits="userSpaceOnUse" color-interpolation-filters="sRGB">
<feFlood flood-opacity="0" result="BackgroundImageFix"/>
<feBlend mode="normal" in="SourceGraphic" in2="BackgroundImageFix" result="shape"/>
<feGaussianBlur stdDeviation="30" result="effect1_foregroundBlur_227_337"/>
</filter>
<filter id="filter1_f_227_337" x="0.839844" y="122.282" width="152.039" height="217.986" filterUnits="userSpaceOnUse" color-interpolation-filters="sRGB">
<feFlood flood-opacity="0" result="BackgroundImageFix"/>
<feBlend mode="normal" in="SourceGraphic" in2="BackgroundImageFix" result="shape"/>
<feGaussianBlur stdDeviation="30" result="effect1_foregroundBlur_227_337"/>
</filter>
<filter id="filter2_f_227_337" x="61.25" y="317.18" width="100.508" height="108.641" filterUnits="userSpaceOnUse" color-interpolation-filters="sRGB">
<feFlood flood-opacity="0" result="BackgroundImageFix"/>
<feBlend mode="normal" in="SourceGraphic" in2="BackgroundImageFix" result="shape"/>
<feGaussianBlur stdDeviation="20" result="effect1_foregroundBlur_227_337"/>
</filter>
<filter id="filter3_f_227_337" x="357.078" y="217.177" width="60.5" height="48.916" filterUnits="userSpaceOnUse" color-interpolation-filters="sRGB">
<feFlood flood-opacity="0" result="BackgroundImageFix"/>
<feBlend mode="normal" in="SourceGraphic" in2="BackgroundImageFix" result="shape"/>
<feGaussianBlur stdDeviation="10" result="effect1_foregroundBlur_227_337"/>
</filter>
<filter id="filter4_f_227_337" x="214.84" y="0.281738" width="152.039" height="217.986" filterUnits="userSpaceOnUse" color-interpolation-filters="sRGB">
<feFlood flood-opacity="0" result="BackgroundImageFix"/>
<feBlend mode="normal" in="SourceGraphic" in2="BackgroundImageFix" result="shape"/>
<feGaussianBlur stdDeviation="30" result="effect1_foregroundBlur_227_337"/>
</filter>
<filter id="filter5_f_227_337" x="275.469" y="103.975" width="166.332" height="188.697" filterUnits="userSpaceOnUse" color-interpolation-filters="sRGB">
<feFlood flood-opacity="0" result="BackgroundImageFix"/>
<feBlend mode="normal" in="SourceGraphic" in2="BackgroundImageFix" result="shape"/>
<feGaussianBlur stdDeviation="30" result="effect1_foregroundBlur_227_337"/>
</filter>
<radialGradient id="paint0_radial_227_337" cx="0" cy="0" r="1" gradientUnits="userSpaceOnUse" gradientTransform="translate(196.6 217.056) rotate(90) scale(112.056 59.4048)">
<stop stop-color="#F58C40"/>
<stop offset="0.796875" stop-color="#F1663A"/>
</radialGradient>
<linearGradient id="paint1_linear_227_337" x1="196.6" y1="105" x2="196.6" y2="329.111" gradientUnits="userSpaceOnUse">
<stop stop-color="#851D16" stop-opacity="0.991613"/>
<stop offset="0.161458" stop-color="#EF7E5B"/>
<stop offset="0.46875" stop-color="#B5301D" stop-opacity="0.74"/>
<stop offset="0.651042" stop-color="#F56C42" stop-opacity="0.982667"/>
<stop offset="1" stop-color="#821C15" stop-opacity="0.991613"/>
</linearGradient>
<radialGradient id="paint2_radial_227_337" cx="0" cy="0" r="1" gradientUnits="userSpaceOnUse" gradientTransform="translate(291.618 371.938) rotate(90) scale(27.4767 23.9461)">
<stop stop-color="#F58C40"/>
<stop offset="0.796875" stop-color="#F1663A"/>
</radialGradient>
<linearGradient id="paint3_linear_227_337" x1="291.618" y1="344.461" x2="291.618" y2="399.414" gradientUnits="userSpaceOnUse">
<stop stop-color="#851D16" stop-opacity="0.991613"/>
<stop offset="0.161458" stop-color="#EF7E5B"/>
<stop offset="0.46875" stop-color="#B5301D" stop-opacity="0.74"/>
<stop offset="0.651042" stop-color="#F56C42" stop-opacity="0.982667"/>
<stop offset="1" stop-color="#821C15" stop-opacity="0.991613"/>
</linearGradient>
<radialGradient id="paint4_radial_227_337" cx="0" cy="0" r="1" gradientUnits="userSpaceOnUse" gradientTransform="translate(163.753 307.314) rotate(90) scale(39.6032 33.0027)">
<stop stop-color="#F58C40"/>
<stop offset="0.796875" stop-color="#F1663A"/>
</radialGradient>
<linearGradient id="paint5_linear_227_337" x1="163.753" y1="267.711" x2="163.753" y2="346.917" gradientUnits="userSpaceOnUse">
<stop stop-color="#851D16" stop-opacity="0.991613"/>
<stop offset="0.161458" stop-color="#EF7E5B"/>
<stop offset="0.46875" stop-color="#B5301D" stop-opacity="0.74"/>
<stop offset="0.651042" stop-color="#F56C42" stop-opacity="0.982667"/>
<stop offset="1" stop-color="#821C15" stop-opacity="0.991613"/>
</linearGradient>
<radialGradient id="paint6_radial_227_337" cx="0" cy="0" r="1" gradientUnits="userSpaceOnUse" gradientTransform="translate(277.956 260.497) rotate(90) scale(73.5269 49.5808)">
<stop stop-color="#F58C40"/>
<stop offset="0.796875" stop-color="#F1663A"/>
</radialGradient>
<linearGradient id="paint7_linear_227_337" x1="277.956" y1="186.97" x2="277.956" y2="334.024" gradientUnits="userSpaceOnUse">
<stop stop-color="#851D16" stop-opacity="0.991613"/>
<stop offset="0.161458" stop-color="#EF7E5B"/>
<stop offset="0.46875" stop-color="#B5301D" stop-opacity="0.74"/>
<stop offset="0.651042" stop-color="#F56C42" stop-opacity="0.982667"/>
<stop offset="1" stop-color="#821C15" stop-opacity="0.991613"/>
</linearGradient>
<radialGradient id="paint8_radial_227_337" cx="0" cy="0" r="1" gradientUnits="userSpaceOnUse" gradientTransform="translate(168.821 367.64) rotate(90) scale(27.4767 23.9461)">
<stop stop-color="#F58C40"/>
<stop offset="0.796875" stop-color="#F1663A"/>
</radialGradient>
<linearGradient id="paint9_linear_227_337" x1="168.821" y1="340.163" x2="168.821" y2="395.116" gradientUnits="userSpaceOnUse">
<stop stop-color="#851D16" stop-opacity="0.991613"/>
<stop offset="0.161458" stop-color="#EF7E5B"/>
<stop offset="0.46875" stop-color="#B5301D" stop-opacity="0.74"/>
<stop offset="0.651042" stop-color="#F56C42" stop-opacity="0.982667"/>
<stop offset="1" stop-color="#821C15" stop-opacity="0.991613"/>
</linearGradient>
<radialGradient id="paint10_radial_227_337" cx="0" cy="0" r="1" gradientUnits="userSpaceOnUse" gradientTransform="translate(263.07 357.202) rotate(90) scale(48.6598 32.5422)">
<stop stop-color="#F58C40"/>
<stop offset="0.796875" stop-color="#F1663A"/>
</radialGradient>
<linearGradient id="paint11_linear_227_337" x1="263.07" y1="308.542" x2="263.07" y2="405.862" gradientUnits="userSpaceOnUse">
<stop stop-color="#851D16" stop-opacity="0.991613"/>
<stop offset="0.161458" stop-color="#EF7E5B"/>
<stop offset="0.46875" stop-color="#B5301D" stop-opacity="0.74"/>
<stop offset="0.651042" stop-color="#F56C42" stop-opacity="0.982667"/>
<stop offset="1" stop-color="#821C15" stop-opacity="0.991613"/>
</linearGradient>
<radialGradient id="paint12_radial_227_337" cx="0" cy="0" r="1" gradientUnits="userSpaceOnUse" gradientTransform="translate(210.42 360.426) rotate(90) scale(44.8223 27.1697)">
<stop stop-color="#F58C40"/>
<stop offset="0.796875" stop-color="#F1663A"/>
</radialGradient>
<linearGradient id="paint13_linear_227_337" x1="210.42" y1="315.604" x2="210.42" y2="405.248" gradientUnits="userSpaceOnUse">
<stop stop-color="#851D16" stop-opacity="0.991613"/>
<stop offset="0.161458" stop-color="#EF7E5B"/>
<stop offset="0.46875" stop-color="#B5301D" stop-opacity="0.74"/>
<stop offset="0.651042" stop-color="#F56C42" stop-opacity="0.982667"/>
<stop offset="1" stop-color="#821C15" stop-opacity="0.991613"/>
</linearGradient>
<radialGradient id="paint14_radial_227_337" cx="0" cy="0" r="1" gradientUnits="userSpaceOnUse" gradientTransform="translate(311.73 331.26) rotate(90) scale(24.2531 20.7226)">
<stop stop-color="#F58C40"/>
<stop offset="0.796875" stop-color="#F1663A"/>
</radialGradient>
<linearGradient id="paint15_linear_227_337" x1="311.73" y1="307.007" x2="311.73" y2="355.513" gradientUnits="userSpaceOnUse">
<stop stop-color="#851D16" stop-opacity="0.991613"/>
<stop offset="0.161458" stop-color="#EF7E5B"/>
<stop offset="0.46875" stop-color="#B5301D" stop-opacity="0.74"/>
<stop offset="0.651042" stop-color="#F56C42" stop-opacity="0.982667"/>
<stop offset="1" stop-color="#821C15" stop-opacity="0.991613"/>
</linearGradient>
<linearGradient id="paint16_linear_227_337" x1="81.9372" y1="157.6" x2="81.9372" y2="259.831" gradientUnits="userSpaceOnUse">
<stop stop-color="#851D16" stop-opacity="0.991613"/>
<stop offset="0.161458" stop-color="#EF7E5B"/>
<stop offset="0.46875" stop-color="#B5301D" stop-opacity="0.74"/>
<stop offset="0.651042" stop-color="#F56C42" stop-opacity="0.982667"/>
<stop offset="1" stop-color="#821C15" stop-opacity="0.991613"/>
</linearGradient>
<linearGradient id="paint17_linear_227_337" x1="366.373" y1="155.45" x2="366.373" y2="213.167" gradientUnits="userSpaceOnUse">
<stop stop-color="#851D16" stop-opacity="0.991613"/>
<stop offset="0.161458" stop-color="#EF7E5B"/>
<stop offset="0.46875" stop-color="#B5301D" stop-opacity="0.74"/>
<stop offset="0.651042" stop-color="#F56C42" stop-opacity="0.982667"/>
<stop offset="1" stop-color="#821C15" stop-opacity="0.991613"/>
</linearGradient>
<linearGradient id="paint18_linear_227_337" x1="291.467" y1="48" x2="291.467" y2="135.803" gradientUnits="userSpaceOnUse">
<stop stop-color="#851D16" stop-opacity="0.991613"/>
<stop offset="0.161458" stop-color="#EF7E5B"/>
<stop offset="0.46875" stop-color="#B5301D" stop-opacity="0.74"/>
<stop offset="0.651042" stop-color="#F56C42" stop-opacity="0.982667"/>
<stop offset="1" stop-color="#821C15" stop-opacity="0.991613"/>
</linearGradient>
<linearGradient id="paint19_linear_227_337" x1="62.5961" y1="277.023" x2="62.5961" y2="306.495" gradientUnits="userSpaceOnUse">
<stop stop-color="#851D16" stop-opacity="0.991613"/>
<stop offset="0.161458" stop-color="#EF7E5B"/>
<stop offset="0.46875" stop-color="#B5301D" stop-opacity="0.74"/>
<stop offset="0.651042" stop-color="#F56C42" stop-opacity="0.982667"/>
<stop offset="1" stop-color="#821C15" stop-opacity="0.991613"/>
</linearGradient>
<linearGradient id="paint20_linear_227_337" x1="101.584" y1="350.089" x2="101.584" y2="377.413" gradientUnits="userSpaceOnUse">
<stop stop-color="#851D16" stop-opacity="0.991613"/>
<stop offset="0.161458" stop-color="#EF7E5B"/>
<stop offset="0.46875" stop-color="#B5301D" stop-opacity="0.74"/>
<stop offset="0.651042" stop-color="#F56C42" stop-opacity="0.982667"/>
<stop offset="1" stop-color="#821C15" stop-opacity="0.991613"/>
</linearGradient>
<linearGradient id="paint21_linear_227_337" x1="387.25" y1="225.14" x2="387.25" y2="246.63" gradientUnits="userSpaceOnUse">
<stop stop-color="#851D16" stop-opacity="0.991613"/>
<stop offset="0.161458" stop-color="#EF7E5B"/>
<stop offset="0.46875" stop-color="#B5301D" stop-opacity="0.74"/>
<stop offset="0.651042" stop-color="#F56C42" stop-opacity="0.982667"/>
<stop offset="1" stop-color="#821C15" stop-opacity="0.991613"/>
</linearGradient>
<linearGradient id="paint22_linear_227_337" x1="352.407" y1="363.598" x2="352.407" y2="399.824" gradientUnits="userSpaceOnUse">
<stop stop-color="#851D16" stop-opacity="0.991613"/>
<stop offset="0.161458" stop-color="#EF7E5B"/>
<stop offset="0.46875" stop-color="#B5301D" stop-opacity="0.74"/>
<stop offset="0.651042" stop-color="#F56C42" stop-opacity="0.982667"/>
<stop offset="1" stop-color="#821C15" stop-opacity="0.991613"/>
</linearGradient>
</defs>
</svg>
