<svg width="500" height="500" viewBox="0 0 500 500" fill="none" xmlns="http://www.w3.org/2000/svg">
<g id="q1_rarerock_selected">
<g id="Group 105">
<g id="Group 102">
<path id="Vector 3384" d="M379.312 261.005C365.713 260.605 325.646 283.505 307.312 295.005L298.312 325.005C310.146 332.338 334.513 346.905 337.312 346.505C340.112 346.105 390.146 343.672 414.812 342.505L431.312 291.505C432.646 286.172 434.012 275.205 428.812 274.005C423.613 272.805 410.979 264.838 405.312 261.005C402.312 261.172 392.912 261.405 379.312 261.005Z" fill="#B3B5F1"/>
<path id="Vector 3378" d="M402.812 332.005L401.312 318.505L430.812 290.505L434.812 361.005L407.312 372.505L402.812 332.005Z" fill="#5435AB"/>
<path id="Vector 3379" d="M312.812 319.005H401.812L407.312 372.505L294.812 378.505C298.646 371.672 306.413 355.005 306.812 343.005C307.212 331.005 310.979 322.005 312.812 319.005Z" fill="#5D62DD"/>
<path id="Vector 3380" d="M312.812 318.005L307.812 295.005C301.812 293.505 282.312 373.505 285.312 372.005C287.712 370.805 292.645 376.172 294.812 379.005L312.812 359.505V318.005Z" fill="#A495FB"/>
<path id="Vector 3381" d="M420.812 283.505C425.212 282.305 428.312 276.505 429.312 274.005C434.312 275.505 432.646 287.172 431.312 291.005L423.312 289.005L413.312 294.505C413.979 291.338 416.412 284.705 420.812 283.505Z" fill="#7254B1"/>
<path id="Vector 3382" d="M395.312 301.005C392.513 302.605 380.479 300.338 374.812 299.005C378.979 301.838 389.413 306.805 397.812 304.005C406.212 301.205 415.979 299.505 419.812 299.005H410.312C406.479 299.005 398.112 299.405 395.312 301.005Z" fill="#7254B1"/>
<path id="Vector 3385" d="M340.024 296.691C341.019 297.24 345.298 296.463 347.312 296.005C345.831 296.977 342.121 298.682 339.135 297.721C336.148 296.76 332.675 296.177 331.312 296.005H334.69C336.053 296.005 339.028 296.142 340.024 296.691Z" fill="#7254B1"/>
<path id="Vector 3383" d="M400.812 269.505L391.312 281.505L398.812 283.505C399.213 279.105 402.979 275.338 404.812 274.005L400.812 269.505Z" fill="#7254B1"/>
</g>
<g id="Group 103">
<path id="Vector 3387" d="M442.352 454.628C440.352 454.628 438.185 446.962 437.352 443.128C441.685 439.462 450.952 432.128 453.352 432.128C455.752 432.128 462.018 440.128 464.852 444.128C466.518 445.628 470.152 449.428 471.352 452.628C472.552 455.828 465.518 458.295 461.852 459.128C456.185 457.628 444.352 454.628 442.352 454.628Z" fill="#5435AB"/>
<path id="Vector 3390" d="M351.35 441.628C352.95 438.828 356.35 434.128 357.85 432.128L381.852 434.628L388.352 444.628V452.628L356.35 447.128C354.017 446.462 349.75 444.428 351.35 441.628Z" fill="#A495FB"/>
<path id="Vector 3389" d="M382.566 452.349C374.528 449.287 377.542 440.869 380.054 437.043C390.102 435.403 411.304 432.232 415.725 432.669C420.146 433.107 431.969 440.14 437.328 443.602L442.352 455.628L429.29 453.442C417.064 454.353 390.604 455.41 382.566 452.349Z" fill="#5D62DD"/>
<path id="Vector 3388" d="M355.852 453.628V447.128L383.352 451.628C390.852 452.295 408.352 453.428 418.352 452.628C428.352 451.828 453.852 455.628 465.352 457.628L461.852 459.628C440.185 459.462 395.252 459.228 388.852 459.628C382.452 460.028 364.185 455.795 355.852 453.628Z" fill="#452075"/>
<path id="Vector 3386" d="M380.852 437.128C374.452 436.728 362.185 433.628 356.852 432.128C368.185 431.128 393.652 428.928 404.852 428.128C416.052 427.328 441.852 430.462 453.352 432.128C451.352 436.128 441.852 441.462 437.352 443.628C433.185 441.962 423.552 437.828 418.352 434.628C411.852 430.628 388.852 437.628 380.852 437.128Z" fill="#B3B5F1"/>
<path id="Vector 3385_2" d="M434.711 434.686C435.707 435.235 439.985 434.458 442 434C440.519 434.972 436.809 436.677 433.822 435.716C430.836 434.755 427.363 434.172 426 434H429.378C430.741 434 433.716 434.137 434.711 434.686Z" fill="#7254B1"/>
</g>
<g id="Group 104">
<path id="Vector 3392" d="M248 452L251 442.5L275.5 439L287 454.5L293 467C289.5 466.167 281.1 463.9 275.5 461.5C269.9 459.1 254.833 454.167 248 452Z" fill="#A495FB"/>
<path id="Vector 3394" d="M308.5 432V416.5C311.167 419.5 316.9 425.7 318.5 426.5C320.1 427.3 321.833 437.833 322.5 443L315 432H308.5Z" fill="#5435AB"/>
<path id="Vector 3393" d="M304.5 467C302.5 468.2 296 467.5 293 467L287 454.5L291 434L315.5 433C317.667 435.833 322.1 441.8 322.5 443C322.9 444.2 319.667 451.167 318 454.5C314.333 458.167 306.5 465.8 304.5 467Z" fill="#5D62DD"/>
<path id="Vector 3391" d="M279 416H309L315.5 433C306.7 433 292.833 447.667 287 455C285.8 450.2 262.5 444.667 251 442.5L259.5 428C264.333 424 275 416 279 416Z" fill="#B3B5F1"/>
</g>
</g>
<g id="Group 100">
<path id="Vector 3373" d="M255.5 442.5L185.5 241C193 248.333 216.1 264 248.5 268C280.9 272 310.667 251.667 321.5 241C332 229.833 353.5 200.4 355.5 172C357.5 143.6 349.333 115.333 342 105L488 268L255.5 442.5Z" fill="url(#paint0_linear_281_3812)"/>
<g id="Group 99">
<rect id="Rectangle 461" x="177.125" y="229.42" width="13.4478" height="31.218" transform="rotate(43.0243 177.125 229.42)" fill="#C1B8FA"/>
<path id="Subtract" fill-rule="evenodd" clip-rule="evenodd" d="M251.879 273.125C311.56 273.125 359.941 224.744 359.941 165.062C359.941 105.381 311.56 57 251.879 57C192.198 57 143.816 105.381 143.816 165.062C143.816 224.744 192.198 273.125 251.879 273.125ZM252.119 261.598C305.302 261.598 348.415 218.485 348.415 165.303C348.415 112.12 305.302 69.0069 252.119 69.0069C198.936 69.0069 155.823 112.12 155.823 165.303C155.823 218.485 198.936 261.598 252.119 261.598Z" fill="#C1B8FA"/>
<g id="Mask group">
<mask id="mask0_281_3812" style="mask-type:alpha" maskUnits="userSpaceOnUse" x="42" y="233" width="141" height="141">
<rect id="Rectangle 459" x="42" y="341.398" width="152.248" height="46.1067" transform="rotate(-44.9999 42 341.398)" fill="#D9D9D9"/>
</mask>
<g mask="url(#mask0_281_3812)">
<rect id="Rectangle 460" x="42" y="341.398" width="152.248" height="46.1067" transform="rotate(-44.9999 42 341.398)" fill="#5745CC"/>
<path id="Vector 3370" d="M106.117 398.718L61.6914 354.292L167.593 249.591L191.607 279.128L106.117 398.718Z" fill="#2F2574"/>
<path id="Vector 3368" d="M188.121 288.974L133.254 235.087L144.524 226.058L197.611 278.779L188.121 288.974Z" fill="#C1B8FA"/>
<path id="Vector 3369" d="M81.8552 382.239L31.344 333.373L43.1185 326.9L91.9509 374.66L81.8552 382.239Z" fill="#C1B8FA"/>
</g>
</g>
<circle id="Ellipse 149" cx="251.881" cy="165.063" r="92.2133" stroke="#29198F" stroke-width="3.84222"/>
<path id="Vector 3371" d="M219.938 100.465C199.766 94.3175 184.317 124.159 179.114 139.848C173.834 173.707 201.927 154.736 201.927 145.371C201.927 137.879 208.491 130.242 211.773 127.361C222.899 120.957 240.109 106.613 219.938 100.465Z" fill="#C1B8FA" fill-opacity="0.29"/>
<path id="Vector 3372" d="M290.169 217.002C300.275 220.076 308.015 205.152 310.622 197.306C313.267 180.373 299.192 189.861 299.192 194.544C299.192 198.291 295.904 202.11 294.259 203.551C288.685 206.754 280.062 213.927 290.169 217.002Z" fill="#C1B8FA" fill-opacity="0.29"/>
</g>
</g>
</g>
<defs>
<linearGradient id="paint0_linear_281_3812" x1="284.5" y1="111.5" x2="400" y2="318.5" gradientUnits="userSpaceOnUse">
<stop stop-color="#C1B8FA" stop-opacity="0.35"/>
<stop offset="1" stop-color="#C1B8FA" stop-opacity="0"/>
</linearGradient>
</defs>
</svg>
