<svg width="329" height="286" viewBox="0 0 329 286" fill="none" xmlns="http://www.w3.org/2000/svg">
<path d="M300.5 96.5L236.5 103.5L257 243.5L300.5 239V96.5Z" fill="#E0B287"/>
<path d="M79.5 45.5L7.5 60L14 90.5L106.5 86.5L104 28.5L94.5 43.5L79.5 45.5Z" fill="#3D2111"/>
<path d="M118.5 119L51 126V269L118.5 261.5V119Z" fill="#583C23"/>
<path d="M102.5 124.5V9L136 38L134.5 117.5L102.5 124.5Z" fill="#3D2111"/>
<path d="M243 103L114.5 118.5L118.5 261.5L126 263.5L252 118.5L243 103Z" fill="#A7784D"/>
<path d="M252 118.5L123.5 134L126 263.5L257 243.5L252 118.5Z" fill="#583C23"/>
<ellipse cx="185.266" cy="196.404" rx="56" ry="62.0579" transform="rotate(19.8833 185.266 196.404)" fill="#3D2111"/>
<path d="M301.5 34L233 38L224.5 104L241.5 107L301.5 97V34Z" fill="#583C23"/>
<path d="M228.001 150.5C225.601 146.9 207.001 139 198.001 135.5C178.167 167 138.901 231.5 140.501 237.5C142.101 243.5 163.501 256 174.001 261.5C193.001 226 230.401 154.1 228.001 150.5Z" fill="#3D2111"/>
<ellipse cx="206.266" cy="208.404" rx="56" ry="62.0579" transform="rotate(19.8833 206.266 208.404)" fill="#A7784D"/>
<path d="M301.5 34.5L231.5 38.5L206.5 11.5H301.5L315 26.5L301.5 34.5Z" fill="#A7784D"/>
<ellipse cx="209.088" cy="210.98" rx="36.883" ry="40.8729" transform="rotate(19.8833 209.088 210.98)" fill="#0F1043"/>
<path d="M234.085 30.6735L135.5 38.5L133.917 116.326L233.093 103.972L234.085 30.6735Z" fill="#583C23"/>
<path d="M220.396 44.4895L145.794 51.4807L145.145 99.4763L219.753 91.9851L220.396 44.4895Z" fill="#0F1043"/>
<path d="M102.5 9L135.5 40.5L234 31L196.5 0L102.5 9Z" fill="#E0B287"/>
<path d="M20.5 121.5L50.5 127.5L51 79L20.5 76V121.5Z" fill="#A7784D"/>
<path d="M21.5 257L51 269V128L20.5 113L21.5 257Z" fill="#3D2111"/>
<path d="M84.5 77.5L51 79V128L102.5 124.5V52.5L101 69.5L84.5 77.5Z" fill="#0F1043"/>
<path d="M9 99.5L20.5 113L21.5 257L7 242.5L0 218.5V102L9 99.5Z" fill="#3D2111"/>
<path d="M8.5 61.5L20.5 76.5V113L8.5 100V61.5Z" fill="#3D2111"/>
<path d="M100.348 63.1851C100.348 70.2626 81.7116 76 58.7226 76C35.7335 76 17.0972 70.2626 17.0972 63.1851C17.0972 56.1076 14.2065 42.7977 21.1445 41.0502C37.2504 41.0502 78.9142 34.1885 96.8804 41.0479C104.559 43.9793 100.348 61.066 100.348 63.1851Z" fill="#583C23"/>
<ellipse cx="58.5" cy="45" rx="42" ry="13" fill="#0F1043"/>
<path d="M318 88.5L299 97.5V238.5L318 229.5V88.5Z" fill="#A7784D"/>
<path d="M300 34.5L314.5 26L317.5 89L300 97.5V34.5Z" fill="#3D2111"/>
<path d="M317.5 203.5V96L329 102V177.5L317.5 203.5Z" fill="#3D2111"/>
<path d="M94.5 175H121.5V208H114.256L96.4756 194.5L94.5 175Z" fill="#A7784D"/>
</svg>
