<svg width="500" height="500" viewBox="0 0 500 500" fill="none" xmlns="http://www.w3.org/2000/svg">
<g clip-path="url(#clip0_227_364)">
<g filter="url(#filter0_f_227_364)">
<ellipse cx="255.5" cy="389.5" rx="99.5" ry="24.5" fill="#F26C3B"/>
</g>
<g filter="url(#filter1_f_227_364)">
<ellipse cx="91.8633" cy="176.675" rx="49" ry="16" transform="rotate(88.9889 91.8633 176.675)" fill="#F26C3B"/>
</g>
<g filter="url(#filter2_f_227_364)">
<ellipse cx="127.046" cy="352.41" rx="14.3213" ry="10.2514" transform="rotate(88.9889 127.046 352.41)" fill="#F26C3B"/>
</g>
<g filter="url(#filter3_f_227_364)">
<ellipse cx="447.329" cy="246.496" rx="4.45512" ry="10.2514" transform="rotate(88.9889 447.329 246.496)" fill="#F26C3B"/>
</g>
<g filter="url(#filter4_f_227_364)">
<ellipse cx="324.645" cy="95.2747" rx="49" ry="16" transform="rotate(88.9889 324.645 95.2747)" fill="#F26C3B"/>
</g>
<g filter="url(#filter5_f_227_364)">
<ellipse cx="388.635" cy="187.873" rx="37.8484" ry="16.8371" transform="rotate(117.999 388.635 187.873)" fill="#F26C3B"/>
</g>
<path d="M195.352 282.851L162.195 198.732L175.089 147.463L218.991 114L281.005 161.892V214.697L261.971 226.056L253.375 338.111L240.634 331.357L227.894 324.603L222.982 334.12L201.185 285L195.352 282.851Z" fill="url(#paint0_radial_227_364)"/>
<path d="M162.195 198.732L195.352 282.851L201.185 285L222.982 334.12L227.894 324.603L240.634 331.357M162.195 198.732L175.089 147.463L218.991 114M162.195 198.732L195.352 173.251M218.991 114L281.005 161.892M218.991 114L240.634 161.892M218.991 114L195.352 173.251M281.005 161.892V214.697L261.971 226.056L253.375 338.111L240.634 331.357M281.005 161.892L230.657 201.189M281.005 161.892H240.634M195.352 173.251L230.657 201.189M230.657 201.189L240.634 331.357M230.657 201.189L240.634 161.892" stroke="url(#paint1_linear_227_364)" stroke-width="3.68402"/>
<path d="M304.645 408.414L292.672 403.195L308.78 372.495L318.767 353.461L340.564 372.495L304.645 408.414Z" fill="url(#paint2_radial_227_364)"/>
<path d="M340.564 372.495L304.645 408.414L292.672 403.195L308.78 372.495M340.564 372.495L318.767 353.461L308.78 372.495M340.564 372.495H308.78" stroke="url(#paint3_linear_227_364)" stroke-width="3.68402"/>
<path d="M182.152 352.233L155.75 315.393L172.021 276.711L200.879 285L221.755 333.506L208.247 355.917L183.994 349.163L182.152 352.233Z" fill="url(#paint4_radial_227_364)"/>
<path d="M155.75 315.393L182.152 352.233L183.994 349.163L208.247 355.917M155.75 315.393L172.021 276.711M155.75 315.393L185.836 321.84M172.021 276.711L200.879 285M172.021 276.711L189.213 302.499M200.879 285L221.755 333.506L208.247 355.917M200.879 285L189.213 302.499M208.247 355.917L185.836 321.84M185.836 321.84L189.213 302.499" stroke="url(#paint5_linear_227_364)" stroke-width="3.68402"/>
<path d="M262.585 226.67L313.24 195.97L341.676 240.178L352.537 257.063L315.696 341.796L298.504 316.928L268.418 330.437L262.892 343.024L253.375 337.805L262.585 226.67Z" fill="url(#paint6_radial_227_364)"/>
<path d="M262.585 226.67L313.24 195.97M262.585 226.67L253.375 337.805L262.892 343.024L268.418 330.437L298.504 316.928M262.585 226.67L301.574 262.282M313.24 195.97L317.75 237.159M313.24 195.97L341.676 240.178M298.504 316.928L315.696 341.796L352.537 257.063L341.676 240.178M298.504 316.928L301.574 262.282M301.574 262.282L317.845 238.029L317.75 237.159M317.75 237.159L341.676 240.178" stroke="url(#paint7_linear_227_364)" stroke-width="3.68402"/>
<path d="M217.767 389.687L205.487 404.116L169.875 375.872L183.69 349.163L207.943 355.61L217.767 389.687Z" fill="url(#paint8_radial_227_364)"/>
<path d="M205.487 404.116L217.767 389.687L207.943 355.61M205.487 404.116L169.875 375.872M205.487 404.116L191.979 375.872M169.875 375.872L183.69 349.163L207.943 355.61M169.875 375.872H191.979M207.943 355.61L191.979 375.872" stroke="url(#paint9_linear_227_364)" stroke-width="3.68402"/>
<path d="M262.895 344.251L268.728 331.05L298.201 317.542L320.612 350.084L291.754 402.888L272.105 414.862L255.527 398.59L262.895 344.251Z" fill="url(#paint10_radial_227_364)"/>
<path d="M268.728 331.05L262.895 344.251L255.527 398.59L272.105 414.862M268.728 331.05L298.201 317.542M268.728 331.05L285.921 361.136M298.201 317.542L320.612 350.084M298.201 317.542L300.964 350.084M320.612 350.084L291.754 402.888L272.105 414.862M320.612 350.084H300.964M272.105 414.862L285.921 361.136M285.921 361.136L300.964 350.084" stroke="url(#paint11_linear_227_364)" stroke-width="3.68402"/>
<path d="M237.108 414.248L222.065 402.582L208.25 354.69L228.205 324.604L262.589 343.638L255.528 398.591L237.108 414.248Z" fill="url(#paint12_radial_227_364)"/>
<path d="M237.108 414.248L222.065 402.582L208.25 354.69M237.108 414.248L255.528 398.591L262.589 343.638M237.108 414.248L242.02 358.067M208.25 354.69L228.205 324.604M208.25 354.69L228.205 349.164M228.205 324.604L262.589 343.638M228.205 324.604V349.164M262.589 343.638L242.02 358.067M242.02 358.067L228.205 349.164" stroke="url(#paint13_linear_227_364)" stroke-width="3.68402"/>
<path d="M319.385 353.461L321.534 350.084L320.92 349.163L316.008 341.795L327.367 316.007L349.471 318.156L357.453 346.707L332.279 364.513L319.385 353.461Z" fill="url(#paint14_radial_227_364)"/>
<path d="M349.471 318.156L357.453 346.707L332.279 364.513L319.385 353.461L321.534 350.084L320.92 349.163M349.471 318.156L327.367 316.007L316.008 341.795L320.92 349.163M349.471 318.156L320.92 349.163" stroke="url(#paint15_linear_227_364)" stroke-width="3.68402"/>
<path d="M77.2891 155.804V132.779L90.4901 103L110.752 128.788L116.585 155.804L113.515 197.864L108.91 205.232L90.4901 195.715L77.2891 155.804Z" fill="#FF9E68"/>
<path d="M90.4901 103L84.9641 144.445M90.4901 103L77.2891 132.779V155.804M90.4901 103L106.761 132.779M90.4901 103L110.752 128.788L116.585 155.804M84.9641 144.445L77.2891 155.804M84.9641 144.445L104.919 159.795M77.2891 155.804L90.4901 195.715M90.4901 195.715L103.077 199.706M90.4901 195.715L108.91 205.232M103.077 199.706L106.761 194.487M103.077 199.706L108.91 205.232M106.761 194.487L104.919 159.795M106.761 194.487L113.515 197.864M104.919 159.795L106.761 132.779M106.761 132.779L116.585 155.804M116.585 155.804L113.515 197.864M113.515 197.864L108.91 205.232" stroke="url(#paint16_linear_227_364)" stroke-width="3.68402"/>
<path d="M372.273 176.314L388.545 157.894L406.965 145L415.254 155.745L420.473 170.174L419.552 182.147L398.062 200.26L374.729 202.716L372.273 176.314Z" fill="#FF9E68"/>
<path d="M388.545 157.894L372.273 176.314L374.729 202.716M388.545 157.894L398.062 173.858M388.545 157.894L406.965 145L415.254 155.745M374.729 202.716L384.554 195.348M374.729 202.716L398.062 200.26M384.554 195.348L389.773 188.594M384.554 195.348H389.773M389.773 188.594L398.062 173.858M389.773 188.594V195.348M398.062 173.858L416.482 168.946M415.254 155.745L416.482 168.946M415.254 155.745L420.473 170.174L419.552 182.147M416.482 168.946L419.552 182.147M419.552 182.147L398.062 200.26M398.062 200.26L389.773 195.348" stroke="url(#paint17_linear_227_364)" stroke-width="3.68402"/>
<path d="M299 76.9803L326.63 34L351.497 76.9803V83.1203L326.63 121.803L299 76.9803Z" fill="#FF9E68"/>
<path d="M326.63 34L299 76.9803M326.63 34L341.366 74.5242M326.63 34L309.227 76.9803M326.63 34L351.497 76.9803V83.1203M306.368 84.0413L299 76.9803M306.368 84.0413L309.227 76.9803M306.368 84.0413L326.63 121.803M299 76.9803L326.63 121.803M341.366 74.5242L326.63 84.0413M341.366 74.5242L351.497 83.1203M326.63 84.0413L309.227 76.9803M326.63 84.0413V121.803M351.497 83.1203L326.63 121.803" stroke="url(#paint18_linear_227_364)" stroke-width="3.68402"/>
<path d="M76 274.332L78.763 251L93.1921 266.043L92.5781 271.876L87.0521 280.472L76 274.332Z" fill="#FF9E68"/>
<path d="M78.763 251L76 274.332M78.763 251L92.5781 271.876M78.763 251L93.1921 266.043L92.5781 271.876M76 274.332L92.5781 271.876M76 274.332L87.0521 280.472L92.5781 271.876" stroke="url(#paint19_linear_227_364)" stroke-width="3.68402"/>
<path d="M111.912 336.526L122.043 331L127.262 338.368L126.341 350.341L120.508 358.323L111.912 354.946L107 346.964L111.912 336.526Z" fill="#FF9E68"/>
<path d="M122.043 331L111.912 336.526M122.043 331L127.262 338.368L126.341 350.341M122.043 331L120.508 340.21M111.912 336.526L107 346.964L111.912 354.946L120.508 358.323L126.341 350.341M111.912 336.526L120.508 340.21M126.341 350.341L120.508 340.21" stroke="url(#paint20_linear_227_364)" stroke-width="3.68402"/>
<path d="M438.5 241.052L441.877 230L451.394 233.377L455.999 242.28L453.543 251.49L443.412 249.955L438.5 241.052Z" fill="#FF9E68"/>
<path d="M441.877 230L438.5 241.052M441.877 230L451.394 233.377M441.877 230L444.333 234.605M438.5 241.052L443.412 249.955M438.5 241.052L444.333 234.605M443.412 249.955L453.543 251.49M443.412 249.955L451.394 247.192M453.543 251.49L455.999 242.28M453.543 251.49L451.394 247.192M455.999 242.28L451.394 233.377M455.999 242.28L451.394 247.192M451.394 233.377L444.333 234.605M444.333 234.605L451.394 247.192" stroke="url(#paint21_linear_227_364)" stroke-width="3.68402"/>
<path d="M397.228 352.043L424.244 337L415.648 362.788L408.28 368.007L396 373.226L397.228 352.043Z" fill="#FF9E68"/>
<path d="M424.244 337L397.228 352.043M424.244 337L408.28 361.867M424.244 337L415.648 362.788L408.28 368.007M397.228 352.043L400.298 362.788M397.228 352.043L396 373.226M400.298 362.788L408.28 361.867M400.298 362.788L396 373.226M408.28 361.867V368.007M408.28 368.007L396 373.226" stroke="url(#paint22_linear_227_364)" stroke-width="3.68402"/>
</g>
<defs>
<filter id="filter0_f_227_364" x="96" y="305" width="319" height="169" filterUnits="userSpaceOnUse" color-interpolation-filters="sRGB">
<feFlood flood-opacity="0" result="BackgroundImageFix"/>
<feBlend mode="normal" in="SourceGraphic" in2="BackgroundImageFix" result="shape"/>
<feGaussianBlur stdDeviation="30" result="effect1_foregroundBlur_227_364"/>
</filter>
<filter id="filter1_f_227_364" x="15.8438" y="67.6821" width="152.039" height="217.986" filterUnits="userSpaceOnUse" color-interpolation-filters="sRGB">
<feFlood flood-opacity="0" result="BackgroundImageFix"/>
<feBlend mode="normal" in="SourceGraphic" in2="BackgroundImageFix" result="shape"/>
<feGaussianBlur stdDeviation="30" result="effect1_foregroundBlur_227_364"/>
</filter>
<filter id="filter2_f_227_364" x="76.793" y="298.09" width="100.508" height="108.641" filterUnits="userSpaceOnUse" color-interpolation-filters="sRGB">
<feFlood flood-opacity="0" result="BackgroundImageFix"/>
<feBlend mode="normal" in="SourceGraphic" in2="BackgroundImageFix" result="shape"/>
<feGaussianBlur stdDeviation="20" result="effect1_foregroundBlur_227_364"/>
</filter>
<filter id="filter3_f_227_364" x="417.078" y="222.038" width="60.5" height="48.916" filterUnits="userSpaceOnUse" color-interpolation-filters="sRGB">
<feFlood flood-opacity="0" result="BackgroundImageFix"/>
<feBlend mode="normal" in="SourceGraphic" in2="BackgroundImageFix" result="shape"/>
<feGaussianBlur stdDeviation="10" result="effect1_foregroundBlur_227_364"/>
</filter>
<filter id="filter4_f_227_364" x="248.625" y="-13.7183" width="152.039" height="217.986" filterUnits="userSpaceOnUse" color-interpolation-filters="sRGB">
<feFlood flood-opacity="0" result="BackgroundImageFix"/>
<feBlend mode="normal" in="SourceGraphic" in2="BackgroundImageFix" result="shape"/>
<feGaussianBlur stdDeviation="30" result="effect1_foregroundBlur_227_364"/>
</filter>
<filter id="filter5_f_227_364" x="305.469" y="93.5244" width="166.332" height="188.697" filterUnits="userSpaceOnUse" color-interpolation-filters="sRGB">
<feFlood flood-opacity="0" result="BackgroundImageFix"/>
<feBlend mode="normal" in="SourceGraphic" in2="BackgroundImageFix" result="shape"/>
<feGaussianBlur stdDeviation="30" result="effect1_foregroundBlur_227_364"/>
</filter>
<radialGradient id="paint0_radial_227_364" cx="0" cy="0" r="1" gradientUnits="userSpaceOnUse" gradientTransform="translate(221.6 226.056) rotate(90) scale(112.056 59.4048)">
<stop stop-color="#F58C40"/>
<stop offset="0.796875" stop-color="#F1663A"/>
</radialGradient>
<linearGradient id="paint1_linear_227_364" x1="221.6" y1="114" x2="221.6" y2="338.111" gradientUnits="userSpaceOnUse">
<stop stop-color="#851D16" stop-opacity="0.991613"/>
<stop offset="0.161458" stop-color="#EF7E5B"/>
<stop offset="0.46875" stop-color="#B5301D" stop-opacity="0.74"/>
<stop offset="0.651042" stop-color="#F56C42" stop-opacity="0.982667"/>
<stop offset="1" stop-color="#821C15" stop-opacity="0.991613"/>
</linearGradient>
<radialGradient id="paint2_radial_227_364" cx="0" cy="0" r="1" gradientUnits="userSpaceOnUse" gradientTransform="translate(316.618 380.938) rotate(90) scale(27.4767 23.9461)">
<stop stop-color="#F58C40"/>
<stop offset="0.796875" stop-color="#F1663A"/>
</radialGradient>
<linearGradient id="paint3_linear_227_364" x1="316.618" y1="353.461" x2="316.618" y2="408.414" gradientUnits="userSpaceOnUse">
<stop stop-color="#851D16" stop-opacity="0.991613"/>
<stop offset="0.161458" stop-color="#EF7E5B"/>
<stop offset="0.46875" stop-color="#B5301D" stop-opacity="0.74"/>
<stop offset="0.651042" stop-color="#F56C42" stop-opacity="0.982667"/>
<stop offset="1" stop-color="#821C15" stop-opacity="0.991613"/>
</linearGradient>
<radialGradient id="paint4_radial_227_364" cx="0" cy="0" r="1" gradientUnits="userSpaceOnUse" gradientTransform="translate(188.753 316.314) rotate(90) scale(39.6032 33.0027)">
<stop stop-color="#F58C40"/>
<stop offset="0.796875" stop-color="#F1663A"/>
</radialGradient>
<linearGradient id="paint5_linear_227_364" x1="188.753" y1="276.711" x2="188.753" y2="355.917" gradientUnits="userSpaceOnUse">
<stop stop-color="#851D16" stop-opacity="0.991613"/>
<stop offset="0.161458" stop-color="#EF7E5B"/>
<stop offset="0.46875" stop-color="#B5301D" stop-opacity="0.74"/>
<stop offset="0.651042" stop-color="#F56C42" stop-opacity="0.982667"/>
<stop offset="1" stop-color="#821C15" stop-opacity="0.991613"/>
</linearGradient>
<radialGradient id="paint6_radial_227_364" cx="0" cy="0" r="1" gradientUnits="userSpaceOnUse" gradientTransform="translate(302.956 269.497) rotate(90) scale(73.5269 49.5808)">
<stop stop-color="#F58C40"/>
<stop offset="0.796875" stop-color="#F1663A"/>
</radialGradient>
<linearGradient id="paint7_linear_227_364" x1="302.956" y1="195.97" x2="302.956" y2="343.024" gradientUnits="userSpaceOnUse">
<stop stop-color="#851D16" stop-opacity="0.991613"/>
<stop offset="0.161458" stop-color="#EF7E5B"/>
<stop offset="0.46875" stop-color="#B5301D" stop-opacity="0.74"/>
<stop offset="0.651042" stop-color="#F56C42" stop-opacity="0.982667"/>
<stop offset="1" stop-color="#821C15" stop-opacity="0.991613"/>
</linearGradient>
<radialGradient id="paint8_radial_227_364" cx="0" cy="0" r="1" gradientUnits="userSpaceOnUse" gradientTransform="translate(193.821 376.64) rotate(90) scale(27.4767 23.9461)">
<stop stop-color="#F58C40"/>
<stop offset="0.796875" stop-color="#F1663A"/>
</radialGradient>
<linearGradient id="paint9_linear_227_364" x1="193.821" y1="349.163" x2="193.821" y2="404.116" gradientUnits="userSpaceOnUse">
<stop stop-color="#851D16" stop-opacity="0.991613"/>
<stop offset="0.161458" stop-color="#EF7E5B"/>
<stop offset="0.46875" stop-color="#B5301D" stop-opacity="0.74"/>
<stop offset="0.651042" stop-color="#F56C42" stop-opacity="0.982667"/>
<stop offset="1" stop-color="#821C15" stop-opacity="0.991613"/>
</linearGradient>
<radialGradient id="paint10_radial_227_364" cx="0" cy="0" r="1" gradientUnits="userSpaceOnUse" gradientTransform="translate(288.07 366.202) rotate(90) scale(48.6598 32.5422)">
<stop stop-color="#F58C40"/>
<stop offset="0.796875" stop-color="#F1663A"/>
</radialGradient>
<linearGradient id="paint11_linear_227_364" x1="288.07" y1="317.542" x2="288.07" y2="414.862" gradientUnits="userSpaceOnUse">
<stop stop-color="#851D16" stop-opacity="0.991613"/>
<stop offset="0.161458" stop-color="#EF7E5B"/>
<stop offset="0.46875" stop-color="#B5301D" stop-opacity="0.74"/>
<stop offset="0.651042" stop-color="#F56C42" stop-opacity="0.982667"/>
<stop offset="1" stop-color="#821C15" stop-opacity="0.991613"/>
</linearGradient>
<radialGradient id="paint12_radial_227_364" cx="0" cy="0" r="1" gradientUnits="userSpaceOnUse" gradientTransform="translate(235.42 369.426) rotate(90) scale(44.8223 27.1697)">
<stop stop-color="#F58C40"/>
<stop offset="0.796875" stop-color="#F1663A"/>
</radialGradient>
<linearGradient id="paint13_linear_227_364" x1="235.42" y1="324.604" x2="235.42" y2="414.248" gradientUnits="userSpaceOnUse">
<stop stop-color="#851D16" stop-opacity="0.991613"/>
<stop offset="0.161458" stop-color="#EF7E5B"/>
<stop offset="0.46875" stop-color="#B5301D" stop-opacity="0.74"/>
<stop offset="0.651042" stop-color="#F56C42" stop-opacity="0.982667"/>
<stop offset="1" stop-color="#821C15" stop-opacity="0.991613"/>
</linearGradient>
<radialGradient id="paint14_radial_227_364" cx="0" cy="0" r="1" gradientUnits="userSpaceOnUse" gradientTransform="translate(336.73 340.26) rotate(90) scale(24.2531 20.7226)">
<stop stop-color="#F58C40"/>
<stop offset="0.796875" stop-color="#F1663A"/>
</radialGradient>
<linearGradient id="paint15_linear_227_364" x1="336.73" y1="316.007" x2="336.73" y2="364.513" gradientUnits="userSpaceOnUse">
<stop stop-color="#851D16" stop-opacity="0.991613"/>
<stop offset="0.161458" stop-color="#EF7E5B"/>
<stop offset="0.46875" stop-color="#B5301D" stop-opacity="0.74"/>
<stop offset="0.651042" stop-color="#F56C42" stop-opacity="0.982667"/>
<stop offset="1" stop-color="#821C15" stop-opacity="0.991613"/>
</linearGradient>
<linearGradient id="paint16_linear_227_364" x1="96.9372" y1="103" x2="96.9372" y2="205.232" gradientUnits="userSpaceOnUse">
<stop stop-color="#851D16" stop-opacity="0.991613"/>
<stop offset="0.161458" stop-color="#EF7E5B"/>
<stop offset="0.46875" stop-color="#B5301D" stop-opacity="0.74"/>
<stop offset="0.651042" stop-color="#F56C42" stop-opacity="0.982667"/>
<stop offset="1" stop-color="#821C15" stop-opacity="0.991613"/>
</linearGradient>
<linearGradient id="paint17_linear_227_364" x1="396.373" y1="145" x2="396.373" y2="202.716" gradientUnits="userSpaceOnUse">
<stop stop-color="#851D16" stop-opacity="0.991613"/>
<stop offset="0.161458" stop-color="#EF7E5B"/>
<stop offset="0.46875" stop-color="#B5301D" stop-opacity="0.74"/>
<stop offset="0.651042" stop-color="#F56C42" stop-opacity="0.982667"/>
<stop offset="1" stop-color="#821C15" stop-opacity="0.991613"/>
</linearGradient>
<linearGradient id="paint18_linear_227_364" x1="325.249" y1="34" x2="325.249" y2="121.803" gradientUnits="userSpaceOnUse">
<stop stop-color="#851D16" stop-opacity="0.991613"/>
<stop offset="0.161458" stop-color="#EF7E5B"/>
<stop offset="0.46875" stop-color="#B5301D" stop-opacity="0.74"/>
<stop offset="0.651042" stop-color="#F56C42" stop-opacity="0.982667"/>
<stop offset="1" stop-color="#821C15" stop-opacity="0.991613"/>
</linearGradient>
<linearGradient id="paint19_linear_227_364" x1="84.5961" y1="251" x2="84.5961" y2="280.472" gradientUnits="userSpaceOnUse">
<stop stop-color="#851D16" stop-opacity="0.991613"/>
<stop offset="0.161458" stop-color="#EF7E5B"/>
<stop offset="0.46875" stop-color="#B5301D" stop-opacity="0.74"/>
<stop offset="0.651042" stop-color="#F56C42" stop-opacity="0.982667"/>
<stop offset="1" stop-color="#821C15" stop-opacity="0.991613"/>
</linearGradient>
<linearGradient id="paint20_linear_227_364" x1="117.131" y1="331" x2="117.131" y2="358.323" gradientUnits="userSpaceOnUse">
<stop stop-color="#851D16" stop-opacity="0.991613"/>
<stop offset="0.161458" stop-color="#EF7E5B"/>
<stop offset="0.46875" stop-color="#B5301D" stop-opacity="0.74"/>
<stop offset="0.651042" stop-color="#F56C42" stop-opacity="0.982667"/>
<stop offset="1" stop-color="#821C15" stop-opacity="0.991613"/>
</linearGradient>
<linearGradient id="paint21_linear_227_364" x1="447.25" y1="230" x2="447.25" y2="251.49" gradientUnits="userSpaceOnUse">
<stop stop-color="#851D16" stop-opacity="0.991613"/>
<stop offset="0.161458" stop-color="#EF7E5B"/>
<stop offset="0.46875" stop-color="#B5301D" stop-opacity="0.74"/>
<stop offset="0.651042" stop-color="#F56C42" stop-opacity="0.982667"/>
<stop offset="1" stop-color="#821C15" stop-opacity="0.991613"/>
</linearGradient>
<linearGradient id="paint22_linear_227_364" x1="410.122" y1="337" x2="410.122" y2="373.226" gradientUnits="userSpaceOnUse">
<stop stop-color="#851D16" stop-opacity="0.991613"/>
<stop offset="0.161458" stop-color="#EF7E5B"/>
<stop offset="0.46875" stop-color="#B5301D" stop-opacity="0.74"/>
<stop offset="0.651042" stop-color="#F56C42" stop-opacity="0.982667"/>
<stop offset="1" stop-color="#821C15" stop-opacity="0.991613"/>
</linearGradient>
<clipPath id="clip0_227_364">
<rect width="500" height="500" fill="white"/>
</clipPath>
</defs>
</svg>
