<svg width="500" height="896" viewBox="0 0 500 896" fill="none" xmlns="http://www.w3.org/2000/svg">
<g filter="url(#filter0_d_239_1806)">
<path fill-rule="evenodd" clip-rule="evenodd" d="M182.533 553.814C178.373 554.446 175.513 558.332 176.145 562.492L207.935 771.691C208.567 775.852 212.453 778.712 216.613 778.08L339.467 759.411C343.627 758.778 346.488 754.893 345.855 750.732L314.065 541.534C313.433 537.373 309.547 534.513 305.387 535.145L182.533 553.814ZM211.355 560.106C208.474 560.544 206.494 563.234 206.932 566.114C207.37 568.995 210.06 570.975 212.94 570.537L282.48 559.97C285.36 559.532 287.34 556.842 286.903 553.962C286.465 551.081 283.775 549.101 280.895 549.539L211.355 560.106Z" fill="#4A3A87"/>
<rect x="188.535" y="585.51" width="123.092" height="161.777" rx="5.8615" transform="rotate(-8.64068 188.535 585.51)" fill="#F3CCA7"/>
<path d="M189.416 591.305C188.929 588.105 191.13 585.116 194.33 584.63L304.435 567.898C307.635 567.412 310.624 569.612 311.11 572.812L318.243 619.752L256.759 612.672C255.728 612.553 254.683 612.711 253.732 613.128L196.549 638.244L189.416 591.305Z" fill="#D19964"/>
<circle cx="254.788" cy="615.759" r="28.7214" transform="rotate(-8.64068 254.788 615.759)" fill="white"/>
<mask id="mask0_239_1806" style="mask-type:alpha" maskUnits="userSpaceOnUse" x="226" y="587" width="58" height="58">
<circle cx="254.788" cy="615.759" r="28.7214" transform="rotate(-8.64068 254.788 615.759)" fill="#D9D9D9"/>
</mask>
<g mask="url(#mask0_239_1806)">
<path d="M256.717 625.831C262.453 624.96 266.392 619.608 265.521 613.873C264.649 608.138 259.298 604.198 253.562 605.07C247.827 605.941 243.888 611.293 244.759 617.028C245.631 622.763 250.982 626.703 256.717 625.831ZM257.506 631.022C250.577 632.075 237.273 637.654 238.322 644.557L239.111 649.748L280.634 643.438L279.845 638.248C278.796 631.344 264.435 629.969 257.506 631.022Z" fill="#171547"/>
</g>
<rect x="223.84" y="751.487" width="3.5169" height="16.9984" transform="rotate(-8.64068 223.84 751.487)" fill="white"/>
<rect x="240.645" y="748.933" width="3.5169" height="16.9984" transform="rotate(-8.64068 240.645 748.933)" fill="white"/>
<rect x="251.074" y="747.348" width="3.5169" height="16.9984" transform="rotate(-8.64068 251.074 747.348)" fill="white"/>
<rect x="265.562" y="745.146" width="7.0338" height="16.9984" transform="rotate(-8.64068 265.562 745.146)" fill="white"/>
<rect x="274.258" y="743.826" width="4.10305" height="16.9984" transform="rotate(-8.64068 274.258 743.826)" fill="white"/>
<rect x="287.582" y="741.8" width="4.10305" height="16.9984" transform="rotate(-8.64068 287.582 741.8)" fill="white"/>
<rect x="293.961" y="740.831" width="7.61995" height="16.9984" transform="rotate(-8.64068 293.961 740.831)" fill="white"/>
<rect x="314.82" y="737.661" width="5.27535" height="16.9984" transform="rotate(-8.64068 314.82 737.661)" fill="white"/>
<rect x="228.477" y="750.782" width="1.75845" height="16.9984" transform="rotate(-8.64068 228.477 750.782)" fill="white"/>
<rect x="233.113" y="750.078" width="1.75845" height="16.9984" transform="rotate(-8.64068 233.113 750.078)" fill="white"/>
<rect x="302.652" y="739.51" width="1.75845" height="16.9984" transform="rotate(-8.64068 302.652 739.51)" fill="white"/>
<rect x="230.793" y="750.43" width="1.75845" height="16.9984" transform="rotate(-8.64068 230.793 750.43)" fill="white"/>
<rect x="235.43" y="749.726" width="1.75845" height="16.9984" transform="rotate(-8.64068 235.43 749.726)" fill="white"/>
<rect x="304.969" y="739.158" width="1.75845" height="16.9984" transform="rotate(-8.64068 304.969 739.158)" fill="white"/>
<rect x="310.184" y="738.366" width="1.75845" height="16.9984" transform="rotate(-8.64068 310.184 738.366)" fill="white"/>
<rect x="255.711" y="746.644" width="1.75845" height="16.9984" transform="rotate(-8.64068 255.711 746.644)" fill="white"/>
<rect x="248.758" y="747.7" width="1.75845" height="16.9984" transform="rotate(-8.64068 248.758 747.7)" fill="white"/>
<rect x="238.328" y="749.285" width="1.1723" height="16.9984" transform="rotate(-8.64068 238.328 749.285)" fill="white"/>
<rect x="307.867" y="738.718" width="1.1723" height="16.9984" transform="rotate(-8.64068 307.867 738.718)" fill="white"/>
<rect x="307.867" y="738.718" width="1.1723" height="16.9984" transform="rotate(-8.64068 307.867 738.718)" fill="white"/>
<rect x="312.504" y="738.013" width="1.1723" height="16.9984" transform="rotate(-8.64068 312.504 738.013)" fill="white"/>
<rect x="320.613" y="736.781" width="1.1723" height="16.9984" transform="rotate(-8.64068 320.613 736.781)" fill="white"/>
<rect x="324.094" y="736.252" width="1.1723" height="16.9984" transform="rotate(-8.64068 324.094 736.252)" fill="white"/>
<rect x="322.355" y="736.517" width="1.1723" height="16.9984" transform="rotate(-8.64068 322.355 736.517)" fill="white"/>
<rect x="258.609" y="746.203" width="1.1723" height="16.9984" transform="rotate(-8.64068 258.609 746.203)" fill="white"/>
<rect x="260.348" y="745.939" width="1.1723" height="16.9984" transform="rotate(-8.64068 260.348 745.939)" fill="white"/>
<rect x="262.086" y="745.675" width="1.1723" height="16.9984" transform="rotate(-8.64068 262.086 745.675)" fill="white"/>
<rect x="263.824" y="745.411" width="1.1723" height="16.9984" transform="rotate(-8.64068 263.824 745.411)" fill="white"/>
<rect x="279.473" y="743.033" width="1.1723" height="16.9984" transform="rotate(-8.64068 279.473 743.033)" fill="white"/>
<rect x="281.211" y="742.769" width="1.1723" height="16.9984" transform="rotate(-8.64068 281.211 742.769)" fill="white"/>
<rect x="292.223" y="741.096" width="1.1723" height="16.9984" transform="rotate(-8.64068 292.223 741.096)" fill="white"/>
<rect x="282.949" y="742.504" width="1.75845" height="16.9984" transform="rotate(-8.64068 282.949 742.504)" fill="white"/>
<rect x="285.266" y="742.152" width="1.75845" height="16.9984" transform="rotate(-8.64068 285.266 742.152)" fill="white"/>
<rect x="245.281" y="748.229" width="1.1723" height="16.9984" transform="rotate(-8.64068 245.281 748.229)" fill="white"/>
<rect x="247.02" y="747.964" width="1.1723" height="16.9984" transform="rotate(-8.64068 247.02 747.964)" fill="white"/>
<path d="M220.434 671.628C220.245 670.889 219.823 670.342 219.168 669.988C218.512 669.634 217.738 669.525 216.847 669.66C216.219 669.756 215.683 669.947 215.237 670.235C214.795 670.522 214.468 670.878 214.253 671.301C214.043 671.719 213.974 672.17 214.048 672.653C214.102 673.008 214.226 673.308 214.42 673.553C214.615 673.797 214.856 673.996 215.145 674.15C215.437 674.299 215.751 674.417 216.088 674.505C216.429 674.593 216.769 674.658 217.108 674.701L218.592 674.893C219.041 674.946 219.494 675.032 219.952 675.151C220.41 675.27 220.839 675.443 221.237 675.67C221.639 675.892 221.978 676.188 222.255 676.56C222.535 676.926 222.718 677.39 222.803 677.952C222.912 678.672 222.824 679.348 222.539 679.979C222.253 680.611 221.787 681.149 221.14 681.593C220.493 682.033 219.682 682.327 218.707 682.475C217.789 682.615 216.97 682.584 216.248 682.384C215.525 682.179 214.929 681.836 214.461 681.355C213.992 680.874 213.68 680.281 213.524 679.577L214.788 679.385C214.913 679.91 215.157 680.333 215.52 680.655C215.883 680.977 216.325 681.198 216.847 681.316C217.367 681.43 217.93 681.441 218.536 681.349C219.208 681.247 219.788 681.044 220.276 680.741C220.768 680.433 221.133 680.054 221.37 679.605C221.611 679.15 221.69 678.653 221.608 678.113C221.539 677.657 221.362 677.293 221.078 677.021C220.794 676.746 220.423 676.535 219.965 676.389C219.511 676.242 218.994 676.13 218.411 676.052L216.726 675.823C215.62 675.668 214.733 675.356 214.064 674.887C213.395 674.418 212.995 673.751 212.864 672.887C212.754 672.162 212.85 671.496 213.153 670.889C213.46 670.276 213.921 669.766 214.538 669.358C215.157 668.945 215.882 668.675 216.712 668.549C217.551 668.422 218.316 668.463 219.008 668.672C219.7 668.881 220.276 669.227 220.735 669.71C221.199 670.187 221.496 670.766 221.626 671.447L220.434 671.628ZM230.401 680.678C229.528 680.811 228.721 680.706 227.982 680.365C227.248 680.023 226.632 679.49 226.136 678.766C225.639 678.037 225.312 677.159 225.156 676.132C224.999 675.096 225.049 674.156 225.307 673.313C225.565 672.466 225.994 671.772 226.594 671.231C227.199 670.686 227.938 670.347 228.811 670.214C229.685 670.081 230.489 670.186 231.224 670.528C231.958 670.87 232.574 671.405 233.071 672.133C233.573 672.861 233.902 673.743 234.059 674.779C234.216 675.807 234.165 676.742 233.906 677.585C233.648 678.424 233.216 679.116 232.612 679.661C232.012 680.206 231.275 680.545 230.401 680.678ZM230.238 679.604C230.941 679.498 231.507 679.218 231.937 678.767C232.367 678.315 232.659 677.757 232.814 677.091C232.973 676.424 232.995 675.713 232.881 674.958C232.766 674.203 232.533 673.529 232.183 672.935C231.836 672.341 231.39 671.89 230.845 671.582C230.3 671.275 229.676 671.174 228.973 671.281C228.275 671.387 227.71 671.668 227.276 672.125C226.847 672.581 226.553 673.144 226.394 673.815C226.24 674.485 226.22 675.198 226.335 675.953C226.45 676.708 226.68 677.381 227.026 677.97C227.376 678.559 227.823 679.006 228.368 679.309C228.912 679.613 229.536 679.711 230.238 679.604ZM241.748 678.953C240.844 679.091 240.021 678.985 239.281 678.634C238.545 678.284 237.933 677.743 237.445 677.014C236.956 676.284 236.636 675.416 236.483 674.411C236.329 673.397 236.379 672.466 236.632 671.619C236.889 670.772 237.318 670.073 237.917 669.524C238.515 668.971 239.256 668.627 240.138 668.493C240.814 668.39 241.447 668.429 242.036 668.609C242.624 668.784 243.132 669.082 243.559 669.502C243.991 669.917 244.3 670.432 244.488 671.045L243.302 671.225C243.093 670.673 242.722 670.231 242.191 669.899C241.664 669.561 241.04 669.447 240.32 669.556C239.675 669.654 239.131 669.917 238.688 670.343C238.245 670.766 237.93 671.31 237.744 671.976C237.561 672.637 237.532 673.376 237.656 674.192C237.781 675.013 238.027 675.719 238.396 676.31C238.763 676.896 239.22 677.33 239.765 677.611C240.316 677.891 240.922 677.981 241.585 677.88C242.033 677.812 242.428 677.667 242.772 677.444C243.119 677.216 243.394 676.927 243.597 676.577C243.804 676.227 243.919 675.83 243.941 675.386L245.127 675.206C245.132 675.83 244.997 676.407 244.723 676.938C244.453 677.465 244.064 677.905 243.556 678.261C243.053 678.616 242.451 678.847 241.748 678.953ZM248.471 677.716L246.934 667.601L248.113 667.422L249.65 677.537L248.471 677.716ZM247.269 665.772C247.028 665.808 246.809 665.759 246.613 665.622C246.417 665.481 246.301 665.295 246.265 665.062C246.23 664.829 246.286 664.619 246.432 664.43C246.578 664.237 246.772 664.123 247.013 664.086C247.255 664.049 247.474 664.101 247.67 664.242C247.866 664.379 247.982 664.563 248.017 664.796C248.052 665.028 247.997 665.241 247.851 665.434C247.705 665.623 247.511 665.735 247.269 665.772ZM255.981 676.811C255.371 676.904 254.795 676.87 254.254 676.709C253.713 676.545 253.258 676.259 252.891 675.852C252.523 675.441 252.29 674.91 252.191 674.261C252.115 673.76 252.145 673.324 252.282 672.953C252.419 672.582 252.644 672.26 252.958 671.988C253.271 671.716 253.655 671.48 254.11 671.281C254.565 671.082 255.072 670.903 255.632 670.746C256.188 670.59 256.657 670.456 257.04 670.344C257.427 670.231 257.715 670.102 257.904 669.957C258.093 669.811 258.168 669.611 258.129 669.356L258.093 669.119C257.989 668.43 257.7 667.919 257.227 667.587C256.758 667.249 256.139 667.139 255.371 667.256C254.642 667.366 254.072 667.617 253.66 668.008C253.252 668.398 252.989 668.824 252.87 669.286L251.696 669.054C251.841 668.466 252.09 667.977 252.444 667.586C252.797 667.191 253.213 666.883 253.691 666.662C254.169 666.437 254.664 666.285 255.178 666.207C255.564 666.148 255.974 666.138 256.406 666.175C256.843 666.212 257.26 666.329 257.658 666.524C258.056 666.715 258.4 667.016 258.691 667.425C258.982 667.83 259.179 668.37 259.281 669.047L260.325 675.915L259.153 676.093L258.91 674.493L258.837 674.504C258.742 674.824 258.578 675.145 258.344 675.468C258.11 675.791 257.798 676.074 257.408 676.318C257.019 676.561 256.543 676.725 255.981 676.811ZM255.976 675.713C256.599 675.619 257.118 675.398 257.533 675.052C257.947 674.706 258.243 674.286 258.419 673.793C258.6 673.294 258.648 672.767 258.564 672.214L258.341 670.752C258.266 670.849 258.131 670.946 257.934 671.043C257.742 671.14 257.516 671.235 257.257 671.328C257.001 671.417 256.744 671.498 256.485 671.573C256.227 671.649 255.995 671.715 255.788 671.774C255.228 671.931 254.758 672.114 254.376 672.325C253.995 672.536 253.717 672.789 253.542 673.085C253.366 673.377 253.309 673.727 253.371 674.135C253.465 674.75 253.757 675.193 254.247 675.464C254.737 675.731 255.313 675.814 255.976 675.713ZM262.937 661.72L264.986 675.207L263.814 675.385L261.765 661.898L262.937 661.72ZM218.104 705.595L216.054 692.108L220.407 691.447C221.364 691.302 222.19 691.354 222.883 691.603C223.581 691.847 224.138 692.25 224.556 692.811C224.977 693.367 225.247 694.037 225.367 694.823C225.486 695.609 225.427 696.328 225.189 696.979C224.956 697.63 224.544 698.173 223.955 698.609C223.365 699.044 222.596 699.334 221.648 699.478L217.94 700.041L217.769 698.915L221.444 698.357C222.146 698.25 222.712 698.045 223.142 697.742C223.577 697.438 223.875 697.053 224.038 696.588C224.206 696.123 224.245 695.596 224.155 695.007C224.066 694.419 223.871 693.923 223.572 693.52C223.272 693.111 222.869 692.822 222.362 692.652C221.86 692.482 221.254 692.45 220.542 692.558L217.454 693.028L219.335 705.408L218.104 705.595ZM223.126 698.607L227.369 704.187L225.947 704.403L221.736 698.818L223.126 698.607ZM233.942 703.404C232.999 703.547 232.149 703.452 231.393 703.117C230.636 702.779 230.01 702.247 229.513 701.523C229.021 700.794 228.697 699.918 228.541 698.895C228.386 697.877 228.436 696.944 228.689 696.097C228.946 695.245 229.371 694.545 229.966 693.996C230.565 693.443 231.301 693.1 232.175 692.967C232.723 692.883 233.268 692.904 233.808 693.029C234.347 693.149 234.85 693.384 235.316 693.736C235.787 694.082 236.188 694.549 236.52 695.136C236.851 695.719 237.081 696.434 237.209 697.282L237.298 697.861L229.395 699.062L229.238 698.028L235.942 697.009C235.843 696.36 235.623 695.796 235.281 695.318C234.942 694.835 234.517 694.477 234.006 694.245C233.499 694.012 232.942 693.942 232.337 694.034C231.696 694.131 231.158 694.388 230.722 694.804C230.287 695.221 229.974 695.731 229.783 696.335C229.596 696.938 229.551 697.574 229.648 698.242L229.742 698.861C229.864 699.664 230.109 700.346 230.477 700.905C230.849 701.46 231.317 701.862 231.88 702.114C232.444 702.365 233.077 702.437 233.779 702.33C234.258 702.258 234.666 702.119 235.003 701.915C235.345 701.711 235.62 701.465 235.827 701.177C236.039 700.884 236.185 700.577 236.267 700.255L237.435 700.448C237.346 700.897 237.153 701.328 236.856 701.741C236.564 702.154 236.174 702.51 235.685 702.809C235.199 703.103 234.619 703.301 233.942 703.404ZM240.09 688.456L242.139 701.943L240.967 702.121L238.917 688.634L240.09 688.456ZM248.472 701.216C247.861 701.309 247.286 701.275 246.745 701.115C246.203 700.95 245.749 700.664 245.382 700.257C245.014 699.846 244.781 699.316 244.682 698.666C244.606 698.165 244.636 697.73 244.773 697.358C244.91 696.987 245.135 696.666 245.448 696.393C245.762 696.121 246.146 695.885 246.601 695.686C247.055 695.487 247.563 695.309 248.123 695.152C248.678 694.995 249.148 694.861 249.53 694.749C249.917 694.636 250.205 694.507 250.394 694.362C250.583 694.216 250.659 694.016 250.62 693.762L250.584 693.524C250.479 692.835 250.19 692.324 249.718 691.992C249.249 691.655 248.63 691.544 247.862 691.661C247.133 691.772 246.563 692.022 246.15 692.413C245.742 692.803 245.479 693.229 245.361 693.692L244.187 693.459C244.331 692.871 244.58 692.382 244.934 691.991C245.287 691.596 245.703 691.288 246.182 691.067C246.659 690.842 247.155 690.69 247.669 690.612C248.055 690.554 248.464 690.543 248.897 690.581C249.334 690.618 249.751 690.734 250.149 690.929C250.546 691.12 250.891 691.421 251.182 691.83C251.473 692.235 251.669 692.776 251.772 693.452L252.816 700.32L251.644 700.498L251.4 698.898L251.328 698.909C251.233 699.229 251.068 699.55 250.835 699.873C250.601 700.196 250.289 700.479 249.899 700.723C249.509 700.966 249.034 701.131 248.472 701.216ZM248.467 700.119C249.09 700.024 249.609 699.804 250.024 699.458C250.438 699.112 250.734 698.692 250.91 698.198C251.09 697.699 251.138 697.173 251.054 696.62L250.832 695.158C250.757 695.254 250.621 695.351 250.425 695.449C250.233 695.545 250.007 695.64 249.747 695.733C249.491 695.822 249.234 695.903 248.976 695.979C248.718 696.054 248.486 696.121 248.279 696.179C247.719 696.336 247.248 696.52 246.867 696.73C246.486 696.941 246.208 697.194 246.033 697.49C245.857 697.782 245.8 698.132 245.862 698.54C245.955 699.155 246.247 699.598 246.738 699.869C247.227 700.136 247.804 700.219 248.467 700.119ZM258.752 689.07L258.907 690.09L254.08 690.824L253.925 689.803L258.752 689.07ZM255.065 687.151L256.243 686.971L257.747 696.869C257.811 697.29 257.934 697.611 258.116 697.83C258.297 698.045 258.511 698.186 258.759 698.251C259.006 698.313 259.262 698.323 259.525 698.283C259.679 698.26 259.809 698.231 259.916 698.197C260.023 698.158 260.116 698.122 260.196 698.087L260.607 699.109C260.5 699.17 260.366 699.231 260.204 699.292C260.043 699.357 259.84 699.408 259.594 699.445C259.164 699.51 258.735 699.479 258.306 699.351C257.883 699.222 257.515 698.991 257.204 698.656C256.892 698.322 256.695 697.878 256.611 697.325L255.065 687.151ZM263.335 698.722L261.798 688.607L262.977 688.428L264.514 698.542L263.335 698.722ZM262.133 686.777C261.891 686.814 261.673 686.764 261.477 686.628C261.28 686.487 261.164 686.3 261.129 686.067C261.094 685.835 261.149 685.624 261.296 685.436C261.442 685.243 261.635 685.128 261.877 685.091C262.118 685.055 262.337 685.107 262.534 685.248C262.73 685.384 262.845 685.568 262.881 685.801C262.916 686.034 262.861 686.247 262.715 686.439C262.568 686.628 262.374 686.74 262.133 686.777ZM271.948 697.628C271.074 697.761 270.268 697.657 269.529 697.315C268.794 696.973 268.179 696.44 267.682 695.716C267.185 694.988 266.859 694.11 266.703 693.083C266.545 692.047 266.596 691.107 266.854 690.264C267.111 689.416 267.54 688.722 268.141 688.182C268.745 687.636 269.484 687.297 270.358 687.164C271.231 687.032 272.036 687.136 272.77 687.478C273.505 687.82 274.121 688.356 274.618 689.084C275.119 689.812 275.449 690.694 275.606 691.73C275.762 692.757 275.711 693.692 275.453 694.536C275.194 695.374 274.763 696.066 274.158 696.612C273.558 697.157 272.822 697.496 271.948 697.628ZM271.785 696.555C272.487 696.448 273.053 696.169 273.483 695.717C273.913 695.266 274.206 694.707 274.36 694.041C274.52 693.375 274.542 692.664 274.427 691.909C274.312 691.154 274.08 690.48 273.729 689.886C273.383 689.292 272.937 688.841 272.392 688.533C271.846 688.225 271.222 688.124 270.52 688.231C269.822 688.337 269.256 688.619 268.822 689.075C268.393 689.531 268.099 690.095 267.941 690.766C267.786 691.436 267.767 692.148 267.882 692.904C267.996 693.659 268.226 694.331 268.572 694.921C268.922 695.51 269.369 695.956 269.914 696.26C270.459 696.563 271.082 696.662 271.785 696.555ZM279.523 689.794L280.484 696.116L279.312 696.294L277.774 686.179L278.914 686.006L279.155 687.593L279.26 687.577C279.419 687.023 279.724 686.552 280.177 686.164C280.634 685.771 281.234 685.518 281.976 685.406C282.656 685.302 283.275 685.354 283.832 685.562C284.393 685.764 284.857 686.118 285.226 686.623C285.599 687.128 285.846 687.78 285.968 688.579L286.964 695.131L285.791 695.309L284.807 688.829C284.681 687.999 284.348 687.379 283.809 686.966C283.275 686.553 282.619 686.406 281.842 686.524C281.311 686.605 280.857 686.791 280.479 687.082C280.101 687.373 279.824 687.752 279.647 688.219C279.475 688.68 279.434 689.206 279.523 689.794ZM296.017 685.677L294.99 686.143C294.839 685.856 294.648 685.605 294.417 685.388C294.187 685.172 293.904 685.015 293.571 684.917C293.241 684.819 292.848 684.804 292.392 684.874C291.707 684.978 291.17 685.226 290.78 685.617C290.39 686.009 290.235 686.462 290.313 686.975C290.379 687.41 290.582 687.741 290.922 687.967C291.265 688.189 291.763 688.331 292.415 688.394L294 688.537C294.878 688.615 295.562 688.845 296.052 689.229C296.546 689.612 296.844 690.142 296.947 690.818C297.033 691.389 296.952 691.92 296.704 692.411C296.455 692.903 296.067 693.319 295.539 693.659C295.015 693.995 294.382 694.219 293.64 694.332C292.653 694.482 291.805 694.384 291.096 694.038C290.387 693.688 289.879 693.105 289.571 692.289L290.655 691.841C290.891 692.421 291.243 692.832 291.711 693.075C292.184 693.318 292.767 693.387 293.461 693.281C294.238 693.163 294.833 692.895 295.245 692.478C295.657 692.056 295.823 691.582 295.743 691.055C295.681 690.646 295.493 690.325 295.179 690.089C294.864 689.85 294.42 689.706 293.847 689.659L292.134 689.515C291.224 689.437 290.523 689.202 290.032 688.81C289.541 688.417 289.245 687.883 289.142 687.207C289.057 686.649 289.134 686.137 289.373 685.669C289.611 685.198 289.978 684.801 290.472 684.478C290.967 684.156 291.554 683.943 292.235 683.84C293.161 683.699 293.933 683.798 294.55 684.135C295.171 684.467 295.66 684.981 296.017 685.677ZM221.559 728.334L219.51 714.847L227.333 713.659L227.501 714.765L220.909 715.767L221.681 720.844L227.858 719.905L228.026 721.011L221.849 721.95L222.623 727.04L229.346 726.019L229.514 727.125L221.559 728.334ZM231.884 716.416L235.147 720.334L237.1 715.624L238.463 715.417L235.978 720.969L240 725.532L238.637 725.739L235.395 721.96L233.421 726.531L232.065 726.737L234.51 721.192L230.528 716.623L231.884 716.416ZM243.405 728.895L241.292 714.987L242.431 714.814L242.724 716.743L242.862 716.722C242.957 716.398 243.103 716.059 243.301 715.706C243.498 715.348 243.782 715.028 244.152 714.748C244.527 714.466 245.024 714.278 245.643 714.184C246.477 714.057 247.239 714.166 247.93 714.51C248.623 714.85 249.203 715.386 249.67 716.119C250.14 716.847 250.454 717.731 250.612 718.772C250.771 719.817 250.734 720.759 250.502 721.598C250.275 722.436 249.881 723.123 249.32 723.657C248.763 724.191 248.072 724.521 247.247 724.646C246.636 724.739 246.108 724.707 245.662 724.55C245.221 724.392 244.848 724.173 244.545 723.891C244.245 723.604 244.004 723.317 243.821 723.031L243.716 723.047L244.577 728.717L243.405 728.895ZM243.22 719.875C243.344 720.691 243.575 721.397 243.913 721.993C244.254 722.583 244.68 723.024 245.191 723.314C245.706 723.6 246.291 723.693 246.945 723.594C247.617 723.492 248.155 723.221 248.56 722.782C248.969 722.338 249.246 721.782 249.391 721.113C249.541 720.444 249.556 719.716 249.437 718.93C249.319 718.153 249.091 717.471 248.755 716.885C248.423 716.297 247.997 715.857 247.476 715.563C246.955 715.265 246.356 715.167 245.68 715.27C245.022 715.37 244.489 715.633 244.082 716.059C243.674 716.48 243.397 717.02 243.251 717.681C243.108 718.336 243.097 719.067 243.22 719.875ZM258.44 722.945C257.496 723.088 256.646 722.993 255.89 722.659C255.134 722.32 254.507 721.789 254.011 721.065C253.518 720.336 253.194 719.46 253.039 718.437C252.884 717.418 252.933 716.485 253.186 715.638C253.443 714.786 253.869 714.086 254.464 713.538C255.063 712.984 255.799 712.641 256.672 712.508C257.221 712.425 257.765 712.445 258.305 712.57C258.845 712.69 259.348 712.926 259.814 713.277C260.284 713.623 260.686 714.09 261.017 714.678C261.348 715.261 261.578 715.976 261.707 716.823L261.795 717.402L253.893 718.603L253.736 717.569L260.44 716.551C260.341 715.901 260.12 715.337 259.778 714.859C259.44 714.376 259.015 714.018 258.504 713.786C257.997 713.553 257.44 713.483 256.834 713.575C256.193 713.672 255.655 713.929 255.22 714.346C254.785 714.762 254.472 715.272 254.28 715.876C254.094 716.48 254.049 717.115 254.146 717.783L254.24 718.402C254.362 719.206 254.607 719.887 254.975 720.447C255.347 721.001 255.814 721.404 256.378 721.655C256.942 721.906 257.575 721.978 258.277 721.872C258.756 721.799 259.164 721.661 259.501 721.457C259.843 721.252 260.117 721.006 260.325 720.718C260.537 720.426 260.683 720.118 260.764 719.796L261.932 719.989C261.843 720.438 261.651 720.869 261.354 721.283C261.062 721.695 260.671 722.051 260.182 722.35C259.697 722.644 259.116 722.842 258.44 722.945ZM265.465 721.662L263.928 711.547L265.067 711.374L265.303 712.928L265.389 712.915C265.513 712.375 265.802 711.911 266.255 711.524C266.712 711.131 267.259 710.886 267.895 710.789C267.992 710.775 268.1 710.76 268.219 710.747C268.338 710.733 268.438 710.723 268.517 710.715L268.698 711.907C268.644 711.906 268.55 711.907 268.416 711.909C268.281 711.912 268.137 711.925 267.984 711.948C267.457 712.028 267.004 712.211 266.626 712.498C266.251 712.78 265.974 713.134 265.797 713.561C265.619 713.987 265.568 714.451 265.644 714.951L266.637 721.484L265.465 721.662ZM275.526 709.785L275.681 710.805L270.854 711.539L270.699 710.518L275.526 709.785ZM271.839 707.866L273.018 707.686L274.522 717.584C274.586 718.005 274.709 718.326 274.89 718.545C275.071 718.76 275.286 718.901 275.534 718.966C275.781 719.028 276.036 719.038 276.3 718.998C276.453 718.975 276.584 718.946 276.691 718.912C276.797 718.873 276.891 718.836 276.971 718.802L277.382 719.824C277.274 719.885 277.14 719.946 276.979 720.007C276.818 720.071 276.614 720.123 276.369 720.16C275.938 720.225 275.509 720.194 275.081 720.066C274.657 719.937 274.29 719.706 273.978 719.371C273.667 719.037 273.469 718.593 273.385 718.04L271.839 707.866Z" fill="#0D0B4D"/>
</g>
<path d="M323.386 75.8459C305.238 58.7295 282.2 60.556 272.949 63.6088C246.356 96.7994 202.987 151.495 242.256 104.75C281.525 58.0046 322.679 90.3941 338.347 112.432C340.922 107.368 341.534 92.9622 323.386 75.8459Z" fill="#71391A"/>
<path d="M237.633 222.033C226.984 131.915 265.416 77.2806 285.889 61.797C263.296 57.7509 182.518 110.966 214.201 260.636C239.548 380.372 231.241 488.557 223.92 527.682L250.071 531.031C269.485 316.253 250.944 334.681 237.633 222.033Z" fill="#BC7D59"/>
<path d="M249.926 532.169L223.774 528.821C226.293 479.065 246.297 362.654 289.625 285.319C327.082 218.465 334.505 115.406 308.489 65.8483C368.404 94.3226 359.116 202.921 303.013 325.171C258.131 422.97 248.92 503.92 249.926 532.169Z" fill="#D3C4AD"/>
<rect x="207.159" y="523.227" width="59.6076" height="32.0964" rx="12.6093" transform="rotate(7.29729 207.159 523.227)" stroke="white" stroke-width="2.2926"/>
<rect x="258.605" y="542.176" width="11.6774" height="10.5507" transform="rotate(-7.95786 258.605 542.176)" fill="#4A3A87"/>
<defs>
<filter id="filter0_d_239_1806" x="176.059" y="535.058" width="171.883" height="247.109" filterUnits="userSpaceOnUse" color-interpolation-filters="sRGB">
<feFlood flood-opacity="0" result="BackgroundImageFix"/>
<feColorMatrix in="SourceAlpha" type="matrix" values="0 0 0 0 0 0 0 0 0 0 0 0 0 0 0 0 0 0 127 0" result="hardAlpha"/>
<feOffset dx="2" dy="4"/>
<feComposite in2="hardAlpha" operator="out"/>
<feColorMatrix type="matrix" values="0 0 0 0 1 0 0 0 0 1 0 0 0 0 1 0 0 0 0.3 0"/>
<feBlend mode="normal" in2="BackgroundImageFix" result="effect1_dropShadow_239_1806"/>
<feBlend mode="normal" in="SourceGraphic" in2="effect1_dropShadow_239_1806" result="shape"/>
</filter>
</defs>
</svg>
