<svg width="500" height="500" viewBox="0 0 500 500" fill="none" xmlns="http://www.w3.org/2000/svg">
<path d="M97.3448 457.5L50.332 252.233L372.138 241.308L438.022 422.075L431.731 433.663C425.904 435.781 336.713 438.629 302.943 438.629C293.011 452.534 266.193 451.872 252.288 441.608L97.3448 457.5Z" fill="#663F1A"/>
<path d="M103.965 446.244L53.9727 241.308L373.13 230.713L438.352 422.406C432.525 424.525 343.333 427.372 309.563 427.372C299.631 441.278 272.814 440.615 258.909 430.352L103.965 446.244Z" fill="#CEA47D"/>
<path d="M147.666 441.278L121.18 425.717L373.128 230.713L438.35 422.406C432.523 424.525 343.331 427.372 309.562 427.372C299.629 441.278 272.812 440.615 258.907 430.352L147.666 441.278Z" fill="#B6865A"/>
<path d="M134.424 400.555L91.0527 226.74L75.4922 249.253L121.181 426.71L134.424 400.555Z" fill="#D1E2E8"/>
<path d="M121.512 426.048L136.41 394.927L246.658 349.901L416.831 380.691L409.216 408.832C390.676 421.082 353.265 407.177 339.691 407.177C299.947 407.177 299.741 412.916 300.955 421.413H270.496C261.336 411.04 232.753 407.177 205.936 415.454C172.201 425.866 136.631 429.359 121.512 426.048Z" fill="#C3C9DD"/>
<path d="M281.092 399.626C282.681 387.708 247.102 284.743 231.431 234.751C221.83 226.805 195.344 210.25 161.243 221.175C143.87 226.741 107.608 230.051 91.0547 226.74L132.77 399.626C138.067 402.937 158.197 406.248 196.337 393.005C234.477 379.762 270.277 391.901 281.092 399.626Z" fill="#FBF2DF"/>
<path d="M281.721 400.373C274.051 391.113 245.656 287.416 232.417 236.725C236.34 224.896 251.163 217.397 268.841 212.898C281.721 209.62 346.624 224.486 358.899 212.897L416.831 380.423C414.097 386.04 383.724 391.68 347.194 385.058C307.467 377.858 286.791 388.087 281.721 400.373Z" fill="#FBF2DF"/>
<path d="M281.753 400.224L278.112 397.575L227.457 231.706C227.987 231.706 230.768 233.913 232.092 235.017C232.357 233.693 234.189 231.375 235.072 230.382C251.626 285.671 284.601 396.317 284.071 396.582C283.541 396.847 282.305 399.12 281.753 400.224Z" fill="#DECCC1"/>
<path d="M50 252.233L53.9729 241.308L104.959 442.933L97.3438 457.5L50 252.233Z" fill="#B1825F"/>
<path d="M145.539 288.01C150.553 288.01 154.233 289.735 158.53 286.76C160.645 285.296 162.819 281.742 165.859 282.418C167.784 282.845 168.086 285.547 169.298 286.76C170.643 288.105 171.587 288.01 173.397 288.01C177.489 288.01 180.293 283.088 184.165 281.897C187.943 280.734 190.085 286.321 193.683 287.246C199.02 288.618 197.733 283.076 202.471 283.668C206.734 284.201 210.249 286.134 214.628 286.134C215.822 286.134 217.313 286.452 218.206 285.648C219.401 284.573 219.795 282.457 221.193 281.758" stroke="url(#paint0_linear_239_1671)" stroke-width="2" stroke-linecap="round"/>
<path d="M136.159 270.503C133.914 270.503 140.166 268.002 142.411 268.002C146.983 268.002 148.919 269.025 151.477 273.004C153.65 276.385 156.945 274.885 158.806 272.379C161.561 268.671 164.228 266.656 168.984 267.69C172.208 268.391 176.432 271.059 179.648 271.059C181.393 271.059 182.541 269.525 183.816 268.628C185.688 267.31 187.214 267.377 189.443 267.377C191.521 267.377 199.354 269.137 200.559 267.03C201.517 265.352 204.463 265.501 206.186 265.501" stroke="url(#paint1_linear_239_1671)" stroke-width="2" stroke-linecap="round"/>
<path d="M128.656 254.248C134.158 248.745 148.394 253.913 153.944 256.436C157.885 258.227 162.379 252.103 164.851 249.906C168.846 246.354 171.282 249.416 175.411 251.747C177.255 252.788 181.663 256.197 183.678 255.012C184.693 254.414 184.406 253.006 185.692 252.511C187.349 251.873 188.825 251.747 190.59 251.747C193.815 251.747 196.554 250.496 199.621 250.496C201.81 250.496 203.998 250.496 206.186 250.496" stroke="url(#paint2_linear_239_1671)" stroke-width="2" stroke-linecap="round"/>
<path d="M144.289 308.018C147.283 308.018 149.38 308.554 151.479 306.455C155.054 302.881 157.108 299.788 162.421 299.89C168.24 300.002 173.306 304.267 179.268 304.267C182.56 304.267 183.94 303.676 187.292 304.753C188.753 305.223 190.321 305.913 191.808 305.17C193.289 304.429 194.105 302.391 195.872 302.391C197.947 302.391 199.076 303.642 201.186 303.642C203.141 303.642 213.516 303.991 214.316 302.391" stroke="url(#paint3_linear_239_1671)" stroke-width="2" stroke-linecap="round"/>
<path d="M144.84 329.037C148.778 329.037 152.717 329.502 156.648 329.335C159.586 329.21 161.75 327.229 163.743 325.235C165.363 323.616 166.109 321.237 168.018 319.91C172.079 317.084 175.52 322.112 178.337 324.482C179.962 325.849 182.049 326.723 184.188 326.69C186.349 326.655 187.563 324.845 189.129 323.676C191.466 321.931 194.897 320.621 197.696 321.959C199.411 322.78 204.469 325.759 206.175 323.659C208.15 321.228 209.87 320.622 212.885 321.924C213.932 322.377 222.1 326.472 222.1 323.676" stroke="url(#paint4_linear_239_1671)" stroke-width="2" stroke-linecap="round"/>
<path d="M165.023 348.274C166.594 348.274 168.19 348.355 169.754 348.204C173.526 347.838 176.972 345.366 180.02 343.298C183.263 341.098 187.225 337.788 191.513 338.568C193.656 338.958 195.314 340.779 197.504 341.266C199.214 341.646 200.754 340.136 202.48 340.075C206.959 339.915 213.677 346.105 217.617 341.651C219.123 339.948 219.746 337.552 222.101 337.552C225.601 337.552 228.464 339.759 231.877 339.759" stroke="url(#paint5_linear_239_1671)" stroke-width="2" stroke-linecap="round"/>
<path d="M163.13 367.194C162.67 367.194 163.961 367.194 164.093 367.194C166.062 367.194 167.553 366.169 169.156 365.092C173.787 361.98 178.577 358.02 184.381 357.453C185.281 357.365 186.978 357.12 187.727 357.786C188.781 358.723 189.432 360.207 190.25 361.343C191.527 363.116 194.017 363.788 195.908 362.464C202.125 358.112 208.533 365.447 214.847 365.617C216.002 365.649 216.724 365.435 217.44 364.461C219.287 361.945 220.774 359.168 222.66 356.682C224.779 353.891 226.724 354.265 229.984 354.265" stroke="url(#paint6_linear_239_1671)" stroke-width="2" stroke-linecap="round"/>
<path d="M261.203 242.632C263.721 237.316 269.119 233.172 275.078 233.172C279.582 233.172 282.285 235.815 285.625 238.515C287.802 240.275 290.468 242.568 293.439 241.686C298.18 240.279 301.804 231.147 307.559 234.924C309.521 236.211 311.113 237.339 313.551 237.271C314.639 237.241 315.339 236.442 316.529 236.658C317.622 236.857 318.838 238.733 319.875 239.304C321.482 240.187 323.637 240.782 325.464 240.74C327.703 240.689 328.27 238.165 330.597 239.794C332.731 241.288 335.459 243.263 338.148 243.263C340.159 243.263 341.279 243.174 342.896 241.826C344.665 240.352 345.626 238.443 346.978 236.641" stroke="url(#paint7_linear_239_1671)" stroke-width="2" stroke-linecap="round"/>
<path d="M272.237 262.147C271.816 262.086 272.903 259.71 273.077 259.298C273.7 257.824 275.008 256.705 276.533 256.262C278.919 255.569 281.553 255.842 284.006 255.842C286.922 255.842 289.477 255.681 292.179 256.869C294.943 258.085 297.323 259.247 300.398 259.204C306 259.127 308.891 255.228 313.405 252.689C316.41 250.999 319.005 253.845 321.601 255.188C325.754 257.336 329.609 257.314 334.024 255.842C337.217 254.777 338.183 254.381 341.38 255.632C342.661 256.133 343.611 257.225 344.952 257.523C345.665 257.681 346.748 257.752 347.054 258.364" stroke="url(#paint8_linear_239_1671)" stroke-width="2" stroke-linecap="round"/>
<path d="M275.18 280.641C276.36 280.641 278.146 279.74 279.173 279.169C280.155 278.624 281.553 278.875 282.535 278.329C285.588 276.633 287.896 275.142 291.152 276.951C293.911 278.484 296.4 279.79 299.325 278.119C301.022 277.149 302.14 275.597 304.182 275.597" stroke="url(#paint9_linear_239_1671)" stroke-width="2" stroke-linecap="round"/>
<path d="M304 274.409L304.331 261.497L311.945 262.821C309.849 266.573 305.007 274.409 304.662 274.74C304.49 274.905 304.014 275.071 304 274.409Z" fill="black"/>
<path d="M311.958 262.823L304.344 261.499C305.999 238.32 340.086 89.3355 357.633 55.8993C358.421 54.3976 360.502 54.133 361.275 54.2433C361.275 54.2433 368.492 56.9566 372.2 57.2215C369.883 95.955 322.222 243.948 311.958 262.823Z" fill="#8178DF"/>
<mask id="mask0_239_1671" style="mask-type:alpha" maskUnits="userSpaceOnUse" x="304" y="54" width="69" height="209">
<path d="M311.958 262.822L304.344 261.498C305.999 238.319 340.086 89.3346 357.633 55.8983C358.421 54.3966 360.502 54.132 361.275 54.2424C361.275 54.2424 368.492 56.9557 372.2 57.2205C369.883 95.954 322.222 243.947 311.958 262.822Z" fill="#833636"/>
</mask>
<g mask="url(#mask0_239_1671)">
<rect x="335.762" y="115.171" width="26.5831" height="9.46829" transform="rotate(17.0113 335.762 115.171)" fill="black"/>
</g>
<path d="M371.555 64.8368L355.332 60.5328C355.773 59.0982 356.921 55.8978 357.981 54.5735C359.04 53.2491 360.85 53.1388 361.622 53.2491L369.899 55.5667C373.607 55.8315 372.548 61.8571 371.555 64.8368Z" fill="black"/>
<path d="M364.087 47.6917C364.289 46.9888 365.023 46.5827 365.726 46.7848L370.817 48.2481C371.52 48.4501 371.926 49.1837 371.724 49.8867L369.906 56.2124L362.269 54.0174L364.087 47.6917Z" fill="black"/>
<path d="M353.044 116.14C356.667 110.847 363.465 83.3132 369.642 62.7872C370.059 61.4014 369.24 59.9472 367.838 59.5906C366.508 59.2524 365.154 60.0273 364.785 61.3489C362.059 71.1252 351.848 108.21 351.716 115.726C351.7 116.651 352.521 116.904 353.044 116.14Z" fill="#2B2B2B"/>
<defs>
<linearGradient id="paint0_linear_239_1671" x1="183.366" y1="281.738" x2="183.366" y2="288.507" gradientUnits="userSpaceOnUse">
<stop stop-color="#635E92"/>
<stop offset="1" stop-color="#635E92" stop-opacity="0.4"/>
</linearGradient>
<linearGradient id="paint1_linear_239_1671" x1="170.933" y1="265.498" x2="170.933" y2="274.968" gradientUnits="userSpaceOnUse">
<stop stop-color="#635E92"/>
<stop offset="1" stop-color="#635E92" stop-opacity="0.4"/>
</linearGradient>
<linearGradient id="paint2_linear_239_1671" x1="167.421" y1="248.286" x2="167.421" y2="256.76" gradientUnits="userSpaceOnUse">
<stop stop-color="#635E92"/>
<stop offset="1" stop-color="#635E92" stop-opacity="0.4"/>
</linearGradient>
<linearGradient id="paint3_linear_239_1671" x1="179.303" y1="299.888" x2="179.303" y2="308.08" gradientUnits="userSpaceOnUse">
<stop stop-color="#635E92"/>
<stop offset="1" stop-color="#635E92" stop-opacity="0.4"/>
</linearGradient>
<linearGradient id="paint4_linear_239_1671" x1="183.47" y1="319.071" x2="183.47" y2="329.371" gradientUnits="userSpaceOnUse">
<stop stop-color="#635E92"/>
<stop offset="1" stop-color="#635E92" stop-opacity="0.4"/>
</linearGradient>
<linearGradient id="paint5_linear_239_1671" x1="198.45" y1="337.552" x2="198.45" y2="348.295" gradientUnits="userSpaceOnUse">
<stop stop-color="#635E92"/>
<stop offset="1" stop-color="#635E92" stop-opacity="0.4"/>
</linearGradient>
<linearGradient id="paint6_linear_239_1671" x1="196.507" y1="354.248" x2="196.507" y2="367.194" gradientUnits="userSpaceOnUse">
<stop stop-color="#635E92"/>
<stop offset="1" stop-color="#635E92" stop-opacity="0.4"/>
</linearGradient>
<linearGradient id="paint7_linear_239_1671" x1="304.09" y1="233.172" x2="304.09" y2="243.263" gradientUnits="userSpaceOnUse">
<stop stop-color="#635E92"/>
<stop offset="1" stop-color="#635E92" stop-opacity="0.4"/>
</linearGradient>
<linearGradient id="paint8_linear_239_1671" x1="309.597" y1="252.168" x2="309.597" y2="262.147" gradientUnits="userSpaceOnUse">
<stop stop-color="#635E92"/>
<stop offset="1" stop-color="#635E92" stop-opacity="0.4"/>
</linearGradient>
<linearGradient id="paint9_linear_239_1671" x1="289.681" y1="275.597" x2="289.681" y2="280.641" gradientUnits="userSpaceOnUse">
<stop stop-color="#635E92"/>
<stop offset="1" stop-color="#635E92" stop-opacity="0.4"/>
</linearGradient>
</defs>
</svg>
