<svg width="226" height="364" viewBox="0 0 226 364" fill="none" xmlns="http://www.w3.org/2000/svg">
<path d="M6.15704 112.961L202.192 108.374C202.192 108.374 214.065 175.297 218.564 222.237C223.063 269.176 225.231 348.766 225.231 348.766L19.9606 359.571C19.9606 359.571 8.85169 283.069 6.15638 234.916C3.46107 186.762 6.15704 112.961 6.15704 112.961Z" fill="#583C23"/>
<path d="M173.456 62.4822L203.52 111.499C203.52 111.499 142.872 116.551 103.917 117.774C65.1915 118.988 4.70595 117.774 4.70595 117.774L27.0578 67.3185L173.456 62.4822Z" fill="#946C49"/>
<path d="M44.0515 136.203L4.70703 117.921C4.70703 117.921 65.3546 112.868 104.31 111.646C143.035 110.432 203.521 111.646 203.521 111.646L168.49 136.203H44.0515Z" fill="#341E0B"/>
<path d="M23.5407 346.279L19.75 359.481C19.75 359.481 59.0944 365.758 124.581 361.575C190.068 357.393 225.753 349.94 225.753 349.94L215.688 337.523L23.5407 346.279Z" fill="#946C49"/>
<path d="M102.168 308.343C96.4406 291.883 95.5265 280.96 102.169 269.224" stroke="#87A164" stroke-width="6.943" stroke-linecap="round"/>
<path d="M100.16 273.72C108.932 234.02 135.57 160.316 171.951 183.092C208.333 205.869 139.249 253.001 100.16 273.72Z" fill="#87A164"/>
<path d="M101.951 272.483C80.9654 254.727 43.8723 218.431 70.4226 210.456C96.9729 202.482 103.091 248.082 101.951 272.483Z" fill="#87A164"/>
<path d="M106.258 265.223C116.92 247.059 139.582 203.84 165.529 198.375C154.336 203.462 130.932 228.373 106.258 265.223Z" fill="#639264"/>
<path d="M100.132 265.535C91.4373 246.187 91.6927 227.931 67.9327 220.107C83.2617 232.93 84.1825 238.363 100.132 265.535Z" fill="#639264"/>
<path d="M128.272 83.8187C128.272 91.8318 125.613 98.3277 122.333 98.3277C119.053 98.3277 116.395 91.8318 116.395 83.8187C116.395 75.8055 115.207 69.3093 122.333 69.3096C129.459 69.3098 128.272 75.8055 128.272 83.8187Z" fill="#341E0B"/>
<path d="M67.0265 38.7692C61.4952 44.567 55.0875 47.4318 52.7144 45.1679C50.3414 42.9039 52.9016 36.3685 58.4329 30.5707C63.9642 24.7728 67.5891 19.2527 72.745 24.172C77.901 29.0912 72.5578 32.9713 67.0265 38.7692Z" fill="#341E0B"/>
<path d="M101.2 42.9138C104.894 50.0249 105.528 57.0152 102.618 58.527C99.7073 60.0387 94.3535 55.4996 90.66 48.3885C86.9664 41.2774 82.918 36.0599 89.2422 32.7753C95.5663 29.4908 97.5065 35.8027 101.2 42.9138Z" fill="#341E0B"/>
<path d="M65.9532 83.6877C66.2121 75.6787 69.0793 69.272 72.3573 69.378C75.6354 69.4839 78.0829 76.0623 77.8241 84.0713C77.5653 92.0803 78.5426 98.6114 71.4201 98.381C64.2975 98.1506 65.6944 91.6966 65.9532 83.6877Z" fill="#341E0B"/>
<path d="M134.759 41.2498C138.227 34.0259 143.435 29.3204 146.392 30.7398C149.348 32.1592 148.934 39.166 145.466 46.3899C141.998 53.6137 140.258 59.9841 133.833 56.8998C127.409 53.8155 131.291 48.4736 134.759 41.2498Z" fill="#341E0B"/>
<path d="M108.982 1.30387C116.966 1.98305 123.213 5.18284 122.935 8.4508C122.657 11.7188 115.959 13.8174 107.975 13.1382C99.9906 12.459 93.4171 13.0919 94.0213 5.99129C94.6256 -1.1093 100.997 0.624697 108.982 1.30387Z" fill="#341E0B"/>
</svg>
