<svg width="500" height="500" viewBox="0 0 500 500" fill="none" xmlns="http://www.w3.org/2000/svg">
<path d="M385.5 226.5L321.5 233.5L342 373.5L385.5 369V226.5Z" fill="#E0B287"/>
<path d="M164.5 175.5L92.5 190L99 220.5L191.5 216.5L189 158.5L179.5 173.5L164.5 175.5Z" fill="#3D2111"/>
<path d="M203.5 249L136 256V399L203.5 391.5V249Z" fill="#583C23"/>
<path d="M187.5 254.5V139L221 168L219.5 247.5L187.5 254.5Z" fill="#3D2111"/>
<path d="M328 233L199.5 248.5L203.5 391.5L211 393.5L337 248.5L328 233Z" fill="#A7784D"/>
<path d="M337 248.5L208.5 264L211 393.5L342 373.5L337 248.5Z" fill="#583C23"/>
<ellipse cx="270.266" cy="326.404" rx="56" ry="62.0579" transform="rotate(19.8833 270.266 326.404)" fill="#3D2111"/>
<path d="M386.5 164L318 168L309.5 234L326.5 237L386.5 227V164Z" fill="#583C23"/>
<path d="M313.001 280.5C310.601 276.9 292.001 269 283.001 265.5C263.167 297 223.901 361.5 225.501 367.5C227.101 373.5 248.501 386 259.001 391.5C278.001 356 315.401 284.1 313.001 280.5Z" fill="#3D2111"/>
<ellipse cx="291.266" cy="338.404" rx="56" ry="62.0579" transform="rotate(19.8833 291.266 338.404)" fill="#A7784D"/>
<path d="M386.5 164.5L316.5 168.5L291.5 141.5H386.5L400 156.5L386.5 164.5Z" fill="#A7784D"/>
<ellipse cx="294.088" cy="340.98" rx="36.883" ry="40.8729" transform="rotate(19.8833 294.088 340.98)" fill="#C6C1FD"/>
<path d="M319.085 160.673L220.5 168.5L218.917 246.326L318.093 233.972L319.085 160.673Z" fill="#583C23"/>
<path d="M305.396 174.489L230.794 181.481L230.145 229.476L304.753 221.985L305.396 174.489Z" fill="#C6C1FD"/>
<path d="M187.5 139L220.5 170.5L319 161L281.5 130L187.5 139Z" fill="#E0B287"/>
<path d="M105.5 251.5L135.5 257.5L136 209L105.5 206V251.5Z" fill="#A7784D"/>
<path d="M106.5 387L136 399V258L105.5 243L106.5 387Z" fill="#3D2111"/>
<path d="M169.5 207.5L136 209V258L187.5 254.5V182.5L186 199.5L169.5 207.5Z" fill="#C6C1FD"/>
<path d="M94 229.5L105.5 243L106.5 387L92 372.5L85 348.5V232L94 229.5Z" fill="#3D2111"/>
<path d="M93.5 191.5L105.5 206.5V243L93.5 230V191.5Z" fill="#3D2111"/>
<path d="M185.348 193.185C185.348 200.263 166.712 206 143.723 206C120.734 206 102.097 200.263 102.097 193.185C102.097 186.108 99.2065 172.798 106.145 171.05C122.25 171.05 163.914 164.189 181.88 171.048C189.559 173.979 185.348 191.066 185.348 193.185Z" fill="#583C23"/>
<ellipse cx="143.5" cy="175" rx="42" ry="13" fill="#C6C1FD"/>
<path d="M403 218.5L384 227.5V368.5L403 359.5V218.5Z" fill="#A7784D"/>
<path d="M385 164.5L399.5 156L402.5 219L385 227.5V164.5Z" fill="#3D2111"/>
<path d="M402.5 333.5V226L414 232V307.5L402.5 333.5Z" fill="#3D2111"/>
<path d="M179.5 305H206.5V338H199.256L181.476 324.5L179.5 305Z" fill="#A7784D"/>
<path d="M419 302L310 328H419V302Z" fill="white"/>
<path d="M419.08 366.087L307.922 351.913L409.897 390.412L419.08 366.087Z" fill="white"/>
<path d="M370.187 439.599L292.002 359.324L347.86 452.923L370.187 439.599Z" fill="white"/>
</svg>
