<svg width="500" height="500" viewBox="0 0 500 500" fill="none" xmlns="http://www.w3.org/2000/svg">
<path d="M143.157 180.961L339.192 176.374C339.192 176.374 351.065 243.297 355.564 290.237C360.063 337.176 362.231 416.766 362.231 416.766L156.961 427.571C156.961 427.571 145.852 351.069 143.156 302.916C140.461 254.762 143.157 180.961 143.157 180.961Z" fill="#583C23"/>
<path d="M310.456 130.482L340.52 179.499C340.52 179.499 279.872 184.551 240.917 185.774C202.192 186.988 141.706 185.774 141.706 185.774L164.058 135.319L310.456 130.482Z" fill="#946C49"/>
<path d="M181.051 204.203L141.707 185.921C141.707 185.921 202.355 180.868 241.31 179.646C280.035 178.432 340.521 179.646 340.521 179.646L305.49 204.203H181.051Z" fill="#341E0B"/>
<path d="M160.541 414.279L156.75 427.481C156.75 427.481 196.094 433.758 261.581 429.575C327.068 425.393 362.753 417.94 362.753 417.94L352.688 405.523L160.541 414.279Z" fill="#946C49"/>
<path d="M239.168 376.343C233.441 359.883 232.526 348.96 239.169 337.224" stroke="#87A164" stroke-width="6.943" stroke-linecap="round"/>
<path d="M237.16 341.72C245.932 302.02 272.57 228.316 308.951 251.092C345.333 273.869 276.249 321.001 237.16 341.72Z" fill="#87A164"/>
<path d="M238.951 340.483C217.965 322.727 180.872 286.431 207.423 278.456C233.973 270.482 240.091 316.082 238.951 340.483Z" fill="#87A164"/>
<path d="M243.258 333.223C253.92 315.059 276.582 271.84 302.529 266.375C291.336 271.462 267.932 296.373 243.258 333.223Z" fill="#639264"/>
<path d="M237.132 333.535C228.437 314.187 228.693 295.931 204.933 288.107C220.262 300.93 221.182 306.363 237.132 333.535Z" fill="#639264"/>
<path d="M265.272 151.819C265.272 159.832 262.613 166.328 259.333 166.328C256.053 166.328 253.395 159.832 253.395 151.819C253.395 143.806 252.207 137.309 259.333 137.31C266.459 137.31 265.272 143.806 265.272 151.819Z" fill="#341E0B"/>
<path d="M204.027 106.769C198.495 112.567 192.087 115.432 189.714 113.168C187.341 110.904 189.902 104.369 195.433 98.5707C200.964 92.7728 204.589 87.2527 209.745 92.172C214.901 97.0912 209.558 100.971 204.027 106.769Z" fill="#341E0B"/>
<path d="M238.2 110.914C241.894 118.025 242.528 125.015 239.618 126.527C236.707 128.039 231.354 123.5 227.66 116.388C223.966 109.277 219.918 104.06 226.242 100.775C232.566 97.4908 234.506 103.803 238.2 110.914Z" fill="#341E0B"/>
<path d="M202.953 151.688C203.212 143.679 206.079 137.272 209.357 137.378C212.635 137.484 215.083 144.062 214.824 152.071C214.565 160.08 215.543 166.611 208.42 166.381C201.298 166.151 202.694 159.697 202.953 151.688Z" fill="#341E0B"/>
<path d="M271.759 109.25C275.227 102.026 280.435 97.3204 283.392 98.7398C286.348 100.159 285.934 107.166 282.466 114.39C278.998 121.614 277.258 127.984 270.833 124.9C264.409 121.816 268.291 116.474 271.759 109.25Z" fill="#341E0B"/>
<path d="M245.982 69.3039C253.966 69.9831 260.213 73.1828 259.935 76.4508C259.657 79.7188 252.959 81.8174 244.975 81.1382C236.991 80.459 230.417 81.0919 231.021 73.9913C231.626 66.8907 237.997 68.6247 245.982 69.3039Z" fill="#341E0B"/>
</svg>
