<svg width="500" height="500" viewBox="0 0 500 500" fill="none" xmlns="http://www.w3.org/2000/svg">
<path d="M138.071 399.206L109.691 109.732C109.27 105.441 111.398 101.299 115.133 99.1422L147.655 80.3579C154.497 76.4058 163.15 80.7491 164.069 88.5972L201.794 410.712C202.729 418.697 195.056 424.952 187.424 422.425L145.556 408.568C141.429 407.202 138.495 403.532 138.071 399.206Z" fill="#B59463"/>
<path d="M185.35 414.887L151.522 85.5992C150.835 78.9191 156.247 73.1905 162.955 73.4959L340.09 81.5609C345.442 81.8046 349.839 85.8716 350.498 91.1886L389.554 406.207C390.348 412.616 385.473 418.325 379.019 418.545L196.657 424.749C190.882 424.946 185.94 420.636 185.35 414.887Z" fill="#FAECD7"/>
<path d="M258.966 352.841L249.876 356.953C246.981 358.262 245.26 361.289 245.615 364.447L248.868 393.4C249.284 397.107 252.419 399.909 256.15 399.909H276.48C278.605 399.909 280.625 398.987 282.017 397.381L287.813 390.693C290.094 388.061 290.207 384.187 288.084 381.426L267.794 355.049C265.72 352.354 262.064 351.439 258.966 352.841Z" fill="#212243"/>
<path d="M279.615 351.364H263.752C259.381 351.364 255.982 355.166 256.47 359.51L259.403 385.615C259.82 389.322 262.954 392.124 266.685 392.124H282.255C286.593 392.124 289.982 388.376 289.545 384.059L286.905 357.955C286.527 354.212 283.376 351.364 279.615 351.364Z" fill="#9595E3"/>
<path d="M307.512 352.841L298.423 356.953C295.528 358.262 293.807 361.289 294.162 364.447L297.415 393.4C297.831 397.107 300.966 399.909 304.697 399.909H325.026C327.152 399.909 329.172 398.987 330.564 397.381L336.36 390.693C338.641 388.061 338.754 384.187 336.631 381.426L316.341 355.049C314.267 352.354 310.611 351.439 307.512 352.841Z" fill="#212243"/>
<path d="M328.162 351.364H312.299C307.928 351.364 304.529 355.166 305.017 359.51L307.95 385.615C308.366 389.322 311.501 392.124 315.232 392.124H330.802C335.14 392.124 338.529 388.376 338.092 384.059L335.452 357.955C335.074 354.212 331.923 351.364 328.162 351.364Z" fill="#9595E3"/>
<path d="M356.055 352.841L346.966 356.953C344.071 358.262 342.35 361.289 342.705 364.447L345.958 393.4C346.374 397.107 349.509 399.909 353.239 399.909H373.569C375.695 399.909 377.715 398.987 379.107 397.381L384.903 390.693C387.184 388.061 387.297 384.187 385.174 381.426L364.884 355.049C362.81 352.354 359.154 351.439 356.055 352.841Z" fill="url(#paint0_radial_239_3198)"/>
<path d="M376.705 351.364H360.842C356.471 351.364 353.072 355.166 353.56 359.51L356.493 385.615C356.909 389.322 360.044 392.124 363.775 392.124H379.345C383.683 392.124 387.072 388.376 386.635 384.059L383.995 357.955C383.617 354.212 380.466 351.364 376.705 351.364Z" fill="#18BFCA"/>
<path d="M255.301 291.931L246.212 296.042C243.317 297.352 241.596 300.379 241.951 303.537L245.204 332.49C245.62 336.197 248.755 338.999 252.486 338.999H272.816C274.941 338.999 276.961 338.077 278.353 336.471L284.149 329.783C286.43 327.151 286.543 323.277 284.42 320.516L264.13 294.139C262.056 291.443 258.4 290.529 255.301 291.931Z" fill="#212243"/>
<path d="M275.951 290.454H260.088C255.717 290.454 252.318 294.256 252.806 298.6L255.739 324.704C256.155 328.411 259.29 331.214 263.021 331.214H278.591C282.929 331.214 286.318 327.465 285.881 323.149L283.241 297.044C282.863 293.302 279.712 290.454 275.951 290.454Z" fill="#9595E3"/>
<path d="M303.848 291.931L294.759 296.042C291.864 297.352 290.143 300.379 290.498 303.537L293.751 332.49C294.167 336.197 297.302 338.999 301.032 338.999H321.362C323.488 338.999 325.508 338.077 326.9 336.471L332.696 329.783C334.977 327.151 335.09 323.277 332.967 320.516L312.677 294.139C310.603 291.443 306.947 290.529 303.848 291.931Z" fill="url(#paint1_radial_239_3198)"/>
<path d="M324.498 290.454H308.635C304.264 290.454 300.865 294.256 301.353 298.6L304.286 324.704C304.702 328.411 307.837 331.214 311.568 331.214H327.138C331.476 331.214 334.864 327.465 334.428 323.149L331.788 297.044C331.41 293.302 328.259 290.454 324.498 290.454Z" fill="#18BFCA"/>
<path d="M352.391 291.931L343.302 296.042C340.407 297.352 338.686 300.379 339.041 303.537L342.294 332.49C342.71 336.197 345.845 338.999 349.575 338.999H369.905C372.03 338.999 374.051 338.077 375.443 336.471L381.239 329.783C383.52 327.151 383.633 323.277 381.51 320.516L361.22 294.139C359.146 291.443 355.49 290.529 352.391 291.931Z" fill="#212243"/>
<path d="M373.041 290.454H357.177C352.807 290.454 349.408 294.256 349.896 298.6L352.829 324.704C353.245 328.411 356.38 331.214 360.111 331.214H375.681C380.019 331.214 383.407 327.465 382.971 323.149L380.331 297.044C379.953 293.302 376.802 290.454 373.041 290.454Z" fill="#9595E3"/>
<path d="M247.055 231.478L237.966 235.589C235.071 236.899 233.35 239.926 233.705 243.084L236.958 272.037C237.374 275.744 240.509 278.546 244.239 278.546H264.569C266.695 278.546 268.715 277.624 270.107 276.018L275.903 269.33C278.184 266.698 278.297 262.824 276.174 260.063L255.884 233.686C253.81 230.99 250.154 230.076 247.055 231.478Z" fill="#212243"/>
<path d="M267.705 230.001H251.842C247.471 230.001 244.072 233.803 244.56 238.147L247.493 264.251C247.909 267.958 251.044 270.761 254.775 270.761H270.345C274.683 270.761 278.072 267.012 277.635 262.696L274.995 236.591C274.617 232.849 271.466 230.001 267.705 230.001Z" fill="#9595E3"/>
<path d="M295.602 231.478L286.513 235.589C283.618 236.899 281.897 239.926 282.251 243.084L285.505 272.037C285.921 275.744 289.056 278.546 292.786 278.546H313.116C315.241 278.546 317.262 277.624 318.654 276.018L324.45 269.33C326.731 266.698 326.844 262.824 324.72 260.063L304.43 233.686C302.357 230.99 298.701 230.076 295.602 231.478Z" fill="#212243"/>
<path d="M316.252 230.001H300.388C296.017 230.001 292.619 233.803 293.107 238.147L296.04 264.251C296.456 267.958 299.591 270.761 303.322 270.761H318.892C323.23 270.761 326.618 267.012 326.182 262.696L323.542 236.591C323.164 232.849 320.013 230.001 316.252 230.001Z" fill="#9595E3"/>
<path d="M344.145 231.478L335.056 235.589C332.161 236.899 330.44 239.926 330.794 243.084L334.048 272.037C334.464 275.744 337.599 278.546 341.329 278.546H361.659C363.784 278.546 365.805 277.624 367.197 276.018L372.993 269.33C375.274 266.698 375.387 262.824 373.263 260.063L352.973 233.686C350.9 230.99 347.244 230.076 344.145 231.478Z" fill="#212243"/>
<path d="M364.795 230.001H348.931C344.56 230.001 341.162 233.803 341.65 238.147L344.583 264.251C344.999 267.958 348.134 270.761 351.864 270.761H367.434C371.773 270.761 375.161 267.012 374.725 262.696L372.085 236.591C371.707 232.849 368.556 230.001 364.795 230.001Z" fill="#9595E3"/>
<path d="M193.016 171.025L183.927 175.137C181.032 176.447 179.311 179.474 179.666 182.632L182.919 211.585C183.335 215.292 186.47 218.094 190.2 218.094H210.53C212.655 218.094 214.676 217.171 216.068 215.566L221.864 208.878C224.145 206.246 224.258 202.372 222.135 199.611L201.845 173.234C199.771 170.538 196.115 169.624 193.016 171.025Z" fill="#824F13"/>
<path d="M213.666 169.549H197.802C193.432 169.549 190.033 173.351 190.521 177.695L193.454 203.799C193.87 207.506 197.005 210.309 200.736 210.309H216.306C220.644 210.309 224.032 206.56 223.596 202.244L220.956 176.139C220.578 172.397 217.427 169.549 213.666 169.549Z" fill="#E1A864"/>
<path d="M241.563 171.025L232.474 175.137C229.579 176.447 227.858 179.474 228.212 182.632L231.466 211.585C231.882 215.292 235.017 218.094 238.747 218.094H259.077C261.202 218.094 263.223 217.171 264.615 215.566L270.411 208.878C272.692 206.246 272.805 202.372 270.681 199.611L250.391 173.234C248.318 170.538 244.662 169.624 241.563 171.025Z" fill="url(#paint2_radial_239_3198)"/>
<path d="M262.213 169.549H246.349C241.978 169.549 238.58 173.351 239.068 177.695L242.001 203.799C242.417 207.506 245.552 210.309 249.282 210.309H264.852C269.191 210.309 272.579 206.56 272.143 202.244L269.503 176.139C269.125 172.397 265.974 169.549 262.213 169.549Z" fill="#18BFCA"/>
<path d="M290.106 171.025L281.017 175.137C278.122 176.447 276.401 179.474 276.755 182.632L280.009 211.585C280.425 215.292 283.56 218.094 287.29 218.094H307.62C309.745 218.094 311.766 217.171 313.158 215.566L318.954 208.878C321.235 206.246 321.348 202.372 319.224 199.611L298.934 173.234C296.861 170.538 293.205 169.624 290.106 171.025Z" fill="#824F13"/>
<path d="M310.756 169.549H294.892C290.521 169.549 287.123 173.351 287.611 177.695L290.544 203.799C290.96 207.506 294.095 210.309 297.825 210.309H313.395C317.734 210.309 321.122 206.56 320.686 202.244L318.046 176.139C317.668 172.397 314.517 169.549 310.756 169.549Z" fill="#E1A864"/>
<path d="M338.653 171.025L329.564 175.137C326.668 176.447 324.947 179.474 325.302 182.632L328.555 211.585C328.972 215.292 332.107 218.094 335.837 218.094H356.167C358.292 218.094 360.313 217.171 361.704 215.566L367.501 208.878C369.782 206.246 369.895 202.372 367.771 199.611L347.481 173.234C345.408 170.538 341.752 169.624 338.653 171.025Z" fill="#824F13"/>
<path d="M359.302 169.549H343.439C339.068 169.549 335.669 173.351 336.157 177.695L339.091 203.799C339.507 207.506 342.642 210.309 346.372 210.309H361.942C366.281 210.309 369.669 206.56 369.233 202.244L366.593 176.139C366.214 172.397 363.064 169.549 359.302 169.549Z" fill="#E1A864"/>
<path d="M200.344 231.478L191.255 235.589C188.36 236.899 186.639 239.926 186.994 243.084L190.247 272.037C190.663 275.744 193.798 278.546 197.529 278.546H217.858C219.984 278.546 222.004 277.624 223.396 276.018L229.192 269.33C231.473 266.698 231.586 262.824 229.463 260.063L209.173 233.686C207.099 230.99 203.443 230.076 200.344 231.478Z" fill="#292946"/>
<path d="M220.994 230.001H205.131C200.76 230.001 197.361 233.803 197.849 238.147L200.782 264.251C201.198 267.958 204.333 270.761 208.064 270.761H223.634C227.972 270.761 231.361 267.012 230.924 262.696L228.284 236.591C227.906 232.849 224.755 230.001 220.994 230.001Z" fill="#B6B6CD"/>
<path d="M201.502 293.252L194.617 296.532C191.874 297.838 190.222 300.702 190.464 303.73L198.226 400.951C198.53 404.76 201.709 407.695 205.53 407.695H225.413C227.671 407.695 229.802 406.655 231.191 404.875L237.224 397.14C238.669 395.288 239.138 392.856 238.486 390.6L211.693 297.834C210.438 293.488 205.585 291.306 201.502 293.252Z" fill="url(#paint3_radial_239_3198)"/>
<path d="M224.578 290.502H208.64C204.325 290.502 200.944 294.213 201.345 298.51L210.053 391.884C210.404 395.651 213.566 398.532 217.349 398.532H232.89C237.194 398.532 240.571 394.841 240.189 390.554L231.876 297.18C231.54 293.4 228.373 290.502 224.578 290.502Z" fill="#18BFCA"/>
<path d="M218.989 239.671C212.68 236.117 208.07 240.96 209.018 251.175C209.966 261.39 218.1 259.837 222.049 257.785" stroke="white" stroke-width="3.66379" stroke-linecap="round"/>
<g filter="url(#filter0_i_239_3198)">
<path d="M330.355 97.2819L183.182 91.3154C176.292 91.0361 170.85 97.0952 171.865 103.915L176.789 137.021C177.577 142.319 182.069 146.277 187.424 146.393L334.459 149.572C341.308 149.72 346.622 143.635 345.554 136.869L340.766 106.55C339.949 101.374 335.591 97.4941 330.355 97.2819Z" fill="#26687D"/>
</g>
<mask id="mask0_239_3198" style="mask-type:alpha" maskUnits="userSpaceOnUse" x="171" y="91" width="175" height="59">
<path d="M330.355 97.2819L183.182 91.3154C176.292 91.0361 170.85 97.0952 171.865 103.915L176.789 137.021C177.577 142.319 182.069 146.277 187.424 146.393L334.459 149.572C341.308 149.72 346.622 143.635 345.554 136.869L340.766 106.55C339.949 101.374 335.591 97.4941 330.355 97.2819Z" fill="#212243"/>
</mask>
<g mask="url(#mask0_239_3198)">
<rect width="159.508" height="20.3862" transform="matrix(0.683867 0.729607 0.852073 -0.523423 156.629 68.2832)" fill="#E3E4FF" fill-opacity="0.4"/>
<rect width="159.508" height="4.25964" transform="matrix(0.683867 0.729607 0.852073 -0.523423 187.773 65.3018)" fill="#E3E4FF" fill-opacity="0.4"/>
<rect width="159.508" height="4.25964" transform="matrix(0.683867 0.729607 0.852073 -0.523423 244.559 57.7432)" fill="#E3E4FF" fill-opacity="0.4"/>
<path d="M206.914 126.86C205.947 126.826 205.104 126.606 204.385 126.2C203.666 125.794 203.098 125.261 202.681 124.601C202.265 123.927 202.027 123.178 201.968 122.354L204.209 122.433C204.331 123.126 204.634 123.679 205.119 124.092C205.603 124.505 206.226 124.725 206.987 124.751C208.056 124.788 208.937 124.357 209.628 123.458C210.32 122.543 210.751 121.099 210.923 119.125L210.769 119.12C210.381 119.722 209.895 120.211 209.31 120.587C208.725 120.962 207.905 121.132 206.851 121.095C205.972 121.064 205.174 120.831 204.456 120.396C203.738 119.945 203.173 119.339 202.759 118.577C202.346 117.814 202.157 116.943 202.191 115.961C202.223 115.024 202.466 114.175 202.918 113.413C203.37 112.637 203.985 112.028 204.763 111.586C205.556 111.13 206.48 110.92 207.534 110.957C208.882 111.004 209.977 111.35 210.82 111.995C211.663 112.626 212.27 113.505 212.641 114.632C213.028 115.745 213.195 117.056 213.142 118.565C213.083 120.264 212.797 121.742 212.283 123C211.785 124.259 211.076 125.231 210.158 125.918C209.255 126.59 208.173 126.904 206.914 126.86ZM207.407 119.025C208.315 119.056 209.05 118.803 209.611 118.266C210.188 117.714 210.491 117.013 210.52 116.164C210.55 115.3 210.297 114.58 209.76 114.004C209.238 113.414 208.523 113.103 207.615 113.071C206.707 113.039 205.965 113.292 205.389 113.829C204.827 114.367 204.532 115.068 204.501 115.932C204.471 116.796 204.717 117.523 205.239 118.113C205.776 118.689 206.499 118.993 207.407 119.025ZM229.161 127.372L233.086 122.054L229.409 116.471L232.001 116.561L234.672 120.724L237.626 116.758L240.218 116.848L236.161 122.162L239.706 127.74L237.114 127.65L234.575 123.492L231.731 127.462L229.161 127.372ZM256.517 128.327L256.59 126.24L260.391 126.372L260.759 115.827L257.111 116.36L257.177 114.47L261.755 113.112L263.183 113.162L262.72 126.453L266.806 126.596L266.733 128.683L256.517 128.327ZM287.919 126.827L288.06 122.784L284.018 122.643L284.091 120.534L288.134 120.675L288.275 116.633L290.384 116.706L290.243 120.749L294.285 120.89L294.212 122.999L290.169 122.858L290.028 126.9L287.919 126.827ZM297.355 129.751L297.428 127.664L301.228 127.797L301.596 117.252L297.948 117.784L298.014 115.895L302.593 114.537L304.021 114.587L303.557 127.878L307.643 128.021L307.571 130.108L297.355 129.751ZM310.967 130.226L311.04 128.139L314.841 128.272L315.209 117.726L311.561 118.259L311.627 116.37L316.205 115.012L317.633 115.061L317.17 128.353L321.256 128.495L321.183 130.583L310.967 130.226Z" fill="white"/>
</g>
<defs>
<filter id="filter0_i_239_3198" x="171.742" y="91.3057" width="173.949" height="61.9323" filterUnits="userSpaceOnUse" color-interpolation-filters="sRGB">
<feFlood flood-opacity="0" result="BackgroundImageFix"/>
<feBlend mode="normal" in="SourceGraphic" in2="BackgroundImageFix" result="shape"/>
<feColorMatrix in="SourceAlpha" type="matrix" values="0 0 0 0 0 0 0 0 0 0 0 0 0 0 0 0 0 0 127 0" result="hardAlpha"/>
<feOffset dy="3.66379"/>
<feGaussianBlur stdDeviation="1.8319"/>
<feComposite in2="hardAlpha" operator="arithmetic" k2="-1" k3="1"/>
<feColorMatrix type="matrix" values="0 0 0 0 0 0 0 0 0 0 0 0 0 0 0 0 0 0 0.25 0"/>
<feBlend mode="normal" in2="shape" result="effect1_innerShadow_239_3198"/>
</filter>
<radialGradient id="paint0_radial_239_3198" cx="0" cy="0" r="1" gradientUnits="userSpaceOnUse" gradientTransform="translate(365.466 375.179) rotate(90) scale(24.7306 23.3567)">
<stop stop-color="#212243"/>
<stop offset="1" stop-color="#212243" stop-opacity="0.58"/>
</radialGradient>
<radialGradient id="paint1_radial_239_3198" cx="0" cy="0" r="1" gradientUnits="userSpaceOnUse" gradientTransform="translate(313.259 314.269) rotate(90) scale(24.7306 23.3567)">
<stop stop-color="#212243"/>
<stop offset="1" stop-color="#212243" stop-opacity="0.58"/>
</radialGradient>
<radialGradient id="paint2_radial_239_3198" cx="0" cy="0" r="1" gradientUnits="userSpaceOnUse" gradientTransform="translate(250.974 193.363) rotate(90) scale(24.7306 23.3567)">
<stop stop-color="#212243"/>
<stop offset="1" stop-color="#212243" stop-opacity="0.58"/>
</radialGradient>
<radialGradient id="paint3_radial_239_3198" cx="0" cy="0" r="1" gradientUnits="userSpaceOnUse" gradientTransform="translate(214.793 348.617) rotate(90) scale(59.0787 24.7306)">
<stop stop-color="#212243"/>
<stop offset="1" stop-color="#212243" stop-opacity="0.58"/>
</radialGradient>
</defs>
</svg>
