<svg width="283" height="356" viewBox="0 0 283 356" fill="none" xmlns="http://www.w3.org/2000/svg">
<path d="M29.0707 327.206L0.691001 37.7325C0.270224 33.4406 2.39821 29.2991 6.13257 27.1422L38.6547 8.35787C45.4971 4.40578 54.1497 8.74905 55.0688 16.5972L92.794 338.712C93.7292 346.697 86.0559 352.952 78.4235 350.425L36.5559 336.568C32.429 335.202 29.4949 331.532 29.0707 327.206Z" fill="#B59463"/>
<path d="M76.3498 342.887L42.5217 13.5992C41.8354 6.91907 47.2472 1.19049 53.9555 1.49592L231.09 9.56091C236.442 9.80459 240.839 13.8716 241.498 19.1886L280.554 334.207C281.348 340.616 276.473 346.325 270.019 346.545L87.6573 352.749C81.8817 352.946 76.9403 348.636 76.3498 342.887Z" fill="#FAECD7"/>
<path d="M149.966 280.841L140.876 284.953C137.981 286.262 136.26 289.289 136.615 292.447L139.868 321.4C140.284 325.107 143.419 327.909 147.15 327.909H167.48C169.605 327.909 171.625 326.987 173.017 325.381L178.813 318.693C181.094 316.061 181.207 312.187 179.084 309.426L158.794 283.049C156.72 280.354 153.064 279.439 149.966 280.841Z" fill="#212243"/>
<path d="M170.615 279.364H154.752C150.381 279.364 146.982 283.166 147.47 287.51L150.403 313.615C150.82 317.322 153.954 320.124 157.685 320.124H173.255C177.593 320.124 180.982 316.376 180.545 312.059L177.905 285.955C177.527 282.212 174.376 279.364 170.615 279.364Z" fill="#9595E3"/>
<path d="M198.512 280.841L189.423 284.953C186.528 286.262 184.807 289.289 185.162 292.447L188.415 321.4C188.831 325.107 191.966 327.909 195.697 327.909H216.026C218.152 327.909 220.172 326.987 221.564 325.381L227.36 318.693C229.641 316.061 229.754 312.187 227.631 309.426L207.341 283.049C205.267 280.354 201.611 279.439 198.512 280.841Z" fill="#212243"/>
<path d="M219.162 279.364H203.299C198.928 279.364 195.529 283.166 196.017 287.51L198.95 313.615C199.366 317.322 202.501 320.124 206.232 320.124H221.802C226.14 320.124 229.529 316.376 229.092 312.059L226.452 285.955C226.074 282.212 222.923 279.364 219.162 279.364Z" fill="#9595E3"/>
<path d="M247.055 280.841L237.966 284.953C235.071 286.262 233.35 289.289 233.705 292.447L236.958 321.4C237.374 325.107 240.509 327.909 244.239 327.909H264.569C266.695 327.909 268.715 326.987 270.107 325.381L275.903 318.693C278.184 316.061 278.297 312.187 276.174 309.426L255.884 283.049C253.81 280.354 250.154 279.439 247.055 280.841Z" fill="url(#paint0_radial_239_3276)"/>
<path d="M267.705 279.364H251.842C247.471 279.364 244.072 283.166 244.56 287.51L247.493 313.615C247.909 317.322 251.044 320.124 254.775 320.124H270.345C274.683 320.124 278.072 316.376 277.635 312.059L274.995 285.955C274.617 282.212 271.466 279.364 267.705 279.364Z" fill="#18BFCA"/>
<path d="M146.301 219.931L137.212 224.042C134.317 225.352 132.596 228.379 132.951 231.537L136.204 260.49C136.62 264.197 139.755 266.999 143.486 266.999H163.816C165.941 266.999 167.961 266.077 169.353 264.471L175.149 257.783C177.43 255.151 177.543 251.277 175.42 248.516L155.13 222.139C153.056 219.443 149.4 218.529 146.301 219.931Z" fill="#212243"/>
<path d="M166.951 218.454H151.088C146.717 218.454 143.318 222.256 143.806 226.6L146.739 252.704C147.155 256.411 150.29 259.214 154.021 259.214H169.591C173.929 259.214 177.318 255.465 176.881 251.149L174.241 225.044C173.863 221.302 170.712 218.454 166.951 218.454Z" fill="#9595E3"/>
<path d="M194.848 219.931L185.759 224.042C182.864 225.352 181.143 228.379 181.498 231.537L184.751 260.49C185.167 264.197 188.302 266.999 192.032 266.999H212.362C214.488 266.999 216.508 266.077 217.9 264.471L223.696 257.783C225.977 255.151 226.09 251.277 223.967 248.516L203.677 222.139C201.603 219.443 197.947 218.529 194.848 219.931Z" fill="url(#paint1_radial_239_3276)"/>
<path d="M215.498 218.454H199.635C195.264 218.454 191.865 222.256 192.353 226.6L195.286 252.704C195.702 256.411 198.837 259.214 202.568 259.214H218.138C222.476 259.214 225.864 255.465 225.428 251.149L222.788 225.044C222.41 221.302 219.259 218.454 215.498 218.454Z" fill="#18BFCA"/>
<path d="M243.391 219.931L234.302 224.042C231.407 225.352 229.686 228.379 230.041 231.537L233.294 260.49C233.71 264.197 236.845 266.999 240.575 266.999H260.905C263.03 266.999 265.051 266.077 266.443 264.471L272.239 257.783C274.52 255.151 274.633 251.277 272.51 248.516L252.22 222.139C250.146 219.443 246.49 218.529 243.391 219.931Z" fill="#212243"/>
<path d="M264.041 218.454H248.177C243.807 218.454 240.408 222.256 240.896 226.6L243.829 252.704C244.245 256.411 247.38 259.214 251.111 259.214H266.681C271.019 259.214 274.407 255.465 273.971 251.149L271.331 225.044C270.953 221.302 267.802 218.454 264.041 218.454Z" fill="#9595E3"/>
<path d="M138.055 159.478L128.966 163.589C126.071 164.899 124.35 167.926 124.705 171.084L127.958 200.037C128.374 203.744 131.509 206.546 135.239 206.546H155.569C157.695 206.546 159.715 205.624 161.107 204.018L166.903 197.33C169.184 194.698 169.297 190.824 167.174 188.063L146.884 161.686C144.81 158.99 141.154 158.076 138.055 159.478Z" fill="#212243"/>
<path d="M158.705 158.001H142.842C138.471 158.001 135.072 161.803 135.56 166.147L138.493 192.251C138.909 195.958 142.044 198.761 145.775 198.761H161.345C165.683 198.761 169.072 195.012 168.635 190.696L165.995 164.591C165.617 160.849 162.466 158.001 158.705 158.001Z" fill="#9595E3"/>
<path d="M186.602 159.478L177.513 163.589C174.618 164.899 172.897 167.926 173.251 171.084L176.505 200.037C176.921 203.744 180.056 206.546 183.786 206.546H204.116C206.241 206.546 208.262 205.624 209.654 204.018L215.45 197.33C217.731 194.698 217.844 190.824 215.72 188.063L195.43 161.686C193.357 158.99 189.701 158.076 186.602 159.478Z" fill="#212243"/>
<path d="M207.252 158.001H191.388C187.017 158.001 183.619 161.803 184.107 166.147L187.04 192.251C187.456 195.958 190.591 198.761 194.322 198.761H209.892C214.23 198.761 217.618 195.012 217.182 190.696L214.542 164.591C214.164 160.849 211.013 158.001 207.252 158.001Z" fill="#9595E3"/>
<path d="M235.145 159.478L226.056 163.589C223.161 164.899 221.44 167.926 221.794 171.084L225.048 200.037C225.464 203.744 228.599 206.546 232.329 206.546H252.659C254.784 206.546 256.805 205.624 258.197 204.018L263.993 197.33C266.274 194.698 266.387 190.824 264.263 188.063L243.973 161.686C241.9 158.99 238.244 158.076 235.145 159.478Z" fill="#212243"/>
<path d="M255.795 158.001H239.931C235.56 158.001 232.162 161.803 232.65 166.147L235.583 192.251C235.999 195.958 239.134 198.761 242.864 198.761H258.434C262.773 198.761 266.161 195.012 265.725 190.696L263.085 164.591C262.707 160.849 259.556 158.001 255.795 158.001Z" fill="#9595E3"/>
<path d="M84.0163 99.0254L74.9271 103.137C72.0318 104.447 70.3107 107.474 70.6655 110.632L73.9187 139.585C74.3352 143.292 77.4701 146.094 81.2004 146.094H101.53C103.655 146.094 105.676 145.171 107.068 143.566L112.864 136.878C115.145 134.246 115.258 130.372 113.135 127.611L92.8446 101.234C90.7709 98.5382 87.115 97.6236 84.0163 99.0254Z" fill="#824F13"/>
<path d="M104.666 97.5488H88.8025C84.4316 97.5488 81.0327 101.351 81.5207 105.695L84.4538 131.799C84.8703 135.506 88.0053 138.309 91.7356 138.309H107.306C111.644 138.309 115.032 134.56 114.596 130.244L111.956 104.139C111.578 100.397 108.427 97.5488 104.666 97.5488Z" fill="#E1A864"/>
<path d="M132.563 99.0254L123.474 103.137C120.579 104.447 118.858 107.474 119.212 110.632L122.466 139.585C122.882 143.292 126.017 146.094 129.747 146.094H150.077C152.202 146.094 154.223 145.171 155.615 143.566L161.411 136.878C163.692 134.246 163.805 130.372 161.681 127.611L141.391 101.234C139.318 98.5382 135.662 97.6236 132.563 99.0254Z" fill="url(#paint2_radial_239_3276)"/>
<path d="M153.213 97.5488H137.349C132.978 97.5488 129.58 101.351 130.068 105.695L133.001 131.799C133.417 135.506 136.552 138.309 140.282 138.309H155.852C160.191 138.309 163.579 134.56 163.143 130.244L160.503 104.139C160.125 100.397 156.974 97.5488 153.213 97.5488Z" fill="#18BFCA"/>
<path d="M181.106 99.0254L172.017 103.137C169.122 104.447 167.401 107.474 167.755 110.632L171.009 139.585C171.425 143.292 174.56 146.094 178.29 146.094H198.62C200.745 146.094 202.766 145.171 204.158 143.566L209.954 136.878C212.235 134.246 212.348 130.372 210.224 127.611L189.934 101.234C187.861 98.5382 184.205 97.6236 181.106 99.0254Z" fill="#824F13"/>
<path d="M201.756 97.5488H185.892C181.521 97.5488 178.123 101.351 178.611 105.695L181.544 131.799C181.96 135.506 185.095 138.309 188.825 138.309H204.395C208.734 138.309 212.122 134.56 211.686 130.244L209.046 104.139C208.668 100.397 205.517 97.5488 201.756 97.5488Z" fill="#E1A864"/>
<path d="M229.653 99.0254L220.564 103.137C217.668 104.447 215.947 107.474 216.302 110.632L219.555 139.585C219.972 143.292 223.107 146.094 226.837 146.094H247.167C249.292 146.094 251.313 145.171 252.704 143.566L258.501 136.878C260.782 134.246 260.895 130.372 258.771 127.611L238.481 101.234C236.408 98.5382 232.752 97.6236 229.653 99.0254Z" fill="#824F13"/>
<path d="M250.302 97.5488H234.439C230.068 97.5488 226.669 101.351 227.157 105.695L230.091 131.799C230.507 135.506 233.642 138.309 237.372 138.309H252.942C257.281 138.309 260.669 134.56 260.233 130.244L257.593 104.139C257.214 100.397 254.064 97.5488 250.302 97.5488Z" fill="#E1A864"/>
<path d="M91.3445 159.478L82.2552 163.589C79.3599 164.899 77.6388 167.926 77.9936 171.084L81.2468 200.037C81.6633 203.744 84.7982 206.546 88.5286 206.546H108.858C110.984 206.546 113.004 205.624 114.396 204.018L120.192 197.33C122.473 194.698 122.586 190.824 120.463 188.063L100.173 161.686C98.0991 158.99 94.4431 158.076 91.3445 159.478Z" fill="#292946"/>
<path d="M111.994 158.001H96.1306C91.7597 158.001 88.3608 161.803 88.8488 166.147L91.7819 192.251C92.1985 195.958 95.3334 198.761 99.0637 198.761H114.634C118.972 198.761 122.361 195.012 121.924 190.696L119.284 164.591C118.906 160.849 115.755 158.001 111.994 158.001Z" fill="#B6B6CD"/>
<path d="M92.5021 221.252L85.6169 224.532C82.8742 225.838 81.2222 228.702 81.464 231.73L89.2256 328.951C89.5296 332.76 92.7091 335.695 96.5299 335.695H116.413C118.671 335.695 120.802 334.655 122.191 332.875L128.224 325.14C129.669 323.288 130.138 320.856 129.486 318.6L102.693 225.834C101.438 221.488 96.5853 219.306 92.5021 221.252Z" fill="url(#paint3_radial_239_3276)"/>
<path d="M115.578 218.502H99.6405C95.3248 218.502 91.9438 222.213 92.3445 226.51L101.053 319.884C101.404 323.651 104.566 326.532 108.349 326.532H123.89C128.194 326.532 131.571 322.841 131.189 318.554L122.876 225.18C122.54 221.4 119.373 218.502 115.578 218.502Z" fill="#18BFCA"/>
<path d="M109.989 167.671C103.68 164.117 99.0697 168.96 100.018 179.175C100.966 189.39 109.1 187.837 113.049 185.785" stroke="white" stroke-width="3.66379" stroke-linecap="round"/>
<g filter="url(#filter0_i_239_3276)">
<path d="M221.355 25.2819L74.1815 19.3154C67.2923 19.0361 61.85 25.0952 62.8645 31.915L67.7894 65.0211C68.5775 70.3186 73.069 74.2769 78.4235 74.3927L225.459 77.5718C232.308 77.7199 237.622 71.6352 236.554 64.8687L231.766 34.55C230.949 29.3736 226.591 25.4941 221.355 25.2819Z" fill="#26687D"/>
</g>
<mask id="mask0_239_3276" style="mask-type:alpha" maskUnits="userSpaceOnUse" x="62" y="19" width="175" height="59">
<path d="M221.355 25.2819L74.1815 19.3154C67.2923 19.0361 61.85 25.0952 62.8645 31.915L67.7894 65.0211C68.5775 70.3186 73.069 74.2769 78.4235 74.3927L225.459 77.5718C232.308 77.7199 237.622 71.6352 236.554 64.8687L231.766 34.55C230.949 29.3736 226.591 25.4941 221.355 25.2819Z" fill="#212243"/>
</mask>
<g mask="url(#mask0_239_3276)">
<rect width="159.508" height="20.3862" transform="matrix(0.683867 0.729607 0.852073 -0.523423 47.6289 -3.7168)" fill="#E3E4FF" fill-opacity="0.4"/>
<rect width="159.508" height="4.25964" transform="matrix(0.683867 0.729607 0.852073 -0.523423 78.7734 -6.69824)" fill="#E3E4FF" fill-opacity="0.4"/>
<rect width="159.508" height="4.25964" transform="matrix(0.683867 0.729607 0.852073 -0.523423 135.559 -14.2568)" fill="#E3E4FF" fill-opacity="0.4"/>
<path d="M97.9137 54.8602C96.947 54.8265 96.1042 54.6065 95.3852 54.2001C94.6661 53.7938 94.0982 53.2607 93.6813 52.6009C93.2649 51.9265 93.027 51.1777 92.9678 50.3544L95.2086 50.4326C95.3311 51.1261 95.6344 51.6792 96.1186 52.0921C96.6028 52.5049 97.2257 52.7246 97.9873 52.7512C99.0564 52.7885 99.9367 52.3572 100.628 51.4575C101.32 50.5431 101.751 49.0991 101.923 47.1255L101.769 47.1201C101.381 47.7225 100.895 48.2114 100.31 48.5869C99.7252 48.9625 98.9054 49.1318 97.8509 49.095C96.9721 49.0644 96.1737 48.8312 95.4557 48.3956C94.7382 47.9453 94.1728 47.339 93.7594 46.5767C93.3461 45.8144 93.1566 44.9426 93.1908 43.9613C93.2235 43.024 93.4658 42.1746 93.9176 41.4131C94.3699 40.6371 94.9851 40.028 95.763 39.5859C96.5561 39.1296 97.4799 38.9199 98.5345 38.9567C99.8819 39.0037 100.977 39.3498 101.82 39.9951C102.663 40.6257 103.27 41.5048 103.641 42.6322C104.028 43.7455 104.195 45.0564 104.142 46.565C104.083 48.264 103.797 49.7424 103.283 51.0002C102.785 52.2586 102.076 53.2311 101.158 53.9176C100.255 54.5899 99.1733 54.9042 97.9137 54.8602ZM98.407 47.0248C99.3151 47.0565 100.05 46.8035 100.611 46.2658C101.188 45.714 101.491 45.0134 101.52 44.1639C101.55 43.2998 101.297 42.5797 100.76 42.0038C100.238 41.4137 99.5228 41.1028 98.6147 41.0711C97.7066 41.0394 96.9646 41.2921 96.3886 41.8293C95.8273 42.3669 95.5316 43.0678 95.5014 43.932C95.4713 44.7961 95.7172 45.5232 96.2392 46.1133C96.7763 46.6893 97.4989 46.9931 98.407 47.0248ZM120.161 55.3724L124.086 50.0542L120.409 44.4709L123.001 44.5614L125.672 48.7238L128.626 44.7576L131.218 44.848L127.161 50.1615L130.706 55.7402L128.114 55.6498L125.575 51.492L122.731 55.462L120.161 55.3724ZM147.517 56.3267L147.59 54.2396L151.391 54.3722L151.759 43.8269L148.111 44.3595L148.177 42.4701L152.755 41.1121L154.183 41.1619L153.72 54.4534L157.806 54.596L157.733 56.6831L147.517 56.3267ZM178.919 54.8266L179.06 50.7842L175.018 50.6432L175.091 48.5342L179.134 48.6752L179.275 44.6328L181.384 44.7064L181.243 48.7488L185.285 48.8898L185.212 50.9988L181.169 50.8578L181.028 54.9002L178.919 54.8266ZM188.355 57.7513L188.428 55.6642L192.228 55.7968L192.596 45.2515L188.948 45.7841L189.014 43.8948L193.593 42.5367L195.021 42.5866L194.557 55.8781L198.643 56.0206L198.571 58.1077L188.355 57.7513ZM201.967 58.2262L202.04 56.1391L205.841 56.2717L206.209 45.7264L202.561 46.259L202.627 44.3696L207.205 43.0116L208.633 43.0614L208.17 56.3529L212.256 56.4955L212.183 58.5826L201.967 58.2262Z" fill="white"/>
</g>
<defs>
<filter id="filter0_i_239_3276" x="62.7422" y="19.3057" width="173.949" height="61.9323" filterUnits="userSpaceOnUse" color-interpolation-filters="sRGB">
<feFlood flood-opacity="0" result="BackgroundImageFix"/>
<feBlend mode="normal" in="SourceGraphic" in2="BackgroundImageFix" result="shape"/>
<feColorMatrix in="SourceAlpha" type="matrix" values="0 0 0 0 0 0 0 0 0 0 0 0 0 0 0 0 0 0 127 0" result="hardAlpha"/>
<feOffset dy="3.66379"/>
<feGaussianBlur stdDeviation="1.8319"/>
<feComposite in2="hardAlpha" operator="arithmetic" k2="-1" k3="1"/>
<feColorMatrix type="matrix" values="0 0 0 0 0 0 0 0 0 0 0 0 0 0 0 0 0 0 0.25 0"/>
<feBlend mode="normal" in2="shape" result="effect1_innerShadow_239_3276"/>
</filter>
<radialGradient id="paint0_radial_239_3276" cx="0" cy="0" r="1" gradientUnits="userSpaceOnUse" gradientTransform="translate(256.466 303.179) rotate(90) scale(24.7306 23.3567)">
<stop stop-color="#212243"/>
<stop offset="1" stop-color="#212243" stop-opacity="0.58"/>
</radialGradient>
<radialGradient id="paint1_radial_239_3276" cx="0" cy="0" r="1" gradientUnits="userSpaceOnUse" gradientTransform="translate(204.259 242.269) rotate(90) scale(24.7306 23.3567)">
<stop stop-color="#212243"/>
<stop offset="1" stop-color="#212243" stop-opacity="0.58"/>
</radialGradient>
<radialGradient id="paint2_radial_239_3276" cx="0" cy="0" r="1" gradientUnits="userSpaceOnUse" gradientTransform="translate(141.974 121.363) rotate(90) scale(24.7306 23.3567)">
<stop stop-color="#212243"/>
<stop offset="1" stop-color="#212243" stop-opacity="0.58"/>
</radialGradient>
<radialGradient id="paint3_radial_239_3276" cx="0" cy="0" r="1" gradientUnits="userSpaceOnUse" gradientTransform="translate(105.793 276.617) rotate(90) scale(59.0787 24.7306)">
<stop stop-color="#212243"/>
<stop offset="1" stop-color="#212243" stop-opacity="0.58"/>
</radialGradient>
</defs>
</svg>
