<svg width="500" height="500" viewBox="0 0 500 500" fill="none" xmlns="http://www.w3.org/2000/svg">
<path d="M156.342 461.503L41.9594 284.694L340.621 164.364L464.358 311.696L462.41 324.736C457.659 328.72 374.82 361.901 343.087 373.451C338.509 389.915 313.083 398.464 296.506 393.576L156.342 461.503Z" fill="#663F1A"/>
<path d="M158.717 448.66L41.6469 273.182L337.933 154.068L464.784 311.894C460.033 315.878 377.194 349.059 345.461 360.608C340.884 377.072 315.457 385.622 298.881 380.733L158.717 448.66Z" fill="#CEA47D"/>
<path d="M198.082 429.047L167.871 423.484L337.93 154.069L464.781 311.894C460.031 315.878 377.191 349.059 345.458 360.609C340.881 377.072 315.455 385.622 298.878 380.734L198.082 429.047Z" fill="#B6865A"/>
<path d="M171.712 395.309L71.5089 246.811L64.5867 273.288L168.213 424.417L171.712 395.309Z" fill="#D1E2E8"/>
<path d="M168.298 423.681L171.654 389.341L259.853 309.323L430.294 280.054L432.764 309.103C419.531 326.955 379.62 326.684 366.865 331.326C329.518 344.919 331.287 350.383 335.334 357.952L306.712 368.37C294.556 361.755 266.376 367.901 244.007 384.851C215.868 406.173 183.638 421.621 168.298 423.681Z" fill="#C3C9DD"/>
<path d="M309.215 344.274C306.632 332.531 237.982 247.945 206.158 206.327C194.418 202.144 163.867 195.646 135.56 217.576C121.138 228.748 88.1957 244.26 71.5079 246.811L169.838 395.003C175.948 396.302 195.996 392.529 227.307 367.04C258.617 341.551 296.41 340.714 309.215 344.274Z" fill="#FBF2DF"/>
<path d="M310.061 344.76C299.686 338.682 237.537 250.951 207.759 207.845C207.4 195.387 218.764 183.271 233.837 172.997C244.82 165.511 310.892 157.283 318.464 142.194L430.199 279.804C429.552 286.017 402.939 301.705 366.347 307.976C326.554 314.797 310.622 331.481 310.061 344.76Z" fill="#FBF2DF"/>
<path d="M310.041 344.609L305.713 343.365L201.383 204.825C201.88 204.643 205.249 205.766 206.871 206.35C206.666 205.015 207.595 202.211 208.085 200.976C242.551 247.269 311.38 339.964 310.973 340.394C310.566 340.824 310.182 343.383 310.041 344.609Z" fill="#DECCC1"/>
<path d="M41.6469 284.808L41.6435 273.182L158.514 445.21L156.341 461.503L41.6469 284.808Z" fill="#B1825F"/>
<path d="M315 273.989L315.331 261.077L322.945 262.401C320.849 266.154 316.007 273.989 315.662 274.32C315.49 274.485 315.014 274.651 315 273.989Z" fill="black"/>
<path d="M322.958 262.405L315.344 261.08C316.999 237.901 351.086 88.9171 368.633 55.4808C369.421 53.9791 371.502 53.7145 372.275 53.8249C372.275 53.8249 379.492 56.5382 383.2 56.803C380.883 95.5365 333.222 243.53 322.958 262.405Z" fill="#8178DF"/>
<mask id="mask0_239_2954" style="mask-type:alpha" maskUnits="userSpaceOnUse" x="315" y="53" width="69" height="210">
<path d="M322.958 262.403L315.344 261.078C316.999 237.9 351.086 88.9151 368.633 55.4789C369.421 53.9772 371.502 53.7126 372.275 53.8229C372.275 53.8229 379.492 56.5362 383.2 56.8011C380.883 95.5346 333.222 243.528 322.958 262.403Z" fill="#833636"/>
</mask>
<g mask="url(#mask0_239_2954)">
<rect x="346.762" y="114.752" width="26.5831" height="9.46829" transform="rotate(17.0113 346.762 114.752)" fill="black"/>
</g>
<path d="M382.555 64.4179L366.332 60.1139C366.773 58.6792 367.921 55.4788 368.981 54.1545C370.04 52.8302 371.85 52.7198 372.622 52.8302L380.899 55.1477C384.607 55.4126 383.548 61.4382 382.555 64.4179Z" fill="black"/>
<path d="M375.087 47.2728C375.289 46.5698 376.023 46.1638 376.726 46.3658L381.817 47.8291C382.52 48.0312 382.926 48.7648 382.724 49.4677L380.906 55.7934L373.269 53.5985L375.087 47.2728Z" fill="black"/>
<path d="M364.044 115.721C367.667 110.428 374.465 82.8943 380.642 62.3682C381.059 60.9825 380.24 59.5283 378.838 59.1716C377.508 58.8335 376.154 59.6084 375.785 60.93C373.059 70.7063 362.848 107.791 362.716 115.307C362.7 116.232 363.521 116.485 364.044 115.721Z" fill="#2B2B2B"/>
<path d="M210.25 262.785C210.25 259.638 207.304 257.536 205.257 255.469C200.38 250.544 195.572 245.68 189.505 242.213C185.351 239.84 175.998 237.619 171.558 240.061C167.839 242.107 167.816 249.173 167.685 252.715C167.46 258.79 169.08 264.533 169.191 270.532C169.215 271.834 169.81 274.773 168.244 275.353C164.796 276.63 160.82 275.723 157.227 276.342C155.295 276.676 152.027 276.658 151.029 278.796C148.999 283.145 150.599 291.256 150.599 295.925C150.599 309.826 149.687 321.455 166.049 324.287C171.846 325.29 178.11 324.884 183.824 323.598C187.599 322.749 193.033 320.063 196.908 321.231C207.167 324.325 202.879 339.455 209.905 345.204C214.216 348.731 219.802 342.74 220.622 339.006C223.216 327.189 219.801 312.656 213.348 302.467C207.525 293.272 223.008 289.555 226.69 282.927C229.764 277.394 227.654 270.928 221.87 268.036C218.281 266.241 211.361 265.008 209.475 261.236" stroke="#241E64" stroke-opacity="0.49" stroke-width="3" stroke-linecap="round"/>
<path d="M307.494 228.889C307.494 217.938 298.634 201 286.405 201C278.333 201 271.084 205.889 271.084 214.557C271.084 218.384 270.457 222.432 272.633 225.79C275.617 230.394 280.009 233.155 284.081 236.636C290.367 242.009 298.715 249.501 293.076 258.327C289.949 263.221 281.983 268.883 283.651 275.37C285.807 283.755 298.112 284.988 305.041 284.623C309.466 284.39 312.023 281.822 313.347 277.694C313.954 275.802 313.264 273.26 315.241 272.271" stroke="#241E64" stroke-opacity="0.49" stroke-width="3" stroke-linecap="round"/>
</svg>
