<svg width="476" height="432" viewBox="0 0 476 432" fill="none" xmlns="http://www.w3.org/2000/svg">
<path d="M143.342 415.503L28.9594 238.694L327.621 118.364L451.358 265.696L449.41 278.736C444.659 282.72 361.82 315.901 330.087 327.451C325.509 343.915 300.083 352.464 283.506 347.576L143.342 415.503Z" fill="#663F1A"/>
<path d="M145.717 402.66L28.6469 227.182L324.933 108.068L451.784 265.894C447.033 269.878 364.194 303.059 332.461 314.608C327.884 331.072 302.457 339.622 285.881 334.733L145.717 402.66Z" fill="#CEA47D"/>
<path d="M185.082 383.047L154.871 377.484L324.93 108.069L451.781 265.894C447.031 269.878 364.191 303.059 332.458 314.609C327.881 331.072 302.455 339.622 285.878 334.734L185.082 383.047Z" fill="#B6865A"/>
<path d="M158.712 349.309L58.5089 200.811L51.5867 227.288L155.213 378.417L158.712 349.309Z" fill="#D1E2E8"/>
<path d="M155.298 377.681L158.654 343.341L246.853 263.323L417.294 234.054L419.764 263.103C406.531 280.955 366.62 280.684 353.865 285.326C316.518 298.919 318.287 304.383 322.334 311.952L293.712 322.37C281.556 315.755 253.376 321.901 231.007 338.851C202.868 360.173 170.638 375.621 155.298 377.681Z" fill="#C3C9DD"/>
<path d="M296.215 298.274C293.632 286.531 224.982 201.945 193.158 160.327C181.418 156.144 150.867 149.646 122.56 171.576C108.138 182.748 75.1957 198.26 58.5079 200.811L156.838 349.003C162.948 350.302 182.996 346.529 214.307 321.04C245.617 295.551 283.41 294.714 296.215 298.274Z" fill="#FBF2DF"/>
<path d="M297.061 298.76C286.686 292.682 224.537 204.951 194.759 161.845C194.4 149.387 205.764 137.271 220.837 126.997C231.82 119.511 297.892 111.283 305.464 96.1943L417.199 233.804C416.552 240.017 389.939 255.705 353.347 261.976C313.554 268.797 297.622 285.481 297.061 298.76Z" fill="#FBF2DF"/>
<path d="M297.041 298.609L292.713 297.365L188.383 158.825C188.88 158.643 192.249 159.766 193.871 160.35C193.666 159.015 194.595 156.211 195.085 154.976C229.551 201.269 298.38 293.964 297.973 294.394C297.566 294.824 297.182 297.383 297.041 298.609Z" fill="#DECCC1"/>
<path d="M28.6469 238.808L28.6435 227.182L145.514 399.21L143.341 415.503L28.6469 238.808Z" fill="#B1825F"/>
<path d="M302 227.989L302.331 215.077L309.945 216.401C307.849 220.154 303.007 227.989 302.662 228.32C302.49 228.485 302.014 228.651 302 227.989Z" fill="black"/>
<path d="M309.958 216.405L302.344 215.08C303.999 191.901 338.086 42.9171 355.633 9.48083C356.421 7.97912 358.502 7.71452 359.275 7.82487C359.275 7.82487 366.492 10.5382 370.2 10.803C367.883 49.5365 320.222 197.53 309.958 216.405Z" fill="#8178DF"/>
<mask id="mask0_250_401" style="mask-type:alpha" maskUnits="userSpaceOnUse" x="302" y="7" width="69" height="210">
<path d="M309.958 216.403L302.344 215.078C303.999 191.9 338.086 42.9151 355.633 9.47887C356.421 7.97717 358.502 7.71256 359.275 7.82292C359.275 7.82292 366.492 10.5362 370.2 10.8011C367.883 49.5346 320.222 197.528 309.958 216.403Z" fill="#833636"/>
</mask>
<g mask="url(#mask0_250_401)">
<rect x="333.762" y="68.752" width="26.5831" height="9.46829" transform="rotate(17.0113 333.762 68.752)" fill="black"/>
</g>
<path d="M369.555 18.4179L353.332 14.1139C353.773 12.6792 354.921 9.47881 355.981 8.15451C357.04 6.8302 358.85 6.71984 359.622 6.8302L367.899 9.14773C371.607 9.41259 370.548 15.4382 369.555 18.4179Z" fill="black"/>
<path d="M362.087 1.27277C362.289 0.56984 363.023 0.163786 363.726 0.365827L368.817 1.82913C369.52 2.03117 369.926 2.7648 369.724 3.46773L367.906 9.79344L360.269 7.59848L362.087 1.27277Z" fill="black"/>
<path d="M351.044 69.7208C354.667 64.4279 361.465 36.8943 367.642 16.3682C368.059 14.9825 367.24 13.5283 365.838 13.1716C364.508 12.8335 363.154 13.6084 362.785 14.93C360.059 24.7063 349.848 61.7908 349.716 69.3066C349.7 70.2323 350.521 70.4848 351.044 69.7208Z" fill="#2B2B2B"/>
<path d="M197.25 216.785C197.25 213.638 194.304 211.536 192.257 209.469C187.38 204.544 182.572 199.68 176.505 196.213C172.351 193.84 162.998 191.619 158.558 194.061C154.839 196.107 154.816 203.173 154.685 206.715C154.46 212.79 156.08 218.533 156.191 224.532C156.215 225.834 156.81 228.773 155.244 229.353C151.796 230.63 147.82 229.723 144.227 230.342C142.295 230.676 139.027 230.658 138.029 232.796C135.999 237.145 137.599 245.256 137.599 249.925C137.599 263.826 136.687 275.455 153.049 278.287C158.846 279.29 165.11 278.884 170.824 277.598C174.599 276.749 180.033 274.063 183.908 275.231C194.167 278.325 189.879 293.455 196.905 299.204C201.216 302.731 206.802 296.74 207.622 293.006C210.216 281.189 206.801 266.656 200.348 256.467C194.525 247.272 210.008 243.555 213.69 236.927C216.764 231.394 214.654 224.928 208.87 222.036C205.281 220.241 198.361 219.008 196.475 215.236" stroke="#241E64" stroke-opacity="0.49" stroke-width="3" stroke-linecap="round"/>
<path d="M294.494 182.889C294.494 171.938 285.634 155 273.405 155C265.333 155 258.084 159.889 258.084 168.557C258.084 172.384 257.457 176.432 259.633 179.79C262.617 184.394 267.009 187.155 271.081 190.636C277.367 196.009 285.715 203.501 280.076 212.327C276.949 217.221 268.983 222.883 270.651 229.37C272.807 237.755 285.112 238.988 292.041 238.623C296.466 238.39 299.023 235.822 300.347 231.694C300.954 229.802 300.264 227.26 302.241 226.271" stroke="#241E64" stroke-opacity="0.49" stroke-width="3" stroke-linecap="round"/>
</svg>
