<svg width="500" height="500" viewBox="0 0 500 500" fill="none" xmlns="http://www.w3.org/2000/svg">
<rect width="178.45" height="348.07" rx="34.6388" transform="matrix(0.85603 0.516925 0.01958 -0.999808 179.426 374.004)" fill="#D16224"/>
<path d="M176.109 49.5839L195.271 41.1084V73.9047L176.109 49.5839Z" fill="#D16224"/>
<path d="M322.402 451.246L303.24 459.722V426.925L322.402 451.246Z" fill="#D16224"/>
<rect width="178.45" height="348.07" rx="34.6388" transform="matrix(0.85603 0.516925 0.01958 -0.999808 161 382.11)" fill="#E3D5AF"/>
<rect width="66.7362" height="8.68851" rx="4.34426" transform="matrix(0.85603 0.516925 0.01958 -0.999808 211.93 91.4355)" fill="#04052E"/>
<rect x="0.645321" y="-0.355883" width="43.2723" height="23.25" rx="5.51357" transform="matrix(0.85603 0.516925 0.01958 -0.999808 211.951 387.955)" stroke="#04052E" stroke-width="1.47399"/>
<mask id="mask0_239_3002" style="mask-type:alpha" maskUnits="userSpaceOnUse" x="175" y="87" width="129" height="309">
<rect width="145.325" height="233.042" transform="matrix(0.85603 0.516925 0.01958 -0.999808 175.004 320.168)" fill="#04052E"/>
</mask>
<g mask="url(#mask0_239_3002)">
<rect width="145.325" height="233.042" transform="matrix(0.85603 0.516925 0.01958 -0.999808 175.004 320.168)" fill="#7F82DC"/>
<path d="M234.411 264.49C253.309 275.401 268.615 263.88 268.614 238.743C268.613 213.607 253.306 184.41 234.408 173.498C215.51 162.587 200.205 174.108 200.206 199.245C200.206 224.381 215.513 253.578 234.411 264.49ZM238 275C215.169 261.817 166.004 262.98 166.005 293.235L166.006 315.983L302.822 394.979L302.821 372.232C302.821 320 260.831 288.183 238 275Z" fill="#171547"/>
<circle cx="2" cy="2" r="2" transform="matrix(0.866009 0.500028 3.18617e-05 1 214 216)" fill="white"/>
<circle cx="2" cy="2" r="2" transform="matrix(0.866009 0.500028 3.18617e-05 1 251.234 237.5)" fill="white"/>
<path d="M220.926 228.998C220.926 228.998 229.37 235.873 234.781 238.998C240.191 242.122 248.635 244.997 248.635 244.997" stroke="white" stroke-width="2" stroke-linecap="round"/>
<path d="M244.741 251.749C248.89 255.127 249.632 248.949 248.624 244.991L240.844 241.42C240.988 243.754 240.592 248.371 244.741 251.749Z" fill="white"/>
<rect width="170.316" height="31.7045" transform="matrix(0.394857 0.918743 0.598166 -0.801373 241 121.407)" fill="#E3E4FF" fill-opacity="0.4"/>
<rect width="301.609" height="31.7045" transform="matrix(0.394857 0.918743 0.598166 -0.801373 178.703 73.127)" fill="#E3E4FF" fill-opacity="0.4"/>
</g>
</svg>
