<svg width="500" height="500" viewBox="0 0 500 500" fill="none" xmlns="http://www.w3.org/2000/svg">
<path d="M70.7891 231.772C82.2218 228.053 105.623 233.302 115.895 236.391C125.287 238.652 152.781 248.274 173.451 256.486C194.121 264.697 193.62 269.66 201.261 277.277C218.823 294.782 202.427 302.786 197.346 303.14C192.88 303.452 179.099 299.903 171.437 300.37C158.926 300.824 129.562 299.995 112.194 293.041C90.4848 284.348 66.0974 281.02 42.7819 269.399C19.4664 257.777 31.3303 249.772 33.1707 242.127C35.0111 234.482 56.4981 236.42 70.7891 231.772Z" fill="#986330"/>
<mask id="mask0_265_659" style="mask-type:alpha" maskUnits="userSpaceOnUse" x="28" y="230" width="182" height="74">
<path d="M70.7891 231.773C82.2218 228.054 105.623 233.303 115.895 236.392C125.287 238.653 152.781 248.275 173.451 256.487C194.121 264.698 193.62 269.661 201.261 277.278C218.823 294.783 202.427 302.787 197.346 303.141C192.88 303.453 179.099 299.904 171.437 300.371C158.926 300.825 129.562 299.996 112.194 293.042C90.4848 284.349 66.0974 281.021 42.7819 269.4C19.4664 257.778 31.3303 249.773 33.1707 242.128C35.0111 234.483 56.4981 236.421 70.7891 231.773Z" fill="#8B5B2E"/>
</mask>
<g mask="url(#mask0_265_659)">
<path d="M68.3516 225.616C79.7843 221.898 103.186 227.146 113.457 230.235C122.85 232.497 150.344 242.119 171.014 250.33C191.684 258.541 191.182 263.505 198.823 271.121C216.385 288.627 199.989 296.631 194.908 296.985C190.442 297.297 176.661 293.748 169 294.215C156.489 294.669 127.124 293.84 109.757 286.886C88.0473 278.193 63.6599 274.864 40.3444 263.243C17.0289 251.622 28.8928 243.617 30.7332 235.972C32.5736 228.327 54.0606 230.264 68.3516 225.616Z" fill="#D6AA80"/>
</g>
<path d="M87.5604 236.391C77.9374 227.203 93.7482 226.619 102.856 227.476C109.072 228.972 110.972 233.756 111.145 235.961C107.293 239.933 97.1834 245.58 87.5604 236.391Z" fill="#70320E"/>
<path d="M53.5796 245.656C51.583 241.663 57.3347 240.937 60.4601 241.073C62.6442 241.598 67.7722 243.526 70.8108 247.031C73.8494 250.535 68.6252 252.59 65.6333 253.179C62.4473 252.335 55.5763 249.649 53.5796 245.656Z" fill="#70320E"/>
<path d="M84.2767 260.209C81.7971 261.23 77.7675 263.634 81.4857 265.083C86.1334 266.896 92.2616 263.518 84.2767 260.209Z" fill="#70320E"/>
<path d="M114.752 268.007C112.448 263.755 119.101 262.738 122.716 262.761C124.828 263.269 129.671 265.359 132.15 269.653C134.629 273.948 128.596 274.498 125.27 274.236C122.724 273.932 117.056 272.259 114.752 268.007Z" fill="#70320E"/>
<path d="M146.44 252.527C142.039 247.77 150.938 243.442 156.617 244.809C166.506 249.038 165.457 254.486 163.696 256.681C159.777 257.278 150.841 257.284 146.44 252.527Z" fill="#70320E"/>
<path d="M171.49 275.195C167.572 270.739 170.095 267.233 171.846 266.037C188.378 268.399 189.62 279.559 187.958 282.625C186.295 285.691 176.389 280.765 171.49 275.195Z" fill="#70320E"/>
<path d="M158.45 279.45C157.028 280.879 155.132 283.828 158.928 284.187C161.9 283.362 165.965 281.259 158.45 279.45Z" fill="#70320E"/>
<path d="M129.578 249.622C127.185 248.045 122.953 246.04 125.173 250.642C127.948 256.394 133.31 251.399 129.578 249.622Z" fill="#70320E"/>
<path d="M125.418 241.71C119.444 236.574 127.929 238 132.918 239.356C137.321 240.264 139.655 243.687 140.271 245.285C137.809 246.233 131.392 246.845 125.418 241.71Z" fill="#70320E"/>
<path d="M58.2411 230.138C60.9205 227.456 65.7351 231.326 67.8076 233.597C70.7283 236.055 62.5742 236.457 58.132 236.351C57.0519 235.398 55.5617 232.821 58.2411 230.138Z" fill="#70320E"/>
<path d="M141.636 379.81C150.266 371.439 173.589 365.852 184.171 364.105C193.6 362.002 222.523 358.542 244.698 356.817C266.872 355.093 268.606 359.77 278.82 363.247C302.293 371.236 291.094 385.639 286.687 388.194C282.814 390.439 268.878 393.318 262.204 397.109C251.17 403.024 224.437 415.203 205.782 416.602C182.462 418.352 159.098 426.096 133.048 425.923C106.997 425.749 114.127 413.34 112.415 405.665C110.703 397.99 130.85 390.273 141.636 379.81Z" fill="#986330"/>
<mask id="mask1_265_659" style="mask-type:alpha" maskUnits="userSpaceOnUse" x="112" y="356" width="182" height="70">
<path d="M141.636 379.81C150.266 371.439 173.589 365.852 184.171 364.105C193.6 362.002 222.523 358.542 244.698 356.817C266.872 355.093 268.606 359.77 278.82 363.247C302.293 371.236 291.094 385.639 286.687 388.194C282.814 390.439 268.878 393.318 262.204 397.109C251.17 403.024 224.437 415.203 205.782 416.602C182.462 418.352 159.098 426.096 133.048 425.923C106.997 425.749 114.127 413.34 112.415 405.665C110.703 397.99 130.85 390.273 141.636 379.81Z" fill="#8B5B2E"/>
</mask>
<g mask="url(#mask1_265_659)">
<path d="M136.738 375.357C145.367 366.986 168.69 361.399 179.273 359.652C188.702 357.549 217.625 354.088 239.799 352.364C261.974 350.64 263.708 355.317 273.921 358.794C297.395 366.783 286.195 381.186 281.789 383.741C277.916 385.986 263.979 388.865 257.305 392.656C246.271 398.57 219.539 410.749 200.883 412.149C177.563 413.899 154.2 421.643 128.15 421.47C102.099 421.296 109.229 408.887 107.517 401.212C105.804 393.537 125.951 385.82 136.738 375.357Z" fill="#D6AA80"/>
</g>
<path d="M158.727 376.576C146.042 372.561 159.982 365.078 168.538 361.838C174.777 360.446 178.589 363.906 179.715 365.809C178.004 371.071 171.411 380.591 158.727 376.576Z" fill="#70320E"/>
<path d="M132.296 399.849C128.746 397.142 133.591 393.958 136.457 392.705C138.65 392.216 144.103 391.69 148.374 393.499C152.645 395.309 148.858 399.453 146.431 401.299C143.198 401.943 135.846 402.555 132.296 399.849Z" fill="#70320E"/>
<path d="M166.265 399.406C164.488 401.414 161.928 405.346 165.904 405.011C170.875 404.593 174.891 398.863 166.265 399.406Z" fill="#70320E"/>
<path d="M197.062 392.997C193.122 390.193 198.649 386.351 201.905 384.78C204.025 384.307 209.293 384.053 213.409 386.817C217.525 389.582 212.35 392.732 209.248 393.961C206.828 394.808 201.002 395.801 197.062 392.997Z" fill="#70320E"/>
<path d="M218.702 365.149C212.656 362.815 218.743 355.011 224.443 353.74C235.185 353.185 236.64 358.538 236.025 361.284C232.769 363.545 224.747 367.483 218.702 365.149Z" fill="#70320E"/>
<path d="M251.17 374.48C245.69 372.204 246.412 367.945 247.459 366.101C263.343 360.946 269.37 370.42 269.227 373.905C269.083 377.39 258.02 377.326 251.17 374.48Z" fill="#70320E"/>
<path d="M241.333 384.04C240.685 385.95 240.28 389.432 243.846 388.083C246.152 386.035 248.877 382.357 241.333 384.04Z" fill="#70320E"/>
<path d="M202.283 369.964C199.439 369.601 194.757 369.663 198.776 372.818C203.799 376.762 206.416 369.917 202.283 369.964Z" fill="#70320E"/>
<path d="M195.061 364.689C187.437 362.707 195.683 360.253 200.759 359.274C205.113 358.151 208.715 360.198 209.972 361.362C208.179 363.297 202.686 366.671 195.061 364.689Z" fill="#70320E"/>
<path d="M129.647 383.865C130.872 380.277 136.899 381.633 139.759 382.76C143.463 383.681 136.319 387.632 132.283 389.492C130.894 389.111 128.421 387.453 129.647 383.865Z" fill="#70320E"/>
<path d="M219.851 171.819V166.876L214.684 167.55L219.851 171.819Z" fill="#986330"/>
<path d="M228.39 159.911V156.092L222.773 156.582L228.39 159.911Z" fill="#986330"/>
<path d="M237.376 153.395V150.291L231.535 149.801L237.376 153.395Z" fill="#986330"/>
<path d="M243.443 142.387V140.365L237.152 139.691L243.443 142.387Z" fill="#986330"/>
<path d="M105.953 128.682C116.198 122.392 140.177 122.017 150.886 122.616C160.547 122.616 189.529 125.537 211.546 128.682C233.563 131.827 234.237 136.77 243.448 142.387C239.851 142.911 233.601 145.847 237.375 153.395C232.433 152.946 223.716 153.62 228.389 159.911C222.103 160.734 211.596 164.269 219.858 171.818C207.801 175.188 179.059 181.254 160.547 178.558C137.406 175.188 112.918 177.659 87.5308 171.818C62.1437 165.977 71.8042 155.417 71.8042 147.554C71.8042 139.691 93.1474 136.545 105.953 128.682Z" fill="#986330"/>
<path d="M105.952 128.044C116.196 122.372 140.174 122.035 150.883 122.575C160.543 122.575 189.524 125.208 211.54 128.044C233.556 130.879 234.23 135.335 243.441 140.399C239.844 140.872 233.594 143.518 237.369 150.324C232.426 149.919 223.709 150.527 228.382 156.198C222.097 156.941 211.591 160.127 219.852 166.933C207.796 169.971 179.055 175.44 160.543 173.009C137.404 169.971 112.916 172.199 87.5301 166.933C62.144 161.667 71.8042 152.147 71.8042 145.058C71.8042 137.968 93.1465 135.133 105.952 128.044Z" fill="#D6AA80"/>
<path d="M123.338 129.248C111.833 122.567 127.067 118.299 136.123 117C142.516 117 145.482 121.206 146.167 123.309C143.351 128.072 134.844 135.928 123.338 129.248Z" fill="#70320E"/>
<path d="M92.4751 146.207C89.5994 142.792 95.0213 140.74 98.0917 140.141C100.338 140.141 105.775 140.815 109.549 143.511C113.323 146.207 108.725 149.427 105.954 150.7C102.66 150.625 95.3508 149.621 92.4751 146.207Z" fill="#70320E"/>
<path d="M125.725 153.171C123.553 154.744 120.198 158.024 124.152 158.563C129.095 159.237 134.262 154.519 125.725 153.171Z" fill="#70320E"/>
<path d="M157.176 153.62C153.941 150.025 160.172 147.479 163.692 146.655C165.864 146.655 171.062 147.554 174.477 151.149C177.891 154.743 172.155 156.69 168.86 157.215C166.313 157.514 160.412 157.215 157.176 153.62Z" fill="#70320E"/>
<path d="M184.363 131.154C178.971 127.559 186.61 121.269 192.451 121.269C203.055 123.066 203.31 128.608 202.111 131.154C198.442 132.652 189.755 134.748 184.363 131.154Z" fill="#70320E"/>
<path d="M214.018 147.33C209.165 143.915 210.798 139.916 212.221 138.343C228.846 136.771 232.665 147.33 231.767 150.7C230.868 154.07 220.084 151.598 214.018 147.33Z" fill="#70320E"/>
<path d="M202.334 154.519C201.286 156.241 200.133 159.551 203.907 159.012C206.603 157.514 210.063 154.519 202.334 154.519Z" fill="#70320E"/>
<path d="M236.362 166.876C235.788 167.726 235.158 169.36 237.221 169.094C238.696 168.354 240.588 166.876 236.362 166.876Z" fill="#986330"/>
<path d="M245.208 153.7C246.041 154.298 247.655 154.976 247.45 152.906C246.754 151.41 245.332 149.476 245.208 153.7Z" fill="#986330"/>
<path d="M240.313 160.023C241.146 160.621 242.761 161.3 242.555 159.229C241.86 157.734 240.437 155.799 240.313 160.023Z" fill="#986330"/>
<path d="M225.485 166.313C226.318 166.911 227.933 167.59 227.727 165.519C227.032 164.024 225.609 162.089 225.485 166.313Z" fill="#986330"/>
<path d="M167.286 132.277C164.59 131.304 160.006 130.345 163.242 134.299C167.286 139.242 171.33 133.131 167.286 132.277Z" fill="#70320E"/>
<path d="M161.392 125.558C154.382 121.963 162.965 121.364 168.132 121.514C172.626 121.366 175.695 124.148 176.669 125.558C174.497 127.056 168.402 129.152 161.392 125.558Z" fill="#70320E"/>
<path d="M93.3721 130.031C95.3492 126.795 100.936 129.431 103.482 131.154C106.897 132.86 99.0636 135.16 94.7201 136.096C93.447 135.422 91.3951 133.266 93.3721 130.031Z" fill="#70320E"/>
<path d="M313.082 345.873L269.497 281.589L408.633 140.822L449.63 206.287L313.082 345.873Z" fill="#79442D"/>
<mask id="mask2_265_659" style="mask-type:alpha" maskUnits="userSpaceOnUse" x="269" y="140" width="181" height="206">
<path d="M313.078 345.87L269.493 281.586L408.629 140.819L449.626 206.284L313.078 345.87Z" fill="#925A5A"/>
</mask>
<g mask="url(#mask2_265_659)">
<rect x="274.828" y="304.815" width="209.993" height="12.9877" transform="rotate(-45.5796 274.828 304.815)" fill="#F5C699"/>
<rect x="288.34" y="323.836" width="209.993" height="12.9877" transform="rotate(-45.5796 288.34 323.836)" fill="#F5C699"/>
</g>
<path d="M328.147 154.651C311.37 149.349 310.265 162.288 311.81 169.421L408.753 140.264C400.6 122.172 394.304 130.889 392.176 137.509C383.236 128.33 375.251 135.454 372.376 140.163C363.978 130.638 354.287 140.766 350.491 147.021C339.558 139.503 331.039 148.975 328.147 154.651Z" fill="#705124"/>
<path d="M269.157 281.804C270.3 253.168 297.988 195.321 311.688 169.977C322.743 160.982 381.149 146.646 408.97 140.603C398.727 163.986 311.494 244.48 269.157 281.804Z" fill="#F5C699"/>
<rect x="313.184" y="174.545" width="12.0686" height="2.41371" rx="1.20686" transform="rotate(-32.6536 313.184 174.545)" fill="#311076"/>
<rect x="340.379" y="185.303" width="12.0686" height="2.41371" rx="1.20686" transform="rotate(-172.332 340.379 185.303)" fill="#311076"/>
<rect x="315.902" y="200.707" width="12.0686" height="2.41371" rx="1.20686" transform="rotate(-127.624 315.902 200.707)" fill="#311076"/>
<rect x="300.586" y="223.485" width="12.0686" height="2.41371" rx="1.20686" transform="rotate(-99.2532 300.586 223.485)" fill="#311076"/>
<rect x="290.18" y="236.224" width="12.0686" height="2.41371" rx="1.20686" transform="rotate(0.226909 290.18 236.224)" fill="#311076"/>
<rect x="282.031" y="257.867" width="12.0686" height="2.41371" rx="1.20686" transform="rotate(-51.2744 282.031 257.867)" fill="#311076"/>
<rect x="323.203" y="213.165" width="12.0686" height="2.41371" rx="1.20686" transform="rotate(126.124 323.203 213.165)" fill="#311076"/>
<rect x="333.328" y="205.985" width="12.0686" height="2.41371" rx="1.20686" transform="rotate(-66.7632 333.328 205.985)" fill="#311076"/>
<rect x="340.223" y="163.906" width="12.0686" height="2.41371" rx="1.20686" transform="rotate(21.604 340.223 163.906)" fill="#311076"/>
<rect x="370.027" y="165.827" width="12.0686" height="2.41371" rx="1.20686" transform="rotate(-26.2324 370.027 165.827)" fill="#311076"/>
<rect x="355.152" y="190.828" width="12.0686" height="2.41371" rx="1.20686" transform="rotate(-103.688 355.152 190.828)" fill="#311076"/>
</svg>
