<svg width="500" height="500" viewBox="0 0 500 500" fill="none" xmlns="http://www.w3.org/2000/svg">
<path d="M146.023 185.655L239.762 48L335.714 188.976" stroke="#FFC6B1" stroke-width="2.95238"/>
<path fill-rule="evenodd" clip-rule="evenodd" d="M241.976 179.012C238.655 179.381 231.348 178.347 228.69 171.262H219.464L208.024 179.012L203.595 171.262H196.952C192.278 174.952 179.533 180.119 165.952 171.262H158.571L155.25 175.321L145.655 171.262H132V186.393L141.964 200.416L132 207.059V213.702C137.905 220.591 146.171 239.462 132 259.833V266.476L140.488 270.166L132 283.083V293.416C136.798 295.631 145.95 302.274 144.179 311.131H153.774V190.821H241.976V190.821H330.179V311.131V431.44H241.976H153.774V311.131H144.179C145.95 319.988 136.798 326.631 132 328.845V339.179L140.488 352.095L132 355.786V362.429C146.171 382.8 137.905 401.671 132 408.56V415.202L141.964 421.845L132 435.869V451H145.655L155.25 446.94L158.571 451H165.952C179.533 442.143 192.278 447.31 196.952 451H203.595L208.024 443.25L219.464 451H228.69C231.348 443.914 238.655 442.881 241.976 443.25C245.298 442.881 252.605 443.914 255.262 451H264.488L275.929 443.25L280.357 451H287C291.675 447.31 304.419 442.143 318 451H325.381L328.702 446.94L338.298 451H351.952V435.869L341.988 421.845L351.952 415.202V408.56C346.048 401.671 337.781 382.8 351.952 362.429V355.786L343.464 352.095L351.952 339.179V328.845C347.155 326.631 338.002 319.988 339.774 311.131C338.002 302.274 347.155 295.631 351.952 293.417V283.083L343.464 270.167L351.952 266.476V259.833C337.781 239.462 346.048 220.591 351.952 213.702V207.06L341.988 200.417L351.952 186.393V171.262H338.298L328.702 175.321L325.381 171.262H318C304.419 180.119 291.675 174.952 287 171.262H280.357L275.929 179.012L264.488 171.262H255.262C252.605 178.348 245.298 179.381 241.976 179.012V179.012Z" fill="#543CB4"/>
<rect x="163.736" y="201.524" width="156.476" height="219.214" stroke="#ED835D" stroke-width="14.7619"/>
<rect x="171.117" y="208.904" width="141.714" height="204.452" fill="white"/>
<rect x="171.117" y="208.904" width="141.714" height="204.452" fill="url(#paint0_linear_273_2186)"/>
<path d="M184.471 241.264C184.753 240.438 185.221 239.774 185.875 239.271C186.53 238.768 187.43 238.516 188.578 238.516C189.393 238.516 190.12 238.659 190.759 238.946C191.404 239.233 191.909 239.628 192.277 240.131C192.649 240.635 192.835 241.213 192.835 241.868C192.835 242.668 192.589 243.335 192.095 243.868C191.602 244.396 190.822 244.786 189.755 245.038L187.823 245.491C186.676 245.758 186.102 246.301 186.102 247.121C186.102 247.62 186.346 248.047 186.834 248.405C187.327 248.757 187.989 248.933 188.819 248.933C189.549 248.933 190.14 248.777 190.593 248.465C191.046 248.153 191.351 247.685 191.507 247.061L193.198 247.484C192.991 248.47 192.501 249.22 191.726 249.733C190.956 250.247 189.977 250.503 188.789 250.503C187.893 250.503 187.103 250.352 186.419 250.05C185.739 249.748 185.209 249.336 184.826 248.812C184.449 248.289 184.26 247.695 184.26 247.031C184.26 246.221 184.514 245.559 185.022 245.046C185.536 244.527 186.308 244.142 187.34 243.891L189.061 243.468C189.75 243.297 190.254 243.083 190.571 242.826C190.893 242.57 191.054 242.22 191.054 241.777C191.054 241.279 190.817 240.869 190.344 240.547C189.876 240.219 189.287 240.056 188.578 240.056C187.803 240.056 187.229 240.232 186.857 240.584C186.489 240.937 186.228 241.314 186.072 241.717L184.471 241.264ZM196.365 238.667H198.146V251.107C198.146 251.822 198.023 252.441 197.776 252.964C197.535 253.488 197.167 253.893 196.674 254.179C196.186 254.466 195.57 254.61 194.825 254.61C194.764 254.61 194.704 254.61 194.644 254.61C194.583 254.61 194.523 254.61 194.463 254.61V252.949C194.523 252.949 194.578 252.949 194.629 252.949C194.679 252.949 194.734 252.949 194.795 252.949C195.338 252.949 195.736 252.788 195.987 252.466C196.239 252.149 196.365 251.696 196.365 251.107V238.667ZM201.774 238.667H203.555V247.393C203.555 247.937 203.696 248.284 203.978 248.435C204.265 248.586 204.567 248.661 204.884 248.661C205.035 248.661 205.199 248.644 205.375 248.609C205.556 248.573 205.684 248.541 205.76 248.51V250.201C205.609 250.247 205.41 250.292 205.163 250.337C204.917 250.388 204.612 250.413 204.25 250.413C203.54 250.413 202.949 250.189 202.476 249.741C202.008 249.293 201.774 248.51 201.774 247.393V238.667ZM217.085 250.262V251.5C217.085 252.104 217.246 252.516 217.568 252.738C217.89 252.959 218.293 253.07 218.776 253.07C218.882 253.07 218.985 253.062 219.085 253.047C219.186 253.037 219.274 253.025 219.35 253.009V254.519C219.214 254.564 219.053 254.59 218.867 254.595C218.685 254.605 218.504 254.61 218.323 254.61C217.9 254.61 217.505 254.542 217.138 254.406C216.776 254.27 216.456 254.069 216.179 253.802C215.902 253.535 215.686 253.208 215.53 252.821C215.379 252.438 215.304 251.998 215.304 251.5V250.262H217.085ZM209.687 243.287V250.262H207.906V238.667H209.627V240.479H209.778C210.05 239.89 210.462 239.417 211.016 239.059C211.57 238.697 212.284 238.516 213.16 238.516C213.945 238.516 214.632 238.677 215.221 238.999C215.809 239.316 216.267 239.799 216.594 240.448C216.922 241.093 217.085 241.908 217.085 242.894V250.262H215.304V243.015C215.304 242.104 215.067 241.395 214.594 240.886C214.121 240.373 213.472 240.116 212.646 240.116C212.078 240.116 211.57 240.24 211.122 240.486C210.679 240.733 210.329 241.093 210.072 241.566C209.816 242.039 209.687 242.612 209.687 243.287ZM225.725 238.667V240.177H219.716V238.667H225.725ZM221.468 235.889H223.249V251.379C223.249 251.882 223.322 252.257 223.468 252.504C223.619 252.755 223.81 252.921 224.042 253.002C224.278 253.087 224.527 253.13 224.789 253.13C224.985 253.13 225.146 253.118 225.272 253.092C225.398 253.072 225.499 253.055 225.574 253.04L225.936 254.64C225.816 254.685 225.647 254.731 225.431 254.776C225.214 254.826 224.94 254.851 224.608 254.851C224.105 254.851 223.611 254.743 223.128 254.527C222.65 254.31 222.253 253.981 221.936 253.538C221.624 253.095 221.468 252.536 221.468 251.862V235.889ZM229.806 238.667H231.587V251.107C231.587 251.822 231.464 252.441 231.217 252.964C230.976 253.488 230.608 253.893 230.115 254.179C229.627 254.466 229.011 254.61 228.266 254.61C228.205 254.61 228.145 254.61 228.085 254.61C228.024 254.61 227.964 254.61 227.903 254.61V252.949C227.964 252.949 228.019 252.949 228.069 252.949C228.12 252.949 228.175 252.949 228.236 252.949C228.779 252.949 229.177 252.788 229.428 252.466C229.68 252.149 229.806 251.696 229.806 251.107V238.667ZM236.757 234.802L240.712 243.408L239.263 244.011L234.673 234.802H236.757ZM239.686 243.408L243.641 234.802H245.724L241.135 244.011L239.686 243.408ZM241.135 242.139V250.262H239.263V242.139H241.135ZM244.517 242.562V243.921H235.881V242.562H244.517ZM244.517 245.551V246.91H235.881V245.551H244.517ZM251.243 238.697H249.16V237.172C249.16 236.674 249.245 236.234 249.416 235.851C249.587 235.469 249.819 235.147 250.111 234.885C250.408 234.623 250.75 234.427 251.137 234.296C251.525 234.16 251.933 234.092 252.36 234.092C252.511 234.092 252.682 234.108 252.874 234.138C253.065 234.163 253.236 234.198 253.387 234.243V235.632C253.296 235.602 253.196 235.58 253.085 235.564C252.979 235.549 252.889 235.542 252.813 235.542C252.491 235.542 252.212 235.595 251.975 235.7C251.744 235.801 251.563 235.972 251.432 236.214C251.306 236.45 251.243 236.77 251.243 237.172V238.697ZM253.296 239.029V240.569H247.137V239.029H253.296ZM249.16 238.395H251.243V247.152C251.243 247.771 251.364 248.188 251.605 248.405C251.847 248.616 252.119 248.722 252.421 248.722C252.587 248.722 252.755 248.707 252.926 248.676C253.103 248.641 253.236 248.616 253.327 248.601V250.262C253.176 250.307 252.972 250.352 252.715 250.398C252.458 250.448 252.149 250.473 251.787 250.473C251.314 250.473 250.878 250.362 250.481 250.141C250.083 249.92 249.764 249.565 249.522 249.077C249.28 248.588 249.16 247.947 249.16 247.152V238.395ZM256.962 241.384L255.663 240.086C256.011 239.678 256.423 239.316 256.901 238.999C257.384 238.677 257.928 238.516 258.532 238.516C259.06 238.516 259.533 238.654 259.951 238.931C260.369 239.203 260.761 239.585 261.129 240.079C261.496 240.572 261.863 241.148 262.231 241.807C262.598 242.466 262.996 243.181 263.423 243.951C263.63 244.313 263.851 244.734 264.088 245.212C264.329 245.685 264.536 246.175 264.707 246.684C264.878 247.187 264.963 247.665 264.963 248.118C264.963 248.827 264.717 249.399 264.224 249.831C263.735 250.259 263.046 250.473 262.155 250.473V248.752C262.427 248.752 262.616 248.676 262.721 248.526C262.827 248.375 262.88 248.214 262.88 248.042C262.88 247.796 262.804 247.476 262.653 247.084C262.508 246.686 262.268 246.168 261.936 245.529C261.609 244.885 261.174 244.072 260.63 243.09C260.293 242.482 260.004 241.991 259.762 241.618C259.526 241.246 259.289 240.974 259.053 240.803C258.816 240.627 258.532 240.539 258.2 240.539C257.958 240.539 257.737 240.62 257.535 240.781C257.334 240.942 257.143 241.143 256.962 241.384ZM268.677 240.086L267.379 241.384C267.198 241.143 267.001 240.942 266.79 240.781C266.584 240.62 266.367 240.539 266.141 240.539C265.894 240.539 265.67 240.599 265.469 240.72C265.268 240.836 265.054 241.04 264.827 241.332C264.606 241.618 264.344 242.019 264.042 242.532C263.74 243.045 263.363 243.699 262.91 244.495C262.618 245.008 262.362 245.488 262.14 245.936C261.919 246.379 261.745 246.779 261.619 247.137C261.493 247.494 261.431 247.796 261.431 248.042C261.431 248.214 261.483 248.375 261.589 248.526C261.695 248.676 261.883 248.752 262.155 248.752V250.473C261.28 250.473 260.593 250.259 260.094 249.831C259.596 249.399 259.347 248.827 259.347 248.118C259.347 247.665 259.435 247.187 259.611 246.684C259.787 246.18 259.994 245.692 260.23 245.219C260.472 244.746 260.691 244.333 260.887 243.981C261.31 243.201 261.707 242.482 262.08 241.822C262.452 241.158 262.825 240.579 263.197 240.086C263.569 239.588 263.967 239.203 264.39 238.931C264.817 238.654 265.295 238.516 265.824 238.516C266.428 238.516 266.966 238.677 267.439 238.999C267.917 239.316 268.33 239.678 268.677 240.086ZM272.124 250.262V234.802H273.996V248.601H281.182V250.262H272.124ZM269.738 242.985V241.596H276.381V242.985H269.738ZM287.737 238.818C288.804 238.818 289.725 239.052 290.5 239.52C291.28 239.983 291.879 240.622 292.296 241.437C292.719 242.248 292.93 243.176 292.93 244.223V244.676C292.93 245.904 292.694 246.95 292.221 247.816C291.748 248.676 291.136 249.336 290.386 249.794C289.637 250.247 288.844 250.473 288.009 250.473C286.902 250.473 286.003 250.229 285.314 249.741C284.629 249.248 284.126 248.581 283.804 247.74C283.487 246.895 283.328 245.944 283.328 244.887V244.223L291.149 242.713V244.434L285.412 245.521V245.823C285.412 246.296 285.492 246.762 285.653 247.22C285.82 247.678 286.091 248.058 286.469 248.359C286.851 248.661 287.364 248.812 288.009 248.812C288.426 248.812 288.806 248.724 289.148 248.548C289.496 248.367 289.795 248.103 290.047 247.756C290.303 247.403 290.5 246.97 290.636 246.457C290.776 245.939 290.847 245.345 290.847 244.676V244.223C290.847 243.538 290.721 242.914 290.47 242.351C290.223 241.782 289.861 241.329 289.383 240.992C288.909 240.65 288.331 240.479 287.646 240.479C286.967 240.479 286.391 240.622 285.918 240.909C285.45 241.191 285.05 241.551 284.717 241.988L283.449 241.022C283.701 240.65 284.015 240.295 284.393 239.958C284.775 239.621 285.238 239.346 285.782 239.135C286.33 238.924 286.982 238.818 287.737 238.818ZM291.964 244.283V242.562L294.712 242.049C294.802 242.643 294.903 243.163 295.014 243.611C295.13 244.059 295.291 244.409 295.497 244.661C295.708 244.912 296 245.038 296.373 245.038C296.554 245.038 296.69 245.038 296.78 245.038C296.871 245.033 296.946 245.023 297.007 245.008L297.278 246.276C297.082 246.367 296.871 246.445 296.644 246.51C296.423 246.575 296.191 246.608 295.95 246.608C295.376 246.608 294.921 246.487 294.584 246.246C294.246 246.004 293.987 245.685 293.806 245.287C293.625 244.89 293.484 244.454 293.383 243.981L291.964 244.283ZM306.945 248.631V250.262H301.027V248.631H306.945ZM301.51 239.029V250.262H299.427V239.029H301.51ZM189.695 276.503C188.578 276.503 187.614 276.257 186.804 275.764C185.999 275.265 185.377 274.571 184.939 273.68C184.507 272.784 184.29 271.743 184.29 270.555C184.29 269.367 184.507 268.321 184.939 267.415C185.377 266.504 185.986 265.794 186.766 265.286C187.551 264.773 188.467 264.516 189.514 264.516C190.118 264.516 190.714 264.617 191.303 264.818C191.892 265.019 192.428 265.346 192.911 265.799C193.394 266.247 193.779 266.841 194.066 267.581C194.353 268.321 194.496 269.231 194.496 270.313V271.068H185.558V269.528H192.684C192.684 268.874 192.553 268.29 192.292 267.777C192.035 267.264 191.668 266.859 191.19 266.562C190.717 266.265 190.158 266.116 189.514 266.116C188.804 266.116 188.19 266.292 187.672 266.645C187.159 266.992 186.764 267.445 186.487 268.003C186.21 268.562 186.072 269.161 186.072 269.8V270.827C186.072 271.702 186.223 272.445 186.525 273.054C186.832 273.657 187.257 274.118 187.8 274.435C188.344 274.747 188.975 274.903 189.695 274.903C190.163 274.903 190.586 274.838 190.963 274.707C191.346 274.571 191.675 274.37 191.952 274.103C192.229 273.831 192.443 273.494 192.594 273.091L194.315 273.574C194.134 274.158 193.829 274.671 193.401 275.114C192.974 275.552 192.445 275.894 191.816 276.141C191.187 276.382 190.48 276.503 189.695 276.503ZM188.668 276.201H190.148L190.027 276.805C190.42 276.866 190.779 277.029 191.107 277.296C191.434 277.568 191.597 277.998 191.597 278.587C191.597 279.236 191.328 279.764 190.79 280.172C190.256 280.585 189.469 280.791 188.427 280.791L188.366 279.613C188.834 279.613 189.222 279.538 189.529 279.387C189.841 279.241 189.997 278.994 189.997 278.647C189.997 278.3 189.869 278.063 189.612 277.938C189.355 277.812 188.94 277.726 188.366 277.681L188.668 276.201ZM200.741 280.61H198.96V267.717C198.96 267.324 198.872 267.017 198.695 266.796C198.524 266.569 198.298 266.411 198.016 266.32C197.739 266.224 197.44 266.177 197.118 266.177C197.027 266.177 196.932 266.184 196.831 266.199C196.73 266.209 196.635 266.222 196.544 266.237V264.667C196.68 264.622 196.846 264.586 197.042 264.561C197.244 264.531 197.42 264.516 197.571 264.516C197.993 264.516 198.393 264.584 198.771 264.72C199.153 264.851 199.493 265.047 199.79 265.309C200.087 265.57 200.318 265.892 200.484 266.275C200.656 266.657 200.741 267.098 200.741 267.596V280.61ZM214.937 269.921V270.434C214.937 271.612 214.766 272.656 214.424 273.567C214.086 274.473 213.588 275.185 212.929 275.703C212.275 276.216 211.475 276.473 210.529 276.473C209.844 276.473 209.245 276.347 208.732 276.096C208.219 275.844 207.786 275.482 207.434 275.009C207.086 274.531 206.81 273.952 206.603 273.272C206.397 272.593 206.256 271.828 206.18 270.978V270.042C206.281 268.894 206.498 267.908 206.83 267.083C207.167 266.257 207.64 265.623 208.249 265.18C208.863 264.737 209.633 264.516 210.559 264.516C211.485 264.516 212.272 264.75 212.921 265.218C213.576 265.681 214.074 266.32 214.416 267.135C214.763 267.946 214.937 268.874 214.937 269.921ZM212.854 270.434V269.921C212.854 269.236 212.758 268.612 212.567 268.049C212.38 267.48 212.079 267.027 211.661 266.69C211.248 266.348 210.7 266.177 210.015 266.177C209.351 266.177 208.815 266.358 208.407 266.72C208.005 267.083 207.685 267.553 207.449 268.132C207.217 268.711 207.026 269.327 206.875 269.981V270.796C206.986 271.481 207.159 272.13 207.396 272.744C207.632 273.353 207.959 273.851 208.377 274.239C208.795 274.621 209.331 274.812 209.985 274.812C210.679 274.812 211.236 274.611 211.653 274.208C212.076 273.806 212.38 273.272 212.567 272.608C212.758 271.944 212.854 271.219 212.854 270.434ZM207.177 276.262H205.426V267.837C205.426 267.218 205.348 266.818 205.192 266.637C205.036 266.451 204.852 266.358 204.641 266.358C204.58 266.358 204.522 266.363 204.467 266.373C204.412 266.383 204.369 266.388 204.339 266.388L204.097 264.878C204.308 264.727 204.522 264.629 204.739 264.584C204.955 264.539 205.184 264.516 205.426 264.516C206.075 264.516 206.583 264.773 206.95 265.286C207.323 265.794 207.509 266.645 207.509 267.837V273.816L207.177 276.262ZM218.265 276.262V264.667H219.986V266.418H220.106C220.318 265.845 220.7 265.379 221.254 265.022C221.807 264.664 222.431 264.486 223.126 264.486C223.257 264.486 223.42 264.488 223.617 264.493C223.813 264.498 223.961 264.506 224.062 264.516V266.328C224.002 266.313 223.863 266.29 223.647 266.26C223.435 266.224 223.211 266.207 222.975 266.207C222.411 266.207 221.908 266.325 221.465 266.562C221.027 266.793 220.68 267.115 220.423 267.528C220.172 267.936 220.046 268.401 220.046 268.924V276.262H218.265ZM217.872 262.734C217.872 261.919 218.154 261.247 218.717 260.719C219.281 260.191 220.046 259.926 221.012 259.926C221.979 259.926 222.738 260.191 223.292 260.719C223.846 261.247 224.122 261.919 224.122 262.734H222.462C222.462 262.327 222.348 261.975 222.122 261.678C221.895 261.376 221.526 261.225 221.012 261.225C220.469 261.225 220.086 261.378 219.865 261.685C219.643 261.992 219.533 262.342 219.533 262.734H217.872ZM239.885 268.532C239.885 270.162 239.59 271.571 239.001 272.759C238.413 273.947 237.605 274.863 236.578 275.507C235.552 276.151 234.379 276.473 233.061 276.473C231.742 276.473 230.569 276.151 229.543 275.507C228.516 274.863 227.708 273.947 227.12 272.759C226.531 271.571 226.236 270.162 226.236 268.532C226.236 266.901 226.531 265.492 227.12 264.305C227.708 263.117 228.516 262.201 229.543 261.557C230.569 260.913 231.742 260.591 233.061 260.591C234.379 260.591 235.552 260.913 236.578 261.557C237.605 262.201 238.413 263.117 239.001 264.305C239.59 265.492 239.885 266.901 239.885 268.532ZM238.073 268.532C238.073 267.193 237.849 266.063 237.401 265.143C236.958 264.222 236.357 263.525 235.597 263.052C234.842 262.578 233.997 262.342 233.061 262.342C232.124 262.342 231.277 262.578 230.517 263.052C229.762 263.525 229.16 264.222 228.712 265.143C228.27 266.063 228.048 267.193 228.048 268.532C228.048 269.871 228.27 271 228.712 271.921C229.16 272.842 229.762 273.539 230.517 274.012C231.277 274.485 232.124 274.722 233.061 274.722C233.997 274.722 234.842 274.485 235.597 274.012C236.357 273.539 236.958 272.842 237.401 271.921C237.849 271 238.073 269.871 238.073 268.532ZM233.061 269.891C232.688 269.891 232.369 269.757 232.102 269.491C231.835 269.224 231.702 268.904 231.702 268.532C231.702 268.159 231.835 267.84 232.102 267.573C232.369 267.306 232.688 267.173 233.061 267.173C233.433 267.173 233.752 267.306 234.019 267.573C234.286 267.84 234.419 268.159 234.419 268.532C234.419 268.778 234.356 269.005 234.231 269.211C234.11 269.418 233.946 269.584 233.74 269.709C233.539 269.83 233.312 269.891 233.061 269.891ZM243.216 276.262V264.667H244.937V266.418H245.058C245.269 265.845 245.652 265.379 246.205 265.022C246.759 264.664 247.383 264.486 248.077 264.486C248.208 264.486 248.372 264.488 248.568 264.493C248.764 264.498 248.913 264.506 249.013 264.516V266.328C248.953 266.313 248.815 266.29 248.598 266.26C248.387 266.224 248.163 266.207 247.926 266.207C247.363 266.207 246.859 266.325 246.417 266.562C245.979 266.793 245.631 267.115 245.375 267.528C245.123 267.936 244.997 268.401 244.997 268.924V276.262H243.216ZM243.624 263.097L241.132 259.594H243.352L245.194 263.097H243.624ZM246.824 263.097L244.982 259.594H247.247L248.379 263.097H246.824ZM255.576 276.503C254.609 276.503 253.756 276.259 253.017 275.771C252.277 275.278 251.698 274.583 251.28 273.688C250.863 272.787 250.654 271.722 250.654 270.495C250.654 269.277 250.863 268.22 251.28 267.324C251.698 266.428 252.279 265.736 253.024 265.248C253.769 264.76 254.629 264.516 255.606 264.516C256.361 264.516 256.957 264.642 257.395 264.893C257.838 265.14 258.175 265.422 258.406 265.739C258.643 266.051 258.826 266.308 258.957 266.509H259.833V274.48H258.957C258.826 274.692 258.64 274.958 258.399 275.28C258.157 275.597 257.812 275.882 257.365 276.133C256.917 276.38 256.32 276.503 255.576 276.503ZM259.108 263.64C259.108 263.142 259.184 262.702 259.335 262.319C259.491 261.937 259.707 261.615 259.984 261.353C260.266 261.091 260.59 260.895 260.958 260.764C261.33 260.628 261.73 260.56 262.158 260.56C262.324 260.56 262.503 260.571 262.694 260.591C262.885 260.606 263.049 260.636 263.185 260.681V262.221C263.109 262.191 263.013 262.173 262.898 262.168C262.782 262.163 262.686 262.161 262.611 262.161C262.289 262.161 261.997 262.201 261.735 262.282C261.479 262.357 261.272 262.503 261.116 262.719C260.965 262.931 260.89 263.238 260.89 263.64V276.262H259.169V274.088L259.712 270.344L259.108 267.415V263.64ZM255.817 274.903C256.532 274.903 257.136 274.717 257.629 274.344C258.122 273.967 258.497 273.446 258.754 272.782C259.01 272.112 259.138 271.34 259.138 270.464C259.138 269.599 259.013 268.841 258.761 268.192C258.509 267.538 258.137 267.03 257.644 266.667C257.151 266.3 256.542 266.116 255.817 266.116C255.062 266.116 254.433 266.31 253.93 266.698C253.432 267.08 253.057 267.601 252.805 268.26C252.559 268.914 252.435 269.649 252.435 270.464C252.435 271.29 252.561 272.039 252.813 272.714C253.069 273.383 253.447 273.917 253.945 274.314C254.448 274.707 255.072 274.903 255.817 274.903ZM272.219 271.642V264.667H274V280.127H272.219V274.45H272.068C271.796 275.049 271.389 275.527 270.845 275.884C270.302 276.237 269.572 276.413 268.656 276.413C267.866 276.413 267.174 276.257 266.58 275.945C265.986 275.628 265.523 275.145 265.191 274.495C264.864 273.846 264.701 273.026 264.701 272.034V264.667H266.482V271.914C266.482 272.835 266.721 273.549 267.199 274.058C267.677 274.561 268.334 274.812 269.169 274.812C269.758 274.812 270.281 274.689 270.739 274.442C271.197 274.196 271.557 273.836 271.819 273.363C272.086 272.89 272.219 272.316 272.219 271.642ZM278.047 276.262H279.829V277.5C279.829 278.496 279.537 279.264 278.953 279.802C278.369 280.341 277.655 280.61 276.809 280.61C276.628 280.61 276.444 280.605 276.258 280.595C276.077 280.59 275.918 280.564 275.783 280.519V279.009C275.858 279.025 275.946 279.037 276.047 279.047C276.147 279.062 276.251 279.07 276.356 279.07C276.839 279.07 277.242 278.959 277.564 278.738C277.886 278.516 278.047 278.104 278.047 277.5V276.262ZM279.829 269.287V276.262H278.047V264.667H279.768V266.479H279.919C280.191 265.89 280.604 265.417 281.157 265.059C281.711 264.697 282.425 264.516 283.301 264.516C284.086 264.516 284.773 264.677 285.362 264.999C285.951 265.316 286.409 265.799 286.736 266.448C287.063 267.093 287.226 267.908 287.226 268.894V276.262H285.445V269.015C285.445 268.104 285.208 267.395 284.735 266.886C284.262 266.373 283.613 266.116 282.788 266.116C282.219 266.116 281.711 266.24 281.263 266.486C280.82 266.733 280.47 267.093 280.214 267.566C279.957 268.039 279.829 268.612 279.829 269.287ZM291.65 280.61C291.348 280.61 291.079 280.585 290.843 280.534C290.606 280.489 290.443 280.444 290.352 280.398L290.805 278.828C291.238 278.939 291.62 278.979 291.952 278.949C292.284 278.919 292.579 278.77 292.836 278.504C293.097 278.242 293.336 277.817 293.553 277.228L293.885 276.322L289.597 264.667H291.53L294.73 273.907H294.851L297.81 265.361C298.006 264.798 298.248 264.257 298.535 263.738C298.822 263.215 299.179 262.787 299.607 262.455C300.039 262.118 300.568 261.949 301.192 261.949C301.584 261.949 301.952 262.017 302.294 262.153C302.641 262.289 302.943 262.463 303.2 262.674L302.717 263.912C302.52 263.806 302.312 263.716 302.09 263.64C301.874 263.56 301.66 263.52 301.449 263.52C300.981 263.52 300.611 263.721 300.339 264.123C300.067 264.526 299.783 265.15 299.486 265.996L295.062 277.953C294.73 278.853 294.28 279.52 293.711 279.953C293.142 280.391 292.456 280.61 291.65 280.61ZM193.952 286.802L186.041 306.61H184.592L192.533 286.802H193.952ZM189.695 302.503C188.578 302.503 187.614 302.257 186.804 301.764C185.999 301.265 185.377 300.571 184.939 299.68C184.507 298.784 184.29 297.743 184.29 296.555C184.29 295.367 184.507 294.321 184.939 293.415C185.377 292.504 185.986 291.794 186.766 291.286C187.551 290.773 188.467 290.516 189.514 290.516C190.118 290.516 190.714 290.617 191.303 290.818C191.892 291.019 192.428 291.346 192.911 291.799C193.394 292.247 193.779 292.841 194.066 293.581C194.353 294.321 194.496 295.231 194.496 296.313V297.068H185.558V295.528H192.684C192.684 294.874 192.553 294.29 192.292 293.777C192.035 293.264 191.668 292.859 191.19 292.562C190.717 292.265 190.158 292.116 189.514 292.116C188.804 292.116 188.19 292.292 187.672 292.645C187.159 292.992 186.764 293.445 186.487 294.003C186.21 294.562 186.072 295.161 186.072 295.8V296.827C186.072 297.702 186.223 298.445 186.525 299.054C186.832 299.657 187.257 300.118 187.8 300.435C188.344 300.747 188.975 300.903 189.695 300.903C190.163 300.903 190.586 300.838 190.963 300.707C191.346 300.571 191.675 300.37 191.952 300.103C192.229 299.831 192.443 299.494 192.594 299.091L194.315 299.574C194.134 300.158 193.829 300.671 193.401 301.114C192.974 301.552 192.445 301.894 191.816 302.141C191.187 302.382 190.48 302.503 189.695 302.503ZM202.402 291.029V292.69H197.239V291.029H202.402ZM200.832 291.029V302.262H198.748V291.029H200.832ZM202.402 300.601V302.262H197.239V300.601H202.402ZM206.883 299.514C207.542 300.682 208.075 301.633 208.483 302.367C208.89 303.102 209.223 303.666 209.479 304.058C209.736 304.456 209.955 304.728 210.136 304.874C210.322 305.025 210.516 305.1 210.717 305.1C210.989 305.1 211.251 305.017 211.502 304.851C211.759 304.685 211.97 304.526 212.136 304.375L212.831 305.583C212.604 305.81 212.297 306.036 211.91 306.263C211.522 306.494 211.125 306.61 210.717 306.61C210.274 306.61 209.877 306.514 209.525 306.323C209.177 306.137 208.855 305.862 208.558 305.5C208.261 305.138 207.964 304.702 207.668 304.194L205.463 300.359L206.883 299.514ZM213.888 293.264L212.287 293.717C212.187 293.45 212.038 293.191 211.842 292.939C211.651 292.682 211.389 292.471 211.057 292.305C210.725 292.139 210.3 292.056 209.781 292.056C209.072 292.056 208.48 292.219 208.007 292.547C207.539 292.869 207.305 293.279 207.305 293.777C207.305 294.22 207.466 294.57 207.788 294.826C208.11 295.083 208.614 295.297 209.298 295.468L211.019 295.891C212.056 296.142 212.828 296.527 213.337 297.046C213.845 297.559 214.099 298.221 214.099 299.031C214.099 299.695 213.908 300.289 213.525 300.812C213.148 301.336 212.62 301.748 211.94 302.05C211.261 302.352 210.471 302.503 209.57 302.503C208.387 302.503 207.408 302.247 206.633 301.733C205.858 301.22 205.368 300.47 205.161 299.484L206.852 299.061C207.013 299.685 207.318 300.153 207.766 300.465C208.219 300.777 208.81 300.933 209.54 300.933C210.37 300.933 211.029 300.757 211.517 300.405C212.011 300.047 212.257 299.62 212.257 299.121C212.257 298.719 212.116 298.382 211.834 298.11C211.553 297.833 211.12 297.627 210.536 297.491L208.604 297.038C207.542 296.786 206.762 296.396 206.264 295.868C205.77 295.335 205.524 294.668 205.524 293.868C205.524 293.213 205.707 292.635 206.075 292.131C206.447 291.628 206.953 291.233 207.592 290.946C208.236 290.659 208.966 290.516 209.781 290.516C210.929 290.516 211.829 290.768 212.484 291.271C213.143 291.774 213.611 292.438 213.888 293.264ZM226.898 291.21H225.177V289.701C225.177 289.202 225.25 288.762 225.396 288.38C225.547 287.992 225.756 287.665 226.023 287.398C226.289 287.132 226.601 286.93 226.959 286.794C227.321 286.659 227.714 286.591 228.136 286.591C228.318 286.591 228.499 286.596 228.68 286.606C228.866 286.611 229.027 286.636 229.163 286.681V288.191C229.087 288.176 228.999 288.163 228.899 288.153C228.798 288.138 228.695 288.131 228.589 288.131C228.267 288.131 227.978 288.178 227.721 288.274C227.47 288.365 227.268 288.526 227.117 288.757C226.971 288.984 226.898 289.298 226.898 289.701V291.21ZM221.886 306.851C221.025 306.851 220.286 306.741 219.667 306.519C219.048 306.303 218.532 306.016 218.119 305.659C217.712 305.306 217.387 304.929 217.145 304.526L218.565 303.53C218.726 303.741 218.929 303.983 219.176 304.255C219.423 304.531 219.76 304.77 220.188 304.972C220.62 305.178 221.187 305.281 221.886 305.281C222.822 305.281 223.595 305.055 224.203 304.602C224.812 304.149 225.117 303.439 225.117 302.473V300.118H224.966C224.835 300.329 224.649 300.591 224.407 300.903C224.171 301.21 223.829 301.484 223.381 301.726C222.938 301.962 222.339 302.081 221.584 302.081C220.648 302.081 219.808 301.859 219.063 301.416C218.323 300.973 217.737 300.329 217.304 299.484C216.876 298.638 216.662 297.612 216.662 296.404C216.662 295.216 216.871 294.182 217.289 293.301C217.707 292.416 218.288 291.731 219.033 291.248C219.777 290.76 220.638 290.516 221.614 290.516C222.369 290.516 222.968 290.642 223.411 290.893C223.859 291.14 224.201 291.422 224.437 291.739C224.679 292.051 224.865 292.308 224.996 292.509H225.177V290.667H226.898V302.594C226.898 303.59 226.672 304.401 226.219 305.025C225.771 305.654 225.167 306.114 224.407 306.406C223.652 306.703 222.812 306.851 221.886 306.851ZM221.826 300.48C222.54 300.48 223.144 300.317 223.637 299.99C224.131 299.662 224.505 299.192 224.762 298.578C225.019 297.964 225.147 297.229 225.147 296.374C225.147 295.538 225.021 294.801 224.77 294.162C224.518 293.523 224.146 293.022 223.652 292.66C223.159 292.297 222.55 292.116 221.826 292.116C221.071 292.116 220.442 292.308 219.938 292.69C219.44 293.072 219.065 293.586 218.814 294.23C218.567 294.874 218.444 295.589 218.444 296.374C218.444 297.179 218.57 297.891 218.821 298.51C219.078 299.124 219.455 299.607 219.954 299.959C220.457 300.307 221.081 300.48 221.826 300.48ZM234.14 297.823L237.884 291.029H240.209L235.71 298.638H234.472L234.14 297.823ZM231.664 291.029L235.469 297.883L235.076 298.638H233.838L229.339 291.029H231.664ZM235.77 296.887V302.262H233.717V296.887H235.77ZM256.069 306.61V302.262H257.791V306.61H256.069ZM257.791 290.667V302.262H256.069V300.45H255.918C255.677 301.069 255.287 301.552 254.748 301.899C254.21 302.242 253.563 302.413 252.808 302.413C252.048 302.413 251.412 302.242 250.899 301.899C250.385 301.552 249.985 301.069 249.698 300.45H249.578C249.281 301.049 248.835 301.527 248.241 301.884C247.648 302.237 246.936 302.413 246.105 302.413C245.074 302.413 244.226 302.091 243.561 301.446C242.902 300.797 242.572 299.791 242.572 298.427V290.667H244.354V298.427C244.354 299.283 244.588 299.894 245.056 300.261C245.524 300.629 246.075 300.812 246.709 300.812C247.524 300.812 248.156 300.566 248.604 300.073C249.052 299.579 249.276 298.96 249.276 298.216V290.667H251.087V298.608C251.087 299.267 251.301 299.801 251.729 300.208C252.157 300.611 252.708 300.812 253.382 300.812C253.845 300.812 254.275 300.689 254.673 300.442C255.076 300.196 255.398 299.854 255.639 299.416C255.886 298.978 256.009 298.477 256.009 297.914V290.667H257.791ZM261.413 296.615V296.374C261.413 295.246 261.619 294.243 262.032 293.362C262.449 292.476 263.041 291.782 263.805 291.278C264.575 290.77 265.489 290.516 266.546 290.516C267.346 290.516 268.063 290.662 268.697 290.954C269.331 291.241 269.87 291.648 270.312 292.177C270.755 292.705 271.092 293.327 271.324 294.041C271.56 294.751 271.679 295.528 271.679 296.374V296.615C271.679 297.743 271.472 298.749 271.06 299.635C270.652 300.515 270.063 301.21 269.293 301.718C268.528 302.221 267.613 302.473 266.546 302.473C265.756 302.473 265.043 302.33 264.409 302.043C263.775 301.751 263.234 301.341 262.786 300.812C262.344 300.284 262.004 299.665 261.767 298.955C261.531 298.241 261.413 297.461 261.413 296.615ZM263.496 296.374V296.615C263.496 297.194 263.559 297.738 263.685 298.246C263.81 298.754 263.999 299.202 264.251 299.589C264.502 299.972 264.819 300.271 265.202 300.488C265.584 300.704 266.032 300.812 266.546 300.812C267.059 300.812 267.507 300.704 267.889 300.488C268.272 300.271 268.589 299.972 268.84 299.589C269.092 299.202 269.281 298.754 269.407 298.246C269.532 297.738 269.595 297.194 269.595 296.615V296.374C269.595 295.8 269.532 295.262 269.407 294.758C269.281 294.25 269.092 293.802 268.84 293.415C268.589 293.027 268.272 292.725 267.889 292.509C267.507 292.287 267.059 292.177 266.546 292.177C266.032 292.177 265.584 292.287 265.202 292.509C264.819 292.725 264.502 293.027 264.251 293.415C263.999 293.802 263.81 294.25 263.685 294.758C263.559 295.262 263.496 295.8 263.496 296.374ZM265.519 306.368V286.802H267.572V306.368H265.519ZM279.958 290.667V302.262H278.237V300.51H278.116C277.905 301.084 277.523 301.55 276.969 301.907C276.415 302.264 275.791 302.443 275.097 302.443C274.966 302.443 274.803 302.438 274.606 302.428C274.41 302.423 274.262 302.418 274.161 302.413V300.601C274.221 300.616 274.357 300.641 274.569 300.676C274.785 300.707 275.011 300.722 275.248 300.722C275.812 300.722 276.312 300.606 276.75 300.375C277.193 300.138 277.54 299.816 277.792 299.408C278.048 298.996 278.177 298.528 278.177 298.004V290.667H279.958ZM284.85 299.514C285.51 300.682 286.043 301.633 286.451 302.367C286.858 303.102 287.19 303.666 287.447 304.058C287.704 304.456 287.923 304.728 288.104 304.874C288.29 305.025 288.484 305.1 288.685 305.1C288.957 305.1 289.219 305.017 289.47 304.851C289.727 304.685 289.938 304.526 290.104 304.375L290.799 305.583C290.572 305.81 290.265 306.036 289.878 306.263C289.49 306.494 289.093 306.61 288.685 306.61C288.242 306.61 287.845 306.514 287.492 306.323C287.145 306.137 286.823 305.862 286.526 305.5C286.229 305.138 285.932 304.702 285.635 304.194L283.431 300.359L284.85 299.514ZM291.856 293.264L290.255 293.717C290.155 293.45 290.006 293.191 289.81 292.939C289.619 292.682 289.357 292.471 289.025 292.305C288.693 292.139 288.267 292.056 287.749 292.056C287.039 292.056 286.448 292.219 285.975 292.547C285.507 292.869 285.273 293.279 285.273 293.777C285.273 294.22 285.434 294.57 285.756 294.826C286.078 295.083 286.582 295.297 287.266 295.468L288.987 295.891C290.024 296.142 290.796 296.527 291.304 297.046C291.813 297.559 292.067 298.221 292.067 299.031C292.067 299.695 291.876 300.289 291.493 300.812C291.116 301.336 290.587 301.748 289.908 302.05C289.229 302.352 288.438 302.503 287.538 302.503C286.355 302.503 285.376 302.247 284.601 301.733C283.826 301.22 283.336 300.47 283.129 299.484L284.82 299.061C284.981 299.685 285.286 300.153 285.734 300.465C286.186 300.777 286.778 300.933 287.507 300.933C288.338 300.933 288.997 300.757 289.485 300.405C289.978 300.047 290.225 299.62 290.225 299.121C290.225 298.719 290.084 298.382 289.802 298.11C289.52 297.833 289.088 297.627 288.504 297.491L286.571 297.038C285.51 296.786 284.73 296.396 284.231 295.868C283.738 295.335 283.492 294.668 283.492 293.868C283.492 293.213 283.675 292.635 284.043 292.131C284.415 291.628 284.921 291.233 285.56 290.946C286.204 290.659 286.934 290.516 287.749 290.516C288.896 290.516 289.797 290.768 290.451 291.271C291.111 291.774 291.579 292.438 291.856 293.264ZM200.052 316.667V328.262H198.331V326.45H198.18C197.938 327.069 197.548 327.552 197.01 327.899C196.471 328.242 195.825 328.413 195.07 328.413C194.31 328.413 193.673 328.242 193.16 327.899C192.647 327.552 192.246 327.069 191.96 326.45H191.839C191.542 327.049 191.097 327.527 190.503 327.884C189.909 328.237 189.197 328.413 188.366 328.413C187.335 328.413 186.487 328.091 185.823 327.446C185.163 326.797 184.834 325.791 184.834 324.427V316.667H186.615V324.427C186.615 325.283 186.849 325.894 187.317 326.261C187.785 326.629 188.336 326.812 188.97 326.812C189.786 326.812 190.417 326.566 190.865 326.073C191.313 325.579 191.537 324.96 191.537 324.216V316.667H193.349V324.608C193.349 325.267 193.562 325.801 193.99 326.208C194.418 326.611 194.969 326.812 195.643 326.812C196.106 326.812 196.537 326.689 196.934 326.442C197.337 326.196 197.659 325.854 197.9 325.416C198.147 324.978 198.27 324.477 198.27 323.914V316.667H200.052ZM217.231 332.61V328.262H218.952V332.61H217.231ZM218.952 316.667V328.262H217.231V326.45H217.08C216.839 327.069 216.449 327.552 215.91 327.899C215.372 328.242 214.725 328.413 213.97 328.413C213.21 328.413 212.574 328.242 212.06 327.899C211.547 327.552 211.147 327.069 210.86 326.45H210.739C210.442 327.049 209.997 327.527 209.403 327.884C208.809 328.237 208.097 328.413 207.267 328.413C206.235 328.413 205.387 328.091 204.723 327.446C204.064 326.797 203.734 325.791 203.734 324.427V316.667H205.516V324.427C205.516 325.283 205.75 325.894 206.218 326.261C206.686 326.629 207.237 326.812 207.871 326.812C208.686 326.812 209.318 326.566 209.766 326.073C210.213 325.579 210.437 324.96 210.437 324.216V316.667H212.249V324.608C212.249 325.267 212.463 325.801 212.891 326.208C213.318 326.611 213.87 326.812 214.544 326.812C215.007 326.812 215.437 326.689 215.835 326.442C216.237 326.196 216.559 325.854 216.801 325.416C217.048 324.978 217.171 324.477 217.171 323.914V316.667H218.952ZM222.635 316.667H224.416V329.107C224.416 329.822 224.293 330.441 224.046 330.964C223.805 331.488 223.437 331.893 222.944 332.179C222.456 332.466 221.84 332.61 221.095 332.61C221.034 332.61 220.974 332.61 220.914 332.61C220.853 332.61 220.793 332.61 220.732 332.61V330.949C220.793 330.949 220.848 330.949 220.899 330.949C220.949 330.949 221.004 330.949 221.065 330.949C221.608 330.949 222.006 330.788 222.257 330.466C222.509 330.149 222.635 329.696 222.635 329.107V316.667ZM232.664 328.473C231.803 328.473 231.048 328.332 230.399 328.05C229.75 327.769 229.204 327.361 228.761 326.827C228.323 326.289 227.994 325.637 227.772 324.872C227.551 324.107 227.44 323.244 227.44 322.283H229.221C229.221 323.697 229.503 324.812 230.067 325.627C230.636 326.437 231.501 326.843 232.664 326.843C233.504 326.843 234.181 326.676 234.694 326.344C235.213 326.012 235.472 325.574 235.472 325.031C235.472 324.664 235.364 324.334 235.147 324.042C234.931 323.745 234.624 323.509 234.226 323.332C233.829 323.156 233.358 323.068 232.815 323.068H231.426V322.223H232.996C233.897 322.223 234.631 322.316 235.2 322.502C235.774 322.683 236.214 322.92 236.521 323.212C236.833 323.504 237.047 323.818 237.163 324.155C237.283 324.492 237.344 324.814 237.344 325.121C237.344 325.791 237.14 326.377 236.732 326.88C236.33 327.384 235.776 327.776 235.072 328.058C234.367 328.335 233.564 328.473 232.664 328.473ZM232.996 322.706H231.426V321.528H232.815C233.655 321.528 234.282 321.382 234.694 321.09C235.112 320.799 235.321 320.411 235.321 319.928C235.321 319.39 235.089 318.954 234.626 318.622C234.163 318.285 233.549 318.116 232.784 318.116C231.984 318.116 231.32 318.285 230.792 318.622C230.268 318.954 229.876 319.432 229.614 320.056C229.352 320.675 229.221 321.418 229.221 322.283H227.44C227.44 321.387 227.551 320.585 227.772 319.875C227.999 319.161 228.331 318.554 228.769 318.056C229.211 317.558 229.76 317.178 230.414 316.916C231.073 316.649 231.833 316.516 232.694 316.516C234.017 316.516 235.087 316.818 235.902 317.422C236.722 318.021 237.132 318.856 237.132 319.928C237.132 320.235 237.08 320.552 236.974 320.879C236.873 321.206 236.677 321.508 236.385 321.785C236.098 322.057 235.683 322.278 235.14 322.449C234.596 322.62 233.882 322.706 232.996 322.706ZM247.884 328.262H249.666V329.5C249.666 329.998 249.588 330.438 249.432 330.821C249.281 331.208 249.067 331.535 248.79 331.802C248.513 332.069 248.191 332.27 247.824 332.406C247.462 332.542 247.069 332.61 246.646 332.61C246.465 332.61 246.281 332.605 246.095 332.595C245.914 332.59 245.756 332.564 245.62 332.519V331.009C245.695 331.025 245.783 331.037 245.884 331.047C245.984 331.062 246.088 331.07 246.193 331.07C246.676 331.07 247.079 330.959 247.401 330.738C247.723 330.516 247.884 330.104 247.884 329.5V328.262ZM242.208 316.667H240.487V315.701C240.487 315.202 240.562 314.762 240.713 314.38C240.869 313.992 241.085 313.665 241.362 313.398C241.639 313.132 241.959 312.93 242.321 312.794C242.688 312.659 243.083 312.591 243.506 312.591C243.687 312.591 243.868 312.596 244.049 312.606C244.236 312.611 244.397 312.636 244.533 312.681V314.191C244.457 314.176 244.369 314.163 244.268 314.153C244.168 314.138 244.065 314.131 243.959 314.131C243.637 314.131 243.342 314.178 243.076 314.274C242.814 314.365 242.603 314.526 242.442 314.757C242.286 314.984 242.208 315.298 242.208 315.701V316.667ZM242.268 321.287V328.262H240.487V316.667H242.208V318.479H242.359C242.63 317.89 243.043 317.417 243.597 317.059C244.15 316.697 244.865 316.516 245.74 316.516C246.525 316.516 247.212 316.677 247.801 316.999C248.39 317.316 248.848 317.799 249.175 318.448C249.502 319.093 249.666 319.908 249.666 320.894V328.262H247.884V321.015C247.884 320.104 247.648 319.395 247.175 318.886C246.702 318.373 246.052 318.116 245.227 318.116C244.658 318.116 244.15 318.24 243.702 318.486C243.259 318.733 242.91 319.093 242.653 319.566C242.396 320.039 242.268 320.612 242.268 321.287ZM255.46 328.322V315.882C255.46 314.659 255.795 313.725 256.464 313.081C257.133 312.432 258.057 312.108 259.234 312.108C259.446 312.108 259.662 312.123 259.883 312.153C260.11 312.178 260.336 312.213 260.563 312.259L260.442 313.919C260.306 313.889 260.145 313.866 259.959 313.851C259.778 313.836 259.597 313.829 259.415 313.829C258.827 313.829 258.361 314.005 258.019 314.357C257.682 314.709 257.513 315.218 257.513 315.882V328.322H255.46ZM253.739 332.851C253.527 332.851 253.311 332.836 253.09 332.806C252.868 332.781 252.652 332.746 252.44 332.7L252.531 331.04C252.667 331.07 252.825 331.092 253.007 331.108C253.193 331.123 253.376 331.13 253.558 331.13C254.161 331.13 254.63 330.954 254.962 330.602C255.294 330.25 255.46 329.741 255.46 329.077V316.637H257.513V329.077C257.513 330.3 257.178 331.233 256.509 331.878C255.84 332.527 254.916 332.851 253.739 332.851ZM270.416 322.042H265.253C264.699 322.042 264.189 321.931 263.721 321.709C263.253 321.483 262.878 321.163 262.596 320.751C262.314 320.333 262.173 319.837 262.173 319.264C262.173 318.75 262.294 318.287 262.535 317.875C262.782 317.457 263.129 317.127 263.577 316.886C264.03 316.639 264.569 316.516 265.193 316.516C265.671 316.516 266.093 316.589 266.461 316.735C266.833 316.881 267.145 317.087 267.397 317.354C267.653 317.621 267.847 317.938 267.978 318.305C268.114 318.667 268.182 319.067 268.182 319.505V323.4H266.4V319.324C266.4 318.992 266.3 318.703 266.098 318.456C265.897 318.209 265.585 318.086 265.162 318.086C264.951 318.086 264.76 318.141 264.589 318.252C264.423 318.358 264.289 318.501 264.189 318.682C264.093 318.859 264.045 319.052 264.045 319.264C264.045 319.566 264.161 319.827 264.392 320.049C264.624 320.27 264.921 320.381 265.283 320.381H270.416V322.042ZM268.182 312.802V328.262H266.4V312.802H268.182ZM280.381 320.713V319.022L283.129 318.479C283.219 319.072 283.32 319.596 283.431 320.049C283.546 320.502 283.707 320.856 283.914 321.113C284.125 321.37 284.417 321.498 284.789 321.498C284.971 321.498 285.106 321.493 285.197 321.483C285.288 321.468 285.363 321.453 285.424 321.438L285.695 322.706C285.499 322.812 285.288 322.895 285.061 322.955C284.84 323.01 284.608 323.038 284.367 323.038C283.793 323.038 283.338 322.92 283 322.683C282.663 322.442 282.404 322.125 282.223 321.732C282.042 321.335 281.901 320.904 281.8 320.441L280.381 320.713ZM277.271 322.223C278.172 322.223 278.906 322.316 279.475 322.502C280.049 322.683 280.489 322.92 280.796 323.212C281.108 323.504 281.322 323.818 281.438 324.155C281.559 324.492 281.619 324.814 281.619 325.121C281.619 325.791 281.415 326.377 281.008 326.88C280.605 327.384 280.051 327.776 279.347 328.058C278.642 328.335 277.84 328.473 276.939 328.473C276.254 328.473 275.628 328.39 275.059 328.224C274.496 328.053 274.005 327.811 273.587 327.499C273.169 327.182 272.835 326.802 272.583 326.359C272.332 325.917 272.173 325.423 272.108 324.88H273.98C274.131 325.544 274.435 326.037 274.893 326.359C275.351 326.682 276.003 326.843 276.848 326.843C277.724 326.843 278.426 326.676 278.954 326.344C279.483 326.012 279.747 325.574 279.747 325.031C279.747 324.664 279.639 324.334 279.422 324.042C279.206 323.745 278.899 323.509 278.501 323.332C278.104 323.156 277.633 323.068 277.09 323.068H275.701V322.223H277.271ZM275.701 322.706V321.528H277.09C277.93 321.528 278.557 321.382 278.969 321.09C279.387 320.799 279.596 320.411 279.596 319.928C279.596 319.39 279.357 318.954 278.879 318.622C278.401 318.285 277.764 318.116 276.969 318.116C276.194 318.116 275.567 318.277 275.089 318.599C274.616 318.921 274.317 319.344 274.191 319.868H272.319C272.42 319.168 272.669 318.569 273.066 318.071C273.464 317.568 273.992 317.183 274.652 316.916C275.316 316.649 276.088 316.516 276.969 316.516C277.85 316.516 278.622 316.652 279.286 316.924C279.956 317.195 280.477 317.585 280.849 318.094C281.221 318.602 281.408 319.213 281.408 319.928C281.408 320.235 281.355 320.552 281.249 320.879C281.148 321.206 280.952 321.508 280.66 321.785C280.373 322.057 279.958 322.278 279.415 322.449C278.871 322.62 278.157 322.706 277.271 322.706H275.701ZM292.795 322.585H293.248V324.246H292.795C291.648 324.246 290.702 323.989 289.957 323.476C289.212 322.958 288.659 322.276 288.296 321.43C287.934 320.58 287.753 319.656 287.753 318.66V318.177C287.753 317.18 287.937 316.259 288.304 315.414C288.671 314.563 289.227 313.881 289.972 313.368C290.717 312.85 291.658 312.591 292.795 312.591C293.691 312.591 294.469 312.772 295.128 313.134C295.792 313.491 296.311 313.98 296.683 314.599C297.06 315.213 297.264 315.902 297.294 316.667H295.332C295.286 316.003 295.04 315.434 294.592 314.961C294.149 314.488 293.55 314.251 292.795 314.251C292.02 314.251 291.419 314.45 290.991 314.848C290.563 315.24 290.264 315.738 290.093 316.342C289.922 316.941 289.836 317.553 289.836 318.177V318.66C289.836 319.284 289.919 319.898 290.085 320.502C290.251 321.101 290.548 321.599 290.976 321.996C291.404 322.389 292.01 322.585 292.795 322.585ZM291.678 328.262V322.555H293.731V328.262H291.678ZM192.231 353.145H194.013V354.05C194.013 354.398 194.154 354.695 194.436 354.941C194.722 355.193 195.055 355.319 195.432 355.319C195.794 355.319 196.086 355.203 196.308 354.971C196.529 354.745 196.64 354.458 196.64 354.111C196.64 353.748 196.522 353.467 196.285 353.265C196.048 353.064 195.734 352.963 195.341 352.963C195.1 352.963 194.878 353.001 194.677 353.077C194.476 353.147 194.287 353.243 194.111 353.363C193.94 353.484 193.774 353.623 193.613 353.779C193.457 353.935 193.298 354.096 193.137 354.262L191.024 356.466L189.876 355.288L192.231 352.873C192.473 352.621 192.73 352.402 193.001 352.216C193.273 352.03 193.552 351.874 193.839 351.748C194.126 351.617 194.415 351.522 194.707 351.461C195.004 351.396 195.296 351.363 195.583 351.363C196.137 351.363 196.632 351.476 197.07 351.703C197.508 351.929 197.853 352.249 198.104 352.661C198.356 353.074 198.482 353.557 198.482 354.111C198.482 354.654 198.356 355.132 198.104 355.545C197.858 355.958 197.505 356.28 197.047 356.511C196.594 356.743 196.056 356.858 195.432 356.858C194.853 356.858 194.36 356.763 193.952 356.572C193.545 356.38 193.213 356.124 192.956 355.802C192.704 355.485 192.521 355.132 192.405 354.745C192.289 354.362 192.231 353.98 192.231 353.597V353.145ZM186.615 347.287V354.262H184.834V342.667H186.555V344.479H186.706C186.977 343.89 187.39 343.417 187.944 343.059C188.497 342.697 189.212 342.516 190.088 342.516C190.873 342.516 191.56 342.677 192.148 342.999C192.737 343.316 193.195 343.799 193.522 344.448C193.849 345.093 194.013 345.908 194.013 346.894V354.262H192.231V347.015C192.231 346.104 191.995 345.395 191.522 344.886C191.049 344.373 190.4 344.116 189.574 344.116C189.006 344.116 188.497 344.24 188.049 344.486C187.607 344.733 187.257 345.093 187 345.566C186.743 346.039 186.615 346.612 186.615 347.287ZM205.77 354.503C204.804 354.493 203.961 354.232 203.242 353.718C202.522 353.2 201.963 352.488 201.566 351.582C201.168 350.676 200.969 349.637 200.969 348.464C200.969 347.302 201.178 346.275 201.596 345.384C202.019 344.489 202.6 343.787 203.34 343.278C204.08 342.77 204.93 342.516 205.891 342.516C206.596 342.516 207.205 342.652 207.718 342.924C208.231 343.19 208.667 343.563 209.024 344.041C209.386 344.519 209.691 345.067 209.937 345.686H210.632L210.904 348.434L212.413 354.262H210.753L209.333 348.434C209.258 348.067 209.142 347.639 208.986 347.151C208.83 346.663 208.621 346.187 208.36 345.724C208.098 345.261 207.763 344.879 207.356 344.577C206.953 344.27 206.465 344.116 205.891 344.116C205.277 344.116 204.734 344.302 204.261 344.675C203.788 345.047 203.418 345.563 203.151 346.222C202.884 346.882 202.751 347.639 202.751 348.495C202.751 349.33 202.877 350.082 203.128 350.752C203.38 351.416 203.732 351.942 204.185 352.329C204.638 352.712 205.167 352.903 205.77 352.903C206.329 352.903 206.815 352.749 207.227 352.442C207.64 352.13 207.987 351.74 208.269 351.272C208.551 350.799 208.777 350.314 208.948 349.816C209.125 349.312 209.253 348.872 209.333 348.495L210.602 342.667H212.262L210.904 348.495L210.632 351.333H210.028C209.766 351.957 209.439 352.51 209.047 352.994C208.659 353.472 208.194 353.844 207.65 354.111C207.112 354.377 206.485 354.508 205.77 354.503ZM218.394 352.51V338.319H220.478V354.262H218.455L218.394 352.51ZM214.982 354.322V352.42C215.163 352.45 215.324 352.473 215.465 352.488C215.606 352.503 215.767 352.51 215.948 352.51C216.522 352.51 217 352.4 217.383 352.178C217.77 351.952 218.072 351.642 218.289 351.25C218.51 350.852 218.656 350.397 218.726 349.883L219.27 349.551C219.27 350.437 219.152 351.255 218.915 352.005C218.679 352.749 218.309 353.348 217.805 353.801C217.302 354.249 216.653 354.473 215.858 354.473C215.722 354.473 215.561 354.455 215.375 354.42C215.189 354.385 215.058 354.352 214.982 354.322ZM228.31 354.503C227.263 354.503 226.345 354.254 225.555 353.756C224.77 353.258 224.156 352.561 223.713 351.665C223.275 350.769 223.056 349.722 223.056 348.525C223.056 347.317 223.275 346.263 223.713 345.362C224.156 344.461 224.77 343.762 225.555 343.263C226.345 342.765 227.263 342.516 228.31 342.516C229.357 342.516 230.273 342.765 231.058 343.263C231.848 343.762 232.462 344.461 232.9 345.362C233.342 346.263 233.564 347.317 233.564 348.525C233.564 349.722 233.342 350.769 232.9 351.665C232.462 352.561 231.848 353.258 231.058 353.756C230.273 354.254 229.357 354.503 228.31 354.503ZM228.31 352.903C229.105 352.903 229.759 352.699 230.273 352.292C230.786 351.884 231.166 351.348 231.412 350.684C231.659 350.019 231.782 349.3 231.782 348.525C231.782 347.75 231.659 347.028 231.412 346.358C231.166 345.689 230.786 345.148 230.273 344.735C229.759 344.323 229.105 344.116 228.31 344.116C227.515 344.116 226.861 344.323 226.347 344.735C225.834 345.148 225.454 345.689 225.207 346.358C224.961 347.028 224.838 347.75 224.838 348.525C224.838 349.3 224.961 350.019 225.207 350.684C225.454 351.348 225.834 351.884 226.347 352.292C226.861 352.699 227.515 352.903 228.31 352.903ZM225.17 340.734C225.17 339.919 225.452 339.247 226.015 338.719C226.579 338.191 227.344 337.926 228.31 337.926C229.276 337.926 230.036 338.191 230.59 338.719C231.143 339.247 231.42 339.919 231.42 340.734H229.759C229.759 340.327 229.646 339.975 229.42 339.678C229.193 339.376 228.823 339.225 228.31 339.225C227.766 339.225 227.384 339.378 227.163 339.685C226.941 339.992 226.83 340.342 226.83 340.734H225.17ZM236.648 348.615V348.374C236.648 347.246 236.854 346.243 237.267 345.362C237.685 344.476 238.276 343.782 239.041 343.278C239.811 342.77 240.724 342.516 241.781 342.516C242.581 342.516 243.298 342.662 243.932 342.954C244.567 343.241 245.105 343.648 245.548 344.177C245.991 344.705 246.328 345.327 246.559 346.041C246.796 346.751 246.914 347.528 246.914 348.374V348.615C246.914 349.743 246.708 350.749 246.295 351.635C245.888 352.515 245.299 353.21 244.529 353.718C243.764 354.221 242.848 354.473 241.781 354.473C240.991 354.473 240.279 354.33 239.645 354.043C239.011 353.751 238.47 353.341 238.022 352.812C237.579 352.284 237.239 351.665 237.003 350.955C236.766 350.241 236.648 349.461 236.648 348.615ZM238.731 348.374V348.615C238.731 349.194 238.794 349.738 238.92 350.246C239.046 350.754 239.235 351.202 239.486 351.589C239.738 351.972 240.055 352.271 240.437 352.488C240.82 352.704 241.268 352.812 241.781 352.812C242.294 352.812 242.742 352.704 243.125 352.488C243.507 352.271 243.824 351.972 244.076 351.589C244.328 351.202 244.516 350.754 244.642 350.246C244.768 349.738 244.831 349.194 244.831 348.615V348.374C244.831 347.8 244.768 347.262 244.642 346.758C244.516 346.25 244.328 345.802 244.076 345.415C243.824 345.027 243.507 344.725 243.125 344.509C242.742 344.287 242.294 344.177 241.781 344.177C241.268 344.177 240.82 344.287 240.437 344.509C240.055 344.725 239.738 345.027 239.486 345.415C239.235 345.802 239.046 346.25 238.92 346.758C238.794 347.262 238.731 347.8 238.731 348.374ZM240.755 358.368V338.802H242.808V358.368H240.755ZM255.194 342.667V354.262H253.473V352.51H253.352C253.141 353.084 252.758 353.55 252.204 353.907C251.651 354.264 251.027 354.443 250.332 354.443C250.202 354.443 250.038 354.438 249.842 354.428C249.645 354.423 249.497 354.418 249.396 354.413V352.601C249.457 352.616 249.593 352.641 249.804 352.676C250.02 352.707 250.247 352.722 250.483 352.722C251.047 352.722 251.548 352.606 251.986 352.375C252.428 352.138 252.776 351.816 253.027 351.408C253.284 350.996 253.412 350.528 253.412 350.004V342.667H255.194ZM263.143 358.851C262.267 358.851 261.575 358.632 261.067 358.195C260.559 357.757 260.305 357.135 260.305 356.33C260.305 356.174 260.327 355.998 260.373 355.802C260.423 355.61 260.488 355.412 260.569 355.205C260.655 354.999 260.748 354.795 260.848 354.594L266.797 342.667H268.759L263.566 353.295C263.173 354.111 262.854 354.737 262.607 355.175C262.361 355.618 262.237 356.003 262.237 356.33C262.237 356.562 262.32 356.753 262.486 356.904C262.652 357.055 262.871 357.13 263.143 357.13C263.415 357.13 263.634 357.05 263.8 356.889C263.966 356.733 264.049 356.546 264.049 356.33C264.049 356.018 263.941 355.641 263.724 355.198C263.513 354.76 263.188 354.096 262.751 353.205L257.557 342.667H259.52L265.498 354.594C265.619 354.835 265.71 355.064 265.77 355.281C265.83 355.497 265.871 355.693 265.891 355.87C265.911 356.051 265.921 356.204 265.921 356.33C265.921 357.135 265.677 357.757 265.189 358.195C264.701 358.632 264.019 358.851 263.143 358.851ZM276.844 354.503C276.1 354.503 275.503 354.38 275.055 354.133C274.608 353.882 274.263 353.597 274.021 353.28C273.78 352.958 273.593 352.692 273.463 352.48H273.251V354.262H271.53V341.701C271.53 341.202 271.606 340.762 271.757 340.38C271.913 339.992 272.129 339.665 272.406 339.398C272.683 339.132 273.002 338.93 273.365 338.794C273.732 338.659 274.127 338.591 274.55 338.591C274.731 338.591 274.912 338.596 275.093 338.606C275.279 338.611 275.44 338.636 275.576 338.681V340.191C275.501 340.176 275.413 340.163 275.312 340.153C275.211 340.138 275.108 340.131 275.003 340.131C274.68 340.131 274.391 340.178 274.134 340.274C273.883 340.365 273.682 340.526 273.531 340.757C273.385 340.984 273.312 341.298 273.312 341.701V344.509H273.463C273.593 344.308 273.775 344.051 274.006 343.739C274.243 343.422 274.58 343.14 275.018 342.893C275.461 342.642 276.059 342.516 276.814 342.516C277.791 342.516 278.651 342.76 279.396 343.248C280.141 343.736 280.722 344.428 281.14 345.324C281.557 346.22 281.766 347.277 281.766 348.495C281.766 349.722 281.557 350.787 281.14 351.688C280.722 352.583 280.143 353.278 279.403 353.771C278.664 354.259 277.811 354.503 276.844 354.503ZM276.603 352.903C277.348 352.903 277.969 352.707 278.467 352.314C278.971 351.917 279.348 351.383 279.6 350.714C279.856 350.039 279.985 349.29 279.985 348.464C279.985 347.649 279.859 346.914 279.607 346.26C279.361 345.601 278.986 345.08 278.483 344.698C277.984 344.31 277.358 344.116 276.603 344.116C275.878 344.116 275.269 344.3 274.776 344.667C274.283 345.03 273.911 345.538 273.659 346.192C273.407 346.841 273.281 347.599 273.281 348.464C273.281 349.34 273.41 350.112 273.666 350.782C273.923 351.446 274.298 351.967 274.791 352.344C275.284 352.717 275.888 352.903 276.603 352.903ZM284.335 354.262V352.752H290.344V354.262H284.335ZM288.593 357.04H286.811V345.988C286.811 345.485 286.736 345.11 286.585 344.864C286.439 344.612 286.247 344.446 286.011 344.365C285.779 344.28 285.533 344.237 285.271 344.237C285.075 344.237 284.914 344.25 284.788 344.275C284.662 344.295 284.562 344.313 284.486 344.328L284.124 342.727C284.245 342.682 284.413 342.637 284.63 342.591C284.846 342.541 285.12 342.516 285.452 342.516C285.956 342.516 286.446 342.624 286.924 342.841C287.407 343.057 287.805 343.387 288.117 343.829C288.434 344.272 288.593 344.831 288.593 345.505V357.04ZM297.827 343.029V344.69H292.664V343.029H297.827ZM296.257 343.029V354.262H294.174V343.029H296.257ZM297.827 352.601V354.262H292.664V352.601H297.827ZM193.605 373.694V375.234H185.483V373.694H193.605ZM189.544 380.503C188.497 380.503 187.579 380.254 186.789 379.756C186.004 379.258 185.39 378.561 184.947 377.665C184.509 376.769 184.29 375.722 184.29 374.525C184.29 373.317 184.509 372.263 184.947 371.362C185.39 370.461 186.004 369.762 186.789 369.263C187.579 368.765 188.497 368.516 189.544 368.516C190.591 368.516 191.507 368.765 192.292 369.263C193.082 369.762 193.696 370.461 194.134 371.362C194.576 372.263 194.798 373.317 194.798 374.525C194.798 375.722 194.576 376.769 194.134 377.665C193.696 378.561 193.082 379.258 192.292 379.756C191.507 380.254 190.591 380.503 189.544 380.503ZM189.544 378.903C190.339 378.903 190.993 378.699 191.507 378.292C192.02 377.884 192.4 377.348 192.647 376.684C192.893 376.019 193.016 375.3 193.016 374.525C193.016 373.75 192.893 373.028 192.647 372.358C192.4 371.689 192.02 371.148 191.507 370.735C190.993 370.323 190.339 370.116 189.544 370.116C188.749 370.116 188.095 370.323 187.581 370.735C187.068 371.148 186.688 371.689 186.442 372.358C186.195 373.028 186.072 373.75 186.072 374.525C186.072 375.3 186.195 376.019 186.442 376.684C186.688 377.348 187.068 377.884 187.581 378.292C188.095 378.699 188.749 378.903 189.544 378.903ZM211.379 380.262H213.161V381.5C213.161 381.998 213.083 382.438 212.927 382.821C212.776 383.208 212.562 383.535 212.285 383.802C212.008 384.069 211.686 384.27 211.319 384.406C210.956 384.542 210.564 384.61 210.141 384.61C209.96 384.61 209.776 384.605 209.59 384.595C209.409 384.59 209.25 384.564 209.115 384.519V383.009C209.19 383.025 209.278 383.037 209.379 383.047C209.479 383.062 209.583 383.07 209.688 383.07C210.171 383.07 210.574 382.959 210.896 382.738C211.218 382.516 211.379 382.104 211.379 381.5V380.262ZM197.942 380.262V368.667H199.664V370.479H199.815C200.056 369.86 200.446 369.379 200.985 369.037C201.523 368.69 202.17 368.516 202.925 368.516C203.69 368.516 204.326 368.69 204.834 369.037C205.348 369.379 205.748 369.86 206.035 370.479H206.155C206.452 369.88 206.898 369.404 207.492 369.052C208.085 368.695 208.797 368.516 209.628 368.516C210.664 368.516 211.512 368.841 212.172 369.49C212.831 370.134 213.161 371.138 213.161 372.502V380.262H211.379V372.502C211.379 371.646 211.145 371.035 210.677 370.667C210.209 370.3 209.658 370.116 209.024 370.116C208.209 370.116 207.577 370.363 207.129 370.856C206.681 371.344 206.457 371.963 206.457 372.713V380.262H204.646V372.321C204.646 371.661 204.432 371.13 204.004 370.728C203.576 370.32 203.025 370.116 202.351 370.116C201.888 370.116 201.455 370.24 201.053 370.486C200.655 370.733 200.333 371.075 200.086 371.513C199.845 371.946 199.724 372.446 199.724 373.015V380.262H197.942ZM224.15 375.521V368.667H225.932V380.262H224.15V378.299H224.029C223.758 378.888 223.335 379.389 222.761 379.801C222.187 380.209 221.463 380.413 220.587 380.413C219.862 380.413 219.218 380.254 218.655 379.937C218.091 379.615 217.648 379.132 217.326 378.488C217.004 377.839 216.843 377.021 216.843 376.034V368.667H218.624V375.914C218.624 376.759 218.861 377.433 219.334 377.937C219.812 378.44 220.421 378.692 221.161 378.692C221.604 378.692 222.054 378.578 222.512 378.352C222.975 378.125 223.363 377.778 223.675 377.31C223.992 376.842 224.15 376.246 224.15 375.521ZM218.262 366.734C218.262 365.919 218.544 365.247 219.108 364.719C219.671 364.191 220.436 363.926 221.402 363.926C222.369 363.926 223.129 364.191 223.682 364.719C224.236 365.247 224.512 365.919 224.512 366.734H222.852C222.852 366.327 222.739 365.975 222.512 365.678C222.286 365.376 221.916 365.225 221.402 365.225C220.859 365.225 220.476 365.378 220.255 365.685C220.034 365.992 219.923 366.342 219.923 366.734H218.262ZM240.55 384.61C240.127 384.61 239.732 384.542 239.365 384.406C239.003 384.27 238.683 384.069 238.406 383.802C238.13 383.535 237.913 383.208 237.757 382.821C237.606 382.438 237.531 381.998 237.531 381.5V378.058H239.312V381.5C239.312 381.902 239.385 382.217 239.531 382.443C239.682 382.675 239.883 382.836 240.135 382.926C240.392 383.022 240.681 383.07 241.003 383.07C241.109 383.07 241.212 383.062 241.313 383.047C241.413 383.037 241.501 383.025 241.577 383.009V384.519C241.441 384.564 241.28 384.59 241.094 384.595C240.912 384.605 240.731 384.61 240.55 384.61ZM233.998 380.503C233.032 380.503 232.179 380.259 231.439 379.771C230.699 379.278 230.12 378.583 229.703 377.688C229.285 376.787 229.076 375.722 229.076 374.495C229.076 373.277 229.285 372.22 229.703 371.324C230.12 370.428 230.702 369.736 231.446 369.248C232.191 368.76 233.052 368.516 234.028 368.516C234.783 368.516 235.379 368.642 235.817 368.893C236.26 369.14 236.597 369.422 236.829 369.739C237.065 370.051 237.249 370.308 237.38 370.509H237.531V364.802H239.312V380.262H237.591V378.48H237.38C237.249 378.692 237.063 378.958 236.821 379.28C236.58 379.597 236.235 379.882 235.787 380.133C235.339 380.38 234.743 380.503 233.998 380.503ZM234.239 378.903C234.954 378.903 235.558 378.717 236.051 378.344C236.544 377.967 236.919 377.446 237.176 376.782C237.433 376.112 237.561 375.34 237.561 374.464C237.561 373.599 237.435 372.841 237.183 372.192C236.932 371.538 236.559 371.03 236.066 370.667C235.573 370.3 234.964 370.116 234.239 370.116C233.485 370.116 232.856 370.31 232.352 370.698C231.854 371.08 231.479 371.601 231.228 372.26C230.981 372.914 230.858 373.649 230.858 374.464C230.858 375.29 230.983 376.039 231.235 376.714C231.492 377.383 231.869 377.917 232.367 378.314C232.871 378.707 233.495 378.903 234.239 378.903ZM244.719 368.667H242.998V367.701C242.998 367.202 243.074 366.762 243.225 366.38C243.381 365.992 243.597 365.665 243.874 365.398C244.151 365.132 244.47 364.93 244.833 364.794C245.2 364.659 245.595 364.591 246.018 364.591C246.199 364.591 246.38 364.596 246.561 364.606C246.748 364.611 246.909 364.636 247.044 364.681V366.191C246.969 366.176 246.881 366.163 246.78 366.153C246.68 366.138 246.576 366.131 246.471 366.131C246.149 366.131 245.854 366.178 245.588 366.274C245.326 366.365 245.114 366.526 244.953 366.757C244.797 366.984 244.719 367.298 244.719 367.701V368.667ZM244.78 373.287V380.262H242.998V368.667H244.719V370.479H244.87C245.142 369.89 245.555 369.417 246.108 369.059C246.662 368.697 247.377 368.516 248.252 368.516C249.037 368.516 249.724 368.677 250.313 368.999C250.902 369.316 251.36 369.799 251.687 370.448C252.014 371.093 252.178 371.908 252.178 372.894V380.262H250.396V373.015C250.396 372.104 250.16 371.395 249.686 370.886C249.213 370.373 248.564 370.116 247.739 370.116C247.17 370.116 246.662 370.24 246.214 370.486C245.771 370.733 245.421 371.093 245.165 371.566C244.908 372.039 244.78 372.612 244.78 373.287ZM267.302 372.864V374.253H254.228V372.864H267.302ZM263.528 375.521V368.667H265.309V380.262H263.528V378.299H263.407C263.135 378.888 262.712 379.389 262.139 379.801C261.565 380.209 260.84 380.413 259.965 380.413C259.24 380.413 258.596 380.254 258.032 379.937C257.468 379.615 257.026 379.132 256.704 378.488C256.381 377.839 256.22 377.021 256.22 376.034V368.667H258.002V375.914C258.002 376.759 258.238 377.433 258.711 377.937C259.19 378.44 259.798 378.692 260.538 378.692C260.981 378.692 261.431 378.578 261.889 378.352C262.352 378.125 262.74 377.778 263.052 377.31C263.369 376.842 263.528 376.246 263.528 375.521ZM274.072 380.503C272.995 380.503 272.064 380.249 271.279 379.741C270.494 379.228 269.887 378.518 269.459 377.612C269.032 376.701 268.818 375.652 268.818 374.464C268.818 373.307 269.034 372.28 269.467 371.384C269.905 370.489 270.514 369.787 271.294 369.278C272.079 368.77 272.995 368.516 274.041 368.516C274.857 368.516 275.591 368.667 276.246 368.969C276.9 369.271 277.436 369.694 277.854 370.237C278.271 370.781 278.53 371.415 278.631 372.139H276.85C276.714 371.611 276.412 371.143 275.944 370.735C275.481 370.323 274.857 370.116 274.072 370.116C273.377 370.116 272.768 370.297 272.245 370.66C271.727 371.017 271.321 371.523 271.03 372.177C270.743 372.826 270.599 373.589 270.599 374.464C270.599 375.36 270.74 376.14 271.022 376.804C271.309 377.469 271.711 377.985 272.23 378.352C272.753 378.719 273.367 378.903 274.072 378.903V380.503ZM268.818 380.654L267.58 379.567C267.816 379.326 268.116 379.001 268.478 378.593C268.84 378.181 269.261 377.743 269.739 377.28C270.222 376.812 270.755 376.369 271.339 375.951C271.923 375.534 272.552 375.192 273.226 374.925C273.901 374.658 274.615 374.525 275.37 374.525C276.044 374.525 276.603 374.638 277.046 374.864C277.489 375.086 277.818 375.393 278.035 375.785C278.251 376.173 278.359 376.618 278.359 377.121C278.359 377.816 278.168 378.417 277.786 378.926C277.403 379.429 276.887 379.819 276.238 380.096C275.589 380.367 274.867 380.503 274.072 380.503V378.903C274.766 378.903 275.352 378.742 275.831 378.42C276.309 378.093 276.548 377.68 276.548 377.182C276.548 376.804 276.409 376.53 276.132 376.359C275.861 376.183 275.597 376.095 275.34 376.095C274.862 376.095 274.361 376.221 273.838 376.472C273.314 376.719 272.796 377.038 272.283 377.431C271.769 377.818 271.284 378.226 270.826 378.654C270.373 379.077 269.97 379.469 269.618 379.831C269.271 380.194 269.004 380.468 268.818 380.654ZM282.959 380.382C282.586 380.382 282.267 380.249 282 379.982C281.733 379.716 281.6 379.396 281.6 379.024C281.6 378.651 281.733 378.332 282 378.065C282.267 377.798 282.586 377.665 282.959 377.665C283.331 377.665 283.651 377.798 283.918 378.065C284.184 378.332 284.318 378.651 284.318 379.024C284.318 379.27 284.255 379.497 284.129 379.703C284.008 379.909 283.845 380.076 283.638 380.201C283.437 380.322 283.211 380.382 282.959 380.382Z" fill="url(#paint1_radial_273_2186)"/>
<defs>
<linearGradient id="paint0_linear_273_2186" x1="241.974" y1="208.904" x2="241.974" y2="413.357" gradientUnits="userSpaceOnUse">
<stop stop-color="#CCCDFF" stop-opacity="0.42"/>
<stop offset="0.557292" stop-color="white"/>
<stop offset="0.958333" stop-color="#CECFFF" stop-opacity="0.68"/>
</linearGradient>
<radialGradient id="paint1_radial_273_2186" cx="0" cy="0" r="1" gradientUnits="userSpaceOnUse" gradientTransform="translate(246.974 277.167) rotate(90) scale(132.094 96.8252)">
<stop stop-color="#20194A"/>
<stop offset="1" stop-color="#948AFF"/>
</radialGradient>
</defs>
</svg>
