<svg width="500" height="500" viewBox="0 0 500 500" fill="none" xmlns="http://www.w3.org/2000/svg">
<path fill-rule="evenodd" clip-rule="evenodd" d="M229.021 329.793L255.049 198.825C256.312 195.458 260.773 188.725 268.516 188.725C276.26 188.725 347.496 182.552 382.146 179.466C386.635 179.466 394.939 182.159 392.246 192.933C389.695 203.138 371.337 289.156 361.06 337.553C360.084 354.739 342.765 368.427 321.543 368.427C299.695 368.427 281.983 353.919 281.983 336.022C281.983 318.125 299.695 303.616 321.543 303.616C333.099 303.616 343.498 307.675 350.731 314.148L372.887 215.238L262.624 225.338L235.269 354.539L234.929 354.165C231.321 369.017 215.321 380.211 196.13 380.211C174.282 380.211 156.57 365.703 156.57 347.806C156.57 329.909 174.282 315.4 196.13 315.4C209.841 315.4 221.923 321.114 229.021 329.793Z" fill="url(#paint0_linear_273_1936)"/>
<path d="M255.049 198.825L254.261 198.529L254.237 198.594L254.224 198.661L255.049 198.825ZM229.021 329.793L228.369 330.326L229.498 331.707L229.846 329.957L229.021 329.793ZM382.146 179.466V178.624H382.108L382.071 178.627L382.146 179.466ZM392.246 192.933L393.063 193.137V193.137L392.246 192.933ZM361.06 337.553L360.236 337.379L360.223 337.441L360.219 337.506L361.06 337.553ZM350.731 314.148L350.17 314.775L351.239 315.732L351.552 314.332L350.731 314.148ZM372.887 215.238L373.708 215.422L373.961 214.294L372.81 214.4L372.887 215.238ZM262.624 225.338L262.548 224.5L261.929 224.557L261.801 225.164L262.624 225.338ZM235.269 354.539L234.646 355.105L235.752 356.322L236.093 354.714L235.269 354.539ZM234.929 354.165L235.551 353.598L234.485 352.425L234.111 353.966L234.929 354.165ZM254.224 198.661L228.195 329.629L229.846 329.957L255.875 198.989L254.224 198.661ZM268.516 187.883C264.38 187.883 261.132 189.686 258.776 191.899C256.431 194.101 254.932 196.739 254.261 198.529L255.837 199.12C256.428 197.544 257.792 195.132 259.928 193.126C262.054 191.13 264.909 189.566 268.516 189.566V187.883ZM382.071 178.627C364.747 180.17 338.277 182.485 315.171 184.414C292.033 186.345 272.342 187.883 268.516 187.883V189.566C272.434 189.566 292.233 188.018 315.311 186.091C338.421 184.162 364.894 181.847 382.22 180.304L382.071 178.627ZM393.063 193.137C394.472 187.501 393.023 183.791 390.445 181.527C387.939 179.327 384.514 178.624 382.146 178.624V180.308C384.266 180.308 387.238 180.951 389.334 182.792C391.357 184.568 392.714 187.591 391.429 192.729L393.063 193.137ZM361.883 337.728C372.163 289.316 390.516 203.322 393.063 193.137L391.429 192.729C388.873 202.953 370.51 288.996 360.236 337.379L361.883 337.728ZM321.543 369.269C343.062 369.269 360.891 355.367 361.9 337.601L360.219 337.506C359.276 354.111 342.467 367.586 321.543 367.586V369.269ZM281.142 336.022C281.142 354.533 299.395 369.269 321.543 369.269V367.586C299.995 367.586 282.825 353.305 282.825 336.022H281.142ZM321.543 302.775C299.395 302.775 281.142 317.511 281.142 336.022H282.825C282.825 318.739 299.995 304.458 321.543 304.458V302.775ZM351.292 313.521C343.895 306.901 333.292 302.775 321.543 302.775V304.458C332.907 304.458 343.102 308.45 350.17 314.775L351.292 313.521ZM372.066 215.054L349.91 313.964L351.552 314.332L373.708 215.422L372.066 215.054ZM262.701 226.177L372.964 216.076L372.81 214.4L262.548 224.5L262.701 226.177ZM236.093 354.714L263.448 225.513L261.801 225.164L234.446 354.365L236.093 354.714ZM234.306 354.731L234.646 355.105L235.892 353.973L235.551 353.598L234.306 354.731ZM196.13 381.053C215.607 381.053 232.025 369.685 235.747 354.363L234.111 353.966C230.617 368.349 215.036 379.369 196.13 379.369V381.053ZM155.729 347.806C155.729 366.317 173.982 381.053 196.13 381.053V379.369C174.582 379.369 157.412 365.089 157.412 347.806H155.729ZM196.13 314.558C173.982 314.558 155.729 329.295 155.729 347.806H157.412C157.412 330.523 174.582 316.242 196.13 316.242V314.558ZM229.672 329.26C222.398 320.365 210.065 314.558 196.13 314.558V316.242C209.617 316.242 221.448 321.863 228.369 330.326L229.672 329.26Z" fill="url(#paint1_linear_273_1936)"/>
<path fill-rule="evenodd" clip-rule="evenodd" d="M125.105 225.621L171.725 183.44C173.148 182.523 176.725 181.231 179.651 183.406C182.577 185.581 211.23 203.256 225.191 211.822C226.887 213.082 229.269 216.433 225.225 219.748C221.394 222.888 190.288 250.245 172.813 265.646C167.615 271.859 157.231 272.164 149.215 266.206C140.959 260.07 138.341 249.613 143.368 242.85C148.394 236.087 159.162 235.579 167.418 241.715C171.786 244.961 174.575 249.417 175.49 253.894L211.645 222.739L167.141 195.587L120.516 236.727L120.493 236.491C114.958 241.09 105.768 240.826 98.5159 235.436C90.2598 229.299 87.6417 218.842 92.6683 212.079C97.695 205.316 108.463 204.808 116.719 210.945C121.9 214.796 124.861 220.348 125.105 225.621Z" fill="url(#paint2_linear_273_1936)"/>
<path d="M171.725 183.44L171.269 182.733L171.211 182.77L171.161 182.816L171.725 183.44ZM125.105 225.621L124.265 225.66L124.347 227.442L125.67 226.245L125.105 225.621ZM225.191 211.822L225.693 211.146L225.663 211.124L225.631 211.104L225.191 211.822ZM225.225 219.748L224.691 219.097L225.225 219.748ZM172.813 265.646L172.256 265.014L172.208 265.057L172.167 265.106L172.813 265.646ZM175.49 253.894L174.666 254.063L174.953 255.469L176.04 254.532L175.49 253.894ZM211.645 222.739L212.194 223.377L213.07 222.622L212.083 222.02L211.645 222.739ZM167.141 195.587L167.58 194.868L167.05 194.545L166.584 194.956L167.141 195.587ZM120.516 236.727L119.678 236.81L119.84 238.446L121.073 237.358L120.516 236.727ZM120.493 236.491L121.33 236.408L121.174 234.83L119.955 235.843L120.493 236.491ZM171.161 182.816L124.541 224.997L125.67 226.245L172.29 184.064L171.161 182.816ZM180.153 182.73C178.478 181.485 176.623 181.243 175.028 181.427C173.448 181.609 172.077 182.212 171.269 182.733L172.182 184.148C172.797 183.751 173.925 183.249 175.221 183.1C176.502 182.952 177.898 183.152 179.149 184.081L180.153 182.73ZM225.631 211.104C218.651 206.822 207.999 200.263 198.727 194.502C189.428 188.725 181.58 183.79 180.153 182.73L179.149 184.081C180.649 185.196 188.59 190.187 197.839 195.932C207.115 201.695 217.769 208.256 224.75 212.539L225.631 211.104ZM225.759 220.398C227.979 218.578 228.563 216.609 228.183 214.838C227.824 213.162 226.641 211.851 225.693 211.146L224.689 212.497C225.437 213.053 226.292 214.047 226.537 215.191C226.762 216.239 226.514 217.602 224.691 219.097L225.759 220.398ZM173.37 266.277C190.856 250.867 221.943 223.526 225.759 220.398L224.691 219.097C220.845 222.249 189.72 249.623 172.256 265.014L173.37 266.277ZM148.713 266.882C156.968 273.017 167.888 272.844 173.459 266.186L172.167 265.106C167.342 270.873 157.495 271.311 149.717 265.531L148.713 266.882ZM142.692 242.348C137.299 249.604 140.216 260.567 148.713 266.882L149.717 265.531C141.702 259.573 139.383 249.622 144.043 243.352L142.692 242.348ZM167.92 241.04C159.423 234.724 148.085 235.092 142.692 242.348L144.043 243.352C148.703 237.082 158.901 236.433 166.916 242.391L167.92 241.04ZM176.315 253.726C175.356 249.031 172.442 244.401 167.92 241.04L166.916 242.391C171.129 245.522 173.795 249.802 174.666 254.063L176.315 253.726ZM211.095 222.101L174.941 253.257L176.04 254.532L212.194 223.377L211.095 222.101ZM166.703 196.305L211.206 223.458L212.083 222.02L167.58 194.868L166.703 196.305ZM121.073 237.358L167.698 196.218L166.584 194.956L119.959 236.096L121.073 237.358ZM119.655 236.573L119.678 236.81L121.354 236.644L121.33 236.408L119.655 236.573ZM98.0138 236.111C105.495 241.672 115.125 242.046 121.031 237.138L119.955 235.843C114.791 240.134 106.041 239.98 99.018 234.76L98.0138 236.111ZM91.9928 211.577C86.5998 218.833 89.5168 229.796 98.0138 236.111L99.018 234.76C91.0027 228.803 88.6836 218.852 93.3439 212.581L91.9928 211.577ZM117.221 210.269C108.724 203.954 97.3858 204.321 91.9928 211.577L93.3439 212.581C98.0042 206.311 108.202 205.663 116.217 211.62L117.221 210.269ZM125.946 225.582C125.689 220.03 122.582 214.254 117.221 210.269L116.217 211.62C121.218 215.337 124.033 220.666 124.265 225.66L125.946 225.582Z" fill="url(#paint3_linear_273_1936)"/>
<path fill-rule="evenodd" clip-rule="evenodd" d="M244.405 127.835L255.137 80.4589C255.629 79.2468 257.316 76.8413 260.132 76.9162C262.948 76.9911 288.912 75.4353 301.543 74.648C303.175 74.6914 306.169 75.7512 305.085 79.643C304.059 83.3306 296.546 114.455 292.341 131.952C291.809 138.183 285.384 142.984 277.674 142.779C269.729 142.567 263.429 137.12 263.602 130.612C263.775 124.104 270.356 118.999 278.301 119.21C282.505 119.322 286.248 120.9 288.816 123.324L297.83 87.5669L257.636 90.1737L246.439 136.893L246.318 136.752C244.863 142.119 238.936 146.036 231.956 145.85C224.011 145.639 217.711 140.192 217.884 133.684C218.057 127.176 224.638 122.071 232.583 122.282C237.57 122.415 241.908 124.61 244.405 127.835Z" fill="url(#paint4_linear_273_1936)"/>
<path d="M255.137 80.4589L254.357 80.1425L254.331 80.2061L254.316 80.273L255.137 80.4589ZM244.405 127.835L243.74 128.35L244.832 129.761L245.226 128.021L244.405 127.835ZM301.543 74.648L301.565 73.8066L301.528 73.8056L301.49 73.808L301.543 74.648ZM305.085 79.643L304.275 79.4172L304.275 79.4172L305.085 79.643ZM292.341 131.952L291.523 131.755L291.508 131.817L291.503 131.88L292.341 131.952ZM288.816 123.324L288.238 123.936L289.281 124.922L289.632 123.53L288.816 123.324ZM297.83 87.5669L298.646 87.7727L298.928 86.6522L297.775 86.727L297.83 87.5669ZM257.636 90.1737L257.581 89.3338L256.962 89.374L256.817 89.9776L257.636 90.1737ZM246.439 136.893L245.801 137.442L246.874 138.687L247.257 137.089L246.439 136.893ZM246.318 136.752L246.955 136.203L245.92 135.001L245.505 136.532L246.318 136.752ZM254.316 80.273L243.584 127.649L245.226 128.021L255.958 80.6449L254.316 80.273ZM260.155 76.0748C258.482 76.0303 257.157 76.7278 256.203 77.5762C255.261 78.4148 254.646 79.4303 254.357 80.1425L255.917 80.7753C256.12 80.2754 256.594 79.4822 257.323 78.8336C258.04 78.1951 258.966 77.7272 260.11 77.7576L260.155 76.0748ZM301.49 73.808C295.176 74.2015 285.529 74.7872 277.109 75.2651C268.658 75.7447 261.517 76.111 260.155 76.0748L260.11 77.7576C261.564 77.7962 268.813 77.4221 277.205 76.9458C285.629 76.4676 295.279 75.8818 301.595 75.4881L301.49 73.808ZM305.896 79.8688C306.507 77.6753 305.993 76.0928 304.904 75.0849C303.888 74.143 302.505 73.8316 301.565 73.8066L301.52 75.4894C302.212 75.5078 303.143 75.7481 303.761 76.3199C304.307 76.8257 304.747 77.7189 304.275 79.4172L305.896 79.8688ZM293.16 132.148C297.368 114.637 304.875 83.5372 305.896 79.8688L304.275 79.4172C303.242 83.124 295.724 114.273 291.523 131.755L293.16 132.148ZM277.652 143.62C285.659 143.833 292.599 138.833 293.18 132.023L291.503 131.88C291.02 137.533 285.109 142.134 277.697 141.937L277.652 143.62ZM262.761 130.59C262.571 137.712 269.407 143.401 277.652 143.62L277.697 141.937C270.052 141.734 264.287 136.529 264.443 130.634L262.761 130.59ZM278.324 118.369C270.078 118.15 262.95 123.468 262.761 130.59L264.443 130.634C264.6 124.74 270.634 119.849 278.279 120.052L278.324 118.369ZM289.394 122.713C286.665 120.136 282.72 118.486 278.324 118.369L278.279 120.052C282.29 120.158 285.831 121.664 288.238 123.936L289.394 122.713ZM297.014 87.3612L287.999 123.119L289.632 123.53L298.646 87.7727L297.014 87.3612ZM257.69 91.0137L297.884 88.4069L297.775 86.727L257.581 89.3338L257.69 91.0137ZM247.257 137.089L258.454 90.3699L256.817 89.9776L245.62 136.696L247.257 137.089ZM245.68 137.302L245.801 137.442L247.076 136.343L246.955 136.203L245.68 137.302ZM231.934 146.692C239.199 146.885 245.549 142.805 247.13 136.972L245.505 136.532C244.177 141.433 238.673 145.187 231.979 145.009L231.934 146.692ZM217.043 133.661C216.853 140.783 223.689 146.473 231.934 146.692L231.979 145.009C224.334 144.806 218.569 139.6 218.725 133.706L217.043 133.661ZM232.605 121.441C224.36 121.221 217.232 126.539 217.043 133.661L218.725 133.706C218.882 127.812 224.916 122.92 232.561 123.124L232.605 121.441ZM245.071 127.32C242.403 123.874 237.816 121.579 232.605 121.441L232.561 123.124C237.323 123.25 241.414 125.346 243.74 128.35L245.071 127.32Z" fill="url(#paint5_linear_273_1936)"/>
<path fill-rule="evenodd" clip-rule="evenodd" d="M205.45 316.327L231.479 185.359C232.741 181.992 237.202 175.259 244.946 175.259C252.69 175.259 323.925 169.086 358.575 166C363.064 166 371.369 168.693 368.676 179.467C366.125 189.672 347.766 275.69 337.489 324.088C336.513 341.273 319.195 354.961 297.973 354.961C276.125 354.961 258.413 340.453 258.413 322.556C258.413 304.659 276.125 290.151 297.973 290.151C309.529 290.151 319.928 294.21 327.161 300.682L349.317 201.772L239.054 211.873L211.699 341.073L211.358 340.699C207.751 355.551 191.751 366.745 172.56 366.745C150.712 366.745 133 352.237 133 334.34C133 316.443 150.712 301.934 172.56 301.934C186.271 301.934 198.353 307.648 205.45 316.327Z" fill="#7F81F7"/>
<path fill-rule="evenodd" clip-rule="evenodd" d="M205.45 316.327L231.479 185.359C232.741 181.992 237.202 175.259 244.946 175.259C252.69 175.259 323.925 169.086 358.575 166C363.064 166 371.369 168.693 368.676 179.467C366.125 189.672 347.766 275.69 337.489 324.088C336.513 341.273 319.195 354.961 297.973 354.961C276.125 354.961 258.413 340.453 258.413 322.556C258.413 304.659 276.125 290.151 297.973 290.151C309.529 290.151 319.928 294.21 327.161 300.682L349.317 201.772L239.054 211.873L211.699 341.073L211.358 340.699C207.751 355.551 191.751 366.745 172.56 366.745C150.712 366.745 133 352.237 133 334.34C133 316.443 150.712 301.934 172.56 301.934C186.271 301.934 198.353 307.648 205.45 316.327Z" fill="url(#paint6_linear_273_1936)"/>
<path fill-rule="evenodd" clip-rule="evenodd" d="M101.539 212.155L148.159 169.974C149.582 169.057 153.159 167.765 156.085 169.94C159.011 172.115 187.664 189.79 201.624 198.356C203.321 199.617 205.702 202.967 201.659 206.282C197.828 209.422 166.722 236.779 149.247 252.18C144.049 258.393 133.665 258.699 125.649 252.741C117.393 246.604 114.775 236.147 119.801 229.384C124.828 222.621 135.596 222.113 143.852 228.249C148.219 231.496 151.009 235.951 151.924 240.429L188.078 209.273L143.575 182.121L96.9497 223.261L96.9263 223.025C91.3916 227.624 82.2016 227.36 74.9495 221.97C66.6934 215.834 64.0753 205.377 69.1019 198.614C74.1286 191.851 84.8964 191.343 93.1526 197.479C98.3335 201.33 101.294 206.882 101.539 212.155Z" fill="#7F81F7"/>
<path fill-rule="evenodd" clip-rule="evenodd" d="M101.539 212.155L148.159 169.974C149.582 169.057 153.159 167.765 156.085 169.94C159.011 172.115 187.664 189.79 201.624 198.356C203.321 199.617 205.702 202.967 201.659 206.282C197.828 209.422 166.722 236.779 149.247 252.18C144.049 258.393 133.665 258.699 125.649 252.741C117.393 246.604 114.775 236.147 119.801 229.384C124.828 222.621 135.596 222.113 143.852 228.249C148.219 231.496 151.009 235.951 151.924 240.429L188.078 209.273L143.575 182.121L96.9497 223.261L96.9263 223.025C91.3916 227.624 82.2016 227.36 74.9495 221.97C66.6934 215.834 64.0753 205.377 69.1019 198.614C74.1286 191.851 84.8964 191.343 93.1526 197.479C98.3335 201.33 101.294 206.882 101.539 212.155Z" fill="url(#paint7_linear_273_1936)"/>
<path fill-rule="evenodd" clip-rule="evenodd" d="M220.835 114.368L231.567 66.9921C232.059 65.78 233.746 63.3745 236.562 63.4494C239.378 63.5243 265.342 61.9685 277.972 61.1812C279.605 61.2246 282.599 62.2844 281.515 66.1762C280.488 69.8638 272.975 100.988 268.771 118.485C268.239 124.716 261.814 129.517 254.104 129.312C246.159 129.101 239.859 123.653 240.032 117.145C240.205 110.637 246.786 105.532 254.731 105.744C258.934 105.855 262.678 107.433 265.245 109.858L274.26 74.1001L234.065 76.7069L222.868 123.426L222.747 123.285C221.293 128.652 215.366 132.569 208.386 132.384C200.441 132.172 194.141 126.725 194.314 120.217C194.487 113.709 201.068 108.604 209.013 108.815C213.999 108.948 218.338 111.143 220.835 114.368Z" fill="#7F81F7"/>
<path fill-rule="evenodd" clip-rule="evenodd" d="M220.835 114.368L231.567 66.9921C232.059 65.78 233.746 63.3745 236.562 63.4494C239.378 63.5243 265.342 61.9685 277.972 61.1812C279.605 61.2246 282.599 62.2844 281.515 66.1762C280.488 69.8638 272.975 100.988 268.771 118.485C268.239 124.716 261.814 129.517 254.104 129.312C246.159 129.101 239.859 123.653 240.032 117.145C240.205 110.637 246.786 105.532 254.731 105.744C258.934 105.855 262.678 107.433 265.245 109.858L274.26 74.1001L234.065 76.7069L222.868 123.426L222.747 123.285C221.293 128.652 215.366 132.569 208.386 132.384C200.441 132.172 194.141 126.725 194.314 120.217C194.487 113.709 201.068 108.604 209.013 108.815C213.999 108.948 218.338 111.143 220.835 114.368Z" fill="url(#paint8_linear_273_1936)"/>
<defs>
<linearGradient id="paint0_linear_273_1936" x1="274.671" y1="179.466" x2="274.671" y2="380.211" gradientUnits="userSpaceOnUse">
<stop stop-color="white" stop-opacity="0.52"/>
<stop offset="1" stop-color="white" stop-opacity="0"/>
</linearGradient>
<linearGradient id="paint1_linear_273_1936" x1="274.671" y1="179.466" x2="274.671" y2="380.211" gradientUnits="userSpaceOnUse">
<stop stop-color="white" stop-opacity="0.52"/>
<stop offset="1" stop-color="white" stop-opacity="0"/>
</linearGradient>
<linearGradient id="paint2_linear_273_1936" x1="184.578" y1="181.636" x2="128.195" y2="257.495" gradientUnits="userSpaceOnUse">
<stop stop-color="white" stop-opacity="0.52"/>
<stop offset="1" stop-color="white" stop-opacity="0"/>
</linearGradient>
<linearGradient id="paint3_linear_273_1936" x1="184.578" y1="181.636" x2="128.195" y2="257.495" gradientUnits="userSpaceOnUse">
<stop stop-color="white" stop-opacity="0.52"/>
<stop offset="1" stop-color="white" stop-opacity="0"/>
</linearGradient>
<linearGradient id="paint4_linear_273_1936" x1="262.459" y1="73.6088" x2="260.518" y2="146.61" gradientUnits="userSpaceOnUse">
<stop stop-color="white" stop-opacity="0.52"/>
<stop offset="1" stop-color="white" stop-opacity="0"/>
</linearGradient>
<linearGradient id="paint5_linear_273_1936" x1="262.459" y1="73.6088" x2="260.518" y2="146.61" gradientUnits="userSpaceOnUse">
<stop stop-color="white" stop-opacity="0.52"/>
<stop offset="1" stop-color="white" stop-opacity="0"/>
</linearGradient>
<linearGradient id="paint6_linear_273_1936" x1="169.987" y1="154.71" x2="294.196" y2="427.541" gradientUnits="userSpaceOnUse">
<stop stop-color="#1E0FB7"/>
<stop offset="1" stop-color="#6E62F0" stop-opacity="0.28"/>
</linearGradient>
<linearGradient id="paint7_linear_273_1936" x1="133.531" y1="141.122" x2="103.839" y2="279.107" gradientUnits="userSpaceOnUse">
<stop stop-color="#1E0FB7"/>
<stop offset="1" stop-color="#6E62F0" stop-opacity="0.28"/>
</linearGradient>
<linearGradient id="paint8_linear_273_1936" x1="209.501" y1="55.2519" x2="252.031" y2="155.668" gradientUnits="userSpaceOnUse">
<stop stop-color="#1E0FB7"/>
<stop offset="1" stop-color="#6E62F0" stop-opacity="0.28"/>
</linearGradient>
</defs>
</svg>
