<svg width="500" height="500" viewBox="0 0 500 500" fill="none" xmlns="http://www.w3.org/2000/svg">
<rect x="124.844" y="245.484" width="250.336" height="157.515" rx="5.62552" fill="#E0B287"/>
<mask id="mask0_273_2406" style="mask-type:alpha" maskUnits="userSpaceOnUse" x="124" y="245" width="252" height="158">
<rect x="124.844" y="245.484" width="250.336" height="157.515" rx="5.62552" fill="#D9D9D9"/>
</mask>
<g mask="url(#mask0_273_2406)">
<path d="M125.275 273.882L375.61 294.199C375.883 294.221 376.117 294.005 376.117 293.731V257.205C376.117 256.946 375.907 256.736 375.648 256.736H125.313C125.054 256.736 124.844 256.946 124.844 257.205V273.415C124.844 273.659 125.031 273.862 125.275 273.882Z" fill="#3D2111"/>
</g>
<rect x="115" y="236.578" width="270.025" height="25.7836" fill="#605C93"/>
<path d="M153.91 188.762H345.646L385.025 236.579H115L153.91 188.762Z" fill="#E0B287"/>
<path d="M194.877 207.403C195.044 206.516 195.818 205.873 196.72 205.873H305.742C306.602 205.873 307.352 206.459 307.561 207.293L308.498 211.044C308.794 212.227 307.899 213.374 306.679 213.374H196.017C194.843 213.374 193.958 212.307 194.174 211.153L194.877 207.403Z" fill="#605C93"/>
<mask id="mask1_273_2406" style="mask-type:alpha" maskUnits="userSpaceOnUse" x="194" y="205" width="115" height="9">
<path d="M194.877 207.403C195.044 206.516 195.818 205.873 196.72 205.873H305.742C306.602 205.873 307.352 206.459 307.561 207.293L308.498 211.044C308.794 212.227 307.899 213.374 306.679 213.374H196.017C194.843 213.374 193.958 212.307 194.174 211.153L194.877 207.403Z" fill="#808080"/>
</mask>
<g mask="url(#mask1_273_2406)">
<path d="M191.103 207.255C191.395 206.56 192.076 206.107 192.831 206.107H316.193C316.871 206.107 317.496 206.474 317.828 207.065C318.529 208.315 317.626 209.858 316.193 209.858H192.831C191.49 209.858 190.583 208.491 191.103 207.255Z" fill="#3D2111"/>
<path d="M304.163 206.855C303.884 205.87 304.447 204.844 305.427 204.549L318.479 200.625C319.455 200.331 320.487 200.872 320.802 201.841L323.7 210.76C324.025 211.761 323.464 212.833 322.456 213.136L309.058 217.164C308.055 217.466 306.999 216.887 306.714 215.878L304.163 206.855Z" fill="#3D2111"/>
</g>
<path d="M314.942 113.595L250.717 100L229.387 196.337C252.826 194.649 280.563 202.197 291.502 206.182L314.942 113.595Z" fill="#FFE7DE"/>
<path d="M251.799 171.687L265.43 116.182C265.578 115.579 265.543 114.947 265.331 114.364C264.269 111.454 260.077 111.691 259.351 114.702L246.398 168.419C246.142 169.479 246.674 170.569 247.436 171.351C248.521 172.465 251.428 173.198 251.799 171.687Z" fill="#E8CFC6"/>
<path d="M269.343 175.117L284.894 120.119C285.062 119.522 285.05 118.888 284.858 118.299C283.898 115.353 279.7 115.445 278.87 118.429L264.058 171.663C263.766 172.714 264.259 173.822 264.993 174.629C266.04 175.781 268.919 176.614 269.343 175.117Z" fill="#E8CFC6"/>
<path d="M287.3 178.722L300.92 123.214C301.068 122.612 301.033 121.979 300.821 121.396C299.759 118.486 295.567 118.724 294.841 121.736L281.898 175.454C281.642 176.515 282.174 177.605 282.936 178.386C284.022 179.5 286.929 180.233 287.3 178.722Z" fill="#E8CFC6"/>
<path d="M242.27 180.873L240.77 186.053C240.453 187.15 241.182 188.274 242.314 188.432L247.022 189.086C247.935 189.212 248.804 188.657 249.074 187.776L250.576 182.859C250.901 181.794 250.233 180.682 249.141 180.47L244.429 179.554C243.476 179.368 242.54 179.941 242.27 180.873Z" stroke="#D27553" stroke-width="0.937587"/>
<path d="M260.551 184.154L259.052 189.334C258.734 190.432 259.463 191.556 260.595 191.713L265.304 192.367C266.216 192.494 267.086 191.939 267.355 191.057L268.857 186.14C269.183 185.075 268.515 183.964 267.422 183.751L262.71 182.835C261.757 182.65 260.821 183.222 260.551 184.154Z" stroke="#D27553" stroke-width="0.937587"/>
<path d="M278.836 187.436L277.337 192.615C277.019 193.713 277.748 194.837 278.88 194.994L283.589 195.648C284.501 195.775 285.371 195.22 285.64 194.339L287.143 189.421C287.468 188.357 286.8 187.245 285.707 187.032L280.995 186.116C280.043 185.931 279.106 186.503 278.836 187.436Z" stroke="#D27553" stroke-width="0.937587"/>
<path d="M242.981 186.491L246.731 184.382L240.168 173.6" stroke="#594999" stroke-width="1.87517"/>
</svg>
