<svg width="500" height="500" viewBox="0 0 500 500" fill="none" xmlns="http://www.w3.org/2000/svg">
<path d="M307.711 155.574L312.719 198.785" stroke="#F38962" stroke-width="4" stroke-linecap="round"/>
<path d="M242.391 143.516L285.601 138.507" stroke="#F38962" stroke-width="4" stroke-linecap="round"/>
<path d="M276.105 173.836L295.95 147.376" stroke="#F38962" stroke-width="4" stroke-linecap="round"/>
<path d="M305.533 148.913L291.022 137.812C290.491 137.405 290.501 136.601 291.043 136.208L311.629 121.268C311.992 121.005 312.486 121.015 312.837 121.294L317.169 124.726C317.531 125.012 317.649 125.509 317.457 125.928L307.049 148.537C306.781 149.119 306.042 149.302 305.533 148.913Z" fill="#453D86"/>
<path d="M186.793 284.856L196.39 224.348L250.742 263.35L186.793 284.856Z" fill="#CAC5FF"/>
<path d="M144.5 343.684L195.5 305.684L245.5 343.684H144.5Z" fill="#CAC5FF"/>
<path d="M199.443 215.942C185.312 198.252 186.455 147.315 188.793 124.057L348.623 247.979C327.828 259.651 277.046 260.135 254.254 258.917L199.443 215.942Z" fill="#8178DF"/>
<path d="M199.443 215.942C185.312 198.252 186.455 147.315 188.793 124.057L348.623 247.979C327.828 259.651 277.046 260.135 254.254 258.917L199.443 215.942Z" fill="url(#paint0_radial_273_2374)"/>
<path d="M347.202 250.894L188.453 124.254C186.806 122.94 186.461 120.573 187.664 118.843L189.57 116.101C190.886 114.209 193.524 113.817 195.333 115.245L354.976 241.292C356.747 242.69 357.012 245.276 355.561 247.004L352.759 250.339C351.364 252.001 348.898 252.247 347.202 250.894Z" fill="#453D86"/>
<path d="M245.204 266.113L196.005 225.203C194.415 223.88 194.095 221.563 195.268 219.859L196.893 217.498C198.214 215.579 200.889 215.191 202.701 216.655L252.684 257.029C254.42 258.432 254.673 260.983 253.246 262.699L250.837 265.595C249.425 267.293 246.903 267.525 245.204 266.113Z" fill="#453D86"/>
<path d="M180 269.684C180 267.474 181.791 265.684 184 265.684H208C210.209 265.684 212 267.474 212 269.684V299.684H180V269.684Z" fill="#8178DF"/>
<path d="M166 302.684C166 300.474 167.791 298.684 170 298.684H220C222.209 298.684 224 300.474 224 302.684V327.684H166V302.684Z" fill="#453D86"/>
<path d="M142 345.684C142 343.474 143.791 341.684 146 341.684H244C246.209 341.684 248 343.474 248 345.684V368.684H142V345.684Z" fill="#5A4DB9"/>
<path d="M122 369.684C122 367.474 123.791 365.684 126 365.684H262C264.209 365.684 266 367.474 266 369.684V399.684H122V369.684Z" fill="#453D86"/>
<circle cx="299.5" cy="352.184" r="33.5" fill="#CAC5FF"/>
<circle cx="299.5" cy="352.184" r="33.5" fill="url(#paint1_radial_273_2374)"/>
<path d="M263 374.684C263 372.474 264.791 370.684 267 370.684H331C333.209 370.684 335 372.474 335 374.684V399.684H263V374.684Z" fill="#5A4DB9"/>
<path d="M317.211 102.02C321.39 97.5427 331.11 94.2506 337.377 99.683C345.211 106.474 341.532 117.288 339.795 120.543M299.606 89.9659C305.102 80.6376 330.251 68.7725 349.672 84.1629C367.52 98.3062 364.787 125.398 355.556 134.924" stroke="#F38962" stroke-width="5.60015" stroke-linecap="round"/>
<defs>
<radialGradient id="paint0_radial_273_2374" cx="0" cy="0" r="1" gradientUnits="userSpaceOnUse" gradientTransform="translate(213.669 134.58) rotate(64.5612) scale(140.797 145.163)">
<stop stop-color="#D6CCFF"/>
<stop offset="1" stop-color="#8178DF" stop-opacity="0.25"/>
</radialGradient>
<radialGradient id="paint1_radial_273_2374" cx="0" cy="0" r="1" gradientUnits="userSpaceOnUse" gradientTransform="translate(322 378) rotate(-135.277) scale(73.1864)">
<stop stop-color="white"/>
<stop offset="1" stop-color="white" stop-opacity="0.17"/>
</radialGradient>
</defs>
</svg>
