<svg width="500" height="500" viewBox="0 0 500 500" fill="none" xmlns="http://www.w3.org/2000/svg">
<path d="M200.666 279.785L338.071 218.458L434.332 154.025L424.24 184.689L432.003 186.63L426.569 211.471L418.806 216.129L424.24 218.458V229.714L338.071 294.923L192.127 414.861L196.009 355.862L182.035 339.56L196.009 324.422L200.666 279.785Z" fill="#6A63AE"/>
<mask id="mask0_273_2347" style="mask-type:alpha" maskUnits="userSpaceOnUse" x="182" y="154" width="253" height="261">
<path d="M200.666 279.785L338.071 218.458L434.332 154.025L424.24 184.689L432.003 186.63L426.569 211.471L418.806 216.129L424.24 218.458V229.714L338.071 294.923L192.127 414.861L196.009 355.862L182.035 339.56L196.009 324.422L200.666 279.785Z" fill="#D9D9D9"/>
</mask>
<g mask="url(#mask0_273_2347)">
<path d="M423.854 187.407V184.69L427.736 181.973H440.157L351.27 241.747L423.854 187.407Z" fill="#3C1371"/>
<path d="M398.236 232.044L419.585 215.742H431.229L398.236 232.044Z" fill="#3C1371"/>
<path d="M273.252 261.931L199.116 287.937L193.682 304.239L273.252 261.931Z" fill="#3C1371"/>
<path d="M304.692 268.141L193.682 326.364H180.484L176.215 344.607L304.692 268.141Z" fill="#3C1371"/>
<path d="M248.411 344.607L193.682 368.672L191.741 393.125L248.411 344.607Z" fill="#3C1371"/>
</g>
<path d="M242.198 170.328L78.3984 202.932L199.501 271.634L329.143 217.294L424.628 155.19L310.9 128.02L242.198 170.328Z" fill="#CAC5FF"/>
<path d="M77.6239 250.285L65.2031 200.99L201.055 280.561L196.398 324.809L182.424 339.947L196.398 355.473L192.516 415.248L65.2031 314.329L77.6239 262.318L91.2091 257.272L77.6239 250.285Z" fill="#CAC5FF"/>
<mask id="mask1_273_2347" style="mask-type:alpha" maskUnits="userSpaceOnUse" x="65" y="200" width="137" height="216">
<path d="M77.6239 250.287L65.2031 200.992L201.055 280.562L196.398 324.811L182.424 339.949L196.398 355.475L192.516 415.25L65.2031 314.331L77.6239 262.32L91.2091 257.274L77.6239 250.287Z" fill="#D9D9D9"/>
</mask>
<g mask="url(#mask1_273_2347)">
<path d="M115.275 250.674L201.444 287.936V303.462L115.275 250.674Z" fill="#3C1371"/>
<path d="M169.227 303.462L72.5781 260.378L91.2093 256.884L169.227 303.462Z" fill="#3C1371"/>
<path d="M201.444 369.447L115.275 326.363L194.845 391.183L201.444 369.447Z" fill="#3C1371"/>
</g>
<path d="M240.647 165.67L65.2031 200.991L200.667 280.95L333.414 221.175L434.721 154.414L311.29 123.75L240.647 165.67Z" fill="#E3D5AF"/>
<path d="M154.866 210.695C159.835 204.174 152.796 197.627 148.656 195.169L223.181 177.702L253.068 168.775L295.765 141.993C297.447 143.287 303.993 146.107 316.725 147.039C329.456 147.97 336.779 141.475 338.849 138.111L379.993 149.368C378.311 150.661 374.637 154.336 373.395 158.683C372.152 163.03 385.298 167.222 392.026 168.775L324.488 210.695L240.647 244.464C239.871 241.229 232.807 234.294 210.76 232.431C188.713 230.568 179.061 239.677 176.991 244.464L133.906 218.846C138.823 218.846 149.898 217.216 154.866 210.695Z" fill="#A7784D"/>
<path d="M356.705 285.994L317.113 319.375V226.607L356.705 203.318V285.994Z" fill="#CAC5FF"/>
<mask id="mask2_273_2347" style="mask-type:alpha" maskUnits="userSpaceOnUse" x="317" y="203" width="40" height="117">
<path d="M356.701 285.996L317.109 319.376V226.609L356.701 203.32V285.996Z" fill="#D9D9D9"/>
</mask>
<g mask="url(#mask2_273_2347)">
<path d="M328.367 319.375V216.128L346.61 205.26V302.685L328.367 319.375Z" fill="#A7784D"/>
</g>
<ellipse cx="49.7202" cy="23.9798" rx="49.7202" ry="23.9798" transform="matrix(0.935668 -0.352883 0.352886 0.935667 215.027 189.115)" fill="#3D2111"/>
<path d="M317.501 226.222L199.504 171.881V174.986L312.844 228.939V316.272L317.501 318.989V226.222Z" fill="#A7784D"/>
<path d="M317.116 226.61L199.895 171.881L244.144 157.52L356.707 203.321L317.116 226.61Z" fill="#CAC5FF"/>
<mask id="mask3_273_2347" style="mask-type:alpha" maskUnits="userSpaceOnUse" x="199" y="157" width="158" height="70">
<path d="M317.108 226.608L199.887 171.879L244.136 157.518L356.699 203.319L317.108 226.608Z" fill="#D9D9D9"/>
</mask>
<g mask="url(#mask3_273_2347)">
<path d="M190.57 155.965L329.14 220.397L346.606 209.141L212.695 152.859L190.57 155.965Z" fill="#A7784D"/>
</g>
<ellipse cx="14.3615" cy="8.1511" rx="14.3615" ry="8.1511" transform="matrix(0.989288 0.145978 -0.145979 0.989288 196.453 238.643)" fill="#3D2111"/>
<ellipse cx="14.3615" cy="8.1511" rx="14.3615" ry="8.1511" transform="matrix(0.989288 0.145978 -0.145979 0.989288 113.383 195.945)" fill="#3D2111"/>
<ellipse cx="10.7352" cy="5.70839" rx="10.7352" ry="5.70839" transform="matrix(0.990633 0.136552 -0.156025 0.987753 384.887 151.25)" fill="#3D2111"/>
<ellipse cx="10.7352" cy="5.70839" rx="10.7352" ry="5.70839" transform="matrix(0.990633 0.136552 -0.156025 0.987753 307.887 130.35)" fill="#3D2111"/>
</svg>
