<svg width="500" height="500" viewBox="0 0 500 500" fill="none" xmlns="http://www.w3.org/2000/svg">
<path d="M38.7927 304.978C33.2041 280.194 58.5348 267.721 71.8988 264.582L87.0849 324.416C73.3161 328.263 44.3812 329.762 38.7927 304.978Z" fill="#946C49"/>
<path d="M157.025 334.742C158.846 330.329 150.314 326.176 145.82 324.65L150.187 344.547C151.708 343.117 155.205 339.155 157.025 334.742Z" fill="#E3D5AF"/>
<path d="M106.524 337.174C101.421 336.688 98.7282 327.05 98.0195 322.292L151.475 309.535C141.513 315.124 143.477 320.368 145.704 322.292L161.498 354.79C164.333 362.788 171.46 377.934 177.292 374.532C184.581 370.28 183.063 391.845 170.003 395.793C159.554 398.952 153.298 394.477 151.475 391.845C142.465 378.683 124.018 350.72 122.318 344.16C120.192 335.959 112.902 337.782 106.524 337.174Z" fill="#946C49"/>
<path d="M159.675 233.3C191.748 224.795 214.548 205.256 221.939 196.549L258.689 306.801C244.414 295.563 177.594 301.638 173.038 303.46C169.394 304.918 114.824 317.837 87.9952 324.114C83.1356 324.417 75.239 315.609 68.2534 295.563C62.6648 279.527 68.3546 267.823 71.8981 263.976C87.793 257.294 127.601 241.804 159.675 233.3Z" fill="#E3D5AF"/>
<ellipse cx="256.295" cy="244.705" rx="27.7109" ry="84.4226" transform="rotate(-18.1102 256.295 244.705)" fill="#946C49"/>
<ellipse cx="258.092" cy="245.483" rx="17.5132" ry="76.4336" transform="rotate(-18.1102 258.092 245.483)" fill="#3C3394"/>
<mask id="mask0_273_2680" style="mask-type:alpha" maskUnits="userSpaceOnUse" x="229" y="172" width="59" height="147">
<ellipse cx="258.092" cy="245.483" rx="17.5132" ry="76.4336" transform="rotate(-18.1102 258.092 245.483)" fill="#898989"/>
</mask>
<g mask="url(#mask0_273_2680)">
<ellipse cx="247.025" cy="253.386" rx="12.7593" ry="54.9882" transform="rotate(-18.1102 247.025 253.386)" fill="#1E1674"/>
<path d="M249.88 230.1L235.301 234.959L248.057 272.621L262.94 267.154L249.88 230.1Z" fill="#946C49"/>
<mask id="mask1_273_2680" style="mask-type:alpha" maskUnits="userSpaceOnUse" x="235" y="230" width="28" height="43">
<path d="M249.88 230.1L235.301 234.959L248.057 272.621L262.94 267.154L249.88 230.1Z" fill="#D9D9D9"/>
</mask>
<g mask="url(#mask1_273_2680)">
<path d="M242.71 231.779L223.879 237.264L236.776 279.768L257.592 271.567C257.592 271.567 248.325 259.08 245.747 250.914C243.169 242.748 242.71 231.779 242.71 231.779Z" fill="#2E1DE4"/>
</g>
</g>
<path d="M264.58 245.447C268.01 255.936 267.8 265.589 263.678 266.937C259.556 268.285 253.083 260.818 249.653 250.329C246.222 239.84 246.564 231.201 250.686 229.853C254.807 228.505 261.149 234.958 264.58 245.447Z" fill="#E3D5AF"/>
<ellipse cx="257.738" cy="247.082" rx="3.92286" ry="12.8978" transform="rotate(-18.1102 257.738 247.082)" fill="#3C3394"/>
<path d="M382.728 118.209L258.504 228.461L387.891 130.965L382.728 118.209Z" fill="#7F82DC"/>
<path d="M436.506 251.861L270.655 260.833L431.207 239.161L436.506 251.861Z" fill="#7F82DC"/>
<path d="M459.212 171.905L262.755 246.012L447.028 158.886L459.212 171.905Z" fill="#7F82DC"/>
</svg>
