<svg width="500" height="500" viewBox="0 0 500 500" fill="none" xmlns="http://www.w3.org/2000/svg">
<rect x="133" y="69" width="233.155" height="10.0034" fill="#946C49"/>
<rect x="133" y="293.691" width="233.155" height="10.0034" fill="#946C49"/>
<rect x="142.234" y="79.0039" width="215.457" height="214.687" fill="white"/>
<path d="M173.015 424.888L202.64 301H209.949C199.561 341.398 178.17 422.964 175.708 426.042C173.246 429.12 172.886 426.555 173.015 424.888Z" fill="#9C7A67"/>
<path d="M319.216 424.888L289.59 301H282.282C292.669 341.398 314.06 422.964 316.523 426.042C318.985 429.12 319.344 426.555 319.216 424.888Z" fill="#9C7A67"/>
<path d="M247.146 427.481L249.065 300.114L241.882 300.114C241.961 341.827 242.626 424.342 244.251 427.933C245.876 431.524 246.858 429.128 247.146 427.481Z" fill="#9C7A67"/>
<path d="M216.872 125.942C216.872 131.954 214.968 137.812 211.434 142.677C207.9 147.541 202.917 151.161 197.199 153.019C191.481 154.877 185.321 154.877 179.603 153.019C173.884 151.161 168.901 147.541 165.367 142.677C161.833 137.812 159.93 131.954 159.93 125.942C159.93 119.929 161.833 114.071 165.367 109.207C168.901 104.343 173.885 100.722 179.603 98.8642C185.321 97.0062 191.481 97.0062 197.199 98.8642L188.401 125.942H216.872Z" fill="#B3ACFF"/>
<path d="M206.24 92.7876C211.985 94.5612 217.021 98.1081 220.626 102.92C224.231 107.732 226.221 113.561 226.309 119.573L197.841 119.992L206.24 92.7876Z" fill="#594999"/>
<rect x="233.801" y="97.4707" width="27.7016" height="3.84745" fill="#594999"/>
<rect x="227.645" y="142.1" width="27.7016" height="3.84745" fill="#B3ACFF"/>
<path d="M209.176 142.484L225.72 144.408" stroke="#946C49" stroke-width="0.769489"/>
<path d="M219.949 102.472L232.646 99.3945" stroke="#946C49" stroke-width="0.769489"/>
<rect x="287.668" y="101.318" width="48.4778" height="3.84745" fill="#B3ACFF"/>
<rect x="287.668" y="107.475" width="48.4778" height="3.84745" fill="#594999"/>
<rect x="287.668" y="113.631" width="48.4778" height="3.84745" fill="#B3ACFF"/>
<rect x="287.668" y="119.785" width="48.4778" height="3.84745" fill="#B3ACFF"/>
<rect x="287.668" y="125.941" width="48.4778" height="3.84745" fill="#594999"/>
<rect x="287.668" y="132.098" width="30.0101" height="3.84745" fill="#594999"/>
<rect x="287.668" y="138.254" width="30.0101" height="3.84745" fill="#594999"/>
<rect x="287.668" y="144.41" width="30.0101" height="3.84745" fill="#594999"/>
<rect x="164" y="235" width="11" height="46" fill="#594999"/>
<rect x="180" y="254" width="11" height="27" fill="#B3ACFF"/>
<rect x="196" y="238" width="11" height="43" fill="#B3ACFF"/>
<rect x="212" y="260" width="11" height="21" fill="#594999"/>
<rect x="228" y="220" width="11" height="61" fill="#B3ACFF"/>
<rect x="245" y="254" width="10" height="27" fill="#594999"/>
<rect x="261" y="227" width="11" height="54" fill="#B3ACFF"/>
<rect x="277" y="220" width="11" height="61" fill="#594999"/>
<rect x="293" y="263" width="11" height="18" fill="#B3ACFF"/>
<rect x="309" y="235" width="11" height="46" fill="#B3ACFF"/>
<rect x="325" y="254" width="11" height="27" fill="#594999"/>
<rect x="154.543" y="278.303" width="190.833" height="2.30847" fill="#2B2B2B"/>
<path d="M163.391 202.123L187.63 195.583L213.023 185.195L235.338 187.5L258.807 171.729L281.892 178.654L305.746 202.123L328 193" stroke="#B3ACFF" stroke-width="0.769489"/>
<path d="M183.398 211.357L209.176 207L233.03 193L270.735 198.66L306.517 184.425L321.137 163.648" stroke="#594999" stroke-width="0.769489"/>
<circle cx="186.863" cy="195.197" r="1.53898" fill="#B3ACFF"/>
<circle cx="208.406" cy="206.539" r="1.53898" fill="#594999"/>
<circle cx="233.031" cy="192.539" r="1.53898" fill="#594999"/>
<circle cx="270.734" cy="198.275" r="1.53898" fill="#594999"/>
<circle cx="306.902" cy="184.424" r="1.53898" fill="#594999"/>
<circle cx="320.754" cy="163.648" r="1.53898" fill="#594999"/>
<circle cx="163.777" cy="202.892" r="1.53898" fill="#B3ACFF"/>
<circle cx="183.785" cy="211.357" r="1.53898" fill="#594999"/>
<circle cx="213.023" cy="185.539" r="1.53898" fill="#B3ACFF"/>
<circle cx="235.34" cy="187.539" r="1.53898" fill="#B3ACFF"/>
<circle cx="258.426" cy="171.344" r="1.53898" fill="#B3ACFF"/>
<circle cx="282.277" cy="179.039" r="1.53898" fill="#B3ACFF"/>
<circle cx="306.133" cy="202.123" r="1.53898" fill="#B3ACFF"/>
<circle cx="327.68" cy="192.539" r="1.53898" fill="#B3ACFF"/>
</svg>
