<svg width="500" height="500" viewBox="0 0 500 500" fill="none" xmlns="http://www.w3.org/2000/svg">
<path d="M327.097 344.515C317.136 321.48 291.298 307.938 279.625 304.047L295.968 230.115C342.039 244.435 335.917 312.348 327.097 344.515Z" fill="#A099EB"/>
<mask id="mask0_273_2707" style="mask-type:alpha" maskUnits="userSpaceOnUse" x="279" y="230" width="55" height="115">
<path d="M327.097 344.515C317.136 321.48 291.298 307.938 279.625 304.047L295.968 230.115C342.039 244.435 335.917 312.348 327.097 344.515Z" fill="#959595"/>
</mask>
<g mask="url(#mask0_273_2707)">
<path d="M327.047 344.514C332.543 311.829 308.369 246.457 284.293 246.457L300.636 172.525C346.707 186.845 335.867 312.348 327.047 344.514Z" fill="#7E75D6"/>
</g>
<path d="M172.176 344.515C182.138 321.48 207.975 307.938 219.648 304.047L203.306 230.115C157.234 244.435 163.356 312.348 172.176 344.515Z" fill="#A099EB"/>
<mask id="mask1_273_2707" style="mask-type:alpha" maskUnits="userSpaceOnUse" x="166" y="230" width="54" height="115">
<path d="M172.176 344.515C182.138 321.48 207.975 307.938 219.648 304.047L203.306 230.115C157.234 244.435 163.356 312.348 172.176 344.515Z" fill="#959595"/>
</mask>
<g mask="url(#mask1_273_2707)">
<path d="M172.226 344.514C166.731 311.829 190.904 246.457 214.98 246.457L198.638 172.525C152.566 186.845 163.406 312.348 172.226 344.514Z" fill="#7E75D6"/>
</g>
<path d="M250.827 34C164.287 128.633 196.61 261.762 223.589 316.498H278.064C338.455 176.416 285.069 69.7986 250.827 34Z" fill="#EAE8FF"/>
<mask id="mask2_273_2707" style="mask-type:alpha" maskUnits="userSpaceOnUse" x="194" y="34" width="112" height="283">
<path d="M250.827 34C164.287 128.633 196.61 261.762 223.589 316.498H278.064C338.455 176.416 285.069 69.7986 250.827 34Z" fill="white"/>
</mask>
<g mask="url(#mask2_273_2707)">
<path d="M304.527 85.3634C260.323 104.041 220.218 93.1457 205.691 85.3634L237.599 9.875L304.527 85.3634Z" fill="#7E75D6"/>
<path d="M239.152 4.42578C319.31 172.524 270.207 261.242 255.495 332.061L281.873 343.734C342.083 175.482 307.637 62.0149 239.152 4.42578Z" fill="#686399" fill-opacity="0.29"/>
</g>
<path d="M278.846 316.498H223.591L218.922 329.728H282.737L278.846 316.498Z" fill="#2A2270"/>
<ellipse cx="250.827" cy="286.148" rx="5.44762" ry="57.5891" fill="#7E75D6"/>
<mask id="mask3_273_2707" style="mask-type:alpha" maskUnits="userSpaceOnUse" x="245" y="228" width="12" height="116">
<ellipse cx="250.827" cy="286.148" rx="5.44762" ry="57.5891" fill="#959595"/>
</mask>
<g mask="url(#mask3_273_2707)">
<ellipse cx="257.053" cy="286.148" rx="5.44762" ry="57.5891" fill="#746DBE"/>
</g>
<path d="M227.15 408.002C218.429 408.002 225.074 386.217 227.15 380.764C209.711 406.066 219.007 420.39 230.426 417.845C227.831 429.842 227.313 455.581 245.999 462.561C264.684 469.541 264.166 438.567 261.572 422.208C263.648 427.297 271.85 435.95 288.046 429.842C304.242 423.735 281.298 394.578 267.801 380.764C272.473 388.762 280.571 406.939 275.587 415.664C270.604 424.389 258.976 404.758 253.785 393.851L245.999 435.295C238.524 468.451 238.731 421.481 239.769 393.851C237.694 399.304 235.871 408.002 227.15 408.002Z" fill="#B7532E"/>
<path d="M230.427 400.375C224.325 400.375 225.705 389.479 227.158 384.032C214.957 409.309 227.884 410.544 235.873 408.002C234.057 419.987 233.695 445.7 246.768 452.673C259.841 459.646 259.479 428.703 257.664 412.36C259.117 417.445 264.855 426.088 276.186 419.987C287.518 413.885 271.465 384.758 262.022 370.957C265.291 378.947 270.957 397.106 267.47 405.823C263.983 414.539 255.848 394.927 252.216 384.032L246.768 425.435C241.538 458.557 241.684 411.634 242.41 384.032C240.958 389.479 236.528 400.375 230.427 400.375Z" fill="#F26C3B"/>
<circle cx="252.385" cy="157.736" r="25.6816" fill="#F26C3B"/>
<circle cx="252.383" cy="157.735" r="21.0122" fill="#FCB79D"/>
<mask id="mask4_273_2707" style="mask-type:alpha" maskUnits="userSpaceOnUse" x="231" y="136" width="43" height="43">
<circle cx="252.383" cy="157.735" r="21.0122" fill="#E2E2E2"/>
</mask>
<g mask="url(#mask4_273_2707)">
<circle cx="263.278" cy="173.299" r="21.0122" fill="#B7532E"/>
</g>
</svg>
