<svg width="1440" height="1024" viewBox="0 0 1440 1024" fill="none" xmlns="http://www.w3.org/2000/svg">
<g clip-path="url(#clip0_213_2121)">
<rect x="-6" y="24" width="1445" height="875" fill="url(#paint0_linear_213_2121)"/>
<rect x="279.867" y="765.893" width="1172.7" height="34.0507" transform="rotate(-110.082 279.867 765.893)" fill="#0F1043"/>
<rect x="265.658" y="771.087" width="1172.7" height="15.1336" transform="rotate(-110.082 265.658 771.087)" fill="#3032AB"/>
<rect width="1172.7" height="34.0507" transform="matrix(0.34336 -0.939204 -0.939204 -0.34336 1159.2 745.095)" fill="#0F1043"/>
<rect width="1172.7" height="15.1336" transform="matrix(0.34336 -0.939204 -0.939204 -0.34336 1173.41 750.29)" fill="#4042AF"/>
<rect x="-3" y="729" width="1440" height="214" fill="#14152F"/>
<rect x="-3" y="928" width="1445" height="93" fill="#41427A"/>
<path d="M916 928L369.202 1021H-3V928H916Z" fill="#101246"/>
<path d="M1473 -3L-40 -3V26.4732C901.497 98.4328 608.495 99.9146 1473 26.4732V-3Z" fill="#0F1043"/>
<rect width="1512.99" height="15.1336" transform="matrix(-1 0 0 1 1473 23.8662)" fill="#3032AB"/>
<path d="M1473 729H-40V699.527C901.497 627.567 608.495 626.085 1473 699.527V729Z" fill="#0F1043"/>
<rect x="1473" y="702.134" width="1512.99" height="15.1336" transform="rotate(-180 1473 702.134)" fill="#3032AB"/>
<rect x="1034.25" y="815.625" width="25" height="21.875" fill="#0A3333"/>
<rect x="1071.75" y="815.625" width="25" height="21.875" fill="#0A3333"/>
<rect x="1109.25" y="815.625" width="25" height="21.875" fill="#0A3333"/>
<rect x="1146.75" y="815.625" width="25" height="21.875" fill="#0A3333"/>
<rect x="1184.25" y="815.625" width="25" height="21.875" fill="#0A3333"/>
<rect x="1221.75" y="815.625" width="25" height="21.875" fill="#0A3333"/>
<rect x="1034.25" y="853.125" width="25" height="21.875" fill="#0A3333"/>
<rect x="1071.75" y="853.125" width="25" height="21.875" fill="#0A3333"/>
<rect x="1109.25" y="853.125" width="25" height="21.875" fill="#0A3333"/>
<rect x="1146.75" y="853.125" width="25" height="21.875" fill="#0A3333"/>
<rect x="1184.25" y="853.125" width="25" height="21.875" fill="#0A3333"/>
<rect x="1221.75" y="853.125" width="25" height="21.875" fill="#0A3333"/>
<rect x="753" y="815.625" width="6.25" height="25" fill="#0A3333"/>
<rect x="765.5" y="815.625" width="6.25" height="25" fill="#0A3333"/>
<rect x="778" y="815.625" width="6.25" height="25" fill="#0A3333"/>
<rect x="790.5" y="815.625" width="6.25" height="25" fill="#0A3333"/>
<rect x="803" y="815.625" width="6.25" height="25" fill="#0A3333"/>
<rect x="815.5" y="815.625" width="6.25" height="25" fill="#0A3333"/>
<rect x="828" y="815.625" width="6.25" height="25" fill="#0A3333"/>
<rect x="840.5" y="815.625" width="6.25" height="25" fill="#0A3333"/>
<rect x="853" y="815.625" width="6.25" height="25" fill="#0A3333"/>
<rect x="865.5" y="815.625" width="6.25" height="25" fill="#0A3333"/>
<rect x="878" y="815.625" width="6.25" height="25" fill="#0A3333"/>
<rect x="890.5" y="815.625" width="6.25" height="25" fill="#0A3333"/>
<rect x="903" y="815.625" width="6.25" height="25" fill="#0A3333"/>
<rect x="915.5" y="815.625" width="6.25" height="25" fill="#0A3333"/>
<rect x="928" y="815.625" width="6.25" height="25" fill="#0A3333"/>
<rect x="940.5" y="815.625" width="6.25" height="25" fill="#0A3333"/>
<rect x="953" y="815.625" width="6.25" height="25" fill="#0A3333"/>
<rect x="753" y="846.875" width="6.25" height="25" fill="#0A3333"/>
<rect x="765.5" y="846.875" width="6.25" height="25" fill="#0A3333"/>
<rect x="778" y="846.875" width="6.25" height="25" fill="#0A3333"/>
<rect x="790.5" y="846.875" width="6.25" height="25" fill="#0A3333"/>
<rect x="803" y="846.875" width="6.25" height="25" fill="#0A3333"/>
<rect x="815.5" y="846.875" width="6.25" height="25" fill="#0A3333"/>
<rect x="828" y="846.875" width="6.25" height="25" fill="#0A3333"/>
<rect x="840.5" y="846.875" width="6.25" height="25" fill="#0A3333"/>
<rect x="853" y="846.875" width="6.25" height="25" fill="#0A3333"/>
<rect x="865.5" y="846.875" width="6.25" height="25" fill="#0A3333"/>
<rect x="878" y="846.875" width="6.25" height="25" fill="#0A3333"/>
<rect x="890.5" y="846.875" width="6.25" height="25" fill="#0A3333"/>
<rect x="903" y="846.875" width="6.25" height="25" fill="#0A3333"/>
<rect x="915.5" y="846.875" width="6.25" height="25" fill="#0A3333"/>
<rect x="928" y="846.875" width="6.25" height="25" fill="#0A3333"/>
<rect x="940.5" y="846.875" width="6.25" height="25" fill="#0A3333"/>
<rect x="953" y="846.875" width="6.25" height="25" fill="#0A3333"/>
<rect x="753" y="750" width="59.375" height="15.625" fill="#0A3333"/>
<rect x="828" y="750" width="59.375" height="15.625" fill="#020811"/>
<rect x="903" y="750" width="59.375" height="15.625" fill="#494B0D"/>
<rect x="978" y="750" width="59.375" height="15.625" fill="#494B0D"/>
<rect x="1053" y="750" width="59.375" height="15.625" fill="#020811"/>
<rect x="1128" y="750" width="59.375" height="15.625" fill="#020811"/>
<rect x="1203" y="750" width="59.375" height="15.625" fill="#020811"/>
<path d="M1210.97 610H1374.86L1389 721.474H1196L1210.97 610Z" fill="#20194A"/>
<path d="M1223.5 619.983H1360.54L1372.36 713.155H1210.97L1223.5 619.983Z" fill="#594999"/>
<path d="M1235.93 743.103H1347.41L1389 721.474H1196L1235.93 743.103Z" fill="#0E0830"/>
<path d="M1235.93 743.103H1347.41L1367 927.784H1214L1235.93 743.103Z" fill="#594999"/>
<mask id="mask0_213_2121" style="mask-type:alpha" maskUnits="userSpaceOnUse" x="1206" y="619" width="162" height="94">
<path d="M1218.52 619H1355.56L1367.39 712.172H1206L1218.52 619Z" fill="#594999"/>
</mask>
<g mask="url(#mask0_213_2121)">
<path fill-rule="evenodd" clip-rule="evenodd" d="M1327.6 603L1290.79 746.798L1248.89 760.829L1285.87 611.544L1327.6 603ZM1265.17 611.57L1240.36 712.261L1222.03 714.441L1235.88 603.283L1265.17 611.57Z" fill="#D9D9D9" fill-opacity="0.2"/>
</g>
<rect x="1266" y="813" width="24" height="11" fill="#0E0830"/>
<rect x="1295" y="813" width="24" height="11" fill="#0E0830"/>
<path d="M1243.5 756H1339L1343 801.5H1238L1243.5 756Z" fill="#0E0830"/>
<path d="M1247.54 765.228H1272.36V769.046L1247 769L1247.54 765.228Z" fill="#352866"/>
<path d="M1278.09 765.228H1302.91V769.046H1278.09V765.228Z" fill="#352866"/>
<path d="M1308.64 765.228H1333.45L1334 769.5L1308.64 769.046V765.228Z" fill="#352866"/>
<path d="M1247.54 776.682H1259V784.318H1246.5L1247.54 776.682Z" fill="#352866"/>
<path d="M1262.82 776.682H1274.27V784.318H1262.82V776.682Z" fill="#352866"/>
<path d="M1278.09 776.682H1289.54V784.318H1278.09V776.682Z" fill="#352866"/>
<path d="M1293.36 776.682H1304.82V784.318H1293.36V776.682Z" fill="#352866"/>
<path d="M1308.64 776.682H1320.09V784.318H1308.64V776.682Z" fill="#352866"/>
<path d="M1323.91 776.682H1335.36L1336.5 784.318H1323.91V776.682Z" fill="#352866"/>
<path d="M1247.54 788.136H1259V795.773H1246.5L1247.54 788.136Z" fill="#352866"/>
<path d="M1262.82 788.136H1274.27V795.773H1262.82V788.136Z" fill="#352866"/>
<path d="M1278.09 788.136H1289.54V795.773H1278.09V788.136Z" fill="#352866"/>
<path d="M1293.36 788.136H1304.82V795.773H1293.36V788.136Z" fill="#352866"/>
<path d="M1308.64 788.136H1320.09V795.773H1308.64V788.136Z" fill="#352866"/>
<path d="M1323.91 788.136H1335.36L1336.5 795.773H1323.91V788.136Z" fill="#352866"/>
<path d="M1334.41 738C1323.91 764.904 1320.85 816 1339.4 836.259C1366.74 866.115 1428.89 869.346 1415.83 928" stroke="url(#paint1_linear_213_2121)" stroke-width="4"/>
<path d="M1320.8 738C1301.37 764.975 1295.3 793.102 1329.29 811.193C1366.49 830.986 1403.44 869.191 1379.27 928" stroke="url(#paint2_linear_213_2121)" stroke-width="4"/>
<rect x="-3" y="816" width="1440" height="205" fill="url(#paint3_linear_213_2121)"/>
<path d="M0 0H1440V1024H0V0Z" fill="url(#paint4_radial_213_2121)"/>
</g>
<defs>
<linearGradient id="paint0_linear_213_2121" x1="716.5" y1="24" x2="716.5" y2="899" gradientUnits="userSpaceOnUse">
<stop stop-color="#EDA5FF" stop-opacity="0.38"/>
<stop offset="1" stop-color="#AB73CD" stop-opacity="0"/>
</linearGradient>
<linearGradient id="paint1_linear_213_2121" x1="1371.8" y1="738" x2="1371.8" y2="928" gradientUnits="userSpaceOnUse">
<stop stop-color="#0E0830"/>
<stop offset="1" stop-color="#442EBC" stop-opacity="0.75"/>
</linearGradient>
<linearGradient id="paint2_linear_213_2121" x1="1346" y1="738" x2="1346" y2="928" gradientUnits="userSpaceOnUse">
<stop stop-color="#0E0830"/>
<stop offset="1" stop-color="#442EBC" stop-opacity="0.75"/>
</linearGradient>
<linearGradient id="paint3_linear_213_2121" x1="717" y1="816" x2="717" y2="1021" gradientUnits="userSpaceOnUse">
<stop stop-color="#071326" stop-opacity="0"/>
<stop offset="1" stop-color="#140C35" stop-opacity="0.66"/>
</linearGradient>
<radialGradient id="paint4_radial_213_2121" cx="0" cy="0" r="1" gradientUnits="userSpaceOnUse" gradientTransform="translate(720 512) rotate(90.6124) scale(1122.77 1578.9)">
<stop offset="0.166667" stop-color="#170153" stop-opacity="0"/>
<stop offset="0.416667" stop-color="#110448" stop-opacity="0.3375"/>
<stop offset="0.692708" stop-color="#060A33"/>
</radialGradient>
<clipPath id="clip0_213_2121">
<rect width="1440" height="1024" fill="white"/>
</clipPath>
</defs>
</svg>
