<svg width="2745" height="1160" viewBox="0 0 2745 1160" fill="none" xmlns="http://www.w3.org/2000/svg">
<g clip-path="url(#clip0_250_260)">
<rect x="-62" y="-24" width="2868" height="975" fill="url(#paint0_linear_250_260)"/>
<rect width="1334.9" height="39.06" transform="matrix(-0.346423 -0.938079 0.94031 -0.340318 868.773 873.182)" fill="#0F1043"/>
<rect width="1334.9" height="17.36" transform="matrix(-0.346423 -0.938079 0.94031 -0.340318 852.453 879.087)" fill="#3032AB"/>
<rect width="1334.9" height="18.3538" transform="matrix(-0.346423 -0.938079 0.94031 -0.340318 438.164 873.178)" fill="#0F1043"/>
<rect width="1334.9" height="620.787" transform="matrix(-0.346423 -0.938079 0.94031 -0.340318 -145.562 1084.44)" fill="#3032AB"/>
<rect width="1334.9" height="18.3538" transform="matrix(0.346423 -0.938079 -0.94031 -0.340318 2306.83 873.179)" fill="#0F1043"/>
<rect width="1334.9" height="620.787" transform="matrix(0.346423 -0.938079 -0.94031 -0.340318 2890.56 1084.44)" fill="#3032AB"/>
<rect width="1334.9" height="39.06" transform="matrix(0.346423 -0.938079 -0.94031 -0.340318 1878.66 849.533)" fill="#0F1043"/>
<rect width="1334.9" height="17.36" transform="matrix(0.346423 -0.938079 -0.94031 -0.340318 1894.98 855.439)" fill="#4042AF"/>
<path fill-rule="evenodd" clip-rule="evenodd" d="M2865 -54H-205V30H373.07V32.4968C1011.15 74.7088 1217.56 95.5901 1423.84 94.4465C1617.38 93.3737 1810.8 72.9148 2360.48 32.4968V30H2865V-54Z" fill="#0A0B3A"/>
<rect width="3152.54" height="17.0542" transform="matrix(-1 0 0 1 2947.65 29.6851)" fill="#3032AB"/>
<rect x="-204.891" y="811.62" width="3152.54" height="491.048" fill="#0F1043"/>
<path fill-rule="evenodd" clip-rule="evenodd" d="M2360.48 831.235L373.074 831.235H-204.891V800.537H373.073V797.725C558.072 785.487 706.784 775.041 829.728 766.406C1130.83 745.256 1277.37 734.963 1423.84 735.776C1562.72 736.545 1701.54 747.297 1971.97 768.243C2078.41 776.487 2205.24 786.31 2360.48 797.725V800.537H2947.64V831.235L2360.48 831.235Z" fill="#0F1043"/>
<rect x="2947.65" y="800.537" width="3152.53" height="17.0542" transform="rotate(-180 2947.65 800.537)" fill="#3032AB"/>
<path d="M0 0H2745V1160H0V0Z" fill="url(#paint1_radial_250_260)"/>
</g>
<defs>
<linearGradient id="paint0_linear_250_260" x1="1372" y1="-24" x2="1372" y2="951" gradientUnits="userSpaceOnUse">
<stop stop-color="#EDA5FF" stop-opacity="0.38"/>
<stop offset="1" stop-color="#AB73CD" stop-opacity="0"/>
</linearGradient>
<radialGradient id="paint1_radial_250_260" cx="0" cy="0" r="1" gradientUnits="userSpaceOnUse" gradientTransform="translate(1372.5 580) rotate(91.0304) scale(1272.03 3009.47)">
<stop offset="0.166667" stop-color="#170153" stop-opacity="0"/>
<stop offset="0.416667" stop-color="#110448" stop-opacity="0.3375"/>
<stop offset="0.692708" stop-color="#060A33"/>
</radialGradient>
<clipPath id="clip0_250_260">
<rect width="2745" height="1160" fill="white"/>
</clipPath>
</defs>
</svg>
