<svg width="1203" height="693" viewBox="0 0 1203 693" fill="none" xmlns="http://www.w3.org/2000/svg">
<circle cx="1026.59" cy="57.7368" r="2" fill="white"/>
<circle cx="970.508" cy="431.58" r="2" fill="white"/>
<circle cx="1201" cy="213" r="2" fill="white"/>
<circle cx="627.119" cy="2.73959" r="2" transform="rotate(-59.3975 627.119 2.73959)" fill="white"/>
<circle cx="3.53257" cy="456.558" r="2" transform="rotate(-59.3975 3.53257 456.558)" fill="white"/>
<circle cx="224.326" cy="389.978" r="2" transform="rotate(-59.3975 224.326 389.978)" fill="white"/>
<circle cx="665.911" cy="256.818" r="2" transform="rotate(-59.3975 665.911 256.818)" fill="white"/>
<circle cx="424.74" cy="584.978" r="2" transform="rotate(-59.3975 424.74 584.978)" fill="white"/>
<circle cx="509.793" cy="434" r="2" fill="white"/>
<circle cx="1193" cy="257" r="2" fill="white"/>
<circle cx="925" cy="625" r="2" fill="white"/>
<circle cx="660.919" cy="32.0247" r="2" transform="rotate(-59.3975 660.919 32.0247)" fill="white"/>
<circle cx="872.458" cy="401.765" r="2" transform="rotate(-59.3975 872.458 401.765)" fill="white"/>
<circle cx="58.6146" cy="69.3968" r="2" transform="rotate(-59.3975 58.6146 69.3968)" fill="white"/>
<circle cx="514.818" cy="383.79" r="2" transform="rotate(-59.3975 514.818 383.79)" fill="white"/>
<circle cx="768.74" cy="455.79" r="2" transform="rotate(-59.3975 768.74 455.79)" fill="white"/>
<path d="M527.156 688.126C528.107 688.688 528.422 689.914 527.859 690.865C527.297 691.816 526.071 692.131 525.12 691.568C524.169 691.006 523.854 689.78 524.417 688.829C524.979 687.878 526.205 687.563 527.156 688.126Z" fill="white"/>
<circle cx="1172" cy="234" r="2" fill="white"/>
<circle cx="1080" cy="578" r="2" fill="white"/>
<circle cx="409.638" cy="104.971" r="2" transform="rotate(-59.3975 409.638 104.971)" fill="white"/>
<circle cx="10.3607" cy="530.079" r="2" transform="rotate(-59.3975 10.3607 530.079)" fill="white"/>
<circle cx="282.74" cy="10.4969" r="2" transform="rotate(-59.3975 282.74 10.4969)" fill="white"/>
</svg>
